<?xml version="1.0" encoding="utf-8"?>
<!-- Generator: Adobe Illustrator 22.1.0, SVG Export Plug-In . SVG Version: 6.00 Build 0)  -->
<svg version="1.2" baseProfile="tiny" id="图层_1"
	 xmlns="http://www.w3.org/2000/svg" xmlns:xlink="http://www.w3.org/1999/xlink" x="0px" y="0px" viewBox="0 0 500 500"
	 xml:space="preserve">
<g>
	<polygon points="291,217.9 321.7,168.9 273.1,204.1 	"/>
	<polygon points="209,217.9 226.9,204.1 178.3,168.9 	"/>
	<path d="M454.9,231.1c-29-9.6-56.5-23.9-76.9-54.1c4.2-1.8,14.9-3,30.7-3.8c-8.6-3.8-16.8-9.3-24.3-16.3
		c60.4-29.7,83.7-66.8,73-110.7L320.4,94.1c-7.8-11.8-14.3-22.8-16.7-31.4c-2,7.7-7,13.5-12.8,18.9c-5.7-6-8.8-15.8-10.2-27.7
		c-0.7,5.3-2.3,12.2-9,20.1c-8.4-8-15.5-19.8-21.8-34c-6.3,14.1-13.4,26-21.8,34c-6.7-8-8.2-14.8-9-20.1
		c-1.5,11.9-4.5,21.6-10.2,27.7c-5.8-5.3-10.8-11.2-12.8-18.9c-2.3,8.6-8.8,19.6-16.7,31.4L42.5,46.3c-10.7,43.8,12.6,80.9,73,110.7
		c-7.6,7-15.7,12.5-24.3,16.3c15.8,0.8,26.5,2,30.7,3.8c-20.3,30.2-47.8,44.5-76.9,54.1c19.7,2.5,37.2,5.3,46.1,8.8
		c1,8.8-9.3,17.6-21.8,26.4c9.5,0.3,17,1.1,30.7-3.8c8.1-4.2,12.2-5.1,16.7-7.5c-1.2,8.5-4.9,17.3-10.2,26.4
		c14.1-3.4,26.6-5.9,33.3-5c-1.6,4.9-4.2,9.9-7.7,15.1c5.3-3.7,10.4-8,16.7-8.8c4.5,0.3,6.6,0.8,7.7,1.3
		c-1.4,7.6-6.4,15.1-12.8,22.6h29.5h1.3c9,10.7,18.7,20.3,26.9,25.1c-0.9,18.9,0.1,36.6,2.6,52.8c2.7,9.8,5.8,15.3,9,18.9
		c7.8,6.2,8.7,5.2,11.5,6.3c5.8-14.7,12.1-28.4,25.6-28.9c13.5,0.5,19.8,14.2,25.6,28.9c2.8-1,3.7-0.1,11.5-6.3
		c3.2-3.5,6.2-9,9-18.9c2.4-16.2,3.4-33.9,2.6-52.8c8.2-4.9,17.9-14.4,26.9-25.1h1.3h29.5c-6.4-7.5-11.4-15.1-12.8-22.6
		c1.1-0.4,3.2-1,7.7-1.3c6.3,0.8,11.4,5.1,16.7,8.8c-3.5-5.2-6.1-10.2-7.7-15.1c6.8-0.8,19.2,1.6,33.3,5
		c-5.4-9.1-9.1-17.9-10.2-26.4c4.8,2.5,9,4.8,16.7,8.8c14.1,5.5,21.2,2.6,30.7,2.5c-12.5-8.8-22.8-17.6-21.8-26.4
		C417.8,236.4,435.2,233.7,454.9,231.1z M422,264c-9,0-14-1.2-27.3-6.5c-7.2-3.8-11.2-6.1-15.7-8.5c1.1,8,1.9,17.4,7,26
		c-13.3-3.2-25.7-5.2-32.1-4.4c1.5,4.6,3.9,9.3,7.3,14.2c-5-3.5-9.8-7.5-15.7-8.3c-4.2,0.3-6.2,0.8-7.3,1.2
		c1.3,7.1,4.1,15.3,13,26.4l-25.8-1c-36.7-22.9-61.3-53.4-75.4-90.6c-12.7,40.7-37.2,69.5-75,90.6l-27,2c6-7.1,12.4-20.2,13.8-27.3
		c-1-0.4-3-0.9-7.3-1.2c-5.9,0.8-10.7,4.8-15.7,8.3c3.3-4.9,5.8-9.7,7.3-14.2c-6.4-0.8-18.1,1.5-31.4,4.7c5.1-8.6,6.1-17.3,7.3-25.3
		c-4.5,2.4-6.4,2.5-12.8,5c-13.3,5.2-23,8.9-32,8.8c11.8-8.3,24.1-19.4,23.1-27.7c-8.4-3.3-27.5-3.9-46.1-6.3
		c27.4-9,52.6-25.6,71.7-54.1c-4-1.7-13.3-3.1-28.2-3.8c8.2-3.6,18.4-7.5,25.5-14.2c-57-28-88.1-66.4-78.1-107.8l135.8,47.8
		c7.4-11.1,13.2-23.3,15.4-31.4c1.9,7.2,8.6,13.8,14.1,18.9c5.4-5.7,7.6-14,9-25.1c0.7,5,2.7,10.1,9,17.6
		C236.1,70.2,244,58.4,250,45c6,13.3,13.9,25.2,21.8,32.7c6.3-7.5,8.3-13.8,9-18.9c1.4,11.2,4.8,19.4,10.2,25.1
		c5.5-5,10.9-9.1,12.8-16.3c2.2,8.1,8,17.8,15.4,28.9l135.8-45.3c10.1,41.4-18.6,77.6-75.6,105.6c7.2,6.6,16.2,11.5,24.3,15.1
		c-14.9,0.7-25.5,2.1-29.5,3.8c19.2,28.5,44.3,45.1,71.7,54.1c-18.6,2.4-37.7,3-46.1,6.3C398.9,244.5,410.2,255.7,422,264z"/>
	<path d="M152.3,372c-22,12.2-32.2,22.8-34.6,26.4c-10.8,15.6,3.7,17.7,21.9,13.7c17.9-7.4,26.1-36.2,29.5-59.8
		C164.8,360.8,159.1,368.2,152.3,372z"/>
	<path d="M347.7,372c-6.7-3.7-12.5-11.1-16.8-19.8c3.5,23.6,11.6,52.5,29.5,59.8c18.2,4,32.7,2,21.9-13.7
		C379.8,394.7,369.7,384.2,347.7,372z"/>
	<path d="M213.8,433.5c-14,7.7-20.5,14.4-22.1,16.7c-6.9,9.9,2.3,11.2,14,8.7c11.4-4.7,16.6-22.9,18.9-37.9
		C221.8,426.5,218.1,431.1,213.8,433.5z"/>
	<path d="M288.3,433.5c-4.3-2.4-8-7-10.7-12.5c2.2,15,7.4,33.2,18.9,37.9c11.6,2.5,20.9,1.2,14-8.7
		C308.8,447.9,302.3,441.2,288.3,433.5z"/>
</g>
</svg>
