<?xml version="1.0" encoding="utf-8"?>
<!-- Generator: Adobe Illustrator 22.1.0, SVG Export Plug-In . SVG Version: 6.00 Build 0)  -->
<svg version="1.1" id="图层_1" xmlns="http://www.w3.org/2000/svg" xmlns:xlink="http://www.w3.org/1999/xlink" x="0px" y="0px"
	 viewBox="0 0 500 500" style="enable-background:new 0 0 500 500;" xml:space="preserve">
<g>
	<path d="M196.9,187c0-2.8,0.4-5.5,1.2-8h-5.8h-6.5h-20.8v16h20.8c3,15,14.5,27,29.2,30.7V459h10V215
		C209.5,215,196.9,202.5,196.9,187z"/>
	<path d="M217.5,41v46.8c-52,3.7-93.2,46.1-95.1,98.4H84.9v14.9h37.9h8.7h4.2c-0.5-3.7-0.7-7.4-0.7-11.2c0-49.5,40.2-89.6,89.8-89.6
		c0,0,0.1,0,0.1,0V41H217.5z"/>
</g>
<g>
	<path d="M303.1,187c0-2.8-0.4-5.5-1.2-8h5.8h6.5h20.8v16h-20.8c-3,15-14.5,27-29.2,30.7V459h-10V215
		C290.5,215,303.1,202.5,303.1,187z"/>
	<path d="M282.5,41v46.8c52,3.7,93.2,46.1,95.1,98.4h37.5v14.9h-37.9h-8.7h-4.2c0.5-3.7,0.7-7.4,0.7-11.2
		c0-49.5-40.2-89.6-89.8-89.6c0,0-0.1,0-0.1,0V41H282.5z"/>
</g>
</svg>
