<?xml version="1.0" encoding="utf-8"?>
<!-- Generator: Adobe Illustrator 22.1.0, SVG Export Plug-In . SVG Version: 6.00 Build 0)  -->
<svg version="1.1" id="图层_1" xmlns="http://www.w3.org/2000/svg" xmlns:xlink="http://www.w3.org/1999/xlink" x="0px" y="0px"
	 viewBox="0 0 500 500" style="enable-background:new 0 0 500 500;" xml:space="preserve">
<g>
	<path d="M154.7,158.1c-0.1-1.9-0.2-3.7-0.2-5.6c0-52.8,42.9-95.6,95.8-95.6s95.8,42.8,95.8,95.6c0,1.9-0.1,3.8-0.2,5.6h16.9
		c0.1-1.9,0.1-3.7,0.1-5.6C363,90.3,312.6,40,250.3,40S137.6,90.3,137.6,152.4c0,1.9,0,3.8,0.1,5.6H154.7z"/>
	<path d="M383,264.7l-91.3-91.1c1.9-3.7,3.4-7.7,4.3-11.9h23.6v-18.1h-23.6h-7.4h-6.6c0.9,2.9,1.3,5.9,1.3,9
		c0,17.5-14.2,31.6-31.8,31.6s-31.8-14.2-31.8-31.6c0-3.1,0.5-6.2,1.3-9h-6.6h-7.4h-23.6v18.1h23.6c0.7,3.5,1.9,6.8,3.3,10l-93.3,93
		l15.9,15.9l91.7-91.5c4.6,3.3,9.8,5.9,15.4,7.3V460h22.7V196.4c5-1.3,9.6-3.4,13.7-6.1l90.5,90.3L383,264.7z"/>
</g>
</svg>
