<?xml version="1.0" encoding="utf-8"?>
<!-- Generator: Adobe Illustrator 22.1.0, SVG Export Plug-In . SVG Version: 6.00 Build 0)  -->
<svg version="1.1" id="图层_1" xmlns="http://www.w3.org/2000/svg" xmlns:xlink="http://www.w3.org/1999/xlink" x="0px" y="0px"
	 viewBox="0 0 500 500" style="enable-background:new 0 0 500 500;" xml:space="preserve">
<path d="M185.2,90v90.4c-9.3,4.5-15.6,14-15.6,25.1c0,15.4,12.5,28,27.7,28c15.3,0,27.7-12.4,27.7-28c0-10.3-5.5-19.3-13.9-24.1
	V90.2h-25.9V90z"/>
<path d="M314.8,90.2h-25.9v91.2c-8.3,4.7-13.9,13.8-13.9,24.1c0,15.6,12.5,28,27.7,28s27.7-12.6,27.7-28c0-11-6.3-20.5-15.6-25.1V90
	V90.2z"/>
<path d="M322.7,410V280c29.4-7.5,52.2-31.2,58.2-60.9h41.5v-31.7h-41.5h-13h-11.6c1.5,5,2.3,10.3,2.3,15.9c0,30.7-25,55.5-55.9,55.5
	V410H322.7z"/>
<path d="M177.3,280v130h19.9V258.7c-30.9,0-55.9-24.9-55.9-55.5c0-5.5,0.8-10.8,2.3-15.9h-11.6h-13H77.6V219h41.5
	C125.1,248.8,148,272.5,177.3,280z"/>
</svg>
