<?xml version="1.0" encoding="utf-8"?>
<!-- Generator: Adobe Illustrator 22.1.0, SVG Export Plug-In . SVG Version: 6.00 Build 0)  -->
<svg version="1.1" id="图层_1" xmlns="http://www.w3.org/2000/svg" xmlns:xlink="http://www.w3.org/1999/xlink" x="0px" y="0px"
	 viewBox="0 0 500 500" style="enable-background:new 0 0 500 500;" xml:space="preserve">
<path d="M242.2,40v58.2c-6,2.9-10.1,9-10.1,16.1c0,9.9,8,18,17.8,18s17.8-8,17.8-18c0-6.6-3.6-12.4-8.9-15.5V40.1h-16.7V40z"/>
<path d="M291.9,102.6h-7.5c1,3.2,1.5,6.7,1.5,10.2c0,19.7-16.1,35.7-35.9,35.7s-35.9-16-35.9-35.7c0-3.5,0.5-7,1.5-10.2h-7.5h-8.4
	H173v20.4h26.7c3.9,19.1,18.6,34.4,37.5,39.2V460h25.7V162.3c18.9-4.8,33.6-20.1,37.5-39.2H327v-20.4h-26.7H291.9z"/>
</svg>
