<?xml version="1.0" encoding="utf-8"?>
<!-- Generator: Adobe Illustrator 22.1.0, SVG Export Plug-In . SVG Version: 6.00 Build 0)  -->
<svg version="1.1" id="图层_1" xmlns="http://www.w3.org/2000/svg" xmlns:xlink="http://www.w3.org/1999/xlink" x="0px" y="0px"
	 viewBox="0 0 500 500" style="enable-background:new 0 0 500 500;" xml:space="preserve">
<g>
	<path d="M90,277.1c0,2.3,0.1,4.6,0.2,6.8h20.4c-0.1-2.3-0.2-4.5-0.2-6.8c0-64.1,51.6-116.1,115.3-116.1v-20.5
		C150.7,140.5,90,201.7,90,277.1z"/>
	<path d="M187.6,264.8c0-3.8,0.6-7.5,1.6-10.9h-7.9h-8.9h-28.2v21.9h28.2c5,24.9,26.9,43.7,53.2,43.7v-16.4
		C204.6,303.1,187.6,286,187.6,264.8z"/>
	<path d="M274.4,140.5V161c63.7,0,115.3,52,115.3,116.1c0,2.3-0.1,4.6-0.2,6.8h20.4c0.1-2.3,0.2-4.5,0.2-6.8
		C410,201.7,349.3,140.5,274.4,140.5z"/>
	<path d="M318.7,253.9h-7.9c1,3.5,1.6,7.1,1.6,10.9c0,21.1-17,38.3-38,38.3v16.4c26.2,0,48.1-18.8,53.2-43.7h28.2v-21.9h-28.2H318.7
		z"/>
</g>
</svg>
