<?xml version="1.0" encoding="utf-8"?>
<!-- Generator: Adobe Illustrator 22.1.0, SVG Export Plug-In . SVG Version: 6.00 Build 0)  -->
<svg version="1.1" id="图层_1" xmlns="http://www.w3.org/2000/svg" xmlns:xlink="http://www.w3.org/1999/xlink" x="0px" y="0px"
	 viewBox="0 0 500 500" style="enable-background:new 0 0 500 500;" xml:space="preserve">
<g>
	<path d="M286.8,195.1h23.6c-0.6,5.9-2.1,11.5-4.3,16.8h10c2.6-7.3,4-15.1,4-23.3c0-8.2-1.4-16-4-23.3h-10
		c2.2,5.3,3.7,10.9,4.3,16.8h-23.6H278h-5.6c0.6,2.1,0.9,4.3,0.9,6.5c0,12.9-10.4,23.3-23.3,23.3s-23.3-10.4-23.3-23.3
		c0-2.3,0.3-4.4,0.9-6.5h-9.3h-5h-23.6c0.6-5.9,2.1-11.5,4.3-16.8h-10c-2.6,7.3-4,15.1-4,23.3c0,8.2,1.4,16,4,23.3h10
		c-2.2-5.3-3.7-10.9-4.3-16.8h23.6c0.9,5,2.8,9.6,5.4,13.7L146.3,281l10.6,10.5l72.3-72.1c4,2.7,8.5,4.6,13.4,5.6v235h14.9V225
		c4.9-1,9.4-2.9,13.4-5.6l72.3,72.1l10.6-10.5l-72.4-72.2C284,204.7,285.9,200,286.8,195.1z"/>
	<path d="M243.9,129.4v45.8c-4.7,2.3-7.9,7.1-7.9,12.7c0,7.8,6.3,14.2,14,14.2c7.7,0,14-6.3,14-14.2c0-5.2-2.8-9.8-7-12.2v-46.2
		H243.9z"/>
	<path d="M352.6,185.3c-1.9-52.4-43.1-94.7-95.1-98.4V40h-14.9v46.8c-52,3.7-93.2,46.1-95.1,98.4H110v14.9h37.9h8.7h4.2
		c-0.5-3.7-0.7-7.4-0.7-11.2c0-49.5,40.2-89.6,89.8-89.6s89.8,40.1,89.8,89.6c0,3.8-0.2,7.5-0.7,11.2h6.1h6.9H390v-14.9H352.6z"/>
</g>
</svg>
