<?xml version="1.0" encoding="utf-8"?>
<!-- Generator: Adobe Illustrator 22.1.0, SVG Export Plug-In . SVG Version: 6.00 Build 0)  -->
<svg version="1.1" id="图层_1" xmlns="http://www.w3.org/2000/svg" xmlns:xlink="http://www.w3.org/1999/xlink" x="0px" y="0px"
	 viewBox="0 0 500 500" style="enable-background:new 0 0 500 500;" xml:space="preserve">
<g>
	<path d="M353.3,184.9v0.1c-1.9-52.7-43.4-95.2-95.8-98.9V39h-15v47c-52.4,3.7-93.9,46.3-95.8,98.9H109v15h38.2h8.8h4.2
		c-0.5-3.7-0.7-7.4-0.7-11.3c0-49.7,40.5-90,90.4-90s90.4,40.3,90.4,90c0,3.8-0.2,7.5-0.7,11.3h6.1h6.9H391v-15H353.3z"/>
	<path d="M282.9,177.7H277c0.8,2.5,1.2,5.2,1.2,8c0,15.5-12.6,28.1-28.2,28.1s-28.2-12.6-28.2-28.1c0-2.8,0.4-5.5,1.2-8h-5.9h-6.6
		h-21v16.1h21c3.1,15.1,14.6,27.1,29.4,30.9V459h20.1V224.6c14.8-3.8,26.3-15.8,29.4-30.9h21v-16.1h-21H282.9z"/>
</g>
</svg>
