<?xml version="1.0" encoding="utf-8"?>
<!-- Generator: Adobe Illustrator 22.1.0, SVG Export Plug-In . SVG Version: 6.00 Build 0)  -->
<svg version="1.1" id="图层_1" xmlns="http://www.w3.org/2000/svg" xmlns:xlink="http://www.w3.org/1999/xlink" x="0px" y="0px"
	 viewBox="0 0 500 500" style="enable-background:new 0 0 500 500;" xml:space="preserve">
<path d="M301,40h-8.8c1.1,3.8,1.8,7.8,1.8,12c0,23.2-18.8,42-42.1,42s-42.1-18.8-42.1-42c0-4.2,0.6-8.2,1.8-12h-8.8H193h-31.2v24
	H193c4.6,22.5,21.8,40.4,43.9,46.1V460h30V110.1c22.1-5.7,39.3-23.6,43.9-46.1H342V40h-31.2H301z"/>
<rect x="132.9" y="58.5" transform="matrix(0.7068 0.7074 -0.7074 0.7068 148.0358 -61.1842)" width="29.8" height="179.1"/>
<rect x="337.2" y="58.5" transform="matrix(-0.7068 0.7074 -0.7074 -0.7068 705.7785 3.4626)" width="29.8" height="179.1"/>
</svg>
