<?xml version="1.0" encoding="utf-8"?>
<!-- Generator: Adobe Illustrator 22.1.0, SVG Export Plug-In . SVG Version: 6.00 Build 0)  -->
<svg version="1.1" id="图层_1" xmlns="http://www.w3.org/2000/svg" xmlns:xlink="http://www.w3.org/1999/xlink" x="0px" y="0px"
	 viewBox="0 0 500 500" style="enable-background:new 0 0 500 500;" xml:space="preserve">
<path d="M305.5,0H194.5L86,181.7L169,500h162l83-318.3L305.5,0z M349.8,302.5l-77.4-77.2c-4.3,2.9-9.1,5-14.3,6V483h-16V231.2
	c-5.2-1.1-10.1-3.1-14.3-6l-77.4,77.2l-11.3-11.3l77.5-77.4c-2.9-4.4-4.9-9.4-5.8-14.7h-25.2c0.7,6.3,2.3,12.3,4.6,18h-10.7
	c-2.8-7.8-4.3-16.2-4.3-24.9c0-8.7,1.5-17.1,4.3-24.9H190c-2.4,5.6-3.9,11.7-4.6,18h25.2h5.4h10c-0.6,2.2-1,4.6-1,7
	c0,13.8,11.2,24.9,25,24.9s25-11.2,25-24.9c0-2.4-0.4-4.8-1-7h6h9.4h25.2c-0.7-6.3-2.3-12.3-4.6-18h10.7c2.8,7.8,4.3,16.2,4.3,24.9
	c0,8.7-1.5,17.1-4.3,24.9H310c2.4-5.6,3.9-11.7,4.6-18h-25.2c-0.9,5.3-3,10.3-5.8,14.7l77.5,77.4L349.8,302.5z M265,191.5
	c0,8.4-6.7,15.2-15,15.2s-15-6.8-15-15.2c0-6,3.5-11.2,8.5-13.6v-49h14v49.5C262,181,265,185.8,265,191.5z M359.3,204.6H352h-6.5
	c0.5-3.9,0.7-7.9,0.7-12c0-53-43.1-96-96.3-96s-96.3,43-96.3,96c0,4.1,0.3,8.1,0.7,12H150h-9.3H100v-16h40.1
	c2-56.1,46.2-101.5,101.9-105.5V33h16v50.2c55.7,4,99.9,49.4,101.9,105.5H400v16H359.3z"/>
</svg>
