<?xml version="1.0" encoding="utf-8"?>
<!-- Generator: Adobe Illustrator 22.1.0, SVG Export Plug-In . SVG Version: 6.00 Build 0)  -->
<svg version="1.1" id="图层_1" xmlns="http://www.w3.org/2000/svg" xmlns:xlink="http://www.w3.org/1999/xlink" x="0px" y="0px"
	 viewBox="0 0 500 500" style="enable-background:new 0 0 500 500;" xml:space="preserve">
<path d="M242.2,40v58.2c-6,2.9-10,9-10,16.1c0,9.9,8,18,17.8,18c9.8,0,17.8-8,17.8-18c0-6.6-3.6-12.5-8.9-15.5V40.1h-16.6V40z"/>
<path d="M333.9,85.6h-12.7c2.8,6.7,4.7,13.8,5.5,21.3h-30h-11.2h-7.1c0.8,2.7,1.1,5.5,1.1,8.3c0,16.4-13.2,29.6-29.6,29.6
	s-29.6-13.2-29.6-29.6c0-2.9,0.4-5.6,1.1-8.3h-11.8h-6.4h-30c0.8-7.5,2.7-14.6,5.5-21.3h-12.7c-3.3,9.3-5.1,19.2-5.1,29.6
	c0,10.4,1.8,20.3,5.1,29.6h12.7c-2.8-6.7-4.7-13.8-5.5-21.3H200h3.3h0.6c3.6,18.6,18.2,33.2,36.7,37v1h0V460h18.9V164.4v-2.9v-1
	c18.5-3.8,33.1-18.4,36.7-37h0.6h3.3h26.7c-0.8,7.5-2.7,14.6-5.5,21.3h12.7c3.3-9.3,5.1-19.2,5.1-29.6
	C339,104.8,337.2,94.9,333.9,85.6z"/>
</svg>
