<?xml version="1.0" encoding="utf-8"?>
<!-- Generator: Adobe Illustrator 22.1.0, SVG Export Plug-In . SVG Version: 6.00 Build 0)  -->
<svg version="1.1" id="图层_1" xmlns="http://www.w3.org/2000/svg" xmlns:xlink="http://www.w3.org/1999/xlink" x="0px" y="0px"
	 viewBox="0 0 500 500" style="enable-background:new 0 0 500 500;" xml:space="preserve">
<path d="M296.8,123.4h30c-0.8,7.5-2.7,14.6-5.5,21.3H334c3.3-9.3,5.1-19.2,5.1-29.6c0-10.4-1.8-20.3-5.1-29.6h-12.7
	c2.8,6.7,4.7,13.8,5.5,21.3h-30h-11.1h-7.1c0.8,2.6,1.2,5.4,1.2,8.3c0,16.3-13.3,29.6-29.7,29.6s-29.7-13.2-29.7-29.6
	c0-2.9,0.4-5.7,1.2-8.3h-11.9h-6.4h-30c0.8-7.5,2.7-14.6,5.5-21.3H166c-3.3,9.3-5.1,19.2-5.1,29.6c0,10.4,1.8,20.3,5.1,29.6h12.7
	c-2.8-6.7-4.7-13.8-5.5-21.3h30c1.1,6.3,3.5,12.2,6.9,17.4L118,232.6l13.4,13.4l92-91.6c5.1,3.4,10.8,5.9,17.1,7.1V460h19V161.5
	c6.2-1.3,12-3.7,17.1-7.1l92,91.6l13.4-13.4l-92.1-91.7C293.3,135.7,295.7,129.8,296.8,123.4z"/>
<path d="M242.3,40v58.1c-6,2.9-10.1,9-10.1,16.2c0,9.9,8,18,17.8,18c9.8,0,17.8-8,17.8-18c0-6.7-3.6-12.4-8.9-15.6V40H242.3z"/>
</svg>
