<?xml version="1.0" encoding="utf-8"?>
<!-- Generator: Adobe Illustrator 22.1.0, SVG Export Plug-In . SVG Version: 6.00 Build 0)  -->
<svg version="1.1" id="图层_1" xmlns="http://www.w3.org/2000/svg" xmlns:xlink="http://www.w3.org/1999/xlink" x="0px" y="0px"
	 viewBox="0 0 500 500" style="enable-background:new 0 0 500 500;" xml:space="preserve">
<g>
	<path d="M283.5,175.7h-5.9c0.8,2.6,1.2,5.3,1.2,8.1c0,15.7-12.8,28.4-28.5,28.4c-15.7,0-28.5-12.7-28.5-28.4c0-2.8,0.4-5.5,1.2-8.1
		H217h-6.6h-21.2V192h21.2c3.1,15.2,14.7,27.4,29.7,31.2V460h20.3V223.2c15-3.8,26.6-16,29.7-31.2h21.2v-16.2h-21.2H283.5z"/>
	<path d="M258.1,85.8V40h-16.2v45.8c-52,4.1-92.9,47.6-92.9,100.7c0,1.7,0,3.4,0.1,5.1h15.2c-0.1-1.7-0.2-3.4-0.2-5.1
		c0-47.4,38.4-85.9,85.9-85.9s85.9,38.5,85.9,85.9c0,1.7-0.1,3.4-0.2,5.1h15.2c0.1-1.7,0.1-3.4,0.1-5.1
		C351,133.4,310.1,89.9,258.1,85.8z"/>
</g>
</svg>
