<?xml version="1.0" encoding="utf-8"?>
<!-- Generator: Adobe Illustrator 22.1.0, SVG Export Plug-In . SVG Version: 6.00 Build 0)  -->
<svg version="1.1" id="图层_1" xmlns="http://www.w3.org/2000/svg" xmlns:xlink="http://www.w3.org/1999/xlink" x="0px" y="0px"
	 viewBox="0 0 500 500" style="enable-background:new 0 0 500 500;" xml:space="preserve">
<path d="M186,52c0-4.2,0.6-8.2,1.8-12H179h-9.8h-31.1v24h31.1c1.3,6.6,3.8,12.8,7.1,18.4L85,174l16.9,17l90.5-90.7
	c6.1,4.5,13.1,7.9,20.6,9.8V460h15V94C204.7,94,186,75.2,186,52z"/>
<path d="M314,52c0-4.2-0.6-8.2-1.8-12h8.8h9.8h31.1v24h-31.1c-1.3,6.6-3.8,12.8-7.1,18.4L415,174l-16.9,17l-90.5-90.7
	c-6.1,4.5-13.1,7.9-20.6,9.8V460h-15V94C295.3,94,314,75.2,314,52z"/>
</svg>
