<?xml version="1.0" encoding="utf-8"?>
<!-- Generator: Adobe Illustrator 22.1.0, SVG Export Plug-In . SVG Version: 6.00 Build 0)  -->
<svg version="1.1" id="图层_1" xmlns="http://www.w3.org/2000/svg" xmlns:xlink="http://www.w3.org/1999/xlink" x="0px" y="0px"
	 viewBox="0 0 500 500" style="enable-background:new 0 0 500 500;" xml:space="preserve">
<path d="M387,172v-20.4h-69.3c-4.5-29.5-27.9-52.7-57.5-57.2V81.4c18.7-4.5,32.5-21.1,32.5-40.9c0-0.1,0-0.3,0-0.4h-16.7
	c0,0.3,0,0.6,0,0.8c0,14-11.5,25.3-25.7,25.3c-14.2,0-25.7-11.3-25.7-25.3c0-0.3,0-0.6,0-0.8h-17.6c0,0.1,0,0.3,0,0.4
	c0,19.8,13.9,36.4,32.5,40.9v13.1c-29.6,4.4-53,27.7-57.5,57.2H113V172h69.3c1.7,11.4,6.3,21.8,12.9,30.6l-65,92.4l16.8,11.7
	l63.1-89.7c8.6,6.2,18.7,10.4,29.7,12V460h20.5V229.2c11-1.6,21-5.9,29.7-12l63.1,89.7l16.8-11.7l-65-92.4
	c6.6-8.8,11.2-19.3,12.9-30.6H387z M250,110.7c28.4,0,51.4,22.9,51.4,51.1s-23,51.1-51.4,51.1s-51.4-22.9-51.4-51.1
	S221.6,110.7,250,110.7z"/>
</svg>
