<?xml version="1.0" encoding="utf-8"?>
<!-- Generator: Adobe Illustrator 22.1.0, SVG Export Plug-In . SVG Version: 6.00 Build 0)  -->
<svg version="1.1" id="图层_1" xmlns="http://www.w3.org/2000/svg" xmlns:xlink="http://www.w3.org/1999/xlink" x="0px" y="0px"
	 viewBox="0 0 500 500" style="enable-background:new 0 0 500 500;" xml:space="preserve">
<g>
	<g>
		<ellipse cx="250" cy="191.8" rx="46.9" ry="51.1"/>
	</g>
	<g>
		<path d="M305.8,0H194.2L85,181.7L168.5,500h162.9L415,181.7L305.8,0z M359.4,325.1L344,336.8l-57.6-89.7
			c-7.9,6.2-17.1,10.4-27.1,12V490h-18.8V259.2c-10-1.6-19.2-5.9-27.1-12L156,336.8l-15.4-11.7l59.3-92.4
			c-6.1-8.8-10.2-19.3-11.8-30.6H125v-20.4h63.2c4.1-29.5,25.4-52.7,52.4-57.2v-13.1c-17-4.5-29.7-21.1-29.7-40.9c0-0.1,0-0.3,0-0.4
			h16c0,0.3,0,0.6,0,0.8c0,14,10.5,25.3,23.4,25.3s23.4-11.3,23.4-25.3c0-0.3,0-0.6,0-0.8h15.2c0,0.1,0,0.3,0,0.4
			c0,19.8-12.6,36.4-29.7,40.9v13.1c27,4.4,48.4,27.7,52.4,57.2H375V202h-63.2c-1.6,11.4-5.7,21.8-11.8,30.6L359.4,325.1z"/>
	</g>
</g>
</svg>
