<?xml version="1.0" encoding="utf-8"?>
<!-- Generator: Adobe Illustrator 22.1.0, SVG Export Plug-In . SVG Version: 6.00 Build 0)  -->
<svg version="1.1" id="图层_1" xmlns="http://www.w3.org/2000/svg" xmlns:xlink="http://www.w3.org/1999/xlink" x="0px" y="0px"
	 viewBox="0 0 500 500" style="enable-background:new 0 0 500 500;" xml:space="preserve">
<g>
	<path d="M239,138.8V203h22v-64.2c22.3-5,39-24.9,39-48.8c0-27.6-22.4-50-50-50s-50,22.4-50,50C200,113.8,216.7,133.8,239,138.8z
		 M250,55c19.3,0,35,15.7,35,35s-15.7,35-35,35s-35-15.7-35-35S230.7,55,250,55z"/>
	<rect x="239" y="340" width="22" height="120"/>
	<path d="M250,247c-12.7,0-23,10.3-23,23s10.3,23,23,23s23-10.3,23-23S262.7,247,250,247z M250,280c-5.5,0-10-4.5-10-10
		s4.5-10,10-10s10,4.5,10,10S255.5,280,250,280z"/>
	<rect x="138" y="259" width="40" height="22"/>
	<rect x="322" y="259" width="40" height="22"/>
	<rect x="281.1" y="173" transform="matrix(0.7071 -0.7071 0.7071 0.7071 -36.0706 280.9178)" width="80" height="22"/>
	<rect x="167.9" y="144" transform="matrix(0.7071 -0.7071 0.7071 0.7071 -77.6981 180.4203)" width="22" height="80"/>
</g>
</svg>
