<?xml version="1.0" encoding="utf-8"?>
<!-- Generator: Adobe Illustrator 22.1.0, SVG Export Plug-In . SVG Version: 6.00 Build 0)  -->
<svg version="1.1" id="图层_1" xmlns="http://www.w3.org/2000/svg" xmlns:xlink="http://www.w3.org/1999/xlink" x="0px" y="0px"
	 viewBox="0 0 500 500" style="enable-background:new 0 0 500 500;" xml:space="preserve">
<g>
	<path d="M207.1,288.2c-8.7,1.9-17,5-24.7,9.1l-70.7-70.8L92,246.2l67.9,68c-16.9,17.1-27.4,40.7-27.4,66.7h18.9
		c0-41.9,33.9-75.9,75.8-75.9v-8.9V286v-78.4h-20.2V288.2z"/>
	<path d="M198.2,380.9c0,16.1,13,29.1,29,29.1v-16.4c-7,0-12.6-5.7-12.6-12.6c0-7,5.7-12.6,12.6-12.6v-16.4
		C211.2,351.8,198.2,364.8,198.2,380.9z"/>
	<path d="M164.1,153.2h18.9c0-24.4,19.8-44.3,44.2-44.3V90C192.4,90,164.1,118.3,164.1,153.2z"/>
	<path d="M408,246.2l-19.6-19.7l-70.7,70.8c-7.7-4.1-16-7.2-24.7-9.1v-80.6h-20.2V286v10.1v8.9c41.8,0,75.8,34,75.8,75.9h18.9
		c0-26-10.4-49.5-27.4-66.7L408,246.2z"/>
	<path d="M272.7,351.8v16.4c7,0,12.6,5.7,12.6,12.6c0,7-5.7,12.6-12.6,12.6V410c16,0,29-13,29-29.1
		C301.8,364.8,288.8,351.8,272.7,351.8z"/>
	<path d="M316.9,153.2h18.9c0-34.9-28.3-63.2-63.1-63.2v19C297.1,109,316.9,128.8,316.9,153.2z"/>
</g>
</svg>
