<?xml version="1.0" encoding="utf-8"?>
<!-- Generator: Adobe Illustrator 22.1.0, SVG Export Plug-In . SVG Version: 6.00 Build 0)  -->
<svg version="1.1" id="图层_1" xmlns="http://www.w3.org/2000/svg" xmlns:xlink="http://www.w3.org/1999/xlink" x="0px" y="0px"
	 viewBox="0 0 500 500" style="enable-background:new 0 0 500 500;" xml:space="preserve">
<g>
	<path d="M250,257c-12.7,0-23,10.3-23,23s10.3,23,23,23s23-10.3,23-23S262.7,257,250,257z M250,290c-5.5,0-10-4.5-10-10
		s4.5-10,10-10s10,4.5,10,10S255.5,290,250,290z"/>
	<path d="M362,269h-37.8c-2.4-16.2-9.9-30.6-20.9-41.7l53.8-53.8l-15.6-15.6l-56,56c-7.5-4-15.8-6.9-24.6-8.1v-57
		c22.3-5,39-24.9,39-48.8c0-27.6-22.4-50-50-50s-50,22.4-50,50c0,23.8,16.7,43.8,39,48.8v57c-8.8,1.3-17,4.1-24.6,8.1l-56-56
		l-15.6,15.6l53.8,53.8c-11,11.1-18.5,25.6-20.9,41.7H138v22h37.8c4.8,32.6,30.6,58.4,63.2,63.2V470h22V354.2
		c32.6-4.8,58.4-30.6,63.2-63.2H362V269z M215,100c0-19.3,15.7-35,35-35s35,15.7,35,35s-15.7,35-35,35S215,119.3,215,100z M250,340
		c-33.1,0-60-26.9-60-60s26.9-60,60-60s60,26.9,60,60S283.1,340,250,340z"/>
</g>
</svg>
