<?xml version="1.0" encoding="utf-8"?>
<!-- Generator: Adobe Illustrator 22.1.0, SVG Export Plug-In . SVG Version: 6.00 Build 0)  -->
<svg version="1.1" id="图层_1" xmlns="http://www.w3.org/2000/svg" xmlns:xlink="http://www.w3.org/1999/xlink" x="0px" y="0px"
	 viewBox="0 0 500 500" style="enable-background:new 0 0 500 500;" xml:space="preserve">
<g>
	<path d="M250,220c-33.1,0-60,26.9-60,60s26.9,60,60,60s60-26.9,60-60S283.1,220,250,220z M250,303c-12.7,0-23-10.3-23-23
		s10.3-23,23-23s23,10.3,23,23S262.7,303,250,303z"/>
	<circle cx="250" cy="100" r="35"/>
	<circle cx="250" cy="280" r="10"/>
	<path d="M305.9,0H194.1L85,181.7L168.5,500h163L415,181.7L305.9,0z M324.2,291c-4.8,32.6-30.6,58.4-63.2,63.2V470h-22V354.2
		c-32.6-4.8-58.4-30.6-63.2-63.2H138v-22h37.8c2.4-16.2,9.9-30.6,20.9-41.7l-53.8-53.8l15.6-15.6l56,56c7.5-4,15.8-6.9,24.6-8.1v-57
		c-22.3-5-39-24.9-39-48.8c0-27.6,22.4-50,50-50s50,22.4,50,50c0,23.8-16.7,43.8-39,48.8v57c8.8,1.3,17,4.1,24.6,8.1l56-56
		l15.6,15.6l-53.8,53.8c11,11.1,18.5,25.6,20.9,41.7H362v22H324.2z"/>
</g>
</svg>
