<?xml version="1.0" encoding="utf-8"?>
<!-- Generator: Adobe Illustrator 22.1.0, SVG Export Plug-In . SVG Version: 6.00 Build 0)  -->
<svg version="1.1" id="图层_1" xmlns="http://www.w3.org/2000/svg" xmlns:xlink="http://www.w3.org/1999/xlink" x="0px" y="0px"
	 viewBox="0 0 500 500" style="enable-background:new 0 0 500 500;" xml:space="preserve">
<g>
	<path d="M250,40c-27.6,0-50,22.4-50,50c0,23.8,16.7,43.8,39,48.8V203h22v-64.2c22.3-5,39-24.9,39-48.8C300,62.4,277.6,40,250,40z
		 M250,125c-19.3,0-35-15.7-35-35s15.7-35,35-35s35,15.7,35,35S269.3,125,250,125z"/>
	<rect x="239" y="330" width="22" height="140"/>
	<path d="M250,247c-12.7,0-23,10.3-23,23s10.3,23,23,23s23-10.3,23-23S262.7,247,250,247z M250,280c-5.5,0-10-4.5-10-10
		s4.5-10,10-10s10,4.5,10,10S255.5,280,250,280z"/>
	<rect x="138" y="259" width="40" height="22"/>
	<rect x="322" y="259" width="40" height="22"/>
</g>
</svg>
