<?xml version="1.0" encoding="utf-8"?>
<!-- Generator: Adobe Illustrator 22.1.0, SVG Export Plug-In . SVG Version: 6.00 Build 0)  -->
<svg version="1.1" id="图层_1" xmlns="http://www.w3.org/2000/svg" xmlns:xlink="http://www.w3.org/1999/xlink" x="0px" y="0px"
	 viewBox="0 0 500 500" style="enable-background:new 0 0 500 500;" xml:space="preserve">
<g>
	<path d="M250,247c-12.7,0-23,10.3-23,23s10.3,23,23,23s23-10.3,23-23S262.7,247,250,247z M250,280c-5.5,0-10-4.5-10-10
		s4.5-10,10-10s10,4.5,10,10S255.5,280,250,280z"/>
	<path d="M357.1,163.5l-15.6-15.6l-56,56c-10.6-5.7-22.7-9-35.6-9s-25,3.2-35.6,9l-56-56l-15.6,15.6l53.8,53.8
		C183.3,230.8,175,249.4,175,270c0,37.7,27.8,68.9,64,74.2V460h22V344.2c36.2-5.3,64-36.5,64-74.2c0-20.6-8.3-39.2-21.7-52.7
		L357.1,163.5z M250,330c-33.1,0-60-26.9-60-60s26.9-60,60-60s60,26.9,60,60S283.1,330,250,330z"/>
	<path d="M250,140c27.6,0,50-22.4,50-50h-15c0,19.3-15.7,35-35,35s-35-15.7-35-35h-15C200,117.6,222.4,140,250,140z"/>
</g>
</svg>
