<?xml version="1.0" encoding="utf-8"?>
<!-- Generator: Adobe Illustrator 22.1.0, SVG Export Plug-In . SVG Version: 6.00 Build 0)  -->
<svg version="1.1" id="图层_1" xmlns="http://www.w3.org/2000/svg" xmlns:xlink="http://www.w3.org/1999/xlink" x="0px" y="0px"
	 viewBox="0 0 500 500" style="enable-background:new 0 0 500 500;" xml:space="preserve">
<g>
	<path d="M222.1,163.7c-29.6,0-53.6-24-53.6-53.7h-23c0,33.9,22,62.6,52.4,72.8v94.8c-10.6,2.3-20.7,6.1-29.9,11.1l-85.8-85.9
		l-23.8,23.9l82.4,82.5c-20.5,20.8-33.2,49.3-33.2,80.9h23c0-50.8,41.1-92,91.9-92v-10.7V275v-95.1h-0.3V163.7z"/>
	<path d="M441.6,226.6l-23.8-23.9L332,288.7c-9.3-5-19.3-8.8-29.9-11.1v-94.8c30.4-10.1,52.4-38.9,52.4-72.8h-23
		c0,29.6-24,53.7-53.6,53.7v16.2h-0.3V275v12.3V298c50.7,0,91.9,41.2,91.9,92h23c0-31.5-12.7-60.1-33.2-80.9L441.6,226.6z"/>
</g>
</svg>
