<?xml version="1.0" encoding="utf-8"?>
<!-- Generator: Adobe Illustrator 22.1.0, SVG Export Plug-In . SVG Version: 6.00 Build 0)  -->
<svg version="1.1" id="图层_1" xmlns="http://www.w3.org/2000/svg" xmlns:xlink="http://www.w3.org/1999/xlink" x="0px" y="0px"
	 viewBox="0 0 500 500" style="enable-background:new 0 0 500 500;" xml:space="preserve">
<path d="M362,259h-37.8c-4.8-32.6-30.6-58.4-63.2-63.2v-57c22.3-5,39-24.9,39-48.8c0-27.6-22.4-50-50-50s-50,22.4-50,50
	c0,23.8,16.7,43.8,39,48.8v57c-32.6,4.8-58.4,30.6-63.2,63.2H138v22h37.8c4.8,32.6,30.6,58.4,63.2,63.2V460h22V344.2
	c32.6-4.8,58.4-30.6,63.2-63.2H362V259z M215,90c0-19.3,15.7-35,35-35s35,15.7,35,35s-15.7,35-35,35S215,109.3,215,90z M250,330
	c-33.1,0-60-26.9-60-60s26.9-60,60-60s60,26.9,60,60S283.1,330,250,330z"/>
</svg>
