<?xml version="1.0" encoding="utf-8"?>
<!-- Generator: Adobe Illustrator 22.1.0, SVG Export Plug-In . SVG Version: 6.00 Build 0)  -->
<svg version="1.1" id="图层_1" xmlns="http://www.w3.org/2000/svg" xmlns:xlink="http://www.w3.org/1999/xlink" x="0px" y="0px"
	 viewBox="0 0 500 500" style="enable-background:new 0 0 500 500;" xml:space="preserve">
<g>
	<path d="M147.9,346.3h-43.5v17.9h41.5h3.3h13.5c0-37.1,30.1-67.2,67.1-67.2v-16.8C189.7,280.2,156.1,308.5,147.9,346.3z"/>
	<path d="M352.1,346.3c-8.2-37.8-41.8-66.1-82-66.1V297c37.1,0,67.1,30.1,67.1,67.2h13.5h3.3h41.5v-17.9H352.1z"/>
	<path d="M218.7,364.2h-14.5c0,14.2,11.5,25.8,25.7,25.8v-14.6C223.7,375.4,218.7,370.4,218.7,364.2z"/>
	<path d="M270.1,375.4V390c14.2,0,25.7-11.5,25.7-25.8h-14.5C281.3,370.4,276.3,375.4,270.1,375.4z"/>
	<path d="M229.8,222v-16.8c-21.6,0-39.2-17.6-39.2-39.2s17.6-39.2,39.2-39.2V110c-30.9,0-56,25.1-56,56S198.9,222,229.8,222z"/>
	<path d="M326.2,166c0-30.9-25.1-56-56-56v16.8c21.6,0,39.2,17.6,39.2,39.2s-17.6,39.2-39.2,39.2V222
		C301.1,222,326.2,196.9,326.2,166z"/>
</g>
</svg>
