<?xml version="1.0" encoding="utf-8"?>
<!-- Generator: Adobe Illustrator 22.1.0, SVG Export Plug-In . SVG Version: 6.00 Build 0)  -->
<svg version="1.1" id="图层_1" xmlns="http://www.w3.org/2000/svg" xmlns:xlink="http://www.w3.org/1999/xlink" x="0px" y="0px"
	 viewBox="0 0 500 500" style="enable-background:new 0 0 500 500;" xml:space="preserve">
<g>
	<rect x="239" y="340" width="22" height="120"/>
	<rect x="138" y="259" width="40" height="22"/>
	<rect x="322" y="259" width="40" height="22"/>
	<rect x="281.1" y="173" transform="matrix(0.7071 -0.7071 0.7071 0.7071 -36.0706 280.9178)" width="80" height="22"/>
	<rect x="167.9" y="144" transform="matrix(0.7071 -0.7071 0.7071 0.7071 -77.6981 180.4203)" width="22" height="80"/>
	<path d="M300,90h-15c0,19.3-15.7,35-35,35s-35-15.7-35-35h-15c0,23.8,16.7,43.8,39,48.8V203h22v-64.2C283.3,133.8,300,113.8,300,90
		z"/>
</g>
</svg>
