<?xml version="1.0" encoding="utf-8"?>
<!-- Generator: Adobe Illustrator 22.1.0, SVG Export Plug-In . SVG Version: 6.00 Build 0)  -->
<svg version="1.1" id="图层_1" xmlns="http://www.w3.org/2000/svg" xmlns:xlink="http://www.w3.org/1999/xlink" x="0px" y="0px"
	 viewBox="0 0 500 500" style="enable-background:new 0 0 500 500;" xml:space="preserve">
<g>
	<path d="M250,55c19.3,0,35,15.7,35,35h15c0-27.6-22.4-50-50-50s-50,22.4-50,50h15C215,70.7,230.7,55,250,55z"/>
	<path d="M261,344v-4h-22v4h-1.2c0.4,0.1,0.8,0.1,1.2,0.2V460h22V344.2c0.4-0.1,0.8-0.1,1.2-0.2H261z"/>
	<path d="M250,247c-12.7,0-23,10.3-23,23c0,1.4,0.1,2.7,0.4,4h13.5c-0.5-1.2-0.8-2.6-0.8-4c0-5.5,4.5-10,10-10s10,4.5,10,10
		c0,1.4-0.3,2.8-0.8,4h13.5c0.2-1.3,0.4-2.6,0.4-4C273,257.3,262.7,247,250,247z"/>
	<path d="M324.2,259c-2.4-16.2-9.9-30.6-20.9-41.7l53.8-53.8l-15.6-15.6l-56,56c-7.5-4-15.8-6.9-24.6-8.1V133h-22v62.8
		c-8.8,1.3-17,4.1-24.6,8.1l-56-56l-15.6,15.6l53.8,53.8c-11,11.1-18.5,25.6-20.9,41.7H138v15h37.1h2.9h12.1c-0.1-1.3-0.1-2.7-0.1-4
		c0-33.1,26.9-60,60-60s60,26.9,60,60c0,1.3-0.1,2.7-0.1,4H322h2.9H362v-15H324.2z"/>
</g>
</svg>
