<?xml version="1.0" encoding="utf-8"?>
<!-- Generator: Adobe Illustrator 22.1.0, SVG Export Plug-In . SVG Version: 6.00 Build 0)  -->
<svg version="1.1" id="图层_1" xmlns="http://www.w3.org/2000/svg" xmlns:xlink="http://www.w3.org/1999/xlink" x="0px" y="0px"
	 viewBox="0 0 500 500" style="enable-background:new 0 0 500 500;" xml:space="preserve">
<g>
	<rect x="205.6" y="109" width="20.9" height="91.6"/>
	<path d="M196.4,288.3c0,16.6,13.5,30.1,30.1,30.1v-17c-7.2,0-13.1-5.9-13.1-13.1c0-7.2,5.9-13.1,13.1-13.1v-17
		C209.9,258.2,196.4,271.6,196.4,288.3z"/>
	<path d="M148,290.9h-15.8h-3.8H79.9v20.9h50.8c9.6,44.1,48.8,77.2,95.8,77.2v-19.6C183.2,369.4,148,334.2,148,290.9z"/>
	<rect x="273.5" y="109" width="20.9" height="91.6"/>
	<path d="M303.6,288.3c0-16.6-13.5-30.1-30.1-30.1v17c7.2,0,13.1,5.9,13.1,13.1c0,7.2-5.9,13.1-13.1,13.1v17
		C290.1,318.3,303.6,304.9,303.6,288.3z"/>
	<path d="M371.6,290.9h-3.8H352c0,43.4-35.1,78.5-78.4,78.5V389c47,0,86.2-33.1,95.8-77.2h50.8v-20.9H371.6z"/>
</g>
</svg>
