<?xml version="1.0" encoding="utf-8"?>
<!-- Generator: Adobe Illustrator 22.1.0, SVG Export Plug-In . SVG Version: 6.00 Build 0)  -->
<svg version="1.1" id="图层_1" xmlns="http://www.w3.org/2000/svg" xmlns:xlink="http://www.w3.org/1999/xlink" x="0px" y="0px"
	 viewBox="0 0 500 500" style="enable-background:new 0 0 500 500;" xml:space="preserve">
<g>
	<path d="M357.1,163.5l-15.6-15.6l-56,56c-7.5-4-15.8-6.9-24.6-8.1v-57c22.3-5,39-24.9,39-48.8h-15c0,19.3-15.7,35-35,35
		s-35-15.7-35-35h-15c0,23.8,16.7,43.8,39,48.8v57c-8.8,1.3-17,4.1-24.6,8.1l-56-56l-15.6,15.6l53.8,53.8
		C183.3,230.8,175,249.4,175,270c0,37.7,27.8,68.9,64,74.2V460h22V344.2c36.2-5.3,64-36.5,64-74.2c0-20.6-8.3-39.2-21.7-52.7
		L357.1,163.5z M250,330c-33.1,0-60-26.9-60-60s26.9-60,60-60s60,26.9,60,60S283.1,330,250,330z"/>
	<path d="M250,280c-5.5,0-10-4.5-10-10h-13c0,12.7,10.3,23,23,23s23-10.3,23-23h-13C260,275.5,255.5,280,250,280z"/>
</g>
</svg>
