<?xml version="1.0" encoding="utf-8"?>
<!-- Generator: Adobe Illustrator 22.1.0, SVG Export Plug-In . SVG Version: 6.00 Build 0)  -->
<svg version="1.1" id="图层_1" xmlns="http://www.w3.org/2000/svg" xmlns:xlink="http://www.w3.org/1999/xlink" x="0px" y="0px"
	 viewBox="0 0 500 500" style="enable-background:new 0 0 500 500;" xml:space="preserve">
<g>
	<rect x="239" y="278" width="22" height="180"/>
	<path d="M324.2,212c-2.4-16.2-9.9-30.6-20.9-41.7l53.8-53.8l-15.6-15.6l-56,56c-7.5-4-15.8-6.9-24.6-8.1V86h-22v62.8
		c-8.8,1.3-17,4.1-24.6,8.1l-56-56l-15.6,15.6l53.8,53.8c-11,11.1-18.5,25.6-20.9,41.7H138v22h37.8h2.2h13c-0.7-3.6-1-7.2-1-11
		c0-33.1,26.9-60,60-60s60,26.9,60,60c0,3.8-0.4,7.4-1,11h13h2.2H362v-22H324.2z"/>
</g>
</svg>
