<?xml version="1.0" encoding="utf-8"?>
<!-- Generator: Adobe Illustrator 22.1.0, SVG Export Plug-In . SVG Version: 6.00 Build 0)  -->
<svg version="1.1" id="图层_1" xmlns="http://www.w3.org/2000/svg" xmlns:xlink="http://www.w3.org/1999/xlink" x="0px" y="0px"
	 viewBox="0 0 500 500" style="enable-background:new 0 0 500 500;" xml:space="preserve">
<g>
	<path d="M250,128.6c-11.8,0-21.4,9.6-21.4,21.4c0,11.8,9.6,21.4,21.4,21.4s21.4-9.6,21.4-21.4C271.4,138.1,261.8,128.6,250,128.6z
		 M258.2,152.5c-1.4,4.5-6.2,7-10.7,5.6c-4.5-1.4-7-6.2-5.6-10.7c1.4-4.5,6.2-7,10.7-5.6C257,143.2,259.6,148,258.2,152.5z"/>
	<path d="M260.7,397.7v-44.6h42.8v-21.4H196.5v21.4h42.8v44.6c-9.1,3.2-16.3,10.4-19.6,19.6h-44.6v21.4h44.6
		C224.2,451.1,236,460,250,460c14,0,25.8-8.9,30.2-21.4h44.6v-21.4h-44.6C277,408.1,269.8,400.9,260.7,397.7z M250,446.1
		c-10,0-18.2-8.1-18.2-18.2s8.1-18.2,18.2-18.2c10,0,18.2,8.1,18.2,18.2S260,446.1,250,446.1z"/>
	<path d="M318.7,139.2c-2.1-13.6-8.2-25.9-17-35.7l48.4-48.4L335,40l-49.9,49.9c-10.3-6-22.3-9.5-35.1-9.5s-24.8,3.5-35.1,9.5
		L165,40l-15.1,15.1l48.4,48.4c-8.8,9.8-14.9,22.1-17,35.7h-59.6v21.4h59.6c4.6,29.8,28.2,53.4,58,58v70.3h-42.8v21.4h106.9v-21.4
		h-42.8v-70.3c29.8-4.6,53.4-28.2,58-58h59.6v-21.4H318.7z M250,203.4c-29.5,0-53.5-23.9-53.5-53.5s23.9-53.5,53.5-53.5
		s53.5,23.9,53.5,53.5S279.5,203.4,250,203.4z"/>
</g>
</svg>
