<?xml version="1.0" encoding="utf-8"?>
<!-- Generator: Adobe Illustrator 22.1.0, SVG Export Plug-In . SVG Version: 6.00 Build 0)  -->
<svg version="1.1" id="图层_1" xmlns="http://www.w3.org/2000/svg" xmlns:xlink="http://www.w3.org/1999/xlink" x="0px" y="0px"
	 viewBox="0 0 500 500" style="enable-background:new 0 0 500 500;" xml:space="preserve">
<g>
	<path d="M190,263.4c-22.6,8-39,29.1-39.9,54.2H60v20h92.6C160.2,362.2,183,380,210,380v-20c-22.1,0-40-17.9-40-40s17.9-40,40-40
		v-10v-10V110h-20V263.4z"/>
	<path d="M440,317.6h-90.1c-1-25.1-17.4-46.2-39.9-54.2V110h-20v150v10v10c22.1,0,40,17.9,40,40s-17.9,40-40,40v20
		c27,0,49.8-17.8,57.4-42.4H440V317.6z"/>
</g>
</svg>
