<?xml version="1.0" encoding="utf-8"?>
<!-- Generator: Adobe Illustrator 22.1.0, SVG Export Plug-In . SVG Version: 6.00 Build 0)  -->
<svg version="1.1" id="图层_1" xmlns="http://www.w3.org/2000/svg" xmlns:xlink="http://www.w3.org/1999/xlink" x="0px" y="0px"
	 viewBox="0 0 500 500" style="enable-background:new 0 0 500 500;" xml:space="preserve">
<g>
	<path d="M271.3,149.9c0-11.8-9.6-21.4-21.3-21.4s-21.3,9.6-21.3,21.4s9.6,21.4,21.3,21.4S271.3,161.7,271.3,149.9z M241.9,147.4
		c1.4-4.5,6.2-7,10.7-5.6c4.5,1.4,7,6.2,5.6,10.7c-1.4,4.5-6.2,7-10.7,5.6C243,156.7,240.5,151.9,241.9,147.4z"/>
	<path d="M260.7,218.6c33.2-5.1,58.7-33.9,58.7-68.7c0-38.4-31-69.5-69.3-69.5s-69.3,31.1-69.3,69.5c0,34.7,25.4,63.5,58.7,68.7
		v70.3h-42.7v21.4h106.7v-21.4h-42.7V218.6z M196.7,149.9c0-29.5,23.9-53.5,53.3-53.5s53.3,23.9,53.3,53.5s-23.9,53.5-53.3,53.5
		S196.7,179.5,196.7,149.9z"/>
	<path d="M196.7,353.1h42.7v44.6c-12.4,4.4-21.3,16.3-21.3,30.2c0,17.7,14.3,32.1,32,32.1s32-14.4,32-32.1c0-14-8.9-25.8-21.3-30.2
		v-44.6h42.7v-21.4H196.7V353.1z M268.1,427.9c0,10-8.1,18.2-18.1,18.2s-18.1-8.1-18.1-18.2c0-10,8.1-18.2,18.1-18.2
		S268.1,417.9,268.1,427.9z"/>
</g>
</svg>
