<?xml version="1.0" encoding="utf-8"?>
<!-- Generator: Adobe Illustrator 22.1.0, SVG Export Plug-In . SVG Version: 6.00 Build 0)  -->
<svg version="1.1" id="图层_1" xmlns="http://www.w3.org/2000/svg" xmlns:xlink="http://www.w3.org/1999/xlink" x="0px" y="0px"
	 viewBox="0 0 500 500" style="enable-background:new 0 0 500 500;" xml:space="preserve">
<g>
	<path d="M72.6,87.5l-14.1,14.1l92.6,92.6c-20,19.6-33.2,46.1-35.6,75.7H45v20h70.4c5.1,61.6,56.7,110,119.6,110v-20
		c-51.9,0-94.5-39.5-99.5-90v-20c5-50.5,47.6-90,99.5-90v-20c-25.5,0-49.1,7.9-68.5,21.5L72.6,87.5z"/>
	<path d="M455,270h-70.4c-2.4-29.6-15.6-56.1-35.6-75.7l92.6-92.6l-14.1-14.1l-93.9,93.9c-19.4-13.5-43-21.5-68.5-21.5v20
		c51.9,0,94.5,39.5,99.5,90v20c-5,50.5-47.7,90-99.5,90v20c62.9,0,114.5-48.4,119.6-110H455V270z"/>
</g>
</svg>
