<?xml version="1.0" encoding="utf-8"?>
<!-- Generator: Adobe Illustrator 22.1.0, SVG Export Plug-In . SVG Version: 6.00 Build 0)  -->
<svg version="1.1" id="图层_1" xmlns="http://www.w3.org/2000/svg" xmlns:xlink="http://www.w3.org/1999/xlink" x="0px" y="0px"
	 viewBox="0 0 500 500" style="enable-background:new 0 0 500 500;" xml:space="preserve">
<g>
	<path d="M318.5,160.6H378v-21.4h-59.5c-2.1-13.6-8.1-25.9-16.9-35.7l48.3-48.4L334.8,40L285,89.9c-10.3-6-22.2-9.5-35-9.5
		s-24.7,3.5-35,9.5L165.2,40l-15.1,15.1l48.3,48.4c-8.8,9.8-14.8,22.1-16.9,35.7H122v21.4h59.5c4.6,29.8,28.1,53.4,57.8,58v170.7
		h-42.7v21.4h106.7v-21.4h-42.7V218.6C290.4,214,313.9,190.4,318.5,160.6z M196.7,149.9c0-29.5,23.9-53.5,53.3-53.5
		s53.3,23.9,53.3,53.5s-23.9,53.5-53.3,53.5S196.7,179.5,196.7,149.9z"/>
	<path d="M271.3,149.9c0-11.8-9.6-21.4-21.3-21.4s-21.3,9.6-21.3,21.4s9.6,21.4,21.3,21.4S271.3,161.7,271.3,149.9z M241.9,147.4
		c1.4-4.5,6.2-7,10.7-5.6c4.5,1.4,7,6.2,5.6,10.7c-1.4,4.5-6.2,7-10.7,5.6C243,156.7,240.5,151.9,241.9,147.4z"/>
</g>
</svg>
