<?xml version="1.0" encoding="utf-8"?>
<!-- Generator: Adobe Illustrator 22.1.0, SVG Export Plug-In . SVG Version: 6.00 Build 0)  -->
<svg version="1.1" id="图层_1" xmlns="http://www.w3.org/2000/svg" xmlns:xlink="http://www.w3.org/1999/xlink" x="0px" y="0px"
	 viewBox="0 0 500 500" style="enable-background:new 0 0 500 500;" xml:space="preserve">
<g>
	<path d="M262.1,213.5c37.6-5.8,66.4-38.4,66.4-77.7c0-43.4-35.1-78.6-78.4-78.6s-78.4,35.2-78.4,78.6c0,39.3,28.8,71.9,66.4,77.7
		v79.6h-48.3v24.2h120.7v-24.2h-48.3V213.5z M189.7,135.8c0-33.4,27-60.5,60.3-60.5s60.3,27.1,60.3,60.5s-27,60.5-60.3,60.5
		S189.7,169.2,189.7,135.8z"/>
	<polygon points="189.7,365.7 237.9,365.7 237.9,457.2 262.1,457.2 262.1,365.7 310.3,365.7 310.3,341.5 189.7,341.5 	"/>
</g>
</svg>
