<?xml version="1.0" encoding="utf-8"?>
<!-- Generator: Adobe Illustrator 22.1.0, SVG Export Plug-In . SVG Version: 6.00 Build 0)  -->
<svg version="1.1" id="图层_1" xmlns="http://www.w3.org/2000/svg" xmlns:xlink="http://www.w3.org/1999/xlink" x="0px" y="0px"
	 viewBox="0 0 500 500" style="enable-background:new 0 0 500 500;" xml:space="preserve">
<g>
	<path d="M252.4,172.4c-4.2-1.3-8.7,1-10,5.3c-1.3,4.2,1,8.7,5.3,10c4.2,1.3,8.7-1,10-5.3C259,178.2,256.6,173.7,252.4,172.4z"/>
	<circle cx="250" cy="440" r="17"/>
	<path d="M250,130c-27.6,0-50,22.4-50,50s22.4,50,50,50s50-22.4,50-50S277.6,130,250,130z M250,200c-11,0-20-9-20-20s9-20,20-20
		s20,9,20,20S261,200,250,200z"/>
	<path d="M305.9,0H194.1L85,181.7L168.5,500h163L415,181.7L305.9,0z M320,450h-41.7c-4.1,11.7-15.2,20-28.3,20s-24.2-8.3-28.3-20
		H180v-20h41.7c3-8.5,9.8-15.3,18.3-18.3V370h-40v-20h100v20h-40v41.7c8.5,3,15.3,9.8,18.3,18.3H320V450z M314.2,190
		c-4.3,27.9-26.3,49.9-54.2,54.2V310h40v20H200v-20h40v-65.8c-27.9-4.3-49.9-26.3-54.2-54.2H130v-20h55.8c2-12.7,7.6-24.2,15.9-33.4
		l-45.3-45.3l14.1-14.1l46.7,46.7c9.6-5.6,20.8-8.9,32.8-8.9s23.2,3.2,32.8,8.9l46.7-46.7l14.1,14.1l-45.3,45.3
		c8.2,9.2,13.9,20.7,15.9,33.4H370v20H314.2z"/>
</g>
</svg>
