<?xml version="1.0" encoding="utf-8"?>
<!-- Generator: Adobe Illustrator 22.1.0, SVG Export Plug-In . SVG Version: 6.00 Build 0)  -->
<svg version="1.1" id="图层_1" xmlns="http://www.w3.org/2000/svg" xmlns:xlink="http://www.w3.org/1999/xlink" x="0px" y="0px"
	 viewBox="0 0 500 500" style="enable-background:new 0 0 500 500;" xml:space="preserve">
<path d="M250,80.4c-38.3,0-69.3,31.1-69.3,69.5s31,69.5,69.3,69.5s69.3-31.1,69.3-69.5S288.3,80.4,250,80.4z M250,203.4
	c-29.5,0-53.3-23.9-53.3-53.5s23.9-53.5,53.3-53.5s53.3,23.9,53.3,53.5S279.5,203.4,250,203.4z"/>
<path d="M250,395.8c-17.7,0-32,14.4-32,32.1s14.3,32.1,32,32.1s32-14.4,32-32.1S267.7,395.8,250,395.8z M250,446.1
	c-10,0-18.1-8.1-18.1-18.2s8.1-18.2,18.1-18.2c10,0,18.1,8.1,18.1,18.2S260,446.1,250,446.1z"/>
<rect x="239.3" y="214.1" width="21.3" height="85.5"/>
<rect x="239.3" y="347.7" width="21.3" height="53.5"/>
<rect x="196.7" y="288.9" width="106.7" height="21.4"/>
<rect x="196.7" y="331.7" width="106.7" height="21.4"/>
<polygon points="297.1,108 282,92.9 334.8,40 349.9,55.1 "/>
<polygon points="202.9,108 218,92.9 165.2,40 150.1,55.1 "/>
</svg>
