<?xml version="1.0" encoding="utf-8"?>
<!-- Generator: Adobe Illustrator 22.1.0, SVG Export Plug-In . SVG Version: 6.00 Build 0)  -->
<svg version="1.1" id="图层_1" xmlns="http://www.w3.org/2000/svg" xmlns:xlink="http://www.w3.org/1999/xlink" x="0px" y="0px"
	 viewBox="0 0 500 500" style="enable-background:new 0 0 500 500;" xml:space="preserve">
<path d="M349.9,55.1L334.8,40L285,89.9c-10.3-6-22.2-9.5-35-9.5s-24.7,3.5-35,9.5L165.2,40l-15.1,15.1l48.3,48.4
	c-11,12.3-17.7,28.6-17.7,46.4c0,35,25.8,63.9,59.3,68.8v207.9h-30V448h30h20h30v-21.4h-30V218.7c33.6-4.9,59.3-33.8,59.3-68.8
	c0-17.8-6.7-34.1-17.7-46.4L349.9,55.1z M250,203.4c-29.5,0-53.3-23.9-53.3-53.5s23.9-53.5,53.3-53.5s53.3,23.9,53.3,53.5
	S279.5,203.4,250,203.4z"/>
</svg>
