<?xml version="1.0" encoding="utf-8"?>
<!-- Generator: Adobe Illustrator 22.1.0, SVG Export Plug-In . SVG Version: 6.00 Build 0)  -->
<svg version="1.1" id="图层_1" xmlns="http://www.w3.org/2000/svg" xmlns:xlink="http://www.w3.org/1999/xlink" x="0px" y="0px"
	 viewBox="0 0 500 500" style="enable-background:new 0 0 500 500;" xml:space="preserve">
<g>
	<path d="M87.9,63.8L73.8,77.9l62.1,62.1c-12.3,15.4-19.7,34.9-19.7,56.2c0,42.8,29.9,78.7,70,87.8v152.2h20v-150v-10v-10
		c-38.7,0-70-31.3-70-70s31.3-70,70-70v-20c-21.2,0-40.8,7.4-56.2,19.7L87.9,63.8z"/>
	<path d="M426.2,77.9l-14.1-14.1L350,125.9c-15.4-12.3-34.9-19.7-56.2-19.7v20c38.7,0,70,31.3,70,70s-31.3,70-70,70v10v10v150h20
		V284c40.1-9.1,70-44.9,70-87.8c0-21.2-7.4-40.8-19.7-56.2L426.2,77.9z"/>
</g>
</svg>
