<?xml version="1.0" encoding="utf-8"?>
<!-- Generator: Adobe Illustrator 22.1.0, SVG Export Plug-In . SVG Version: 6.00 Build 0)  -->
<svg version="1.1" id="图层_1" xmlns="http://www.w3.org/2000/svg" xmlns:xlink="http://www.w3.org/1999/xlink" x="0px" y="0px"
	 viewBox="0 0 500 500" style="enable-background:new 0 0 500 500;" xml:space="preserve">
<path d="M250,50.5c-38.3,0-69.3,31.1-69.3,69.5s31,69.5,69.3,69.5s69.3-31.1,69.3-69.5S288.3,50.5,250,50.5z M250,173.5
	c-29.5,0-53.3-23.9-53.3-53.5s23.9-53.5,53.3-53.5s53.3,23.9,53.3,53.5S279.5,173.5,250,173.5z"/>
<path d="M250,381.1c-17.7,0-32,14.4-32,32.1s14.3,32.1,32,32.1s32-14.4,32-32.1S267.7,381.1,250,381.1z M250,431.4
	c-10,0-18.1-8.1-18.1-18.2c0-10,8.1-18.2,18.1-18.2c10,0,18.1,8.1,18.1,18.2C268.1,423.2,260,431.4,250,431.4z"/>
<rect x="239.3" y="174.7" width="21.3" height="110.2"/>
<rect x="239.3" y="333" width="21.3" height="53.5"/>
<rect x="196.7" y="274.2" width="106.7" height="21.4"/>
<rect x="196.7" y="317" width="106.7" height="21.4"/>
<g>
	<rect x="175.3" y="402.5" width="56.5" height="21.4"/>
	<rect x="268.1" y="402.5" width="56.5" height="21.4"/>
</g>
</svg>
