<?xml version="1.0" encoding="utf-8"?>
<!-- Generator: Adobe Illustrator 22.1.0, SVG Export Plug-In . SVG Version: 6.00 Build 0)  -->
<svg version="1.1" id="图层_1" xmlns="http://www.w3.org/2000/svg" xmlns:xlink="http://www.w3.org/1999/xlink" x="0px" y="0px"
	 viewBox="0 0 500 500" style="enable-background:new 0 0 500 500;" xml:space="preserve">
<g>
	<path d="M194,255v-10v-10c-38.7,0-70-31.3-70-70s31.3-70,70-70V75c-49.7,0-90,40.3-90,90c0,42.8,29.9,78.7,70,87.8V405h-38.8v20
		h100v-20H194V255z"/>
	<path d="M396,165c0-49.7-40.3-90-90-90v20c38.7,0,70,31.3,70,70s-31.3,70-70,70v10v10v150h-41.3v20h100v-20H326V252.8
		C366.1,243.7,396,207.8,396,165z"/>
</g>
</svg>
