<?xml version="1.0" encoding="utf-8"?>
<!-- Generator: Adobe Illustrator 22.1.0, SVG Export Plug-In . SVG Version: 6.00 Build 0)  -->
<svg version="1.1" id="图层_1" xmlns="http://www.w3.org/2000/svg" xmlns:xlink="http://www.w3.org/1999/xlink" x="0px" y="0px"
	 viewBox="0 0 500 500" style="enable-background:new 0 0 500 500;" xml:space="preserve">
<path d="M319.3,125H380v-20h-60.7H300h-1c0.7,3.2,1,6.6,1,10c0,27.6-22.4,50-50,50s-50-22.4-50-50c0-3.4,0.3-6.8,1-10h-1h-19.3H120
	v20h60.7c4.4,30.7,28.6,54.9,59.3,59.3V336c-19.6,4-35,19.4-39,39h-21v20h21h19h1.7c-1.1-3.1-1.7-6.5-1.7-10c0-16.6,13.4-30,30-30
	s30,13.4,30,30c0,3.5-0.6,6.9-1.7,10h1.7h19h21v-20h-21c-4-19.6-19.4-35-39-39V184.3C290.7,179.9,314.9,155.7,319.3,125z"/>
</svg>
