<?xml version="1.0" encoding="utf-8"?>
<!-- Generator: Adobe Illustrator 22.1.0, SVG Export Plug-In . SVG Version: 6.00 Build 0)  -->
<svg version="1.1" id="图层_1" xmlns="http://www.w3.org/2000/svg" xmlns:xlink="http://www.w3.org/1999/xlink" x="0px" y="0px"
	 viewBox="0 0 500 500" style="enable-background:new 0 0 500 500;" xml:space="preserve">
<g>
	<path d="M193.8,138.3h28.7c7.9-5.2,17.4-8.3,27.6-8.3s19.7,3.1,27.6,8.3h28.7c-0.1-0.1-0.1-0.1-0.2-0.2l42.2-42.2l-14.1-14.1
		L292,123.9v0.1c-11.7-8.8-26.2-14-42-14s-30.3,5.2-42,14v-0.1l-42.1-42.1l-14.1,14.1l42.2,42.2
		C193.9,138.2,193.8,138.2,193.8,138.3z"/>
	<path d="M319.3,190H380v-20h-60.7H300h-1c0.7,3.2,1,6.6,1,10c0,27.6-22.4,50-50,50s-50-22.4-50-50c0-3.4,0.3-6.8,1-10h-1h-19.3H120
		v20h60.7c4.4,30.7,28.6,54.9,59.3,59.3V371c-20.3,4.1-36.1,20.5-39.4,41H180v16h20.6H220h1.1c-0.7-2.5-1.1-5.2-1.1-8
		c0-16.6,13.4-30,30-30s30,13.4,30,30c0,2.8-0.4,5.5-1.1,8h1.1h19.4H320v-16h-20.6c-3.3-20.5-19.1-36.9-39.4-41V249.3
		C290.7,244.9,314.9,220.7,319.3,190z"/>
</g>
</svg>
