<?xml version="1.0" encoding="utf-8"?>
<!-- Generator: Adobe Illustrator 22.1.0, SVG Export Plug-In . SVG Version: 6.00 Build 0)  -->
<svg version="1.1" id="图层_1" xmlns="http://www.w3.org/2000/svg" xmlns:xlink="http://www.w3.org/1999/xlink" x="0px" y="0px"
	 viewBox="0 0 500 500" style="enable-background:new 0 0 500 500;" xml:space="preserve">
<path d="M319.3,164.1H380v-20h-60.7c-1.7-11.9-6.4-22.8-13.2-31.9L348.3,70l-14.1-14.1l-42.2,42.2c-11.7-8.8-26.2-13.9-41.9-13.9
	s-30.2,5.2-41.9,13.9l-42.2-42.2L151.7,70l42.2,42.2c-6.9,9.2-11.5,20.1-13.2,31.9H120v20h60.7c4.4,30.7,28.6,54.9,59.3,59.3v121.7
	c-19.6,4-35,19.4-39,39h-21v20h21c4.6,22.8,24.8,40,49,40s44.4-17.2,49-40h21v-20h-21c-4-19.6-19.4-35-39-39V223.4
	C290.7,219,314.9,194.8,319.3,164.1z M200,154.1c0-27.6,22.4-50,50-50s50,22.4,50,50s-22.4,50-50,50S200,181.8,200,154.1z
	 M280,394.1c0,16.6-13.4,30-30,30s-30-13.4-30-30s13.4-30,30-30S280,377.6,280,394.1z"/>
</svg>
