<?xml version="1.0" encoding="utf-8"?>
<!-- Generator: Adobe Illustrator 22.1.0, SVG Export Plug-In . SVG Version: 6.00 Build 0)  -->
<svg version="1.1" id="图层_1" xmlns="http://www.w3.org/2000/svg" xmlns:xlink="http://www.w3.org/1999/xlink" x="0px" y="0px"
	 viewBox="0 0 500 500" style="enable-background:new 0 0 500 500;" xml:space="preserve">
<g>
	<path d="M182.8,180c0-17.4,8.9-32.7,22.4-41.7L191,123.9c-14.6,10.9-24.8,27.3-27.5,46.1h-60.7v20h60.7
		c3.9,27.2,23.5,49.4,49.3,57.1V380h20V250v-10v-10C205.2,230,182.8,207.6,182.8,180z"/>
	<path d="M397.2,170h-60.7c-2.7-18.8-12.9-35.3-27.5-46.1l-14.2,14.4c13.5,9,22.4,24.3,22.4,41.7c0,27.6-22.4,50-50,50v10v10v130h20
		V247.1c25.8-7.7,45.4-29.9,49.3-57.1h60.7V170z"/>
</g>
</svg>
