<?xml version="1.0" encoding="utf-8"?>
<!-- Generator: Adobe Illustrator 22.1.0, SVG Export Plug-In . SVG Version: 6.00 Build 0)  -->
<svg version="1.1" id="图层_1" xmlns="http://www.w3.org/2000/svg" xmlns:xlink="http://www.w3.org/1999/xlink" x="0px" y="0px"
	 viewBox="0 0 500 500" style="enable-background:new 0 0 500 500;" xml:space="preserve">
<g>
	<rect x="240" y="240" width="20" height="140"/>
	<path d="M319.3,170c-1.7-11.9-6.4-22.8-13.2-31.9l42.2-42.2l-14.1-14.1L292,123.9v0.1v0.4v28.5c5.1,7.8,8,17.1,8,27.1
		c0,3.4-0.3,6.8-1,10h1h19.3H380v-20H319.3z"/>
	<path d="M280,410h-1.7c1.1,3.1,1.7,6.5,1.7,10c0,16.6-13.4,30-30,30s-30-13.4-30-30c0-3.5,0.6-6.9,1.7-10H220h-19h-21v20h21
		c4.6,22.8,24.8,40,49,40s44.4-17.2,49-40h21v-20h-21H280z"/>
	<path d="M200,190h1c-0.7-3.2-1-6.6-1-10c0-10,2.9-19.3,8-27.1v-28.5V124v-0.1l-42.1-42.1l-14.1,14.1l42.2,42.2
		c-6.9,9.2-11.5,20.1-13.2,31.9H120v20h60.7H200z"/>
</g>
</svg>
