<?xml version="1.0" encoding="utf-8"?>
<!-- Generator: Adobe Illustrator 22.1.0, SVG Export Plug-In . SVG Version: 6.00 Build 0)  -->
<svg version="1.1" id="图层_1" xmlns="http://www.w3.org/2000/svg" xmlns:xlink="http://www.w3.org/1999/xlink" x="0px" y="0px"
	 viewBox="0 0 500 500" style="enable-background:new 0 0 500 500;" xml:space="preserve">
<g>
	<path d="M177.5,199.1c0-17.4,8.9-32.7,22.4-41.7L185.7,143c-0.1,0-0.1,0.1-0.2,0.1V143l-42.1-42.1L129.2,115l42.2,42.2
		c-6.9,9.2-11.5,20.1-13.2,31.9H97.5v20h60.7c3.9,27.2,23.5,49.4,49.3,57.1v132.9h20v-130v-10v-10
		C199.9,249.1,177.5,226.8,177.5,199.1z"/>
	<path d="M402.5,189.1h-60.7c-1.7-11.9-6.4-22.8-13.2-31.9l42.2-42.2l-14.1-14.1L314.5,143v0.1c-0.1,0-0.1-0.1-0.2-0.1l-14.2,14.4
		c13.5,9,22.4,24.3,22.4,41.7c0,27.6-22.4,50-50,50v10v10v130h20V266.2c25.8-7.7,45.4-29.9,49.3-57.1h60.7V189.1z"/>
</g>
</svg>
