<?xml version="1.0" encoding="utf-8"?>
<!-- Generator: Adobe Illustrator 22.1.0, SVG Export Plug-In . SVG Version: 6.00 Build 0)  -->
<svg version="1.1" id="图层_1" xmlns="http://www.w3.org/2000/svg" xmlns:xlink="http://www.w3.org/1999/xlink" x="0px" y="0px"
	 viewBox="0 0 500 500" style="enable-background:new 0 0 500 500;" xml:space="preserve">
<path d="M262.1,374.5V227.8c40.9-5.8,72.3-41,72.3-83.5c0-46.6-37.8-84.4-84.4-84.4s-84.4,37.8-84.4,84.4
	c0,42.5,31.4,77.6,72.3,83.5v146.7c-24.1,4.9-43,24.2-47.3,48.6h-25V440h24.4h23.8h0.6c-0.4-2.1-0.6-4.2-0.6-6.4
	c0-20,16.2-36.2,36.2-36.2s36.2,16.2,36.2,36.2c0,2.2-0.2,4.3-0.6,6.4h0.6h23.8h24.4v-16.9h-25C305.1,398.8,286.2,379.4,262.1,374.5
	z M189.7,144.4c0-33.3,27-60.3,60.3-60.3s60.3,27,60.3,60.3s-27,60.3-60.3,60.3S189.7,177.6,189.7,144.4z"/>
</svg>
