<?xml version="1.0" encoding="utf-8"?>
<!-- Generator: Adobe Illustrator 22.1.0, SVG Export Plug-In . SVG Version: 6.00 Build 0)  -->
<svg version="1.1" id="图层_1" xmlns="http://www.w3.org/2000/svg" xmlns:xlink="http://www.w3.org/1999/xlink" x="0px" y="0px"
	 viewBox="0 0 500 500" style="enable-background:new 0 0 500 500;" xml:space="preserve">
<g>
	<path d="M177.3,199.1c0-17.4,8.9-32.7,22.4-41.7L185.5,143c-0.1,0-0.1,0.1-0.2,0.1V143l-42.1-42.1L129,115l42.2,42.2
		c-8.8,11.7-13.9,26.2-13.9,41.9c0,31.7,21.1,58.5,50,67.1v132.9h20v-130v-10v-10C199.7,249.1,177.3,226.8,177.3,199.1z"/>
	<path d="M371,115l-14.1-14.1L314.7,143v0.1c-0.1,0-0.1-0.1-0.2-0.1l-14.2,14.4c13.5,9,22.4,24.3,22.4,41.7c0,27.6-22.4,50-50,50v10
		v10v130h20V266.2c28.9-8.6,50-35.4,50-67.1c0-15.7-5.2-30.2-13.9-41.9L371,115z"/>
</g>
</svg>
