<?xml version="1.0" encoding="utf-8"?>
<!-- Generator: Adobe Illustrator 22.1.0, SVG Export Plug-In . SVG Version: 6.00 Build 0)  -->
<svg version="1.1" id="图层_1" xmlns="http://www.w3.org/2000/svg" xmlns:xlink="http://www.w3.org/1999/xlink" x="0px" y="0px"
	 viewBox="0 0 500 500" style="enable-background:new 0 0 500 500;" xml:space="preserve">
<path d="M260,331V209.3c33.9-4.9,60-34,60-69.3c0-38.7-31.3-70-70-70s-70,31.3-70,70c0,35.3,26.1,64.4,60,69.3V331
	c-22.8,4.6-40,24.8-40,49c0,27.6,22.4,50,50,50s50-22.4,50-50C300,355.8,282.8,335.6,260,331z M200,140c0-27.6,22.4-50,50-50
	s50,22.4,50,50s-22.4,50-50,50S200,167.6,200,140z M250,410c-16.6,0-30-13.4-30-30s13.4-30,30-30s30,13.4,30,30S266.6,410,250,410z"
	/>
</svg>
