<?xml version="1.0" encoding="utf-8"?>
<!-- Generator: Adobe Illustrator 22.1.0, SVG Export Plug-In . SVG Version: 6.00 Build 0)  -->
<svg version="1.1" id="图层_1" xmlns="http://www.w3.org/2000/svg" xmlns:xlink="http://www.w3.org/1999/xlink" x="0px" y="0px"
	 viewBox="0 0 500 500" style="enable-background:new 0 0 500 500;" xml:space="preserve">
<g>
	<path d="M177.3,156.4c0-17.4,8.9-32.7,22.4-41.7l-14.2-14.4c-17.1,12.8-28.2,33.2-28.2,56.1c0,31.7,21.1,58.5,50,67.1v130.3
		c-17.8,7.6-30.3,25.3-30.3,46h20c0-16.6,13.4-30,30-30c0.1,0,0.2,0,0.3,0v-13.3v-6.7V226.4v-10v-10
		C199.7,206.4,177.3,184,177.3,156.4z"/>
	<path d="M292.7,353.8V223.5c28.9-8.6,50-35.4,50-67.1c0-23-11.1-43.4-28.2-56.1l-14.2,14.4c13.5,9,22.4,24.3,22.4,41.7
		c0,27.6-22.4,50-50,50v10v10v123.3v6.7v13.3c0.1,0,0.2,0,0.3,0c16.6,0,30,13.4,30,30h20C323,379.1,310.5,361.4,292.7,353.8z"/>
</g>
</svg>
