<?xml version="1.0" encoding="utf-8"?>
<!-- Generator: Adobe Illustrator 22.1.0, SVG Export Plug-In . SVG Version: 6.00 Build 0)  -->
<svg version="1.1" id="图层_1" xmlns="http://www.w3.org/2000/svg" xmlns:xlink="http://www.w3.org/1999/xlink" x="0px" y="0px"
	 viewBox="0 0 500 500" style="enable-background:new 0 0 500 500;" xml:space="preserve">
<g>
	<path d="M250,90c11.3,0,21.6,3.7,30,10h27.4c-12.7-18.1-33.6-30-57.4-30s-44.8,11.9-57.4,30H220C228.4,93.7,238.7,90,250,90z"/>
	<path d="M240,209.3V340h20V209.3c33.9-4.9,60-34,60-69.3h-20c0,27.6-22.4,50-50,50s-50-22.4-50-50h-20
		C180,175.3,206.1,204.4,240,209.3z"/>
	<path d="M250,410c-16.6,0-30-13.4-30-30h-20c0,27.6,22.4,50,50,50s50-22.4,50-50h-20C280,396.6,266.6,410,250,410z"/>
</g>
</svg>
