<?xml version="1.0" encoding="utf-8"?>
<!-- Generator: Adobe Illustrator 22.1.0, SVG Export Plug-In . SVG Version: 6.00 Build 0)  -->
<svg version="1.1" id="图层_1" xmlns="http://www.w3.org/2000/svg" xmlns:xlink="http://www.w3.org/1999/xlink" x="0px" y="0px"
	 viewBox="0 0 500 500" style="enable-background:new 0 0 500 500;" xml:space="preserve">
<g>
	<path d="M299.2,99c0-27.1-22-49-49.2-49s-49.2,22-49.2,49c0,23.7,16.9,43.4,39.3,48v303h19.7V147.1
		C282.3,142.6,299.2,122.8,299.2,99z M218.4,99c0-17.3,14.1-31.3,31.6-31.3s31.6,14,31.6,31.3s-14.1,31.3-31.6,31.3
		S218.4,116.3,218.4,99z"/>
	<path d="M287.4,287v-3.7v-59.9c58-15.1,101.6-64.4,105.9-124.3h-15.7c-4.3,57.9-50.6,104.7-109.9,112.6v15.6v171.7v7.9v7.9h19.7v-8
		v-7.9v-80.2v-5.9h82.7v-19.6h-82.7V287z"/>
	<path d="M122.3,99h-15.7c4.4,59.9,47.9,109.2,105.9,124.3v60v3.7v6.1h-82.7v19.6h82.7v5.9v80.2v7.9v7.9h19.7v-7.9v-7.9V227.1v-15.6
		C173,203.7,126.7,156.9,122.3,99z"/>
</g>
</svg>
