<?xml version="1.0" encoding="utf-8"?>
<!-- Generator: Adobe Illustrator 22.1.0, SVG Export Plug-In . SVG Version: 6.00 Build 0)  -->
<svg version="1.1" id="图层_1" xmlns="http://www.w3.org/2000/svg" xmlns:xlink="http://www.w3.org/1999/xlink" x="0px" y="0px"
	 viewBox="0 0 500 500" style="enable-background:new 0 0 500 500;" xml:space="preserve">
<g>
	<path d="M182.1,83c0-9.2,1.6-18.1,4.3-26.1l-11.6-16.8c-6.1,12.8-9.5,27.4-9.5,42.9c0,38.8,21.7,72.1,52.6,86v13v64.9v16.9V291v56
		c-26,12.1-44.2,38.4-44.2,69c0,16.4,5.2,31.5,14.1,44h22.6c-12.1-10.8-19.6-26.5-19.6-44c0-27.4,18.7-50.5,44.2-57.2v-2.9v-14.4
		V168.3v-12.8h-0.1C204.5,147.9,182.1,118.3,182.1,83z"/>
	<path d="M282.3,346.8V319v-55.4v-16.7V192v-23.1c30.8-13.9,52.6-47.1,52.6-86c0-15.4-3.5-30-9.5-42.9l-11.7,16.7
		c2.8,8.2,4.3,17,4.3,26.1c0,35.3-22.4,64.9-52.6,72.4v12.8v173.2v14.4v2.9c25.4,6.7,44.2,29.8,44.2,57.2c0,17.4-7.6,33.1-19.6,44
		h22.6c8.8-12.4,14.1-27.6,14.1-44C326.4,385.3,308.4,359,282.3,346.8z"/>
</g>
</svg>
