<?xml version="1.0" encoding="utf-8"?>
<!-- Generator: Adobe Illustrator 22.1.0, SVG Export Plug-In . SVG Version: 6.00 Build 0)  -->
<svg version="1.1" id="图层_1" xmlns="http://www.w3.org/2000/svg" xmlns:xlink="http://www.w3.org/1999/xlink" x="0px" y="0px"
	 viewBox="0 0 500 500" style="enable-background:new 0 0 500 500;" xml:space="preserve">
<g>
	<path d="M301.9,91.5c0-28.5-23.2-51.5-51.8-51.5s-51.8,23.1-51.8,51.5c0,24.9,17.8,45.6,41.4,50.4V460h20.8V142
		C284.1,137.2,301.9,116.4,301.9,91.5z M250.1,124.3c-18.4,0-33.3-14.7-33.3-32.9c0-18.2,14.9-32.9,33.3-32.9s33.3,14.7,33.3,32.9
		C283.3,109.6,268.5,124.3,250.1,124.3z"/>
	<path d="M115.5,91.5H99c4.6,62.9,50.5,114.7,111.6,130.5v37.5V285v3.9v6.4v20.6v6.2v11.5v72.7v8.3v8.3h20.8v-8.3v-8.3V226v-16.4
		C168.9,201.4,120.2,152.2,115.5,91.5z"/>
	<path d="M384.5,91.6c-4.5,60.8-53.3,109.9-115.8,118.2v16.4v180.3v8.3v8.3h20.8v-8.4v-8.3v-39.8v-44.4v-6.2v-20.6v-6.5V285v-12
		v-50.9c61.1-15.9,107-67.6,111.6-130.5H384.5z"/>
</g>
</svg>
