<?xml version="1.0" encoding="utf-8"?>
<!-- Generator: Adobe Illustrator 22.1.0, SVG Export Plug-In . SVG Version: 6.00 Build 0)  -->
<svg version="1.1" id="图层_1" xmlns="http://www.w3.org/2000/svg" xmlns:xlink="http://www.w3.org/1999/xlink" x="0px" y="0px"
	 viewBox="0 0 500 500" style="enable-background:new 0 0 500 500;" xml:space="preserve">
<g>
	<path d="M296.6,155.4c0-26.1-21.3-47.4-47.6-47.4s-47.6,21.2-47.6,47.4s21.3,47.4,47.6,47.4S296.6,181.6,296.6,155.4z M249,185.6
		c-16.8,0-30.5-13.5-30.5-30.3c0-16.7,13.7-30.3,30.5-30.3s30.5,13.5,30.5,30.3S265.8,185.6,249,185.6z"/>
	<path d="M125.2,146.8c0-38.5,19.2-72.7,49.1-94.3L163.1,40C130.7,64.6,110,102.8,110,145.6c0,62.2,43.6,114.4,103,129.8v57.9v3.6
		v5.9h-80.1v18.9H213v5.7v77.3v7.6v7.6h19v-7.6v-7.6V279.1v-15C171.6,256.1,125.2,206.6,125.2,146.8z"/>
	<path d="M287,336.9v-3.6v-57.9c59.3-15.4,103-67.6,103-129.8c0-42.8-20.8-81.1-53.1-105.6l-11.1,12.6
		c29.7,21.5,49.1,55.8,49.1,94.3c0,59.9-46.4,109.2-106.6,117.2v15v165.7v7.6v7.6h19v-7.6v-7.6v-77.5v-5.7h80.1v-18.9h-80.1v-5.9
		H287z"/>
</g>
</svg>
