<?xml version="1.0" encoding="utf-8"?>
<!-- Generator: Adobe Illustrator 22.1.0, SVG Export Plug-In . SVG Version: 6.00 Build 0)  -->
<svg version="1.1" id="图层_1" xmlns="http://www.w3.org/2000/svg" xmlns:xlink="http://www.w3.org/1999/xlink" x="0px" y="0px"
	 viewBox="0 0 500 500" style="enable-background:new 0 0 500 500;" xml:space="preserve">
<g>
	<path d="M292.3,319.1v-7v-16.8v-18.4h-0.2v-86.8v-6.4v-6.1v-51.2v-9c0.8-0.2,1.6-0.4,2.4-0.6H270v4.6v173.8v16.8v0.2v8.3v13.3
		c33.2,8.3,57.7,37.1,57.7,71.2c0,21.8-10,41.3-25.7,54.7h29.5c11.6-15.5,18.4-34.4,18.4-54.7C350,367,326.4,334.4,292.3,319.1z"/>
	<path d="M172.1,405.3c0-34.1,24.5-62.9,57.7-71.2v-13.3v-8.3v-0.2v-8.5V119.4v-2.6h-22.1v62.9v4v6.6v21.1v6.2v52.8v33.3v8.5v7
		c-34.1,15-57.7,47.9-57.7,86c0,20.3,6.8,39.2,18.4,54.7h29.5C182.1,446.6,172.1,426.9,172.1,405.3z"/>
	<path d="M261.1,355.6V40h-22.3v315.6c-25.3,4.8-44.4,26.1-44.4,51.5c0,29.1,24.8,52.7,55.5,52.7s55.5-23.5,55.5-52.7
		C305.4,381.7,286.4,360.4,261.1,355.6z M249.9,441c-19.6,0-35.6-15-35.6-33.8c0-18.7,15.9-33.8,35.6-33.8c19.6,0,35.6,15,35.6,33.8
		C285.5,425.9,269.5,441,249.9,441z"/>
</g>
</svg>
