<?xml version="1.0" encoding="utf-8"?>
<!-- Generator: Adobe Illustrator 22.1.0, SVG Export Plug-In . SVG Version: 6.00 Build 0)  -->
<svg version="1.1" id="图层_1" xmlns="http://www.w3.org/2000/svg" xmlns:xlink="http://www.w3.org/1999/xlink" x="0px" y="0px"
	 viewBox="0 0 500 500" style="enable-background:new 0 0 500 500;" xml:space="preserve">
<g>
	<g>
		<ellipse cx="250" cy="415.2" rx="21.9" ry="22.2"/>
	</g>
	<g>
		<ellipse cx="250" cy="134.6" rx="21.9" ry="22.2"/>
	</g>
	<g>
		<path d="M305.8,0H194.2L85,181.7L168.5,500h162.9L415,181.7L305.8,0z M199.7,450c-7.1-10.2-11.3-22.7-11.3-36.1
			c0-25.1,14.6-46.7,35.6-56.7v-4.7V347v-56.8V286h-57.5v-13.9H224v-4.3v-2.6v-42.5c-42.6-11.3-74-49.6-74-95.2
			c0-31.4,14.9-59.4,38.2-77.5l12.5,14.3c-19.2,14.6-31.5,37.5-31.5,63.2c0,39.9,29.7,73,68.6,78.8v0.5v6.8v11.7V347v5.6v0.1v5.5
			v2.9v5.9c-20.5,5.5-35.6,24.5-35.6,47c0,14.3,6.1,27.2,15.9,36.1H199.7z M250,449.9c-18.9,0-34.2-15.5-34.2-34.7
			c0-16.8,11.8-30.8,27.4-34V168.6c-15.6-3.2-27.4-17.2-27.4-34c0-19.2,15.3-34.7,34.2-34.7s34.2,15.5,34.2,34.7
			c0,16.8-11.8,30.8-27.4,34v212.5c15.6,3.2,27.4,17.2,27.4,34C284.2,434.4,268.9,449.9,250,449.9z M334.9,286H276v2.8v52.6v11.1
			v4.7c21,10,35.6,31.6,35.6,56.7c0,13.5-4.2,25.9-11.3,36.1h-18.2c9.7-8.9,15.9-21.8,15.9-36.1c0-22.5-15.1-41.5-35.6-47V361v-2.9
			v-5.5v-0.1v-11.1V226.7v-13.1v-5.9v-0.9h4.8c36.4-7.7,63.8-39.7,63.8-77.9c0-25.7-12.4-48.6-31.5-63.2l12.5-14.3
			c23.2,18.1,38.2,46,38.2,77.5c0,45.6-31.4,83.9-74,95.2v39.7v4v4.3h58.9V286z"/>
	</g>
</g>
</svg>
