<?xml version="1.0" encoding="utf-8"?>
<!-- Generator: Adobe Illustrator 22.1.0, SVG Export Plug-In . SVG Version: 6.00 Build 0)  -->
<svg version="1.1" id="图层_1" xmlns="http://www.w3.org/2000/svg" xmlns:xlink="http://www.w3.org/1999/xlink" x="0px" y="0px"
	 viewBox="0 0 500 500" style="enable-background:new 0 0 500 500;" xml:space="preserve">
<g>
	<path d="M307.1,155.7c0-31.9-25.9-57.8-57.9-57.8s-57.9,25.9-57.9,57.8c0,31.9,25.9,57.8,57.9,57.8S307.1,187.6,307.1,155.7z
		 M250,191.1c-20,0-36.2-16.2-36.2-36.1s16.2-36.1,36.2-36.1s36.2,16.2,36.2,36.1S270,191.1,250,191.1z"/>
	<path d="M286.2,338.3v-5.5v-46.3v-8.1C345.3,262.9,389,210.5,389,148c0-43.1-20.8-81.4-53.1-106.1l-17.4,19.7
		c26.6,20,43.8,51.3,43.8,86.5c0,54.7-41.4,99.9-95.2,108v8.1V282v157v15.2v0.1v5.6h19.1v-5.8V439v-16.6h-0.1V344V338.3z"/>
	<path d="M137.6,146.1c0-35.3,17.2-66.5,43.8-86.5L164.1,40C131.8,64.7,111,103,111,146.1c0,62.3,43.3,114.6,102.3,130.3h0.5v0.1
		v58.1v3.6v5.9v19.1v5.6v47.7v30.1v7.7v5.6h18.9v-5.5v-0.1v-7.7V280.1v-16v-10C178.8,246.2,137.6,200.8,137.6,146.1z"/>
</g>
</svg>
