<?xml version="1.0" encoding="utf-8"?>
<!-- Generator: Adobe Illustrator 22.1.0, SVG Export Plug-In . SVG Version: 6.00 Build 0)  -->
<svg version="1.1" id="图层_1" xmlns="http://www.w3.org/2000/svg" xmlns:xlink="http://www.w3.org/1999/xlink" x="0px" y="0px"
	 viewBox="0 0 500 500" style="enable-background:new 0 0 500 500;" xml:space="preserve">
<g>
	<path d="M258.4,407.4V152.3c19.1-3.9,33.4-20.7,33.4-40.8c0-23-18.7-41.7-41.8-41.7s-41.8,18.7-41.8,41.7c0,20.2,14.4,37,33.4,40.8
		v255.1c-19.1,3.9-33.4,20.7-33.4,40.8c0,23,18.7,41.7,41.8,41.7s41.8-18.7,41.8-41.7C291.8,428.1,277.4,411.3,258.4,407.4z
		 M223.3,111.5c0-14.7,12-26.7,26.7-26.7c14.8,0,26.7,11.9,26.7,26.7s-12,26.7-26.7,26.7C235.2,138.2,223.3,126.2,223.3,111.5z
		 M250,474.9c-14.8,0-26.7-11.9-26.7-26.7s12-26.7,26.7-26.7c14.8,0,26.7,11.9,26.7,26.7S264.8,474.9,250,474.9z"/>
	<path d="M191.5,446.7c0-27,18.4-49.8,43.5-56.4v-10.6v-6.6v-0.1v-6.7v-146v-14.1v-8.8c-47.4-7-83.6-46.7-83.6-94.6
		c0-30.9,15.1-58.3,38.5-75.8L174.6,10C146.2,31.7,128,65.3,128,103c0,54.7,38.3,100.7,90.2,114.3v51v3.2v5.2h-70.2v16.7h70.2v5
		v68.2v6.7v5.6c-25.7,11.9-43.5,37.9-43.5,68c0,16.2,5.1,31.1,13.8,43.3h22.2C199,479.3,191.5,463.9,191.5,446.7z"/>
	<path d="M281.8,271.4v-4.8v-47.6c52-13.6,90.2-59.6,90.2-114.3c0-37.7-18.2-71.3-46.6-93l-15.2,17.2c23.4,17.5,38.5,44.9,38.5,75.8
		c0,47.9-36.3,87.6-83.6,94.6v7.1v15.7v137.6v13.3v0.1v6.6v10.6c25,6.6,43.5,29.4,43.5,56.4c0,17.2-7.5,32.7-19.3,43.3h22.2
		c8.7-12.2,13.8-27.2,13.8-43.3c0-30.1-17.8-56.1-43.5-68v-5.6v-13.3v-63.2v-3.3h71.9v-16.7h-71.9V271.4z"/>
</g>
</svg>
