<?xml version="1.0" encoding="utf-8"?>
<!-- Generator: Adobe Illustrator 22.1.0, SVG Export Plug-In . SVG Version: 6.00 Build 0)  -->
<svg version="1.1" id="图层_1" xmlns="http://www.w3.org/2000/svg" xmlns:xlink="http://www.w3.org/1999/xlink" x="0px" y="0px"
	 viewBox="0 0 500 500" style="enable-background:new 0 0 500 500;" xml:space="preserve">
<g>
	<path d="M259.5,358V40h-20.8v318c-23.7,4.8-41.5,25.5-41.5,50.4c0,28.5,23.2,51.5,52,51.5s52-23,52-51.5
		C301,383.5,283.1,362.7,259.5,358z M249,441.3c-18.4,0-33.3-14.7-33.3-32.9s14.9-32.9,33.3-32.9s33.3,14.7,33.3,32.9
		S267.4,441.3,249,441.3z"/>
	<path d="M176.2,406.4c0-33.4,23-61.4,54.1-69.6v-8.6v-12.5v-216h-20.8v53.5H122v20.6h87.3v148.7c-31.9,14.7-54.1,46.7-54.1,84
		c0,20,6.3,38.3,17.2,53.6h27.7C185.5,446.8,176.2,427.7,176.2,406.4z"/>
	<path d="M378,173.8v-20.7h-89.4V99.5h-20.8v216v12.5v8.7c31.1,8.2,54.1,36.2,54.1,69.6c0,21.2-9.3,40.3-24.1,53.6h27.7
		c10.8-15.1,17.2-33.6,17.2-53.6c0-37.2-22.2-69.2-54.1-84V173.8H378z"/>
</g>
</svg>
