<?xml version="1.0" encoding="utf-8"?>
<!-- Generator: Adobe Illustrator 22.1.0, SVG Export Plug-In . SVG Version: 6.00 Build 0)  -->
<svg version="1.1" id="图层_1" xmlns="http://www.w3.org/2000/svg" xmlns:xlink="http://www.w3.org/1999/xlink" x="0px" y="0px"
	 viewBox="0 0 500 500" style="enable-background:new 0 0 500 500;" xml:space="preserve">
<style type="text/css">
	.st0{fill:none;}
	.st1{fill:#FFFFFF;}
</style>
<polygon class="st0" points="605,250 252.5,604 -100,250 252.5,-104 "/>
<path class="st1" d="M696.4,79c0,0.5,0.4,1,1,1s1-0.4,1-1c0-0.5-0.4-1-1-1C696.8,78,696.4,78.4,696.4,79z"/>
<g>
	<path d="M249.5,180c-12.2,0.6-40.5,5.1-50,33.8c-8.2,24.5,7.3,52.3,4.2,56c-12.6,15,4.5,38.8,6.8,40.7c4.2,3.5,17.6-3.6,15.5,0.1
		c-1.6,2.8-3.1,24-3.1,24h4.1l2-7.4h3.5l0.7,7.4h7.2l0.7-7.1l2.4-0.4l0.3,7.4h5.9l0.3-7.6h4.8l0.3,7.6h5.9l0.3-7.4l2.4,0.4l0.7,7.1
		h7.2l0.7-7.4h3.5l2,7.4h4.1c0,0-1.5-21.2-3.1-24c-2.1-3.7,11.3,3.4,15.5-0.1c2.3-2,19.4-25.7,6.8-40.7c-3.2-3.8,12.2-31.5,4.1-56
		c-9.6-28.8-37.8-33.2-50.1-33.8c0,0-1-0.1-2.8-0.1C250.5,179.9,249.5,180,249.5,180z M237.2,291.3c-7.7,4.5-15.3,3.8-18.4,3.4
		c-0.2,0-0.4-0.1-0.6-0.2c-6.8-4.4-9.3-11.3-7.3-15.5c0.3-0.7,1.4-2.8,5-4.1c0.2-0.1,0.4-0.1,0.6-0.1c4.3,0.4,9.6,1.3,15.4,3.2
		c4.8,1.5,8.8,3.4,12.1,5.2c0.9,0.2,1.1,1.4,0.4,2.1C242.8,287.2,240.4,289.4,237.2,291.3z M260.6,283c3.3-1.8,7.4-3.6,12.1-5.2
		c5.9-1.9,11.2-2.8,15.4-3.2c0.2,0,0.4,0,0.6,0.1c3.5,1.3,4.7,3.5,5,4.1c2,4.4-0.5,11.3-7.3,15.7c-0.2,0.1-0.4,0.2-0.6,0.2
		c-3.1,0.4-10.7,1.1-18.4-3.4c-3.2-1.8-5.6-4.1-7.2-6C259.6,284.6,259.8,283.5,260.6,283z M255.2,294.9c5.5,5.3,5.6,12.7,5.4,16.4
		c0,0.5-0.6,0.7-0.9,0.3c-0.7-1-1.7-2.1-3.1-3.1c-1.4-1.1-2.8-1.8-3.9-2.2c-1,0.4-2.4,1.1-3.9,2.2c-1.3,1-2.3,2.1-3.1,3.1
		c-0.3,0.4-0.9,0.2-0.9-0.3c-0.2-3.6-0.1-11.1,5.2-16.4c0.7-0.7,1.6-1.3,2.6-1.9C253.6,293.6,254.5,294.2,255.2,294.9z"/>
	<path d="M353.5,0H146.5L0,146.5v207.1L146.5,500h207.1L500,353.5V146.5L353.5,0z M324.1,263.7V430H177.1V262.1l-95.6-1L253,31.7
		l166.7,233L324.1,263.7z"/>
</g>
</svg>
