<?xml version="1.0" encoding="utf-8"?>
<!-- Generator: Adobe Illustrator 22.1.0, SVG Export Plug-In . SVG Version: 6.00 Build 0)  -->
<svg version="1.1" id="图层_1" xmlns="http://www.w3.org/2000/svg" xmlns:xlink="http://www.w3.org/1999/xlink" x="0px" y="0px"
	 viewBox="0 0 500 500" style="enable-background:new 0 0 500 500;" xml:space="preserve">
<style type="text/css">
	.st0{fill:none;}
</style>
<polygon class="st0" points="605,250 252.5,604 -100,250 252.5,-104 "/>
<g>
	<path d="M285.4,262.2c-0.2-0.1-0.4-0.1-0.6-0.1c-4.1,0.4-9.2,1.2-14.9,3c-4.7,1.4-8.6,3.1-11.8,4.8c-0.8,0.4-1,1.5-0.4,2.2
		c1.6,1.8,3.9,3.8,7,5.6c7.5,4.2,14.9,3.6,17.9,3.2c0.1,0,0.3-0.1,0.5-0.2c6.5-4.1,9-10.6,7.1-14.6
		C289.9,265.5,288.8,263.4,285.4,262.2z"/>
	<path d="M242,269.9c-3.3-1.6-7.2-3.4-11.8-4.8c-5.6-1.8-10.8-2.6-14.9-3c-0.2,0-0.4,0-0.6,0.1c-3.4,1.3-4.5,3.3-4.8,3.9
		c-1.9,4,0.5,10.5,7.1,14.6c0.1,0.1,0.3,0.2,0.5,0.2c3,0.4,10.4,1,17.9-3.2c3.1-1.7,5.4-3.8,7-5.6C243,271.4,242.8,270.3,242,269.9z
		"/>
	<path d="M293.9,347.6c-9.3,3.9-24.5,9-43.9,9.6c-20.5,0.7-36.8-3.9-46.5-7.5c-0.7,5.4-1.9,12-4.4,19.2
		c-3.7,10.6-8.7,18.8-12.8,24.4c41.1-0.5,82.1-1.1,123.3-1.8c-3.9-4.6-9.7-12.8-13.1-24.4C294.3,359.4,293.8,352.6,293.9,347.6z"/>
	<path d="M151.4,203.4c-5,0.1-11.8-0.4-19.5-2.6c-11.6-3.4-19.7-9.2-24.4-13.1c-0.6,41.1-1.2,82.1-1.8,123.2
		c5.6-4.1,13.7-9.1,24.4-12.8c7.2-2.5,13.8-3.8,19.2-4.4c-3.5-9.6-8.2-25.9-7.5-46.4C142.4,227.9,147.5,212.7,151.4,203.4z"/>
	<path d="M203.4,148.7c9.7-3.5,26-8.2,46.5-7.5c19.4,0.6,34.6,5.7,43.9,9.6c-0.1-5,0.4-11.8,2.6-19.5c3.4-11.6,9.2-19.8,13.1-24.4
		c-41.1-0.6-82.1-1.1-123.3-1.8c4.1,5.6,9.1,13.7,12.8,24.4C201.5,136.7,202.8,143.3,203.4,148.7z"/>
	<path d="M250.4,279.1c-1,0.6-1.8,1.1-2.5,1.8c-5.2,5.1-5.3,12.1-5.1,15.5c0.1,0.5,0.6,0.7,0.9,0.3c0.7-0.9,1.7-1.9,3-2.9
		c1.4-1,2.7-1.6,3.7-2c1,0.4,2.3,1,3.7,2c1.3,1,2.3,2,3,2.9c0.3,0.3,0.9,0.2,0.9-0.3c0.3-3.3,0.1-10.3-5.1-15.5
		C252.3,280.2,251.4,279.6,250.4,279.1z"/>
	<path d="M367.7,200.7c-7.7,2.2-14.5,2.7-19.5,2.6c3.9,9.3,9,24.5,9.6,43.9c0.7,20.5-3.9,36.8-7.5,46.5c5.4,0.7,12,1.9,19.2,4.4
		c10.7,3.6,18.8,8.7,24.4,12.7c-0.6-41.1-1.2-82.1-1.8-123.2C387.6,191.5,379.4,197.3,367.7,200.7z"/>
	<path d="M249.4,156.9c-50.5,0-91.4,40.9-91.4,91.4s40.9,91.4,91.4,91.4s91.4-40.9,91.4-91.4S299.9,156.9,249.4,156.9z M297.3,257.4
		c12.2,14.1-4.3,36.4-6.6,38.3c-4.1,3.3-17.1-3.4-15,0.1c1.6,2.6,3,22.6,3,22.6h-4.1l-1.9-7h-3.4l-0.7,7h-7l-0.7-6.7l-2.3-0.3
		l-0.3,7h-5.7l-0.3-7.2h-4.6l-0.3,7.2h-5.7l-0.3-7l-2.3,0.3l-0.7,6.7h-7l-0.7-7h-3.4l-1.9,7h-4c0,0,1.5-20,3-22.6
		c2-3.5-10.9,3.2-15-0.1c-2.2-1.9-18.8-24.2-6.6-38.3c3.1-3.5-11.9-29.5-4-52.6c9.3-27,36.7-31.3,48.5-31.8c0,0,0.9-0.1,2.7-0.1
		c1.7,0,2.7,0.1,2.7,0.1c11.8,0.5,39.2,4.8,48.5,31.8C309.1,227.9,294.1,253.9,297.3,257.4z"/>
	<path d="M353.5,0H146.5L0,146.5v207.1L146.5,500h207.1L500,353.5V146.5L353.5,0z M416.8,359.5h-6.7c-4.3-9.4-18.4-27.7-36.6-38.1
		c-2.9-1.6-7.1-3.2-11.6-4.6c-11.4,18.6-27.3,34.1-46.2,45.1c1.7,4.9,4,10.1,7.3,15.4c12.4,20.2,30.3,28.7,36.9,31.4
		c0,2.4,0,4.8,0,7.2H137.5v-6.7c9.4-4.3,27.7-18.4,38.1-36.6c1.9-3.1,3.5-7.8,5-12.7c-17.5-10.9-32.3-25.8-43-43.4
		c-4.8,1.5-9.4,3.1-12.5,4.9c-18.2,10.4-32.3,28.8-36.6,38.1h-6.7V137.2c2.5,0,4.9,0,7.3,0c2.8,6.5,11.2,24.5,31.4,36.9
		c5.6,3.5,11.1,5.9,16.3,7.6c10.8-18.3,25.9-33.7,43.9-44.9c-1.5-4.9-3.1-9.5-4.9-12.6c-10.4-18.2-28.8-32.3-38.1-36.6v-6.7H360
		c0,2.4,0,4.8,0,7.2c-6.5,2.8-24.5,11.2-36.9,31.4c-3.2,5.2-5.5,10.4-7.2,15.2c19.4,11.3,35.6,27.3,47,46.6c4.9-1.7,10.1-4,15.4-7.3
		c20.2-12.4,28.7-30.3,31.4-36.9c2.4,0,4.8,0,7,0V359.5z"/>
</g>
</svg>
