<?xml version="1.0" encoding="utf-8"?>
<!-- Generator: Adobe Illustrator 22.1.0, SVG Export Plug-In . SVG Version: 6.00 Build 0)  -->
<svg version="1.1" id="图层_1" xmlns="http://www.w3.org/2000/svg" xmlns:xlink="http://www.w3.org/1999/xlink" x="0px" y="0px"
	 viewBox="0 0 500 500" style="enable-background:new 0 0 500 500;" xml:space="preserve">
<style type="text/css">
	.st0{fill:none;}
	.st1{fill:#FFFFFF;}
</style>
<polygon class="st0" points="605,250 252.5,604 -100,250 252.5,-104 "/>
<path class="st1" d="M696.4,79c0,0.5,0.4,1,1,1s1-0.4,1-1c0-0.5-0.4-1-1-1C696.8,78,696.4,78.4,696.4,79z"/>
<path d="M353.5,0H146.5L0,146.5v207.1L146.5,500h207.1L500,353.5V146.5L353.5,0z M336.4,444L142,200.7h81.4L131.5,70.4h140.2
	l72.3,202.3h-72.3L336.4,444z"/>
</svg>
