<?xml version="1.0" encoding="utf-8"?>
<!-- Generator: Adobe Illustrator 22.1.0, SVG Export Plug-In . SVG Version: 6.00 Build 0)  -->
<svg version="1.1" id="图层_1" xmlns="http://www.w3.org/2000/svg" xmlns:xlink="http://www.w3.org/1999/xlink" x="0px" y="0px"
	 viewBox="0 0 500 500" style="enable-background:new 0 0 500 500;" xml:space="preserve">
<style type="text/css">
	.st0{fill:none;}
	.st1{fill:#FFFFFF;}
</style>
<polygon class="st0" points="605,250 252.5,604 -100,250 252.5,-104 "/>
<path class="st1" d="M696.4,79c0,0.5,0.4,1,1,1s1-0.4,1-1c0-0.5-0.4-1-1-1C696.8,78,696.4,78.4,696.4,79z"/>
<path d="M353.5,0H146.5L0,146.5v207.1L146.5,500h207.1L500,353.5V146.5L353.5,0z M196.1,382.2c-0.7-0.8-1.2-1.4-1.7-2
	c-7.3-8.6-16.8-9.8-25.3-3.2c-2.7,2.1-5.2,4.7-7.6,7.3c-2.9,3.1-5.7,6.4-8.5,9.5c-8.5,9.3-18.2,13.9-29.7,13.2
	c-10.3-0.6-20.2-2.4-29.2-9c-1.7-1.2-3.3-2.7-5.3-4.4c3.2-1.1,6-1.8,8.7-3c6.9-3.2,13.9-6.4,20.8-9.9c2.6-1.3,5.1-3.5,7.4-5.5
	c1.5-1.3,2.9-2.9,3.9-4.7c0.8-1.5,1.3-3.7,1.1-5.4c-0.1-0.8-2.3-1.6-3.6-1.7c-6.1-0.6-12.3-0.7-18.3-1.7
	c-17-2.9-29.9-13.4-37.6-32.7c-0.2-0.6-0.4-1.2-0.6-1.8c-0.1-0.2-0.1-0.4,0.4-0.7c0.6,0,1.3,0,1.9,0c13.5,1,26.9,0.9,40.2-1.9
	c2.7-0.6,5.4-1.7,8.1-2.7c0.7-0.3,1.5-0.8,1.9-1.4c0.5-0.7,0.9-1.9,0.8-2.7c0-0.5-1.2-1-1.9-1c-4.7-0.4-9.4,0-14-0.9
	c-10-2-18.2-8.6-25.7-16.7c-8.2-9-14.8-19.6-20.7-30.9c0-0.2-0.1-0.4-0.2-0.9c0.9,0.5,1.6,0.8,2.3,1.1c11.2,5.6,22.7,10.2,34.8,11.8
	c4.2,0.5,8.5,0,12.8,0c0.2,0,0.4,0,0.6-0.1c1.4-1.1,2.7-2.2,4.1-3.2c-1-1.3-1.9-3-3.1-3.9c-6.9-5.4-14-10.3-20.6-16.1
	c-10.1-8.9-18-20.2-22.1-35c-2.2-7.6-3-15.5-2.6-24.1c0.8,0.8,1.4,1.3,1.9,1.8c9.7,10.4,19.9,20.1,31.1,28.1
	c3.7,2.6,7.7,4.7,11.6,6.8c1.4,0.8,3.3,1.7,4.4-0.4c1-1.9-0.4-3.6-1.4-5c-15.6-22.8-21.8-50-24.3-78.9c-0.9-10.4-1.1-20.9-1.5-31.4
	c-0.1-0.9,0-1.8,0.4-2.8c0.2,0.7,0.5,1.5,0.8,2.2c7.9,21.8,17.2,42.6,28.9,61.6c17,27.4,38.7,47.1,65,59.1c4,1.8,8,4.1,12,6.2
	c1.2,0.6,2.3,1.5,3.5,2.3c9,6.8,11.2,20.3,4.6,30.5c-2.1,3.2-4.8,5.8-7.5,8.5c-2.7,2.7-5.7,5-8.4,7.7c-8.7,8.5-10.9,19.8-8.4,32.5
	c2.4,12.4,9.6,18.6,19.2,21.3c2.1,0.6,4.3,0.9,6.6,1.3C202.8,360.1,199.5,371,196.1,382.2z M273.8,393.9L252.6,443l-21.1-49.2
	l14.8-18.6l-2.2-40.6h-8.6l-13.1,12l-19.5-18l19.6-17.9l13,12h8l-11.4-213.5l21.4-75.3l21,75.4l-12.3,213.5h7.9l13.1-12l19.5,18
	l-19.5,17.9l-13.1-12.1h-8.6l-2.3,40.7L273.8,393.9z M444.2,268.2c-5.9,11.3-12.5,21.9-20.7,30.9c-7.5,8.1-15.7,14.7-25.7,16.7
	c-4.6,0.9-9.3,0.6-14,0.9c-0.7,0-1.9,0.5-1.9,1c-0.1,0.8,0.3,2,0.8,2.7c0.4,0.7,1.2,1.2,1.9,1.4c2.7,1,5.4,2.1,8.1,2.7
	c13.4,2.7,26.7,2.8,40.2,1.9c0.6,0,1.3,0,1.9,0c0,0.3,0,0.5,0.4,0.7c-0.2,0.6-0.4,1.2-0.6,1.8c-7.7,19.3-20.6,29.8-37.6,32.7
	c-6.1,1-12.2,1.1-18.3,1.7c-1.3,0.2-3.5,0.9-3.6,1.7c-0.3,1.7,0.3,3.9,1.1,5.4c1,1.9,2.4,3.4,3.9,4.7c2.4,2,4.8,4.2,7.4,5.5
	c6.9,3.6,13.8,6.8,20.8,9.9c2.6,1.2,5.4,1.9,8.7,3c-2,1.7-3.6,3.2-5.3,4.4c-9,6.6-19,8.4-29.2,9c-11.5,0.7-21.3-3.9-29.7-13.2
	c-2.9-3.1-5.6-6.4-8.5-9.5c-2.4-2.5-4.9-5.2-7.6-7.3c-8.5-6.6-18-5.3-25.3,3.2c-0.5,0.6-1,1.2-1.7,2c-3.4-11.1-6.7-22-10-32.9
	c2.4-0.5,4.5-0.7,6.6-1.3c9.6-2.8,16.8-9,19.2-21.3c2.5-12.8,0.3-24-8.4-32.5c-2.7-2.7-5.7-5-8.4-7.7c-2.6-2.7-5.4-5.2-7.5-8.5
	c-6.5-10.2-4.4-23.7,4.6-30.5c1.1-0.8,2.3-1.7,3.5-2.3c3.9-2.1,7.9-4.3,12-6.2c26.3-12,48-31.7,65-59.1c11.7-19,21-39.8,28.9-61.6
	c0.2-0.7,0.5-1.5,0.8-2.2c0.4,1,0.4,1.9,0.4,2.8c-0.5,10.5-0.6,21-1.5,31.4c-2.5,28.9-8.7,56.1-24.3,78.9c-1,1.4-2.4,3.1-1.4,5
	c1.1,2,3,1.1,4.4,0.4c3.9-2.1,7.9-4.2,11.6-6.8c11.2-8,21.3-17.7,31.1-28.1c0.6-0.5,1.1-1,1.9-1.8c0.4,8.6-0.5,16.5-2.6,24.1
	c-4.1,14.7-11.9,26.1-22.1,35c-6.7,5.8-13.8,10.7-20.6,16.1c-1.2,1-2.1,2.6-3.1,3.9c1.4,1.1,2.7,2.2,4.1,3.2
	c0.2,0.1,0.4,0.1,0.6,0.1c4.3,0,8.6,0.5,12.8,0c12.1-1.6,23.6-6.2,34.8-11.8c0.6-0.4,1.4-0.7,2.3-1.1
	C444.3,267.8,444.3,268,444.2,268.2z"/>
</svg>
