<?xml version="1.0" encoding="utf-8"?>
<!-- Generator: Adobe Illustrator 22.1.0, SVG Export Plug-In . SVG Version: 6.00 Build 0)  -->
<svg version="1.1" id="图层_1" xmlns="http://www.w3.org/2000/svg" xmlns:xlink="http://www.w3.org/1999/xlink" x="0px" y="0px"
	 viewBox="0 0 500 500" style="enable-background:new 0 0 500 500;" xml:space="preserve">
<style type="text/css">
	.st0{fill:none;}
	.st1{fill:#FFFFFF;}
</style>
<polygon class="st0" points="605,250 252.5,604 -100,250 252.5,-104 "/>
<path class="st1" d="M696.4,79c0,0.5,0.4,1,1,1s1-0.4,1-1c0-0.5-0.4-1-1-1C696.8,78,696.4,78.4,696.4,79z"/>
<path class="st0" d="M218,388c0-14.9,6.7-27,15-27"/>
<path d="M353.5,0H146.5L0,146.5v207.1L146.5,500h207.1L500,353.5V146.5L353.5,0z M414,364.3c-0.2,4.9-0.3,14-0.3,20.2v11.2
	l-47.6,0.2c-26.2,0.1-55.3,0.3-64.6,0.4c-9.3,0.1-17.1,0.1-17.3,0c-0.1,0-3.9-0.1-10.2-0.2v-55.8l-15.7-22.7h-21.1l-15.7,22.7v55.5
	c-27.7-0.1-30.1-0.1-30.5,0.3c-0.5,0.4-0.6,0.4-0.7-0.1l-0.2-0.5H136H81.6v-24.6v-24.6h9.5h9.4l2.6-1.5
	c13.5-8.1,24.1-17.7,27.2-24.6c0.6-1.3,0.6-1.5,0.3-14.8c-0.5-24.1-0.9-39.9-1.2-57.2c-0.4-20-0.5-22.2-1.1-22.2
	c-0.3,0-0.4-0.1-0.4-0.3c0-0.2-1.6-0.3-4.1-0.3c-2.3,0-4.1-0.1-4.1-0.2c0-0.1,0.4-1,0.9-2.1c0.8-1.5,0.9-2,0.6-2.5
	c-0.4-0.7-2.6-1.7-5.4-2.3l-2-0.4v-2.8v-2.8h-5.5h-5.5v-12.9v-12.9h2.8h2.8l0.2-13.2c0.1-7.2,0.2-16.4,0.2-20.5v-7.4l6-0.2
	c3.3-0.1,8.1-0.2,10.8-0.2h4.8v6.1c0,5.9,0,6.1,0.6,6.1c0.6,0,0.6-0.2,0.6-14.4v-14.5l-4.1-4.3c-2.7-2.8-4.3-4.3-4.7-4.3l-0.7-0.1
	v-12.9c0-7.1,0.1-12.9,0.2-12.9c0.1,0,0.8,0.8,1.6,1.7l1.4,1.7h6.2h6.2v4.9v4.9l1.4,0.2c0.8,0.1,2.4,0.2,3.7,0.2h2.3v-5.1v-5.1
	l3.3-0.2c1.8-0.1,6.3-0.1,9.9-0.1l6.6,0.1l0.1,5l0.1,5h3.1h3.1v-4.9v-4.9h7.9h8v9.8v9.8l1.4,0.1l1.4,0.1l-1.9,2
	c-1.1,1.1-3.4,3.6-5.1,5.4l-3.2,3.4l0.1,14.7c0.1,12.1,0.2,14.7,0.5,14.7c0.6,0,0.8-1.7,0.8-7.1v-4.8h6.7c3.7,0,8.6-0.1,10.8-0.2
	l4.1-0.2v3.3c0,1.8,0.1,4.5,0.2,6.1l0.2,2.8l5.7,0.1l5.7,0v-28.1v-28.1l-5.2-3.5c-2.9-2-5.5-3.6-5.8-3.7c-0.5-0.1-0.5-0.8-0.5-11h0
	V71.9l1.2,0.5c1.1,0.5,1.7,0.5,10.6,0.5h9.4v3c0,1.7,0.1,3.8,0.2,4.7l0.2,1.7h5.1h5.1v-4.7v-4.7l12.5,0.1l12.5,0.1l0.2,3.9
	c0.1,2.2,0.2,4.3,0.2,4.8l0,0.8h5h5.1l0.2-3.3c0.1-1.8,0.2-3.9,0.2-4.7v-1.5h3.6c2,0,6.7-0.1,10.3-0.2l6.7-0.2v8.8v8.8l1.8,0.1
	l1.9,0.1l-1.9,1.2c-1,0.7-1.8,1.4-1.8,1.6c0,0.2-0.2,0.4-0.5,0.4c-0.3,0-3,1.7-5.9,3.7l-5.4,3.7v27.7v27.7h4.3
	c2.3,0,4.8-0.1,5.6-0.2l1.4-0.2l0.1-5.9l0.1-5.9l11-0.1l11-0.1v6.1c0,5.9,0,6.1,0.6,6.1c0.6,0,0.6-0.2,0.6-14.6v-14.6l-4-4.2
	c-2.2-2.3-4.2-4.2-4.4-4.2c-0.4,0-0.4-1.6-0.4-11V96.8l1-0.4c0.8-0.4,1.8-0.4,7.7-0.4l6.8,0.1l0.1,5l0.1,5h1.3
	c0.7,0,2.3,0.1,3.5,0.2l2.3,0.2v-3.7c0-2,0.1-4.4,0.2-5.3l0.2-1.5h9.8h9.9v1.8c0,1,0.1,3.3,0.2,5.1l0.2,3.3h3.1h3V101v-5.1l7.9,0.1
	l7.9,0.1l0.1,9.6l0.1,9.6l1.1,0.1l1.1,0.1l-1.1,1.1c-0.6,0.6-1.1,1.4-1.1,1.7c0,0.4-0.2,0.6-0.6,0.6c-0.4,0-1.8,1.3-4.1,3.7
	l-3.5,3.8l0,14.9v14.9h0.9h0.9l-0.2-5.8l-0.2-5.8l7.6,0.1c4.2,0.1,9.5,0.2,11.8,0.3l4.2,0.2v12c0,7.8,0.1,12,0.3,12
	c0.2,0,0.3,3.1,0.3,8.8v8.8h2.1h2.1l-0.1,12.9l-0.1,12.9l-5.2,0.1l-5.2,0.1l-0.1,2.6l-0.1,2.6l-1.6,0.5c-3.6,1.1-4.8,1.6-5,2
	c-0.4,0.7-0.4,2.3,0.2,3.7c0.3,0.7,0.5,1.3,0.5,1.4c0,0.1-2.3,0.2-5,0.2h-5v3.8c0,2.1,0.1,9.5,0.3,16.6c0.3,12.8,0.6,26.5,1.2,57.3
	l0.3,16.2l1.8,2.5c6.1,8.7,14.1,16.5,23.5,22.8l2.5,1.7h9.6h9.5v4.3c0,2.7,0.1,4.4,0.3,4.5C414.2,355.2,414.2,358,414,364.3z"/>
</svg>
