<?xml version="1.0" encoding="utf-8"?>
<!-- Generator: Adobe Illustrator 22.1.0, SVG Export Plug-In . SVG Version: 6.00 Build 0)  -->
<svg version="1.1" id="图层_1" xmlns="http://www.w3.org/2000/svg" xmlns:xlink="http://www.w3.org/1999/xlink" x="0px" y="0px"
	 viewBox="0 0 500 500" style="enable-background:new 0 0 500 500;" xml:space="preserve">
<style type="text/css">
	.st0{fill:none;}
	.st1{fill:#FFFFFF;}
</style>
<polygon class="st0" points="605,250 252.5,604 -100,250 252.5,-104 "/>
<path class="st1" d="M696.4,79c0,0.5,0.4,1,1,1s1-0.4,1-1c0-0.5-0.4-1-1-1C696.8,78,696.4,78.4,696.4,79z"/>
<path d="M353.5,0H146.5L0,146.5v207.1L146.5,500h207.1L500,353.5V146.5L353.5,0z M398.9,306.8l-38,43.9l26.7,4.9l-67,24.3l0.3-0.4
	l-0.3,0.1v0.3H196.1h-16.8h-9.9L98.1,267.8l59.8,41.4l-44.4-117.8l61.4,64.2L165.3,119l71.9,109.7l4-64.2l21,56.9L297,87.3v151.2
	l32.3-43.9l-4.8,56.1l81.4-85.2l-58.8,163.3L398.9,306.8z"/>
</svg>
