<?xml version="1.0" encoding="utf-8"?>
<!-- Generator: Adobe Illustrator 22.1.0, SVG Export Plug-In . SVG Version: 6.00 Build 0)  -->
<svg version="1.1" id="图层_1" xmlns="http://www.w3.org/2000/svg" xmlns:xlink="http://www.w3.org/1999/xlink" x="0px" y="0px"
	 viewBox="0 0 500 500" style="enable-background:new 0 0 500 500;" xml:space="preserve">
<style type="text/css">
	.st0{fill:none;}
</style>
<polygon class="st0" points="605,250 252.5,604 -100,250 252.5,-104 "/>
<g>
	<path d="M233.6,298.5c-6.5-3.3-14.6-6.8-24.1-9.7c-11.7-3.6-22.3-5.2-30.8-6c-0.4,0-0.8,0.1-1.2,0.2c-7.1,2.5-9.3,6.6-9.9,7.8
		c-3.9,8.1,1.2,21.1,14.6,29.4c0.3,0.2,0.7,0.3,1.1,0.4c6.1,0.8,21.3,2.1,36.7-6.4c6.4-3.5,11.1-7.7,14.4-11.3
		C235.6,301.5,235.2,299.4,233.6,298.5z"/>
	<path d="M322.7,283.1c-0.4-0.2-0.8-0.3-1.2-0.2c-8.5,0.8-19.1,2.4-30.8,6c-9.5,2.8-17.5,6.3-24.1,9.7c-1.6,0.8-2,2.9-0.8,4.3
		c3.3,3.5,8,7.8,14.4,11.3c15.3,8.5,30.5,7.2,36.7,6.4c0.4-0.1,0.7-0.2,1.1-0.4c13.5-8.2,18.6-21.2,14.6-29.3
		C332,289.7,329.7,285.6,322.7,283.1z"/>
	<path d="M256.1,320.9c-1.4-1.3-3.1-2.5-5.2-3.6c-2.1,1.1-3.9,2.3-5.2,3.6c-10.5,10.2-10.8,24.1-10.4,31c0,0.9,1.2,1.3,1.8,0.6
		c1.4-1.8,3.4-3.9,6.1-5.8c2.8-2,5.6-3.3,7.7-4.1c2.1,0.8,4.9,2,7.7,4.1c2.6,1.9,4.7,4,6.1,5.8c0.6,0.7,1.7,0.4,1.8-0.6
		C266.9,345.1,266.7,331,256.1,320.9z"/>
	<path d="M353.5,0H146.5L0,146.5v207.1L146.5,500h207.1L500,353.5V146.5L353.5,0z M347.2,273.6c25,28.2-9,73.1-13.7,76.8
		c-8.4,6.6-35-6.9-30.8,0.1c3.1,5.3,6.1,45.4,6.1,45.4h-8.3l-4-14l-7.1-0.1l-1.3,14h-14.4l-1.3-13.4l-4.8-0.7l-0.7,14h-11.5
		l-0.6-14.4h-9.5l-0.6,14.4H233l-0.7-14l-4.8,0.7l-1.3,13.4h-14.4l-1.3-14l-7.1,0.1l-4,14h-8.3c0,0,2.9-40.1,6.1-45.4
		c4.2-7-22.4,6.6-30.8-0.1c-4.7-3.6-38.8-48.5-13.7-76.8c6.3-7-24.6-59.3-8.3-105.7c19-54.3,75.4-62.8,99.7-63.9c0,0,2-0.1,5.6-0.1
		h0.1c0,0,0,0,0.1,0c3.5,0,5.6,0.1,5.6,0.1c24.4,1.1,80.7,9.6,99.8,63.9C371.5,214.2,340.8,266.5,347.2,273.6z"/>
</g>
</svg>
