<?xml version="1.0" encoding="utf-8"?>
<!-- Generator: Adobe Illustrator 22.1.0, SVG Export Plug-In . SVG Version: 6.00 Build 0)  -->
<svg version="1.1" id="图层_1" xmlns="http://www.w3.org/2000/svg" xmlns:xlink="http://www.w3.org/1999/xlink" x="0px" y="0px"
	 viewBox="0 0 500 500" style="enable-background:new 0 0 500 500;" xml:space="preserve">
<style type="text/css">
	.st0{fill:none;}
	.st1{fill:#FFFFFF;}
</style>
<polygon class="st0" points="605,250 252.5,604 -100,250 252.5,-104 "/>
<path class="st1" d="M696.4,79c0,0.5,0.4,1,1,1s1-0.4,1-1c0-0.5-0.4-1-1-1C696.8,78,696.4,78.4,696.4,79z"/>
<line class="st0" x1="189" y1="342.2" x2="189" y2="342.2"/>
<path d="M353.5,0H146.5L0,146.5v207.1L146.5,500h207.1L500,353.5V146.5L353.5,0z M359.2,130.9l11-15.3c1.8-2.5,5.8-0.9,5.5,2.2
	l-2,18.7c-0.2,2-2.3,3.3-4.1,2.5l-9-3.4C358.7,134.9,358,132.6,359.2,130.9z M291.8,106.6l7.5-18.8c1.2-2.9,5.4-2.4,5.9,0.7l3.2,20
	c0.3,2-1.4,3.8-3.4,3.5l-10.7-1.2C292.3,110.6,291,108.5,291.8,106.6z M261.6,167.8c0-0.1,0-0.3,0-0.4c0.1-0.8,0.1-1.6,0.1-2.4
	c0-0.3,0-0.6,0-0.9c0-2-0.1-3.7-0.1-5.3c0-0.6,0-1.2,0-1.8c1.1-9.5,1.6-17.4,2.8-25.1c1.6-10,7.5-15.7,17.4-17.4
	c9.8-1.7,19.5-0.7,28.9,3c6.9,2.6,10.7,7.6,10.1,15c-0.9,10.4-2.1,20.6-4.2,30.8c-1.7,8.7-4.8,17.1-7.2,25.7
	c-0.1,0.3-0.2,0.6-0.3,0.9c0,0.1,0,0.2-0.1,0.3c-0.1,0.2-0.1,0.4-0.2,0.6c0,0.1,0,0.2-0.1,0.3c-0.1,0.1-0.1,0.3-0.2,0.4
	c-0.1,0.1-0.1,0.2-0.2,0.3c-0.1,0.1-0.1,0.3-0.2,0.4c-0.1,0.1-0.1,0.2-0.2,0.3c0,0.1-0.1,0.2-0.2,0.3c-0.1,0.2-0.1,0.2-0.2,0.3
	c0,0.1-0.1,0.2-0.2,0.3c-0.1,0.1-0.1,0.1-0.2,0.2c-0.1,0.1-0.2,0.1-0.3,0.2c0,0-0.1,0-0.2,0.1c-0.1,0.1-0.2,0.1-0.3,0.2
	c0,0-0.1,0-0.2,0.1c-0.2,0-0.3,0-0.4,0.1c0,0-0.1,0.1-0.2,0.1c-0.2,0-0.3,0.1-0.4,0.1c0,0.1-0.1,0.1-0.2,0.1c-0.1,0-0.3,0-0.4,0
	c0,0-0.1,0-0.2,0c-0.2,0-0.4,0-0.6-0.1c-0.1,0-0.1,0-0.2,0c-0.2-0.1-0.5-0.1-0.8-0.2c0,0-0.1-0.1-0.2-0.1c-0.2-0.1-0.4-0.1-0.6-0.2
	c-0.2,0-0.3,0-0.4-0.1c-0.2-0.1-0.3-0.1-0.5-0.2c-11.4-5.3-22.7-10.5-34.2-15.6c-3.9-1.7-5.4-4.3-5.3-8.8
	C261.5,168.8,261.6,168.3,261.6,167.8z M219.3,92.5l4.8-17.1c0.8-3,5-3,5.9,0l4.8,17.1c0.5,2-0.9,3.9-3,3.9h-9.5
	C220.3,96.4,218.8,94.5,219.3,92.5z M228.2,98.9c16.4,0,21.8,4.8,25.1,21.1c3.1,15.2,2.2,30.4-0.2,45.5c-0.7,4.6-2.6,6.4-7.3,4.3
	c-12.1-5.3-24.3-10.5-36.2-16c-2-0.9-4.2-3.6-4.5-5.8c-1.3-7.7-1.8-15.6-2.2-20.1C202.8,103.4,207.2,98.9,228.2,98.9z M147.7,83.4
	l10,15.6c1.1,1.7,0.2,4-1.7,4.6l-9.6,2.9c-1.9,0.6-3.9-0.8-3.9-2.9l-0.3-18.5C142,82,146.1,80.7,147.7,83.4z M140.1,112
	c8-3.4,16.4-6,24.8-8.1c7-1.8,12.3,1.6,15.2,8c6.5,14,9.8,28.8,10.9,44.1c0.2,1.9-1.6,4.4-3.2,5.7c-12.1,10.2-24.3,20.2-36.6,30
	c-4.8,3.9-7.4,3.2-9.6-2.2c-7.3-17.6-12.1-36-13.4-57.3C127,124,130.6,116,140.1,112z M141,261.6c-4-10.4-7.8-21-10.8-31.7
	c-0.7-2.4,1-6.9,3.1-8.6c22.1-19,44.3-37.6,66.7-56.1c1.7-1.5,5.4-2.1,7.5-1.2c27,11.5,54,23.3,81,35c4.4,1.8,8.8,3.7,12.9,6.2
	c1.4,0.8,3.1,4.1,2.5,5.2c-3.5,7.2-7.1,14.3-11.5,20.9c-3.9,5.8-10.2,8.7-17,7.8c-14.8-1.9-29.6-4.5-44.4-6.9
	c-2-0.4-3.9-0.9-6.3-1.5c-2.1,7.1-3.9,13.8-6,20.4c-6.8,21-14.6,27.2-36.4,28.4c-6.7,0.3-13.4-0.3-20-1.3
	C152.5,276.7,144.7,271.3,141,261.6z M245.2,429.7l-88-38.6l18-51.8h151.1l16.5,47.5L245.2,429.7z M352,258.1
	c-7.3,23.9-14.7,47.7-21.7,71.7c-1.3,4.5-3.8,4.4-7,4.4c-23.7,0-47.3,0-71,0c0,0.1,0,0.1,0,0.2c-23.9,0-47.8,0.1-71.6-0.2
	c-2.3,0-5.1-1.7-6.3-3.7c-7-12.1-13.7-24.3-20.4-36.6c-2.6-4.7-0.6-7.8,4.9-7.5c5.9,0.3,11.6,1.3,17.5,1.6
	c5.1,0.2,10.4,0.2,15.6-0.4c18.7-1.9,31.1-11.2,34.6-30.8c0.6-3.6,2-7,2.6-10.5c1.1-5.6,4-6.5,9.1-5.3c12,2.8,24,5.3,36.1,7.3
	c12.2,1.9,21.3-3.6,28.6-13.4c8.3-11.1,8.7-11,15.7,0.4c2.9,4.8,6.9,7.8,12.4,8.5c4,0.5,7.9,1.3,11.9,1.6
	C355.7,246,355.7,245.9,352,258.1z M377.5,177.2c-7,18.4-16.4,35.9-25.3,53.5c-1.4,2.8-6.3,4.9-9.8,5.2c-14.4,1-23.6-5.3-24.1-16
	c-0.3-5.1-0.1-10.2-0.1-15.3c-0.6-19.3,4.4-37.4,11.8-54.6c5.7-13.6,17.1-17.6,31.3-11.7C376.2,144.5,383.2,161.9,377.5,177.2z"/>
</svg>
