<?xml version="1.0" encoding="utf-8"?>
<!-- Generator: Adobe Illustrator 22.0.1, SVG Export Plug-In . SVG Version: 6.00 Build 0)  -->
<svg version="1.1" id="Layer_2" xmlns="http://www.w3.org/2000/svg" xmlns:xlink="http://www.w3.org/1999/xlink" x="0px" y="0px"
	 viewBox="0 0 217.9 988" style="enable-background:new 0 0 217.9 988;" xml:space="preserve">
<g>
	<path d="M97.4,101c0,4,0,8,0,12h24.1c0-4,0-8,0-12H97.4z"/>
	<path d="M97.3,85c0.1,4.6,0.1,9.2,0.1,14h24.2c0-4.8,0.1-9.4,0.1-14H97.3z"/>
	<path d="M121.7,145c0-4.6-0.1-9.3-0.1-14H97.4c0,4.7-0.1,9.4-0.1,14H121.7z"/>
	<path d="M122.1,177H96.9c-0.1,5.3-0.2,10-0.3,14h25.8C122.3,187,122.2,182.2,122.1,177z"/>
	<path d="M86.1,31.9l8.9-0.1c0.3,2,0.5,4.4,0.7,7.2h27.7c0.2-2.7,0.4-5,0.7-6.9l8.9,0.1c1.3,0,2.6-1.1,2.6-2.5V18.5
		c0-1.3-1-2.3-2.2-2.5c-2.8-0.2-5.6-0.4-8.4-0.7c-0.1-1.3-1-7-6.1-11.3c-3.3-2.8-6.9-3.5-8.9-3.7V0c-1.6,0.1-5.8,0.6-9.7,3.8
		c-5.1,4.1-6,9.9-6.1,11.3c-2.8,0.2-5.6,0.4-8.4,0.7c-1.2,0.1-2.2,1.2-2.2,2.5v11.3C83.5,30.8,84.6,31.9,86.1,31.9z"/>
	<path d="M97.5,115c0,4.7,0,9.4,0,14h24.2c0-4.6,0-9.3,0-14H97.5z"/>
	<path d="M95.8,41c0.3,4,0.5,8.8,0.7,14h25.9c0.2-5.3,0.4-10,0.7-14H95.8z"/>
	<path d="M122.4,57H96.6c0.1,3.8,0.2,7.8,0.3,12h25.1C122.2,64.8,122.3,60.8,122.4,57z"/>
	<path d="M97.3,147c0,4.8-0.1,9.5-0.2,14h24.7c-0.1-4.5-0.1-9.2-0.2-14H97.3z"/>
	<path d="M122,71H97c0.1,3.9,0.2,7.9,0.2,12h24.6C121.9,78.9,121.9,74.9,122,71z"/>
	<path d="M121.9,163H97.1c-0.1,4.2-0.1,8.2-0.2,12h25.1C122,171.2,121.9,167.2,121.9,163z"/>
	<path d="M148.5,370.5v-8.3c-6.3,1.3-12.7-0.8-16.6-5.4c-4-4.8-3.8-10.5-3.7-11.8c-0.1-16.3-0.3-32.7-0.4-49l0.1-11.2h21v-10h-21
		l0-7h20.9v-10H128l0-7h20.8v0v-10H128l0.1-23.4c0-1.9,0.3-6.2,3.1-10.2c5.8-8.1,16.6-7.3,17.2-7.3c0-2.4,0-4.8,0-7.3h-38.8h0H70.9
		c0,2.4,0,4.8,0,7.3c0.6-0.1,11.4-0.9,17.2,7.3c2.8,4,3.1,8.2,3.1,10.2l0.1,23.4H70.5v10h20.9l0,7H70.5v10h20.9l0,7h-21v10h21
		l0.1,11.2c-0.1,16.3-0.3,32.6-0.4,49c0.1,1.4,0.3,7-3.7,11.8c-3.9,4.6-10.3,6.7-16.6,5.4v8.3h8.9L80.2,821
		c7.6,0.2,13.6,6.4,13.6,14c0,7.6-6.1,13.8-13.6,14c0.2,14.6,5.1,44.1,10.9,64.7c5.5,19.2,11.3,23,17.6,32.8v1.6
		c0.2-0.2,0.3-0.6,0.6-0.8c0.1,0.2,0.2,0.3,0.3,0.6v-1c6.5-9.9,12.3-13.6,17.6-32.8c5.6-19.9,10.3-48,10.9-63c-0.1,0-0.2,0-0.3,0
		c-8.8,0-16-7.2-16-16s7.2-16,16-16c0.1,0,0.2,0,0.3,0l-1.5-448.2"/>
</g>
</svg>
