<?xml version="1.0" encoding="utf-8"?>
<!-- Generator: Adobe Illustrator 22.0.1, SVG Export Plug-In . SVG Version: 6.00 Build 0)  -->
<svg version="1.1" id="Layer_1" xmlns="http://www.w3.org/2000/svg" xmlns:xlink="http://www.w3.org/1999/xlink" x="0px" y="0px"
	 viewBox="0 0 217.9 988" style="enable-background:new 0 0 217.9 988;" xml:space="preserve">
<path d="M217.6,266.8c-0.5-0.6-1-1.2-1.5-1.8c-0.3-0.4-0.5-0.8-0.9-1.2c-1.3-1.2-2.4-2.5-3.3-4c-0.6-0.9-1.2-1.4-2.2-1.3
	c-1.5,0.1-2.9,0.2-4.4,0.3c-3.3,0.1-6.5,0.3-9.8,0.4c-3.9,0.2-7.8,0.4-11.7,0.5c-2,0.1-4,0.2-6,0.3c-3.4,0.2-6.9,0.3-10.3,0.5
	c-2.4,0.1-4.7,0.2-7.1,0.3c-3.1,0.1-6.3,0.3-9.4,0.4c-0.1,0-0.3,0-0.4,0c0.1-0.4,0.3-0.8,0.4-1.2c19-1.7,38-3.2,57.1-4.9
	c-0.2-0.2-0.3-0.3-0.4-0.4c-1.1-1.1-2.2-2.2-3.2-3.3c-1.2-1.2-2.3-2.4-3.5-3.7c-0.5-0.6-1.1-0.9-1.9-0.6c-0.1,0-0.2,0.1-0.3,0.1
	c-6.9,1.3-13.9,2.6-20.8,3.8c-8.6,1.6-17.2,3.2-25.8,4.8c-0.2,0-0.4,0-0.6,0.1c0,0,0-0.1-0.1-0.2c0.1-0.1,0.3-0.3,0.4-0.4
	c0.2-0.1,0.4-0.1,0.6-0.2c1.9-0.5,3.9-1.1,5.8-1.6c4.4-1.2,8.7-2.4,13.1-3.6c1.8-0.5,3.6-0.9,5.4-1.4c1.7-0.4,3.3-0.9,4.9-1.4
	c0.1,0,0.2,0,0.3,0c0.6-0.1,1.2-0.3,1.8-0.4c0.9-0.2,1.9-0.5,2.8-0.8c0.7-0.2,1.4-0.3,2.1-0.5c0.3-0.1,0.6-0.2,0.9-0.3
	c0.8-0.2,1.6-0.4,2.4-0.7c1.1-0.4,2.2-0.7,3.3-1c0.2-0.1,0.5-0.2,0.9-0.3c-0.3-0.2-0.4-0.3-0.5-0.4c-2.4-2.1-4.8-4.3-7.2-6.4
	c-0.2-0.2-0.4-0.4-0.6-0.6c-0.4-0.5-0.9-0.6-1.5-0.3c-0.3,0.1-0.6,0.2-0.9,0.4c-10.9,4.2-21.8,8.5-32.7,12.8
	c-0.2,0.1-0.4,0.1-0.6,0.2c-0.1-0.8-0.1-0.9,0.5-1.3c0.7-0.4,1.5-0.8,2.2-1.2c7.2-3.8,14.3-7.7,21.5-11.6c1.6-0.8,3.1-1.7,4.7-2.5
	c0.4-0.2,0.8-0.4,1.2-0.8c-2.8-2.4-5.5-4.7-8.3-7c-4,3-7.8,6.2-11.7,9.3c-3.9,3.1-7.8,6.2-11.7,9.4c-0.2-0.2-0.3-0.4-0.4-0.6
	c0.1-0.2,0.3-0.3,0.4-0.4c3.2-3.3,6.4-6.6,9.6-10c3.1-3.2,6.2-6.4,9.3-9.7c0.2-0.2,0.3-0.4,0.5-0.5c-2.4-1.5-4.7-3-7-4.5
	c-0.6-0.4-0.6-0.4-1.1,0.2c0,0,0,0.1-0.1,0.1c-3.7,4.8-7.4,9.6-11.2,14.4c-1.3,1.7-2.6,3.3-3.9,5c-0.2,0.2-0.3,0.5-0.8,0.4
	c0.1-0.3,0.2-0.6,0.4-0.8c2.3-4,4.6-8,7-12c1.5-2.6,3.1-5.2,4.6-7.9c0.2-0.3,0.4-0.6,0.4-0.9c-0.1,0-0.1,0-0.1-0.1
	c-2.4-0.4-4.9-0.7-7.3-1.1c-0.4,0-0.8,0-1.2-0.1c-0.2,0.5-0.4,0.9-0.5,1.3c-2.5,5.6-4.9,11.2-7.3,16.8c-0.3,0.6-0.5,1.2-0.8,1.9
	c-0.4,0.8-0.8,0.9-1.6,0.4c0.1-0.3,0.1-0.6,0.2-0.9c2.1-6.2,4.1-12.4,6.2-18.6c0-0.2,0.1-0.3,0.1-0.5c-0.1,0-0.1,0-0.2,0.1
	c-2.5,1.8-5,3.6-7.6,5.4c-0.5,0.3-0.8,0.8-0.9,1.4c-0.2,0.8-0.3,1.6-0.5,2.3c-0.6,2.8-1.2,5.6-1.9,8.3c-0.1,0.6-0.2,1.2-0.4,1.8
	c-0.1,0.4-0.4,0.6-0.9,0.5c0.2-3.6,0.4-7.1,0.7-10.7c-0.2,0.1-0.2,0.1-0.3,0.2c-0.8,0.9-2.6,2.8-3.9,4.4h-1.8
	c0.6-0.8,1.1-1.7,1.7-2.5c0.7-1,0.6-1.2-0.4-1.8c-0.8-0.5-1.7-1.1-2.5-1.6c-4.9-12.1-4.7-36.1-4.4-25.7c-1.1-32-2.1-138.6,1.4-164.7
	l8.9,0.1c1.3,0,2.6-1.1,2.6-2.5V18.5c0-1.3-1-2.3-2.2-2.5c-2.8-0.2-5.6-0.4-8.4-0.7c-0.1-1.3-1-7-6.1-11.3c-3.3-2.8-6.9-3.5-8.9-3.7
	V0c-1.6,0.1-5.8,0.6-9.7,3.8c-5.1,4.1-6,9.9-6.1,11.3c-2.8,0.2-5.6,0.4-8.4,0.7c-1.2,0.1-2.2,1.2-2.2,2.5v11.3
	c0,1.3,1.1,2.5,2.6,2.5l8.9-0.1c3.6,26.2,2.6,132.8,1.4,164.7c0.3-10.3,0.4,13.2-4.3,25.3c-1.3,0.8-2.6,1.6-3.9,2.4
	c-1,0.6-1.1,0.8-0.4,1.8c0.5,0.8,1.1,1.6,1.6,2.4h-1.8c-1.3-1.6-3-3.4-3.8-4.3c0-0.1-0.1-0.1-0.3-0.2c0.2,3.6,0.4,7.2,0.7,10.7
	c-0.5,0.1-0.8-0.1-0.9-0.5c-0.2-0.6-0.3-1.2-0.4-1.7c-0.6-2.8-1.2-5.6-1.9-8.3c-0.2-0.8-0.3-1.6-0.5-2.3c-0.1-0.6-0.4-1-0.9-1.4
	c-2.5-1.8-5-3.6-7.6-5.4c0,0-0.1,0-0.2-0.1c0,0.2,0.1,0.4,0.1,0.5c2.1,6.2,4.1,12.4,6.2,18.6c0.1,0.3,0.2,0.6,0.2,0.9
	c-0.8,0.5-1.2,0.4-1.6-0.4c-0.3-0.6-0.6-1.2-0.8-1.9c-2.5-5.6-4.9-11.2-7.3-16.8c-0.2-0.4-0.4-0.8-0.5-1.3c-0.4,0-0.8,0-1.2,0.1
	c-2.4,0.4-4.9,0.7-7.3,1.1c0,0-0.1,0-0.1,0.1c0,0.4,0.2,0.7,0.4,0.9c1.5,2.6,3,5.2,4.6,7.9c2.3,4,4.6,8,7,12
	c0.1,0.3,0.2,0.5,0.4,0.8c-0.5,0.2-0.6-0.1-0.8-0.4c-1.3-1.7-2.6-3.3-3.9-5c-3.7-4.8-7.4-9.6-11.2-14.4c0,0,0-0.1-0.1-0.1
	c-0.4-0.5-0.4-0.6-1.1-0.2c-2.3,1.5-4.6,2.9-7,4.5c0.2,0.2,0.3,0.4,0.5,0.5c3.1,3.2,6.2,6.4,9.3,9.7c3.2,3.3,6.4,6.6,9.6,10
	c0.1,0.1,0.2,0.3,0.4,0.4c-0.1,0.2-0.3,0.4-0.4,0.6c-3.9-3.1-7.8-6.3-11.7-9.4c-3.9-3.1-7.7-6.3-11.7-9.3c-2.8,2.4-5.5,4.7-8.3,7
	c0.4,0.4,0.8,0.6,1.2,0.8c1.6,0.8,3.1,1.7,4.7,2.5c7.2,3.8,14.3,7.7,21.5,11.6c0.7,0.4,1.5,0.8,2.2,1.2c0.6,0.4,0.6,0.5,0.5,1.3
	c-0.2-0.1-0.4-0.1-0.6-0.2c-10.9-4.2-21.8-8.5-32.7-12.8c-0.3-0.1-0.6-0.2-0.9-0.4c-0.6-0.3-1.1-0.1-1.5,0.3
	c-0.2,0.2-0.4,0.4-0.6,0.6c-2.4,2.1-4.8,4.3-7.2,6.4c-0.1,0.1-0.3,0.2-0.5,0.4c0.4,0.1,0.7,0.2,0.9,0.3c1.1,0.4,2.2,0.6,3.3,1
	c0.8,0.3,1.6,0.5,2.4,0.7c0.3,0.1,0.6,0.2,0.9,0.3c0.7,0.2,1.4,0.3,2.1,0.5c0.9,0.2,1.9,0.5,2.8,0.8c0.6,0.2,1.2,0.3,1.8,0.4
	c0.1,0,0.2,0,0.3,0c1.6,0.5,3.3,0.9,4.9,1.4c1.8,0.5,3.6,0.9,5.4,1.4c4.4,1.2,8.7,2.4,13.1,3.6c1.9,0.5,3.9,1.1,5.8,1.6
	c0.2,0,0.4,0.1,0.6,0.2c0.2,0.1,0.3,0.3,0.4,0.4c0,0,0,0.1-0.1,0.2c-0.2,0-0.4,0-0.6-0.1c-8.6-1.6-17.2-3.2-25.8-4.8
	c-6.9-1.3-13.9-2.6-20.8-3.8c-0.1,0-0.2,0-0.3-0.1c-0.8-0.3-1.3,0-1.9,0.6c-1.2,1.2-2.3,2.5-3.5,3.7c-1.1,1.1-2.2,2.2-3.2,3.3
	c-0.1,0.1-0.2,0.2-0.4,0.4c19.1,1.7,38.1,3.2,57.1,4.9c0.1,0.4,0.3,0.8,0.4,1.2c-0.1,0-0.3,0-0.4,0c-3.1-0.1-6.3-0.3-9.4-0.4
	c-2.4-0.1-4.7-0.2-7.1-0.3c-3.4-0.2-6.9-0.3-10.3-0.5c-2-0.1-4-0.2-6-0.3c-3.9-0.2-7.8-0.4-11.7-0.5c-3.3-0.1-6.5-0.3-9.8-0.4
	c-1.5-0.1-2.9-0.1-4.4-0.3c-1-0.1-1.6,0.4-2.2,1.3c-0.9,1.5-2,2.8-3.3,4c-0.4,0.3-0.6,0.8-0.9,1.2c-0.5,0.6-1,1.2-1.5,1.8
	c-0.1,0.1-0.1,0.2-0.2,0.3c0,0,0,0,0,0c0.5,0,1,0.1,1.6,0.1c4.7,0,9.4,0.1,14.1,0.2c4.1,0,8.1,0.1,12.1,0.2c2.1,0,4.3,0.1,6.4,0.1
	c4.1,0.1,8.2,0.1,12.3,0.2c2.1,0,4.2,0,6.3,0.1c4,0,8,0.1,12.1,0.2c2.2,0,4.4,0,6.6,0.1c3.5,0.1,7,0.1,10.5,0.2c0.3,0,0.5,0,0.8,0
	v-3.5c-1.3-0.5-2.6-1.2-3.7-2c-0.4-0.3-0.8-0.7-1.2-1.1c-1-1.1-2-2.2-2.9-3.4c-0.4-0.4-0.7-1-1-1.5c-0.2-0.3-0.3-0.6-0.4-0.9
	c-1.2-2.6-1.1-5.2-0.1-7.8c0.3-0.7,0.7-1.4,1.2-2c1.7-2,3.8-3.1,6.4-3.2c1.2,0,2.3,0.1,3.5,0.2c0.3,0,0.5,0.1,0.8,0.1v40.5
	c0,3.1-2.5,5.5-5.6,5.5l0.4,596.8c-0.3,13.5,4.8,45.2,10.9,67.1c5.5,19.2,11.3,23,17.6,32.8v1.6c0.2-0.2,0.3-0.6,0.6-0.8
	c0.1,0.2,0.2,0.3,0.3,0.6v-1c6.5-9.9,12.3-13.6,17.6-32.8c6.1-21.8,11.3-53.6,10.9-67.1l-1.6-596.1c-3.1-0.1-5.6-2.6-5.6-5.7V244
	c0.7-0.2,1.4-0.3,2.2-0.4c1.2-0.1,2.3-0.3,3.5-0.2c2.6,0.1,4.8,1.2,6.4,3.2c0.5,0.6,0.9,1.2,1.2,2c1,2.6,1.1,5.2-0.1,7.8
	c-0.1,0.3-0.3,0.6-0.4,0.9c-0.3,0.5-0.6,1-1,1.5c-0.9,1.2-1.9,2.3-2.9,3.4c-0.4,0.4-0.7,0.8-1.2,1.1c-1.2,0.8-2.4,1.5-3.7,2v3.5
	c0.3,0,0.6,0,0.8,0c3.5-0.1,7-0.1,10.5-0.2c2.2-0.1,4.4-0.1,6.6-0.1c4,0,8-0.1,12-0.2c2.1,0,4.2,0,6.3-0.1c4.1-0.1,8.2-0.1,12.3-0.2
	c2.1,0,4.3-0.1,6.4-0.1c4.1,0,8.1-0.1,12.1-0.1c4.7,0,9.4-0.1,14.1-0.2c0.5,0,1-0.1,1.6-0.1c0-0.1,0-0.1,0.1-0.2
	C217.8,267,217.7,266.9,217.6,266.8z M112.1,894.9c0,1.8-1.5,25.6-3.3,25.6c-1.8,0-3.3-23.8-3.3-25.6V335.5c0-1.8,1.5-3.3,3.3-3.3
	c1.8,0,3.3,1.5,3.3,3.3V894.9z"/>
</svg>
