<?xml version="1.0" encoding="utf-8"?>
<!-- Generator: Adobe Illustrator 22.1.0, SVG Export Plug-In . SVG Version: 6.00 Build 0)  -->
<svg version="1.1" id="Layer_3" xmlns="http://www.w3.org/2000/svg" xmlns:xlink="http://www.w3.org/1999/xlink" x="0px" y="0px"
	 viewBox="0 0 850.7 995.8" style="enable-background:new 0 0 850.7 995.8;" xml:space="preserve">
<g>
	<path d="M599.9,375.2c-39.6-34.5-71.6-69.1-111.3-103.6l-169.1,19.6l-5.5,28.4c-2.3,0.5-32.4,9.4-53.4,36
		c-20.7,26.2,16.1,77,58.9,92.7c-6.5-18.2-3.2-37.6,8.7-50.2c9.5-9.9,21.3-12.4,26.2-13.1c34.8-2.3,60.7-1.6,73.1,20.7
		c17.8,32.2,2.3,104.9-65.4,134.2c64.6,23.4,135.5,10.5,183.2-33.8C599.6,455.8,600,387,599.9,375.2z M357.7,333.8L337,317.4
		l42.5-8.7L357.7,333.8z"/>
	<path d="M562.3,923.8c-25.2-25.2-23.7-55-23.2-62.2h0V600.5c33.3-17.5,62.1-42.5,84-72.7l34.6,37.2h-57.8l250.9,170.1L737.3,597.7
		h51.3L660.7,449.5c5.6-20.6,8.7-42.2,8.7-64.5c0-32.3-6.3-63.2-17.8-91.4l134.7-156.2h-51.3L848.6,0L597.7,170.1h57.8L607,222.3
		c-19.2-21.4-42.2-39.3-67.9-52.8v-35.4h0c-0.5-7.2-1.9-37,23.2-62.2c24.3-24.3,64-35.1,103.2-28.4V0H428.3h-4.1H186.8v43.6
		c39.2-6.8,79,4,103.2,28.4c25.2,25.2,23.7,55,23.2,62.2h0v35.4c-26.5,13.9-50.2,32.6-69.8,54.9l-50.5-54.3h57.8L0,0l113.4,137.4
		H62.2l137.4,159.2C188.8,324,183,353.8,183,385c0,22.5,3.1,44.3,8.8,65L64.4,597.7h51.3L2.2,735.1L253,565h-57.8l34.3-36.9
		c21.9,30.1,50.6,55,83.8,72.4v261.2h0c0.5,7.2,1.9,37-23.2,62.2c-24.3,24.3-64,35.1-103.2,28.4v43.6h237.3h4.1h237.3v-43.6
		C626.4,958.9,586.6,948.1,562.3,923.8z M426.2,577c-106,0-192-85.9-192-192s85.9-192,192-192s192,85.9,192,192S532.2,577,426.2,577
		z"/>
</g>
</svg>
