<?xml version="1.0" encoding="utf-8"?>
<!-- Generator: Adobe Illustrator 22.1.0, SVG Export Plug-In . SVG Version: 6.00 Build 0)  -->
<svg version="1.1" id="Layer_3_1_" xmlns="http://www.w3.org/2000/svg" xmlns:xlink="http://www.w3.org/1999/xlink" x="0px" y="0px"
	 viewBox="0 0 913.7 990" style="enable-background:new 0 0 913.7 990;" xml:space="preserve">
<g>
	<path d="M517.4,412c-9.2,0-18.5,0.1-27.8,0.1c-9.2,0-18.5,0-27.8,0c-9.2,0-18.5,0-27.8,0c-9.2,0-18.5,0-27.8,0
		c-3.3,0-5.8,0.6-8,3.7c-17.9,27.1-42.7,64.2-42.7,64.2c8.6,8.2,43.5,39.6,98,42c60.1,2.6,100.1-31.9,108-39
		c-19-36.3-33-62.7-35.4-66.2C524,413.2,521.5,412,517.4,412z"/>
	<path d="M522.9,333.8c-4.4-0.5-7.5-2.9-9.8-6.6c-5.5-8.9-5.8-9-12.4-0.3c-5.8,7.6-12.9,11.9-22.6,10.4c-9.6-1.5-19.1-3.5-28.5-5.7
		c-4-0.9-6.3-0.2-7.2,4.1c-0.5,2.8-1.6,5.4-2.1,8.2c-2.8,15.3-12.6,22.5-27.3,24c-4.1,0.4-8.3,0.4-12.3,0.3c-4.6-0.2-9.2-1-13.8-1.2
		c-4.3-0.2-5.9,2.2-3.9,5.8c5.3,9.6,10.6,19.1,16.1,28.5c0.9,1.6,3.2,2.9,5,2.9c18.8,0.2,37.7,0.1,56.5,0.1c0,0,0-0.1,0-0.1
		c18.7,0,37.4,0,56,0c2.5,0,4.5,0,5.6-3.4c5.5-18.7,11.4-37.3,17.1-55.9c2.9-9.5,2.9-9.4-7.1-9.9C529.1,334.8,526,334.2,522.9,333.8
		z"/>
	<path d="M364.2,323c2.4,8.4,5.4,16.6,8.6,24.7c2.9,7.6,9,11.7,16.9,12.9c5.2,0.8,10.5,1.3,15.8,1c17.3-0.9,23.3-5.8,28.8-22.1
		c1.7-5.2,3.1-10.4,4.7-15.9c1.9,0.4,3.4,0.9,5,1.1c11.7,1.9,23.3,3.9,35.1,5.4c5.4,0.7,10.4-1.6,13.4-6c3.5-5.1,6.3-10.7,9-16.3
		c0.4-0.9-0.8-3.4-2-4.1c-3.2-1.9-6.7-3.4-10.2-4.9c-21.3-9.1-42.6-18.3-64-27.3c-1.6-0.7-4.6-0.2-5.9,0.9
		c-17.7,14.4-35.2,28.9-52.6,43.7C365,317.6,363.7,321.1,364.2,323z"/>
	<path d="M512.6,303.2c0,4-0.1,7.9,0,11.9c0.4,8.3,7.7,13.3,19.1,12.4c2.8-0.2,6.6-1.9,7.8-4c7-13.7,14.4-27.3,20-41.7
		c4.5-11.9-1-25.5-12.8-30.3c-11.2-4.6-20.2-1.5-24.7,9.1C516.1,274.1,512.1,288.2,512.6,303.2z"/>
	<path d="M373.2,291.6c1.8,4.2,3.8,4.7,7.6,1.7c9.7-7.7,19.4-15.4,28.9-23.3c1.2-1,2.7-3,2.5-4.4c-0.9-11.9-3.4-23.5-8.6-34.4
		c-2.3-5-6.5-7.6-12-6.2c-6.6,1.7-13.3,3.6-19.6,6.3c-7.5,3.1-10.3,9.3-9.4,15.8C363.7,263.5,367.4,277.8,373.2,291.6z"/>
	<path d="M472.1,282.6c9,4,18,8.1,27,12.1c0.1,0,0.2,0.1,0.4,0.1c0.1,0,0.2,0.1,0.3,0.1c0.2,0,0.3,0.1,0.5,0.1c0,0,0.1,0,0.2,0
		c0.2,0,0.4,0.1,0.6,0.1c0,0,0.1,0,0.1,0c0.1,0,0.3,0,0.5,0c0,0,0.1,0,0.2,0c0.1,0,0.2,0,0.3,0c0.1,0,0.1,0,0.2,0c0.1,0,0.2,0,0.3,0
		c0,0,0.1,0,0.2,0c0.1,0,0.2,0,0.3-0.1c0,0,0.1,0,0.2-0.1c0.1,0,0.1-0.1,0.2-0.1c0,0,0.1-0.1,0.2-0.1c0.1,0,0.1-0.1,0.2-0.1
		c0,0,0.1-0.1,0.2-0.1c0,0,0.1-0.1,0.2-0.2s0.1-0.1,0.1-0.2c0-0.1,0.1-0.1,0.2-0.2c0,0,0.1-0.1,0.1-0.2c0-0.1,0.1-0.2,0.2-0.3
		c0-0.1,0.1-0.1,0.1-0.2c0-0.1,0.1-0.2,0.1-0.3c0-0.1,0-0.1,0.1-0.2c0-0.1,0.1-0.3,0.1-0.4c0,0,0-0.1,0.1-0.2
		c0.1-0.2,0.1-0.4,0.2-0.7c1.9-6.7,4.3-13.2,5.7-20c1.6-7.9,2.6-15.9,3.3-24c0.5-5.8-2.6-9.6-8-11.7c-7.4-2.9-15.1-3.7-22.9-2.4
		c-7.8,1.3-12.5,5.8-13.8,13.6c-1,6-1.4,12.1-2.2,19.6c0,0.4,0,0.9,0,1.4c0,1.2,0,2.6,0,4.1c0,0.2,0,0.4,0,0.7c0,0.6,0,1.2,0,1.9
		c0,0.1,0,0.2,0,0.3c0,0.4,0,0.8,0,1.2C467.8,279.2,469,281.3,472.1,282.6z"/>
	<path d="M427,263.8c9.4,4.3,19.1,8.3,28.6,12.5c3.7,1.6,5.2,0.2,5.8-3.3c1.9-11.8,2.6-23.6,0.1-35.4c-2.6-12.7-6.9-16.5-19.9-16.5
		c-16.6,0-20.1,3.5-20,22.6c0.3,3.5,0.7,9.6,1.8,15.6C423.6,261,425.3,263,427,263.8z"/>
	<path d="M870.2,596l0.5-0.3L765.3,391.4c11-6,18.4-17.7,18.4-31.1c0-19.6-15.9-35.5-35.5-35.5c-12.2,0-22.9,6.1-29.3,15.5h-47.7
		c-5.4-75-49.3-139.4-112.1-173.4c0,0,0,0,0,0l0.2-30.8c0-9.3,1.4-29.8,16.1-49c30-39.1,86.1-35.3,89.3-35c0-11.7,0-23.3,0-35H463.4
		h-0.1H262c0,11.7,0,23.3,0,35c3.2-0.3,59.3-4.1,89.3,35c14.7,19.2,16.1,39.7,16.1,49c0,0,0,8.8,0,24.3
		c-69.7,31.8-119.4,99.8-125.2,179.9h-41.7c-6.4-9.4-17.1-15.5-29.3-15.5c-19.6,0-35.5,15.9-35.5,35.5c0,13.4,7.4,25.1,18.4,31.1
		L48.5,595.7l0.5,0.3H22.7c0,3,0,6,0,9c5.4,7.5,54.5,73.1,142,75c92.4,2,145.5-68.7,150-75v-9h-20.5L188.4,391.2
		c4.8-2.7,8.9-6.5,12-11H243c8.6,76.5,57.4,140.9,124.8,171.6c0,0,0,0,0,0c0,122.2,0,231.5-0.3,262.1c0.4,6.6,1.6,63.9-19.4,87
		c-20.2,22.3-53.4,32.2-86.1,26v40h201.3h0.1h201.3v-40c-32.7,6.2-65.9-3.7-86.1-26c-21-23.1-19.8-80.4-19.4-87
		c-0.7-69.2-1.2-187-1.9-267.9c61.3-32.5,104.9-93.8,113-165.8h48.5c3.1,4.5,7.2,8.3,12,11L625.1,596h-20.5v9
		c4.5,6.3,57.6,77,150,75c87.5-1.9,136.6-67.5,142-75c0-3,0-6,0-9H870.2z M284,596H58.5l104-201.3c2.8,0.7,5.7,1.1,8.7,1.1
		c3.1,0,6.1-0.4,8.9-1.1L284,596z M456.7,533c-97.8,0-177-79.2-177-177s79.2-177,177-177s177,79.2,177,177S554.4,533,456.7,533z
		 M635.3,596l104-201.4c2.8,0.7,5.8,1.1,8.9,1.1c3,0,5.9-0.4,8.7-1.1l104,201.3H635.3z"/>
</g>
</svg>
