<?xml version="1.0" encoding="utf-8"?>
<!-- Generator: Adobe Illustrator 22.0.1, SVG Export Plug-In . SVG Version: 6.00 Build 0)  -->
<svg version="1.1" id="Layer_3" xmlns="http://www.w3.org/2000/svg" xmlns:xlink="http://www.w3.org/1999/xlink" x="0px" y="0px"
	 viewBox="0 0 790.5 337.2" style="enable-background:new 0 0 790.5 337.2;" xml:space="preserve">
<g>
	<path d="M302.8,168.9c0.4-1.4,1.4-2.1,3.3-1.8c-0.9,12.9-1.6,25.7-2.5,38.9c0.6-0.3,0.8-0.4,0.9-0.6c4.8-5.4,19.2-20.4,19.2-24.3
		c-0.1-1.5,0-3.1-0.1-4.5c-0.2-4.4-0.3-8.8-0.5-13.3c-0.1-1.7,0.5-2.6,1.6-2.8c0.9-0.2,1.7,0.4,2.1,2.1c1,3.5,2,7.1,2.9,10.7
		c0.2,0.5,0.3,0.9,0.5,2c0.9-1,1.5-1.6,2.1-2.4c2.3-3.5,4.5-7.2,7-10.7c1.8-2.5,3.1-5,2.4-8.2c-0.1-0.3,0-0.5,0-0.7
		c0.3-2.7,4.4-5.6,6.3-2.7c0.5,0.8,0.6,1.7,0.4,2.6c-0.2,0.7-0.3,1.3-0.7,1.9c-0.8,1.5-1.6,3.1-2.7,4.6c-3.8,5.6-7.5,11.4-11.4,17
		c-5,7.4-9.9,14.6-14.8,22c-2.5,3.8-2.3,4.3,1.4,6.6c6.9,4.4,13.9,8.7,20.8,13c0.5,0.3,1,0.6,1.7,1c0.4-1,0.8-1.8,1.1-2.6
		c9.6-24.5,19.2-49.1,28.8-73.6c0.4-1.1,0.6-2.1,0.4-3c-0.5-2.1-13.3-14.5-16.8-18.1l-2.6-3.3c-5.6,2.1-14.8,6.3-20.4,8.4
		c-8.6,3.3-17.3,6.8-26.6,7.9c-4.2,0.5-8.4,1-12.7,0.9c-9.6-0.3-17.4-4.3-23.4-11.6c-1.8-2.1-3.4-4.5-4.4-7.1
		c-3.6-9.4-4.1-18.8,0.4-28.1c0.5-1.1,0.9-2.2,1.5-3.3c1.1-1.9,2.1-3.8,3.5-5.4c3.4-4.2,6.9-8.2,10.5-12.2c1.3-1.5,2.7-2.8,4.2-3.9
		c4.2-2.9,8.7-5.4,13.6-7.1V44.1c-1.1,0-2.1,0-3,0c-12.7,0.3-25.3,0.3-38,0.7c-8,0.3-16,0.3-24,0.4c-14.5,0.2-29.1,0.4-43.6,0.6
		c-7.6,0.1-15.2,0.2-22.8,0.3c-14.8,0.3-29.7,0.4-44.5,0.7c-7.8,0.1-15.6,0.3-23.4,0.3c-14.7,0.2-29.3,0.3-44.1,0.5
		c-16.9,0.2-34,0.3-51,0.6c-1.9,0-3.8,0.3-5.6,0.3C0.2,48.9,0.2,49,0,49.3c0.3,0.4,0.6,0.9,0.9,1.3c1.8,2.2,3.7,4.4,5.5,6.7
		c1.1,1.4,2,3.1,3.3,4.3c4.6,4.3,8.6,9.1,11.9,14.4c2.1,3.4,4.3,5,7.9,4.8c5.3-0.4,10.5-0.7,15.8-0.9c11.9-0.5,23.7-1,35.6-1.5
		c14.2-0.7,28.4-1.4,42.5-2c7.2-0.3,14.5-0.7,21.6-1c12.5-0.6,25-1.2,37.5-1.8c8.6-0.4,17.1-0.8,25.7-1.2
		c11.4-0.5,22.8-1.1,34.1-1.6c0.5,0,1,0,1.5,0c-0.5,1.5-0.9,2.9-1.5,4.5c-68.9,6.2-138,11.6-207.3,17.6c0.6,0.8,0.9,1.2,1.3,1.6
		c3.9,4,7.9,8,11.7,12.1c4.2,4.4,8.4,8.8,12.6,13.3c1.9,2.1,3.9,3.2,6.8,2.2c0.3-0.2,0.8-0.3,1.2-0.3c25.1-4.6,50.3-9.3,75.4-13.9
		c31.2-5.7,62.4-11.5,93.7-17.3c0.8-0.2,1.5-0.2,2.2-0.3c0.1,0.2,0.2,0.3,0.3,0.6c-0.5,0.5-0.9,1.2-1.5,1.5
		c-0.6,0.4-1.4,0.5-2.1,0.8c-7,2-14,3.8-21,5.8c-15.8,4.4-31.6,8.8-47.5,13.2c-6.5,1.8-13,3.4-19.5,5.2c-6,1.6-11.9,3.3-17.8,5
		c-0.3,0.1-0.6,0.1-0.9,0.2c-2.1,0.5-4.4,1-6.5,1.5c-3.4,0.9-6.8,1.9-10.2,2.7c-2.6,0.7-5.1,1.1-7.7,1.7c-1.1,0.3-2.2,0.8-3.3,1.1
		c-2.9,0.9-5.9,1.5-8.7,2.6c-3.8,1.5-8,2.4-11.9,3.7c-0.9,0.3-1.8,0.6-3.4,1.1c0.9,0.6,1.5,0.9,2,1.3c8.6,7.7,17.4,15.5,26,23.3
		c0.8,0.7,1.5,1.5,2.3,2.2c1.6,1.7,3.4,2.2,5.6,1.2c1.1-0.5,2.2-0.9,3.3-1.3c39.5-15.4,78.9-30.9,118.5-46.3
		c0.7-0.3,1.5-0.5,2.2-0.8c0.3,2.7,0.3,3.3-1.9,4.6c-2.7,1.5-5.4,2.8-8,4.3c-26,13.9-51.9,28-77.9,41.9c-5.6,3.1-11.4,6-17,9
		c-1.5,0.8-3,1.5-4.3,2.9c10.1,8.6,19.9,16.9,30,25.6c14.5-10.8,28.2-22.6,42.5-33.8c14.2-11.2,28.3-22.6,42.6-34
		c0.6,0.9,1.1,1.5,1.6,2.2c-0.5,0.6-0.9,1.1-1.4,1.6c-11.6,12.1-23.4,24.1-35,36.2c-11.2,11.6-22.5,23.4-33.7,35.1
		c-0.6,0.6-1.1,1.3-1.7,1.9c8.6,5.5,17,10.9,25.4,16.2c2.2,1.4,2.3,1.4,3.8-0.7c0.1-0.1,0.2-0.3,0.3-0.3
		c13.5-17.4,26.9-34.9,40.5-52.3c4.6-6,9.3-12.1,14-18c0.7-0.9,1.2-2,3-1.4c-0.4,1-0.8,2.1-1.4,3c-8.4,14.5-16.8,29-25.2,43.5
		c-5.6,9.5-11.1,19-16.6,28.5c-0.6,1-1.5,2.1-1.3,3.4c0.3,0.1,0.4,0.2,0.5,0.3c8.8,1.3,17.6,2.7,26.4,3.8c1.5,0.2,3,0.2,4.4,0.3
		c0.8-1.7,1.4-3.2,2-4.7c8.9-20.4,17.7-40.7,26.6-61.1c1-2.3,2-4.5,3.1-6.8c1.4-2.7,3.1-3.2,5.9-1.3c-0.3,1-0.5,2.1-0.9,3.2
		c-7.5,22.5-15.1,45-22.6,67.5c-0.2,0.6-0.3,1.2-0.4,1.9c0.3-0.1,0.5-0.2,0.7-0.3c9.2-6.5,18.3-13,27.5-19.5c1.7-1.2,2.7-2.9,3.2-5
		c0.6-2.8,1.1-5.6,1.8-8.5c2.2-10.1,4.4-20.2,6.8-30.3C301.7,173.1,302.2,171.1,302.8,168.9z"/>
	<path d="M350.2,298.4c-1.9-3-3.8-6-5.8-8.9c-1.4-2-1.5-4-0.7-6.2c0.3-0.9,0.8-1.7,1.3-2.6c4.4-7.7,8.7-15.3,13.1-23
		c0.3-0.5,0.5-1.1,0.9-2c-5.1-4-10.2-8-15.4-12.1c-0.7,1.4-1.2,2.4-1.7,3.5c-4.3,9-8.5,18-12.9,26.9c-3,5.9-1.9,5.4-9.2,5.2
		c-6.3-0.2-12.7-0.3-19-0.6c-0.7,0-1.4,0.1-2.1,0.2c1.4,8.8,2.7,17.4,4.1,26c0.7-0.4,0.9-0.9,1.2-1.5c1.9-3.3,3.8-6.7,5.7-10
		c0.5-0.9,1.2-1.7,2.4-1.7c2.7,0,5.2,0,8.1,0c-0.3,0.8-0.6,1.3-0.9,1.7c-5,9.1-9.8,18.2-14.8,27.3c-0.6,1-1.1,2.1-1.6,3.3
		c-1.3,2.7-0.8,5.3,1.4,7.3c1.5,1.4,3.2,2.4,4.9,3.4c5,2.9,10.6,2.2,16.5,2.4c-0.9-1-1.5-1.9-2.2-2.6c-1.6-1.5-3.3-3-4.9-4.7
		c-2.8-3.1-3-5.1-0.9-8.6c2.8-4.5,5.6-9.2,8.5-13.7c1.5-2.4,3.1-4.9,4.6-7.4c1.1,0.9,2.1,1.6,3.2,2.3c1.3,0.9,1.8,1.9,1.2,3.5
		c-1.6,4.7-3.3,9.4-4.9,14.1c-0.2,0.5-0.3,0.9-0.5,2c1.1-0.8,1.9-1.2,2.6-1.7c5.6-4,11.2-8,16.8-12.1c0.4-0.3,0.9-0.6,1.4-1
		c1.8-1.5,2.1-2.7,1.4-4.9C351.6,301,351,299.6,350.2,298.4z"/>
	<path d="M427.8,84.1c-0.9-0.7-1.9-1.2-2.7-1.8c-1.7,1.3-3.1,2.4-4.5,3.4c-6.9,4.8-13.9,9.6-20.8,14.4c-1.7,1.2-1.8,1.4-1,3.3
		c0.2,0.3,0.3,0.8,0.4,1.1c3.6,7.9,7.1,15.7,10.7,23.6c0.2,0.4,0.5,0.9,0.9,1.5c0.7-0.6,1.1-1,1.5-1.5c4.3-4.7,8.6-9.3,12.8-14
		c3.1-3.3,6.2-6.6,9.2-9.8c1.5-1.6,2.2-3.5,1.8-5.7C435,92.8,432.2,88,427.8,84.1z"/>
	<path d="M349.6,99.1c0.4-1,0.9-2.1,1.4-3.1c4.4-8.8,9.8-16.4,19.9-19.1c3.1-0.8,3.5-2.1,2.7-5.6c-3.4-0.3-6.8-0.6-10.3-0.9
		c-3.7-0.2-7.3-0.5-11-0.7c0-0.1,0-0.1,0-0.2c0-23.4,19-42.4,42.4-42.4c23.4,0,42.4,19,42.4,42.4c0,0.2,0,0.5,0,0.7
		c-10.6-0.8-19.9-1.3-20.8-1.1c-0.2,1-0.4,2.1-0.6,3.3c-0.2,1.2,0.3,1.9,1.4,2.2c1.5,0.3,2.9,0.9,4.4,1c4,0.5,7.3,2.5,10,5.3
		c2.1,2.1,4,4.5,5.9,6.9c1.6,2.1,2.5,4.6,2.7,7.3c0.3,3,0.9,6,1.5,9c4.9-0.6,7-2.1,8.7-6.2c1.3-3.1,2.9-5.9,5-8.5
		c2.5-3,5.3-5.3,9.1-6.4c1.1-0.3,2.2-0.3,3.3-0.8c0.5-0.2,1.1-0.9,1.1-1.2c0-2.7-0.3-5.4-0.4-8c-3.2-0.5-14-1.5-25-2.4l17.9-5.1
		l-19.8-4.9c-0.6-3.6-1.7-7-3.1-10.3l9.5-7.6l-12.4,1.9c-2.9-4.9-6.7-9.2-11.1-12.7l3-12.9l-8.5,9.1c-5.4-3.2-11.4-5.3-17.9-6.2
		L394.7,0l-5.5,22c-7.2,0.8-13.9,3.3-19.7,6.9l-9.1-9.8l3.3,14.1l0,0c-3.9,3.4-7.2,7.3-9.9,11.8l-13.9-2.1l10.7,8.6
		c-1.2,3-2.1,6.3-2.7,9.6l-19.2,5.4l9.9,2.5c-0.7,0-1.3-0.1-2-0.1c-4.5-0.3-9.1-0.5-13.7-0.9c-1.2-0.1-1.9,0.3-2.4,1.5
		c-1.5,3.3-3.2,6.5-4.7,9.8c-0.2,0.3-0.2,0.8-0.3,1.2c11.1,6.3,22.2,12.7,33.4,19C349.4,99.3,349.6,99.2,349.6,99.1z M333.9,83.5
		c-2.2,0-4.4-2.1-4.5-4.1c-0.1-2.1,1.9-4.3,3.8-4.2c2.3,0,4.9,2.3,4.8,4.2C337.9,81.3,335.7,83.5,333.9,83.5z"/>
	<path d="M368.4,84.3c-6.8,3.4-13.3,11.5-15.3,18.8c2.2,3.3,22.3,27.4,23.8,28.4c1.8-2.8,11.7-28.4,12.1-30.9
		c-0.1-0.1-0.2-0.3-0.3-0.3c-5.7-4.6-11.5-9.3-17.2-13.9C370.4,85.5,369.3,84.9,368.4,84.3z"/>
	<path d="M456.2,95.9c-0.3,0.3-0.7,0.8-1.2,1.5c5.6,0.7,10.9,1.4,16.2,2.1c2.1,0.3,2.1,0.3,2.4,2.2c0.7,3.4,1.5,6.8,3.3,10.6
		c3.8-5.6,7.8-10.5,10.3-16.3c0.2-0.5,0.3-1,0.4-1.6c0.3-2.7-0.4-3.8-3-4.6c-3.1-0.9-6.2-1.8-9.2-2.6c-1.8-0.4-3.6-0.8-5.4-1.2
		c-1.2-0.3-2.1,0.1-3.1,0.9C463.5,89.8,459.8,92.8,456.2,95.9z"/>
	<path d="M300.1,99.1c0.3,0.3,0.5,0.6,0.9,0.9c3.7,4,7.4,8,11,12c0.3,0.3,0.6,0.5,1,0.9c0-1.8,0.2-3.3,0-4.9c-0.5-4.2,1.4-6.6,5-8.2
		c3.7-1.6,7.3-3.4,10.9-5.1c0.7-0.3,1.4-0.7,2.4-1.3c-4.5-2.4-8.7-4.5-12.8-6.8c-0.9-0.5-1.5-0.1-2.2,0.3c-5,2.3-10,4.5-15.1,6.8
		C298,95.2,297.8,96.4,300.1,99.1z"/>
	<path d="M476.8,293.5c1.9,3.3,3.8,6.7,5.7,10c0.3,0.5,0.5,0.9,1.2,1.5c1.4-8.6,2.7-17.2,4.1-26c-0.8-0.1-1.5-0.2-2.1-0.2
		c-6.3,0.2-12.7,0.3-19,0.6c-7.4,0.2-6.2,0.7-9.2-5.2c-4.4-8.9-8.6-17.9-12.9-26.9c-0.5-1.1-1-2.1-1.7-3.5
		c-5.2,4.1-10.3,8.1-15.4,12.1c0.4,0.8,0.6,1.4,0.9,2c4.4,7.7,8.7,15.3,13.1,23c0.5,0.9,0.9,1.7,1.3,2.6c0.9,2.1,0.7,4.2-0.7,6.2
		c-2,2.9-3.9,5.9-5.8,8.9c-0.8,1.2-1.4,2.6-1.9,3.9c-0.8,2.1-0.4,3.3,1.4,4.9c0.4,0.3,0.9,0.7,1.4,1c5.6,4,11.2,8,16.8,12.1
		c0.7,0.5,1.5,0.9,2.6,1.7c-0.3-0.9-0.3-1.5-0.5-2c-1.6-4.7-3.2-9.4-4.9-14.1c-0.5-1.5-0.1-2.6,1.2-3.5c1-0.7,2.1-1.5,3.2-2.3
		c1.5,2.5,3.1,4.9,4.6,7.4c2.8,4.5,5.6,9.2,8.5,13.7c2.1,3.5,2.1,5.6-0.9,8.6c-1.5,1.6-3.3,3.1-4.9,4.7c-0.7,0.7-1.4,1.5-2.2,2.6
		c5.9-0.2,11.5,0.5,16.5-2.4c1.7-1,3.4-2.1,4.9-3.4c2.1-2,2.7-4.5,1.4-7.3c-0.5-1.1-1-2.1-1.6-3.3c-5-9.1-9.8-18.2-14.8-27.3
		c-0.3-0.5-0.5-0.9-0.9-1.7c3.2-0.1,5.7-0.1,8.4-0.1C475.6,291.8,476.3,292.5,476.8,293.5z"/>
	<path d="M784.7,48.3c-17-0.2-34-0.3-51-0.6c-14.7-0.2-29.3-0.3-44.1-0.6c-7.8-0.1-15.6-0.3-23.4-0.3c-14.8-0.3-29.7-0.4-44.5-0.7
		c-7.6-0.1-15.2-0.2-22.8-0.3c-14.6-0.2-29.2-0.3-43.8-0.6c-8-0.1-16-0.2-24-0.4c-12.7-0.4-25.3-0.4-38-0.7c-0.9,0-1.9,0-3,0v12.6
		c4.9,1.7,9.4,4.2,13.6,7.1c1.5,1.1,2.9,2.5,4.2,3.9c3.6,4,7.1,8.1,10.5,12.2c1.4,1.6,2.4,3.6,3.5,5.4c0.6,1,1,2.1,1.5,3.3
		c4.5,9.3,4.1,18.8,0.4,28.1c-1,2.6-2.7,5-4.4,7.1c-6,7.4-13.8,11.3-23.4,11.6c-4.3,0.2-8.5-0.3-12.7-0.9c-9.3-1.2-18-4.6-26.6-7.9
		c-5.6-2.1-14.8-6.3-20.4-8.4l-2.6,3.3c-3.5,3.7-16.3,16.1-16.8,18.1c-0.2,0.9,0,1.9,0.4,3c9.7,24.5,19.2,49.1,28.8,73.6
		c0.3,0.8,0.7,1.6,1.1,2.6c0.7-0.3,1.2-0.7,1.7-1c6.9-4.4,13.9-8.6,20.8-13c3.7-2.3,3.8-2.8,1.4-6.6c-4.9-7.4-9.8-14.6-14.8-22
		c-3.8-5.6-7.6-11.3-11.4-17c-0.9-1.5-1.8-3-2.7-4.6c-0.3-0.6-0.5-1.2-0.7-1.9c-0.2-0.9-0.1-1.8,0.4-2.6c2-2.9,6.1,0,6.3,2.7
		c0,0.3,0.1,0.5,0,0.7c-0.7,3.2,0.6,5.7,2.4,8.2c2.5,3.5,4.6,7.1,7,10.7c0.5,0.8,1.2,1.4,2.1,2.4c0.3-0.9,0.4-1.5,0.5-2
		c0.9-3.6,1.9-7.1,2.9-10.7c0.4-1.6,1.2-2.3,2.1-2.1c1.1,0.3,1.7,1.1,1.6,2.8c-0.2,4.4-0.3,8.8-0.5,13.3c-0.1,1.5,0,3.1-0.1,4.5
		c-0.1,3.8,14.4,18.8,19.2,24.3c0.2,0.3,0.3,0.3,0.9,0.6c-0.9-13.1-1.6-26-2.5-38.9c1.8-0.3,2.8,0.4,3.3,1.8
		c0.6,2.1,1.1,4.2,1.5,6.2c2.2,10.1,4.5,20.2,6.8,30.3c0.6,2.8,1.2,5.6,1.8,8.5c0.4,2.1,1.5,3.7,3.2,5c9.2,6.5,18.3,13,27.5,19.5
		c0.1,0.1,0.3,0.1,0.7,0.3c-0.2-0.7-0.3-1.3-0.4-1.9c-7.5-22.5-15.1-45-22.6-67.5c-0.3-1-0.6-2.1-0.9-3.2c2.8-1.8,4.5-1.5,5.9,1.3
		c1.1,2.2,2.1,4.5,3.1,6.8c8.9,20.4,17.7,40.7,26.6,61.1c0.6,1.5,1.3,2.9,2,4.7c1.5-0.1,3,0,4.4-0.3c8.8-1.3,17.6-2.6,26.4-3.8
		c0.2,0,0.3-0.1,0.5-0.3c0.2-1.4-0.7-2.4-1.3-3.4c-5.5-9.5-11-19-16.6-28.5c-8.4-14.5-16.9-29-25.2-43.5c-0.5-0.9-0.9-2-1.4-3
		c1.8-0.6,2.3,0.5,3,1.4c4.7,6,9.4,12,14,18c13.5,17.4,26.9,34.9,40.5,52.3c0.1,0.1,0.2,0.3,0.3,0.3c1.5,2,1.6,2.1,3.8,0.7
		c8.4-5.3,16.8-10.7,25.4-16.2c-0.6-0.7-1.1-1.3-1.7-1.9c-11.2-11.7-22.4-23.4-33.7-35.1c-11.6-12.1-23.3-24.1-35-36.2
		c-0.4-0.4-0.9-0.9-1.4-1.6c0.5-0.7,1-1.4,1.6-2.2c14.3,11.4,28.4,22.8,42.6,34c14.2,11.2,28,23,42.5,33.8c10.1-8.6,20-17,30-25.6
		c-1.3-1.5-2.8-2.1-4.3-2.9c-5.6-3-11.4-6-17-9c-26-13.9-51.9-28-77.9-41.9c-2.7-1.5-5.5-2.7-8-4.3c-2.1-1.3-2.3-1.9-1.9-4.6
		c0.8,0.3,1.5,0.5,2.2,0.8c39.5,15.4,78.9,30.9,118.5,46.3c1.1,0.4,2.3,0.8,3.3,1.3c2.1,1,3.9,0.5,5.6-1.2c0.8-0.8,1.5-1.5,2.3-2.2
		c8.6-7.8,17.3-15.5,26-23.3c0.4-0.4,1-0.7,2-1.3c-1.6-0.5-2.5-0.8-3.4-1.1c-3.9-1.3-8-2.1-11.9-3.7c-2.8-1.1-5.8-1.7-8.7-2.6
		c-1.1-0.3-2.2-0.9-3.3-1.1c-2.6-0.6-5.1-1.1-7.7-1.7c-3.4-0.9-6.8-1.9-10.2-2.7c-2.1-0.6-4.4-1-6.5-1.5c-0.3-0.1-0.6-0.1-0.9-0.2
		c-5.9-1.7-11.9-3.4-17.8-5c-6.5-1.8-13-3.4-19.5-5.2c-15.8-4.4-31.6-8.8-47.5-13.2c-7-2-14-3.8-21-5.8c-0.7-0.2-1.5-0.3-2.1-0.8
		s-1-1-1.5-1.5c0.1-0.2,0.2-0.3,0.3-0.6c0.8,0.1,1.5,0.1,2.2,0.3c31.2,5.7,62.4,11.5,93.7,17.3c25.1,4.6,50.3,9.3,75.4,13.9
		c0.4,0.1,0.8,0.2,1.2,0.3c2.7,1,4.8-0.2,6.8-2.2c4.2-4.4,8.4-8.9,12.6-13.3c3.8-4,7.9-8,11.7-12.1c0.3-0.3,0.7-0.9,1.3-1.6
		c-69.3-6-138.3-11.5-207.3-17.7c-0.5-1.6-0.9-2.9-1.5-4.5c0.5,0,1,0,1.5,0c11.4,0.5,22.8,1.1,34.1,1.6c8.6,0.4,17.1,0.8,25.7,1.2
		c12.5,0.6,25,1.2,37.5,1.8c7.2,0.3,14.5,0.7,21.6,1c14.2,0.7,28.4,1.4,42.5,2c11.9,0.5,23.7,1,35.6,1.5c5.3,0.3,10.6,0.5,15.8,0.9
		c3.5,0.3,5.7-1.3,7.9-4.8c3.3-5.4,7.3-10.1,11.9-14.4c1.4-1.2,2.1-2.9,3.3-4.3c1.8-2.2,3.6-4.4,5.5-6.7c0.3-0.4,0.5-0.7,0.8-1.1
		c0,0,0-0.1-0.1-0.2C788.5,48.6,786.6,48.3,784.7,48.3z"/>
	<path d="M790.5,48.7c0,0.1-0.1,0.1-0.1,0.2C790.4,49,790.5,48.9,790.5,48.7z"/>
	<path d="M435.5,287.3c-0.4-0.9-0.8-2-1.2-2.9c-4.5-9.8-9.2-19.6-13.7-29.4c-0.2-0.3-0.2-0.6-0.3-1.1c0.3-0.4,0.8-0.9,1.2-1.3
		c6-5.2,12-10.3,18-15.6c3.6-3.1,3.8-3.7,2.1-8c-12.5-31.7-25-63.6-37.4-95.3c-3.1-7.8-6.1-15.5-9.2-23.3c0-0.1-0.1-0.2-0.1-0.3
		l-0.5,0.3c-3.1,7.8-6.1,15.5-9.2,23.3c-12.5,31.7-25,63.6-37.4,95.3c-1.7,4.4-1.5,4.9,2.1,8c6.1,5.1,12.1,10.3,18,15.6
		c0.4,0.4,0.9,0.9,1.2,1.3c-0.2,0.5-0.3,0.8-0.3,1.1c-4.5,9.8-9.2,19.6-13.7,29.4c-0.4,0.9-0.8,1.9-1.2,2.9
		c-0.4,0.9-0.3,1.9,0.3,2.7c0.8,1.3,4.9,5.4,6.5,6.3c0.3-0.8,0.7-1.5,1-2.1c3.6-8.5,7.3-16.9,10.9-25.4c0.6-1.3,1-2.7,2.4-3.4
		c2.3,1.2,2.5,1.7,1.5,4.4c-3.2,9-6.3,18-9.6,26.9c-0.7,2-0.7,3.8,0.7,5.4c1.8,2.1,3.6,4.3,5.3,6.4c1.6-0.3,1.8-1.6,2.2-2.7
		c3.1-8.9,6.2-17.9,9.2-26.8c0.6-1.9,1.5-3.7,2.1-5.6c1.7,1.6,1.8,1.7,1.3,3.4c-0.9,3.4-1.7,6.8-2.7,10.2
		c-2.2,7.5-4.4,15.1-6.7,22.6c-0.7,2.3-0.3,4.4,1.2,6.2c3,3.8,11.3,11.5,14.9,14.9v0.4c0.1-0.1,0.2-0.2,0.3-0.2
		c0.1,0.1,0.2,0.2,0.3,0.2v-0.4c3.5-3.3,11.9-11,14.9-14.9c1.5-2,1.9-3.9,1.2-6.2c-2.2-7.5-4.5-15.1-6.7-22.6
		c-0.9-3.4-1.9-6.8-2.7-10.2c-0.4-1.7-0.4-1.8,1.3-3.4c0.8,1.9,1.5,3.7,2.1,5.6c3.1,8.9,6.2,17.9,9.2,26.8c0.3,1.1,0.5,2.4,2.2,2.7
		c1.7-2.1,3.5-4.3,5.3-6.4c1.4-1.6,1.4-3.4,0.7-5.4c-3.3-9-6.4-18-9.6-26.9c-0.9-2.7-0.8-3.3,1.5-4.4c1.5,0.7,1.9,2.1,2.4,3.4
		c3.7,8.5,7.3,16.9,10.9,25.4c0.3,0.8,0.7,1.5,1,2.1c1.6-1,5.7-5,6.5-6.3C435.7,289.2,436,288.4,435.5,287.3z M406.7,167.8
		c-0.2,0-3.5-0.3-5.3,2.2c-0.9,1.2-1,2.5-1,3.1l0,6.6l0,0.6v32.2c0,0.4-0.1,2.2,1.2,3.7c1.2,1.4,3.2,2.1,5.1,1.7v2.6h-12h0h-12v-2.6
		c1.9,0.4,3.9-0.2,5.1-1.7c1.2-1.5,1.2-3.7,1.2-3.7l0-32.2l0-7.2c0-0.6-0.1-1.9-1-3.1c-1.8-2.5-5.1-2.3-5.3-2.2c0-0.7,0-1.5,0-2.2
		h12h0h12C406.7,166.3,406.7,167,406.7,167.8z"/>
</g>
</svg>
