<?xml version="1.0" encoding="utf-8"?>
<!-- Generator: Adobe Illustrator 21.0.2, SVG Export Plug-In . SVG Version: 6.00 Build 0)  -->
<!DOCTYPE svg PUBLIC "-//W3C//DTD SVG 1.1//EN" "http://www.w3.org/Graphics/SVG/1.1/DTD/svg11.dtd">
<svg version="1.1" id="skull" xmlns="http://www.w3.org/2000/svg" xmlns:xlink="http://www.w3.org/1999/xlink" x="0px" y="0px"
	 viewBox="0 0 547.4 857" style="enable-background:new 0 0 547.4 857;" xml:space="preserve">
<g>
	<path d="M426.8,422.7l49.2,13.3l-32.3-37.9c11.2-19.4,19.1-41,22.9-64l80.8-25.4l-79.1-23.8c-2.5-26.7-10.5-51.7-22.9-74.1
		l30.7-32.8l-42.6,14.1c-14.3-19.9-32.3-37-53.1-50.1l8.3-52.6l-24,26.5c0.3-10.3,2.6-28.5,15-45.8c27.9-39.1,80-35.3,83-35
		c0-11.7,0-23.3,0-35H278.8h-3.2H91.7c0,11.7,0,23.3,0,35c3-0.3,55.1-4.1,83,35c13.7,19.2,15,39.7,15,49l0,4.6l-31-34.2l9,56.8
		c-18.8,12.9-35.1,29.1-48.1,47.8L71.3,178l35.1,37.6c-10.6,20.5-17.6,43.2-20.2,67.2L0,308.7l88.1,27.7
		c3.6,20.2,10.3,39.3,19.7,56.8L71.3,436l55-14.8c12.2,15.4,26.7,28.9,43.1,39.9l-10.7,67c0,0,17.5-16.5,33-32l0,2
		c-0.7,78.7-1.3,157.3-2,236c0.4,6.6,1.5,33.9-18,57c-18.8,22.3-49.6,32.2-80,26v40h183.9h3.2h183.9v-40c-30.4,6.2-61.2-3.7-80-26
		c-19.5-23.1-18.4-50.4-18-57c-0.7-77-1.3-154-2-231c13.3,13.1,26,25,26,25l-7.4-64.5C398.6,452.4,413.9,438.6,426.8,422.7z
		 M277.2,447.4c-76.3-0.5-138-62.5-138-139s61.7-138.5,138-139c76.3,0.5,138,62.5,138,139S353.5,446.9,277.2,447.4z"/>
	<path d="M363.1,236.4c-15.8-46.1-62.5-53.3-82.7-54.2c0,0-1.7-0.1-4.7-0.1c0,0,0,0-0.1,0s0,0-0.1,0c-3,0-4.7,0.1-4.7,0.1
		c-20.2,0.9-66.9,8.1-82.6,54.2c-13.5,39.3,12,83.8,6.9,89.7c-20.8,24,7.5,62.1,11.3,65.2c6.9,5.7,29-5.8,25.5,0.1
		C229.4,396,227,430,227,430h6.8l3.3-11.9l5.9-0.1L244,430H256l1.1-11.4l4-0.6l0.6,11.9h9.7l0.5-12.2h7.8l0.5,12.2h9.7l0.6-11.9
		l4,0.6l1.1,11.4h11.9l1.1-11.9l5.9,0.1l3.3,11.9h6.8c0,0-2.4-34-5.1-38.5c-3.5-5.9,18.6,5.5,25.5-0.1c3.9-3.2,32.1-41.2,11.3-65.2
		C351,320.1,376.5,275.7,363.1,236.4z M262.8,350.9c-2.7,3-6.6,6.6-11.9,9.6c-12.7,7.2-25.3,6.2-30.4,5.4c-0.3,0-0.7-0.2-0.9-0.3
		c-11.1-7.1-15.4-18.1-12.1-24.9c0.5-1.1,2.4-4.5,8.2-6.6c0.3-0.1,0.7-0.2,1-0.2c7.1,0.6,15.8,2,25.5,5.1c7.8,2.4,14.5,5.4,20,8.3
		C263.6,348,263.9,349.8,262.8,350.9z M289.5,392.6c0,0.8-1,1.1-1.5,0.5c-1.2-1.5-2.9-3.3-5.1-4.9c-2.4-1.7-4.6-2.8-6.4-3.5
		c-1.7,0.6-4,1.7-6.4,3.5c-2.2,1.6-3.9,3.4-5.1,4.9c-0.5,0.6-1.5,0.3-1.5-0.5c-0.4-5.8-0.1-17.7,8.6-26.4c1.1-1.1,2.6-2.1,4.3-3
		c1.7,0.9,3.2,1.9,4.3,3C289.6,374.9,289.9,386.8,289.5,392.6z M332.1,365.7c-0.3,0.2-0.6,0.3-0.9,0.3c-5.1,0.7-17.7,1.7-30.4-5.4
		c-5.3-3-9.2-6.6-11.9-9.6c-1-1.2-0.7-3,0.7-3.7c5.5-2.9,12.2-5.8,20-8.3c9.7-3,18.5-4.4,25.5-5.1c0.3,0,0.7,0,1,0.2
		c5.8,2.1,7.7,5.6,8.2,6.6C347.5,347.6,343.3,358.6,332.1,365.7z"/>
</g>
</svg>
