<?xml version="1.0" encoding="utf-8"?>
<!-- Generator: Adobe Illustrator 22.1.0, SVG Export Plug-In . SVG Version: 6.00 Build 0)  -->
<svg version="1.1" id="Layer_3_1_" xmlns="http://www.w3.org/2000/svg" xmlns:xlink="http://www.w3.org/1999/xlink" x="0px" y="0px"
	 viewBox="0 0 701 1000" style="enable-background:new 0 0 701 1000;" xml:space="preserve">
<g>
	<path d="M454.3,273.2c-19.4-56.6-76.7-65.5-101.5-66.6c0,0-2.1-0.1-5.7-0.1c0,0,0,0-0.1,0c0,0,0,0-0.1,0c-3.6,0-5.7,0.1-5.7,0.1
		c-24.8,1.2-82.1,10-101.5,66.6c-16.6,48.3,14.8,102.9,8.4,110.3c-25.5,29.5,9.2,76.3,13.9,80.1c8.5,7,35.6-7.1,31.4,0.1
		c-3.2,5.5-6.2,47.4-6.2,47.4h8.4l4-14.6l7.2-0.1l1.4,14.7h14.7l1.4-14l4.9-0.7l0.7,14.7h11.9l0.6-15h9.6l0.6,15h11.9l0.7-14.7
		l4.9,0.7l1.4,14h14.7l1.4-14.7l7.2,0.1l4,14.6h8.4c0,0-3-41.8-6.2-47.4c-4.3-7.3,22.8,6.8,31.4-0.1c4.7-3.9,39.4-50.6,13.9-80.1
		C439.5,376.1,470.8,321.5,454.3,273.2z M324.4,309.9c-0.5,1.9-0.8,4-0.8,6.1c0,12.9,10.4,23.3,23.3,23.3
		c12.9,0,23.3-10.4,23.3-23.3c0-2-0.3-4-0.7-5.9c20.2,6.3,34.3,18.6,34.3,18.6S378.2,351,346.6,351s-57.3-22.3-57.3-22.3
		S303.8,316.2,324.4,309.9z M331.2,414c-3.3,3.7-8.1,8.2-14.6,11.8c-15.6,8.8-31.1,7.6-37.4,6.7c-0.4,0-0.8-0.2-1.2-0.4
		c-13.7-8.7-18.9-22.2-14.8-30.6c0.6-1.3,2.9-5.5,10.1-8.2c0.4-0.1,0.8-0.2,1.2-0.2c8.7,0.8,19.4,2.5,31.3,6.2
		c9.6,3,17.8,6.6,24.6,10.1C332,410.4,332.4,412.6,331.2,414z M363.9,465.2c0,1-1.2,1.3-1.8,0.6c-1.5-1.9-3.5-4.1-6.2-6
		c-2.9-2.1-5.7-3.5-7.8-4.2c-2.1,0.8-4.9,2.1-7.8,4.2c-2.7,2-4.7,4.2-6.2,6c-0.6,0.7-1.8,0.4-1.8-0.6c-0.5-7.1-0.1-21.8,10.6-32.4
		c1.4-1.4,3.2-2.6,5.3-3.7c2.1,1.2,3.9,2.4,5.3,3.7C364,443.4,364.4,458.1,363.9,465.2z M416.3,432.1c-0.4,0.2-0.7,0.4-1.2,0.4
		c-6.3,0.9-21.7,2.1-37.4-6.7c-6.5-3.6-11.3-8.1-14.6-11.8c-1.2-1.4-0.9-3.6,0.8-4.5c6.7-3.5,14.9-7.1,24.6-10.1
		c11.9-3.7,22.7-5.4,31.3-6.2c0.4,0,0.8,0,1.2,0.2c7.1,2.6,9.5,6.9,10.1,8.2C435.2,409.9,430,423.5,416.3,432.1z"/>
	<path d="M701,379.6v-33.9H595.4c-1.7-25.5-7.3-49.9-16.1-72.7l54.7-36.3l-17.6-26.5l-50.7,33.7c-14.2-26-33-49.2-55.2-68.5
		l34.4-49.1L518.9,108l-33.6,48c-7.2-4.8-14.6-9.2-22.2-13.2l0-4c0-10.9,1.6-34.8,18.7-57.2c34.8-45.6,99.9-41.2,103.6-40.8
		c0-13.7,0-27.2,0-40.8H351.9h-0.1H118.3c0,13.7,0,27.2,0,40.8c3.7-0.4,68.8-4.8,103.6,40.8c17.1,22.4,18.7,46.2,18.7,57.1
		c-8.5,4.1-16.7,8.6-24.6,13.6l-34-48.6L156,122l34.3,48.9c-22.8,18.8-42.2,41.5-57.2,67.2l-48.6-32.3l-17.6,26.5l51.9,34.5
		c-9.7,23.3-16,48.3-18.3,74.6H0v33.9h100c1.4,27.3,7.2,53.4,16.7,77.7L70.1,484l17.6,26.5l42.6-28.3c14.9,27,34.6,50.9,58,70.6
		l-29.2,41.7l26.1,18.2l28.7-41.1c8.7,5.6,17.7,10.6,27.1,15.1c0,124.4-0.1,235.1-0.4,269.7c0.5,7.7,1.9,39.6-22.5,66.5
		c-23.5,26-61.9,37.6-99.9,30.3v46.7h233.4h0.1h233.4v-46.7c-38,7.2-76.4-4.3-99.9-30.3c-24.3-27-23-58.8-22.5-66.5
		c-0.9-90.9-1.6-181.7-2.5-272.7c7.8-4,15.4-8.4,22.7-13.2l32.4,46.3l26.1-18.2l-33-47.2c22.6-19.3,41.8-42.6,56.3-68.8l48.2,32
		l17.6-26.5l-52.1-34.6c9.1-23.2,14.9-48.1,16.7-74.1H701z M351,577.9c-48.7,0-93.6-16.3-129.6-43.6
		c-52.6-38.8-86.8-101.2-86.8-171.6c0-78.7,42.6-147.4,106.1-184.3c0,0.6,5.3-2.9,5.3-2.3c32.2-19.4,64.7-26.5,105-26.5
		c118.3,0,214.2,95.9,214.2,214.2S469.3,577.9,351,577.9z"/>
</g>
</svg>
