<?xml version="1.0" encoding="utf-8"?>
<!-- Generator: Adobe Illustrator 21.0.2, SVG Export Plug-In . SVG Version: 6.00 Build 0)  -->
<!DOCTYPE svg PUBLIC "-//W3C//DTD SVG 1.1//EN" "http://www.w3.org/Graphics/SVG/1.1/DTD/svg11.dtd">
<svg version="1.1" id="skull" xmlns="http://www.w3.org/2000/svg" xmlns:xlink="http://www.w3.org/1999/xlink" x="0px" y="0px"
	 viewBox="0 0 960.5 656.6" style="enable-background:new 0 0 960.5 656.6;" xml:space="preserve">
<g>
	<path d="M123.6,225.4c55,8.1,94.4,4.3,139.7-1.3c35.8-4.4,77.3-5.3,85.7,9.7c5.2,9.3,10.8,13.2,9.7,24.7c-0.9,9.7,1,13.3-1.7,20.3
		c-2.2,5.9-3,1.5-4.7,7.7c-1.9,7.1-2.5,9.1,4.3,21.7c8,14.7,21.8,31.5,28.9,37.9c1.6,1.4,4-0.2,3.3-2.2
		c-4.8-13.9-17.4-51.9-9.2-86.1c4.5-18.5,21.7-20.7,24.7-43.7c3-22.8-64-23.7-76.3-23.7s-82.7,10.3-141.7,11.6
		c-59,1.3-92-3.3-182.3-23.3c-13.6-3,11.1,33.3,29,36.3C54.9,218.7,87.3,220,123.6,225.4z"/>
	<path d="M244.3,260.1c11.3-1.7,22.8-3.7,34.5-6c19.4-3.7,38-7.8,55.6-12.2c1.2-0.3,2-1.6,1.7-2.8c-0.5-1.8-1.5-4-3.2-6
		c-4.3-5-11.6-7-19-5.3c-11.1,1.2-22.6,2.3-34.3,3.2c-26.3,1.9-51.3,2.7-75,2.5c0.6,3.7,2.2,9.9,6.9,15.5
		C223.1,262.8,242.7,260.3,244.3,260.1z"/>
	<path d="M250.9,295.4c11.6-3.3,23.5-6.8,35.6-10.7c22.6-7.3,44-15,64.1-22.9c0.4-0.9,1.9-4.7,0.3-9.1c-1.3-3.8-4.1-5.7-5-6.3
		c-15.5,4.3-32.4,8.3-50.7,11.7c-25.1,4.6-51,7.1-72,8.3c-0.8,2.7,0.9,8.1,3,13.9C229.7,289.2,239.5,295.2,250.9,295.4z"/>
	<path d="M270.4,323.9c6.9-1.4,10.6-2.5,18.4-5c23.3-7.6,39.5-19,52.8-28.8c1-2.9,4.2-7.5,3-13.1c-0.3-1.3-0.6-2.5-1-3.6
		c-18.6,8.2-39.2,16.2-62,23.3c-11.5,3.6-22.6,6.7-33.3,9.3c-0.1,1.1-0.7,7.6,4,13C257.8,325.4,269.6,324,270.4,323.9z"/>
	<path d="M278.8,355.7c4,1.9,9.9,0.7,12.1,0.4c6.4-3.4,11-6.2,17.7-10.3c15.5-9.5,29.1-19.4,41-29c0.3-0.9,1.5-4.9-0.7-9.3
		c-2-4-5.4-5.6-6.3-6c-11,6.9-23.8,14-38.3,20.7c-12.7,5.8-26.7,9.4-37.7,13C266.2,343.8,272.2,352.5,278.8,355.7z"/>
	<path d="M308.4,383.9c5,1.1,9.3,0.4,12-0.3c8.7-7.2,18-15.4,27.5-25.8c6.7-7.3,10.6-14.5,15.7-21.3c-0.4-1.9,0.2-8.5-5.7-12.3
		c-1.5-1-3-1.6-4.3-2c-6.9,7-15.2,14.5-25,22c-12.9,9.8-25.3,17.1-36.2,22.6c-1.6,0.8-2.1,2.8-1.2,4.3
		C293.7,375,299.2,381.8,308.4,383.9z"/>
	<path d="M327.6,392.3c2.9,1.4,7.5,3.1,10.7,3.8c4.4,0.9,9.2,2.3,10.3,1.8c2.4-1.6,5.2-7.5,7.7-9.5c14.1-11.6,19.8-24.6,23.7-35.1
		c-0.6-1.3-1.7-3.1-3.3-4.9c-3.1-3.2-6.5-4.4-8.3-4.9c-6.4,10.4-13.2,18.1-23.4,29.6c-4,4.5-12.6,11.2-17.8,15.7
		C326,389.8,326.2,391.6,327.6,392.3z"/>
	<path d="M368.6,407.7c5,0.3,8.4-2.8,9-3.3c0.8-6.4,2.6-14.7,6.7-23.7c2.1-4.7,4.4-8.7,6.7-12c0-0.3,0.4-3.6-2-5.7
		c-1.2-1-2.6-1.3-3.2-1.3c-2.1,3.3-3.2,7.6-5.4,11c-6.8,10.3-14.7,19-21.7,28C360.5,404.7,364.3,407.4,368.6,407.7z"/>
	<path d="M70.4,258.7c34.8-1,49.8-3.2,92.2-10.2c7.3-1.2,18.5-1.5,32.2-2c1.5-0.1,2.6-1.3,2.5-2.8c-0.2-1.5-0.7-3.3-2.2-4.9
		c-2.4-2.7-5.6-3-6.2-3c-47.4-3.9-94.9-7.8-142.3-11.7c-4.3-0.1-12.7,0.5-21.1,5.7c-2.3,1.5-4.3,3-5.9,4.6c-0.9,0.8-1,2.2-0.4,3.2
		c1.8,3,4.3,6.5,7.6,10c5.3,5.5,10.7,8.9,14.7,10.9C47.8,258.7,57.9,259.1,70.4,258.7z"/>
	<path d="M169.7,271.2c13.1-4.1,25.6-8.3,37.8-12.8c0-0.7-0.1-2.1-1-3.5c-1.4-2.3-3.7-2.9-4.3-3c-38.5,7.7-81.3,12.8-127.7,13.2
		c-8.7,0.1-17.3,0-25.8-0.2c-2,1.2-8.1,5.2-8.7,11.2c-0.9,8.2,8.2,18.5,23.5,20.5C96.5,291.1,132.1,282.9,169.7,271.2z"/>
	<path d="M215.4,282c0.6-0.7,3.2-4,2.8-8.8c-0.1-1.3-0.4-2.4-0.8-3.3c-0.8-1.9-2.9-2.7-4.8-2.1c-21.6,6.6-34.6,12.9-63.9,19.9
		c-28.4,6.8-54.6,12.1-78.2,15.2c-0.8,0.6-12.3,6.2-11.5,15.2c0.9,9.6,15.3,20.7,31.3,18.2c34.3-14.6,68.7-29.5,103.2-44.8
		C200.8,288.5,208.1,285.2,215.4,282z"/>
	<path d="M217.9,311.5c3.8-2.4,7-4.6,9.8-6.5c2.5-1.7,3.2-5.2,1.5-7.7c-0.8-1.2-1.8-2.4-3-3.6c-2.1-2-4.3-3.3-6.1-4.1
		c-1.8-0.8-3.9-0.6-5.5,0.6c-10.8,7.7-20.2,10-26.9,13.3c-27,13.4-41.8,15-73.4,31.2c-8.1,4.1-14.7,7.9-19.4,10.7
		c-1.4,0.9-2.4,2.3-2.7,4c-0.5,3.2,0.3,5.2,0.6,6c2.5,5.8,11.3,9.1,21.3,6.6c0.4-0.1,0.7-0.3,1.1-0.4c25.2-9.2,36.4-16.3,49.5-22
		C178.7,333.4,198.7,323.7,217.9,311.5z"/>
	<path d="M230.9,342.2c6.9-3,15.5-6.1,17.2-13.1c1-4.3-0.3-10.5-4.5-14.9c-2-2-4.1-3.1-5.5-3.8c-2.5,1.1-6.6,2.9-11.5,5.2
		c-29.1,13.8-40.5,22.9-65.5,35.2c-6,2.9-15,7.2-26.5,11.8c-2.5,2.5-5.6,6.2-8.2,11.2c-3.3,6.2-4.7,11.9-5.2,15.8
		c2.5,1.5,6.3,3.4,11.2,4.5c7.4,1.6,13.6,0.6,17-0.2c26.9-15.9,27.1-16.1,27.1-16.1C224.1,349.3,213.6,349.8,230.9,342.2z"/>
	<path d="M240.9,378.5c9.2-8.3,16.6-13.5,22.7-17.7c1.2-0.8,1.7-2.3,1.2-3.6c-0.9-2.7-1.2-6.7-2.9-9.9c-1.7-3.1-3.5-5.8-5.2-7.9
		c-1.1-1.4-3.1-1.6-4.4-0.5c-3.5,2.9-8.3,6.7-14.1,10.9c-23.4,17.3-36,22.5-57.8,37.8c-6.3,4.4-15.2,11-25.7,19.8
		c-1.2,1-1.5,2.8-0.6,4.1c2.1,3.2,5.7,7.4,11.3,10.4c8.9,4.7,17.8,3.3,21.2,2.8C207,421.1,214.1,402.7,240.9,378.5z"/>
	<path d="M282.2,375.2c0.8-2.9,0.1-5.9-2-8c-2.9-3-6.9-2.3-7.2-2.2c-3.2,3.6-8.5,9.2-15.5,15.5c-15.2,13.7-24.2,17.8-38.5,29.8
		c-5.3,4.4-13.6,10.3-22.1,19.5c-1.3,1.5-1.3,3.7,0.1,5.2c1.9,2,4.7,4.4,8,5.8c5.9,2.6,11.3,1.9,13.3,1.5c6.9-4.6,14.3-10,21.7-16.5
		C259.7,408.5,273.2,390.2,282.2,375.2z"/>
	<path d="M298.4,405c2.3-2.9,4.9-6,6.8-8.1c0.9-1,0.6-2.5-0.5-3.2c-1.5-0.8-3.3-1.6-5.3-2.3c-4.4-1.5-8.3-1.8-11-1.8
		c-10.5,8-21.7,17.3-33,28.2c-6.8,6.6-13.1,13.2-18.8,19.5c1.8,2.3,6.1,7,13.2,9.8c5.3,2,10,2.1,12.8,2c6.4-4.5,10.9-9,13.6-12.1
		C285.7,426.7,282.5,425.4,298.4,405z"/>
	<path d="M327.2,401.6c-5.1-2.8-9.9-2.6-12.1-2.4c-5.9,7.6-11.8,15.7-17.8,24.5c-8.3,12.3-15.5,24.2-21.8,35.5
		c2.5,0.9,5.6,1.8,9.3,2.1c7.6,0.8,13.8-0.8,17.5-2.1c2.5-3.3,5-6.8,7.5-10.5c9.9-14.7,17.4-29.2,23-42.5
		C331.8,404.9,329.9,403.1,327.2,401.6z"/>
	<path d="M336.7,469.7c3.4-5.2,6.8-8.4,10.2-14.5c6.6-11.7,12.2-23.1,16.9-33.8c0.5-1.2,0.3-2.6-0.6-3.6c-1.7-2-4.4-4.5-8.1-6.5
		c-3.2-1.7-6.2-2.6-8.6-3.1c-1.6-0.3-3.3,0.6-3.9,2.2c-2.6,6.9-5.1,12.4-7.1,16.1c-7.3,14.3-13.2,20.3-19.8,35.5
		c-1.4,3.3-2.5,6.2-3.3,8.5c-0.6,1.7,0.2,3.5,1.8,4.2c0,0,0,0,0,0c8.2,3.6,16.8-1.7,21-3.9C335.9,470.6,336.4,470.2,336.7,469.7z"/>
	<path d="M378.2,419.5c-1.5,1.9-3.7,4.7-6.2,8.2c-3.3,4.7-13.2,19.1-25,51c-2.8,7.5-8.1,19.2-11.4,30.9c-0.6,2.2,1.3,4.3,3.5,3.8
		c2.6-0.6,5.4-0.6,7.2-2.2c38.5-35.3,45.4-63.1,46.8-71.2c-0.1-2.2-0.8-8-5.2-13.5C384.3,422.3,380.2,420.3,378.2,419.5z"/>
	<path d="M956.5,184.5c-90.3,20-123.3,24.6-182.3,23.3c-59-1.3-129.3-11.6-141.7-11.6c-12.3,0-79.3,0.9-76.3,23.7
		c3,23,20.2,25.2,24.7,43.7c8.2,34.2-4.4,72.2-9.2,86.1c-0.7,2,1.7,3.6,3.3,2.2c7.1-6.5,20.9-23.2,28.9-37.9
		c6.8-12.6,5-14.3,4.3-21.7c-0.7-7.3-2.8-4.8-4.7-7.7c-4.1-6.3-0.7-10.6-1.7-20.3c-1.1-11.4,4.5-15.4,9.7-24.7
		c8.3-15,49.9-14.1,85.7-9.7c45.3,5.6,84.7,9.5,139.7,1.3c36.3-5.4,68.7-6.7,90.7-10.3C945.5,217.8,970.2,181.5,956.5,184.5z"/>
	<path d="M681.7,259.9c11.8,2.2,23.3,4.2,34.5,6c1.6,0.2,21.2,2.7,32.8-11.2c4.7-5.7,6.3-11.8,6.9-15.5c-23.7,0.2-48.7-0.6-75-2.5
		c-11.7-0.9-23.2-1.9-34.3-3.2c-7.4-1.6-14.7,0.3-19,5.3c-1.7,2-2.7,4.2-3.2,6c-0.3,1.2,0.4,2.5,1.7,2.8
		C643.7,252.1,662.3,256.2,681.7,259.9z"/>
	<path d="M609.5,258.5c-1.5,4.4,0,8.2,0.3,9.1c20.1,7.9,41.5,15.7,64.1,22.9c12.1,3.9,24,7.4,35.6,10.7c11.5-0.2,21.2-6.2,24.6-15.1
		c2.2-5.8,3.8-11.2,3-13.9c-21-1.2-46.9-3.7-72-8.3c-18.3-3.3-35.2-7.4-50.7-11.7C613.6,252.8,610.9,254.7,609.5,258.5z"/>
	<path d="M708.2,324.8c4.7-5.4,4.1-11.9,4-13c-10.7-2.7-21.9-5.7-33.3-9.3c-22.8-7.1-43.4-15.1-62-23.3c-0.4,1.1-0.8,2.3-1,3.6
		c-1.1,5.6,2,10.1,3,13.1c13.3,9.9,29.6,21.2,52.8,28.8c7.8,2.6,11.4,3.6,18.4,5C690.9,329.8,702.7,331.2,708.2,324.8z"/>
	<path d="M617.9,307.2c-0.9,0.4-4.4,2-6.3,6c-2.1,4.4-0.9,8.5-0.7,9.3c11.9,9.6,25.5,19.5,41,29c6.7,4.1,11.3,6.9,17.7,10.3
		c2.2,0.3,8.1,1.6,12.1-0.4c6.6-3.2,12.6-11.9,12.2-20.6c-11-3.6-25-7.2-37.7-13C641.6,321.1,628.9,314,617.9,307.2z"/>
	<path d="M602.5,329.8c-5.8,3.8-5.3,10.4-5.7,12.3c5.1,6.8,8.9,14,15.7,21.3c9.5,10.4,18.8,18.6,27.5,25.8c2.7,0.7,7,1.5,12,0.3
		c9.2-2.1,14.7-8.8,17.2-12.9c0.9-1.5,0.4-3.5-1.2-4.3c-10.9-5.5-23.3-12.8-36.2-22.6c-9.8-7.5-18.1-15-25-22
		C605.6,328.2,604.1,328.8,602.5,329.8z"/>
	<path d="M583.9,354.2c-1.7,1.7-2.7,3.5-3.3,4.9c3.9,10.5,9.6,23.5,23.7,35.1c2.5,2,5.2,8,7.7,9.5c1.2,0.5,6-0.9,10.3-1.8
		c3.2-0.7,7.8-2.4,10.7-3.8c1.4-0.7,1.6-2.5,0.5-3.5c-5.2-4.5-13.8-11.2-17.8-15.7c-10.1-11.5-16.9-19.2-23.4-29.6
		C590.4,349.7,586.9,351,583.9,354.2z"/>
	<path d="M574.8,367.5c-0.6,0.1-2,0.3-3.2,1.3c-2.4,2.1-2,5.4-2,5.7c2.2,3.3,4.6,7.3,6.7,12c4.1,9,5.9,17.3,6.7,23.7
		c0.6,0.5,4,3.7,9,3.3c4.3-0.3,8.1-3,10-7c-6.9-9-14.8-17.7-21.7-28C578,375.1,576.8,370.8,574.8,367.5z"/>
	<path d="M934.9,235.5c-8.3-5.2-16.8-5.7-21.1-5.7c-47.4,3.9-94.9,7.8-142.3,11.7c-0.6,0-3.8,0.3-6.2,3c-1.5,1.6-2,3.5-2.2,4.9
		c-0.2,1.5,1,2.7,2.5,2.8c13.7,0.5,24.8,0.8,32.2,2c42.5,7,57.4,9.2,92.2,10.2c12.5,0.4,22.7,0,28.8-0.3c3.9-2,9.4-5.4,14.7-10.9
		c3.4-3.5,5.8-7,7.6-10c0.6-1,0.5-2.4-0.4-3.2C939.2,238.6,937.3,237,934.9,235.5z"/>
	<path d="M911.8,270.8c-8.4,0.2-17,0.3-25.8,0.2c-46.5-0.4-89.3-5.6-127.7-13.2c-0.5,0.1-2.8,0.7-4.3,3c-0.9,1.4-1,2.8-1,3.5
		c12.1,4.4,24.7,8.7,37.8,12.8c37.6,11.7,73.2,19.8,106.2,25.5c15.3-2,24.4-12.3,23.5-20.5C919.9,275.9,913.8,272,911.8,270.8z"/>
	<path d="M890,308.8c-23.7-3.2-49.9-8.5-78.2-15.2c-29.2-7-42.2-13.4-63.9-19.9c-2-0.6-4,0.2-4.8,2.1c-0.4,0.9-0.7,2.1-0.8,3.3
		c-0.4,4.7,2.2,8.1,2.8,8.8c7.3,3.3,14.7,6.5,22,9.8c34.6,15.3,69,30.2,103.2,44.8c16,2.4,30.4-8.6,31.2-18.2
		C902.4,314.9,890.8,309.3,890,308.8z"/>
	<path d="M865.6,351.1c-4.6-2.8-11.3-6.5-19.4-10.7c-31.7-16.2-46.4-17.8-73.4-31.2c-6.7-3.3-16.1-5.6-26.9-13.3
		c-1.6-1.1-3.7-1.4-5.5-0.6c-1.8,0.8-4,2.1-6.1,4.1c-1.2,1.2-2.2,2.4-3,3.6c-1.7,2.5-1,6,1.5,7.7c2.7,1.9,6,4.1,9.8,6.5
		c19.3,12.2,39.3,21.9,53.2,28c13,5.7,24.2,12.8,49.5,22c0.4,0.1,0.7,0.3,1.1,0.4c10,2.6,18.7-0.8,21.3-6.6c0.3-0.8,1.1-2.9,0.6-6
		C868,353.4,867,352,865.6,351.1z"/>
	<path d="M825.8,368.5c-11.5-4.6-20.5-8.8-26.5-11.8c-25-12.3-36.4-21.5-65.5-35.2c-4.9-2.3-9-4.1-11.5-5.2
		c-1.4,0.6-3.5,1.7-5.5,3.8c-4.2,4.3-5.5,10.6-4.5,14.9c1.7,7,10.4,10.2,17.2,13.1c17.4,7.5,6.9,7,54.4,35.7c0,0,0.3,0.2,27.1,16.1
		c3.4,0.8,9.6,1.9,17,0.2c4.9-1.1,8.7-3,11.2-4.5c-0.6-3.9-1.9-9.6-5.2-15.8C831.4,374.7,828.3,371,825.8,368.5z"/>
	<path d="M780,393.3c-21.7-15.2-34.4-20.5-57.8-37.8c-5.8-4.3-10.6-8.1-14.1-10.9c-1.4-1.1-3.4-0.9-4.4,0.5
		c-1.7,2.2-3.5,4.8-5.2,7.9c-1.8,3.2-2,7.3-2.9,9.9c-0.5,1.3,0,2.8,1.2,3.6c6.1,4.2,13.5,9.4,22.7,17.7c26.8,24.3,33.9,42.6,54.2,46
		c3.5,0.6,12.3,1.9,21.2-2.8c5.6-2.9,9.2-7.2,11.3-10.4c0.9-1.3,0.6-3.1-0.6-4.1C795.3,404.2,786.3,397.6,780,393.3z"/>
	<path d="M741.5,416c-14.3-12-23.3-16.1-38.5-29.8c-7-6.3-12.3-11.9-15.5-15.5c-0.3-0.1-4.3-0.7-7.2,2.2c-2.1,2.1-2.8,5.1-2,8
		c9,15,22.5,33.3,42.2,50.5c7.4,6.5,14.8,11.9,21.7,16.5c2,0.4,7.4,1.1,13.3-1.5c3.3-1.4,6.1-3.8,8-5.8c1.4-1.4,1.4-3.7,0.1-5.2
		C755.1,426.3,746.8,420.4,741.5,416z"/>
	<path d="M705,423.8c-11.3-10.9-22.5-20.3-33-28.2c-2.7,0-6.6,0.3-11,1.8c-2,0.7-3.8,1.5-5.3,2.3c-1.2,0.6-1.4,2.2-0.5,3.2
		c1.9,2,4.5,5.1,6.8,8.1c15.9,20.4,12.8,21.7,22.1,32.1c2.8,3.1,7.2,7.6,13.6,12.1c2.8,0.1,7.5,0,12.8-2c7.1-2.7,11.4-7.4,13.2-9.8
		C718.1,436.9,711.9,430.4,705,423.8z"/>
	<path d="M645.3,405c-2.1-0.2-7-0.3-12.1,2.4c-2.7,1.5-4.5,3.2-5.7,4.6c5.6,13.3,13.1,27.8,23,42.5c2.5,3.7,5,7.2,7.5,10.5
		c3.7,1.3,9.9,2.9,17.5,2.1c3.7-0.4,6.8-1.2,9.3-2.1c-6.2-11.3-13.4-23.2-21.8-35.5C657.1,420.7,651.2,412.6,645.3,405z"/>
	<path d="M644.5,467.8c-6.5-15.2-12.5-21.2-19.8-35.5c-1.9-3.8-4.5-9.2-7.1-16.1c-0.6-1.6-2.2-2.5-3.9-2.2c-2.4,0.5-5.4,1.3-8.6,3.1
		c-3.7,2-6.4,4.6-8.1,6.5c-0.9,1-1.1,2.4-0.6,3.6c4.8,10.8,10.3,22.1,16.9,33.8c3.4,6,6.8,9.3,10.2,14.5c0.3,0.5,0.8,0.9,1.3,1.2
		c4.1,2.1,12.8,7.5,21,3.9c0,0,0,0,0,0c1.6-0.7,2.4-2.6,1.8-4.2C647,473.9,645.9,471,644.5,467.8z"/>
	<path d="M613.5,484.5c-11.8-31.9-21.7-46.3-25-51c-2.5-3.5-4.7-6.4-6.2-8.2c-2.1,0.8-6.1,2.8-9.5,7c-4.4,5.5-5.1,11.3-5.2,13.5
		c1.4,8.1,8.2,36,46.8,71.2c1.7,1.6,4.6,1.6,7.2,2.2c2.2,0.5,4.1-1.6,3.5-3.8C621.7,503.7,616.3,492,613.5,484.5z"/>
	<path d="M415.8,148.5c0,1.5,1.2,2.7,2.7,2.8l26.3,2.8l1.7,16.1c0.3,3.1,1.5,7.6,3.5,12.3c1.5,3.5,5.3,10.5,5.3,10.5l-0.1,8.9
		c7.7-1.7,14.6-2.4,19.8-2.7c0,0,1.7-0.1,4.8-0.1c0,0,0,0,0.1,0c0,0,0,0,0.1,0c3,0,4.8,0.1,4.8,0.1c5,0.3,11.7,0.9,19.1,2.5
		l-0.1-8.5c0,0,3.8-7,5.3-10.5c2-4.8,3.2-9.2,3.5-12.3l1.7-16.1l26.3-2.8c1.5-0.1,2.7-1.3,2.7-2.8v-10.7c0-1-0.8-1.8-1.8-1.8
		c-14.6-0.4-30.8-2-45.7-2.5c-4.8-10.5-4.7-33.7-4.4-24.1c-1-28.7,0.1-44.4,3.3-67.8l6,0.1c1.2,0,2.3-1,2.3-2.2V16.6
		c0-1.2-0.9-2.1-2-2.2c-2.5-0.2-5-0.4-7.5-0.6c-0.1-1.2-0.9-6.3-5.5-10.1c-3-2.5-6.2-3.1-8-3.3V0c-1.4,0.1-5.2,0.5-8.7,3.4
		c-4.6,3.7-5.4,8.9-5.5,10.1c-2.5,0.2-5,0.4-7.5,0.6c-1.1,0.1-2,1.1-2,2.2v23.1c0,1.2,1,2.2,2.3,2.2l6-0.1
		c3.2,23.5,4.3,39.2,3.3,67.8c0.3-9.6,0.4,13.7-4.4,24.1c-14.9,0.5-31,2-45.7,2.5c-1,0-1.8,0.8-1.8,1.8V148.5z"/>
	<path d="M505.1,488.7h-51.3l-0.4,76.8c-0.3,12.1,4.3,40.6,9.8,60.2c4.9,17.2,10.1,20.6,15.8,29.4v1.4c0.2-0.2,0.3-0.5,0.5-0.7
		c0.1,0.2,0.2,0.3,0.3,0.5v-0.9c5.8-8.9,11-12.2,15.8-29.4c5.5-19.6,10.1-48.1,9.8-60.2L505.1,488.7z"/>
	<path d="M562.2,366c-5.3-6.7,20.9-56.7,7.1-100.8c-16.2-51.8-64.1-59.9-84.9-60.9c0,0-1.8-0.1-4.8-0.1c0,0,0,0-0.1,0c0,0,0,0-0.1,0
		c-3,0-4.8,0.1-4.8,0.1c-20.7,1.1-68.7,9.1-84.8,60.9c-13.8,44.2,12.4,94.1,7.1,100.8c-21.3,27,7.7,69.8,11.6,73.3
		c7.1,6.4,29.8-6.5,26.2,0.1c-2.7,5.1-5.2,43.3-5.2,43.3h7l3.4-13.3l6-0.1l1.2,13.4h12.3l1.2-12.8l4.1-0.6l0.6,13.4h9.9l0.5-13.7
		h8.1l0.5,13.7h9.9l0.6-13.4l4.1,0.6l1.2,12.8H512l1.2-13.4l6,0.1l3.4,13.3h7c0,0-2.5-38.2-5.2-43.3c-3.6-6.7,19.1,6.2,26.2-0.1
		C554.5,435.8,583.5,393,562.2,366z M466.3,394c-2.8,3.4-6.8,7.5-12.2,10.8c-13.1,8.1-26,6.9-31.3,6.1c-0.3,0-0.7-0.2-1-0.4
		c-11.4-7.9-15.8-20.3-12.4-28c0.5-1.2,2.4-5.1,8.4-7.5c0.3-0.1,0.7-0.2,1-0.2c7.2,0.7,16.2,2.3,26.2,5.7c8.1,2.7,14.9,6.1,20.5,9.3
		C467,390.6,467.4,392.6,466.3,394z M493.7,440.7c0,0.9-1,1.2-1.5,0.5c-1.2-1.7-2.9-3.7-5.2-5.5c-2.4-1.9-4.7-3.2-6.6-3.9
		c-1.8,0.7-4.1,1.9-6.6,3.9c-2.3,1.8-4,3.8-5.2,5.5c-0.5,0.7-1.5,0.3-1.5-0.5c-0.4-6.5-0.1-19.9,8.9-29.6c1.2-1.3,2.7-2.4,4.4-3.4
		c1.7,1.1,3.3,2.2,4.4,3.4C493.8,420.8,494.1,434.2,493.7,440.7z M537.5,410.5c-0.3,0.2-0.6,0.3-1,0.4c-5.2,0.8-18.2,1.9-31.3-6.1
		c-5.4-3.3-9.4-7.4-12.2-10.8c-1-1.3-0.7-3.3,0.7-4.1c5.6-3.2,12.5-6.5,20.5-9.3c10-3.4,19-5,26.2-5.7c0.3,0,0.7,0,1,0.2
		c6,2.4,7.9,6.3,8.4,7.5C553.3,390.2,548.9,402.6,537.5,410.5z"/>
</g>
</svg>
