<?xml version="1.0" encoding="utf-8"?>
<!-- Generator: Adobe Illustrator 21.0.2, SVG Export Plug-In . SVG Version: 6.00 Build 0)  -->
<!DOCTYPE svg PUBLIC "-//W3C//DTD SVG 1.1//EN" "http://www.w3.org/Graphics/SVG/1.1/DTD/svg11.dtd">
<svg version="1.1" id="Layer_4" xmlns="http://www.w3.org/2000/svg" xmlns:xlink="http://www.w3.org/1999/xlink" x="0px" y="0px"
	 viewBox="0 0 888.1 994.9" style="enable-background:new 0 0 888.1 994.9;" xml:space="preserve">
<path d="M690,662.6c-78.2-8.5-146,17.2-224,75.6c-93.3,69.8-105.1,131.8-200,98c-103.2-36.8-26.9-111.9-17.2-120.3
	c29.1-25.2,115.2-43.7,115.2-43.7L523.9,631c0.3-0.1,0.6-0.2,0.9-0.3c7.9-3.2,116.5-47,150.2-83.6c2.3-2.5,7.5-7.3,8.8-9.9
	c25-23.2,39.3-43.1,51.2-59.8c15.6-21.9,25.4-40.4,32-54.7c11.8-25.6,18.8-40.4,17.2-60.2c-2-24.3-3.4-35.6-8.6-42.2
	c0-0.2,2.3-11.5,2.3-11.7l24.7,0.9c-3.6-13-9.4-25.5-18.4-36.4c-13.3-16,8.8-16.8,17.9-11.1c1,0.6,2.7,4.9,2.5-1.7
	c-0.3-7.8,1-36-80.3-66.6c-47.5-17.9-5.3-28.5,5.3-30.1c11.4-1.7-31.6-22.7-59-21.8c-3.1,0.1-4.3-4.3-2.1-6.6l20.6-11.6
	c-2.7-1.8-7-4.3-12.5-6.3c-6.8-2.5-9.9-4.4-15.2-6.6c-3.7-1.5-8.7-2.2-13.8-8.1c16.4-9.9,29.6-19.4,39.4-27c0,0,28.6-22.5,34.5-42.1
	c0.3-1,1.2-3.9,0.3-4.3c-2.3-1.1-25,32.3-95.6,51.9c-10.2,2.8,4.1-6.3,5.6-8.2c2.9-3.7,27.7-13.6,51.7-38.7
	c4.2-4.4,19.2-34.1,19.2-34.2l-4.4,2.9c-15.8,12.6-26.7,23.7-50.5,36.3c-14.5,7.6-34.3,18.3-47.1,23.2c-1,0.4-3,1-5.5,0.8
	c-2.7-0.3-4.6-1.5-5.4-2.1c-2.6,2.8-5.2,4.6-7.2,5.8c-3,1.9-5.9,3.1-8.1,3.8c-1.5,0.6-5.4,2.2-7.6,2.6c-4.6,0.9-8.6,1.5-11.3,1
	c1.3-2.7,2.7-6.7,3.4-11.7c0.8-6.1,0-11.2-0.8-14.4c-3.1,3.8-15.2,20.3-18.6,24.2c-8.8,9.8-6,7.3-14.6,15
	c-5.1,4.2-12.7,9.4-22.7,13.4c-7.5,3-14.3,4.6-19.8,5.5c-2.6,4.3-5.9,10.9-7.8,19.6c-1.6,7.3-1.6,13.7-1.2,18.2
	c-0.9,1.9-2.5,4.3-5,6.6c-4.9,4.5-10.7,5.6-13.8,5.8c-0.9,0.1-1.7-0.5-1.8-1.4c-0.8-6.5,2.2-15,0.8-21.2
	c-3.9,5.8-7.9,12.2-11.8,19.4c-4,7.4-6.2,18.9-6.2,18.9c-0.1,0.3-10.6,10.6-8.8-11.5c-2-9.2-2.1-17.2-1.6-23.1
	c-4.8,6.4-9.8,13.8-14.6,22.4c-3.8,6.7-6.9,13.1-9.5,19c0.5,0.5,5.3,5.6,4.2,12.6c-0.8,4.9-4,7.8-5,8.6c0.3,7.5,0.9,15.7,2.1,24.6
	c1.2,8.5,2.7,16.3,4.4,23.4c1.5-3.3,3.9-8,7.6-12.8c1.4,0.9,2.9,1.9,4.6,2.8c3.5,1.9,6.7,3.1,9.4,3.9c-0.7-1.4-2.4-5.6-1.2-10.7
	c0.7-3.1,2.2-5.4,3.2-6.6c1.1,1.3,2.4,2.8,4.2,4.2c4.1,3.4,8.4,5,11.2,5.7c-0.6-1.4-2.7-6.5-0.5-11.9c0.7-1.7,1.6-3,2.4-3.9
	c2.3,1.5,5,3,8.2,4.4c4.2,1.8,8,2.9,11.2,3.6c-0.8-0.7-4.4-3.9-4.6-8.8c-0.1-1.6,0.3-3,0.6-4c1.6,1,4.2,2.3,7.6,3
	c4.4,0.9,8.1,0.4,10.2-0.1c-1.2-2.4-2.6-6.2-3-11.1c-0.4-4.2,0.2-7.9,0.9-10.6c0.3-0.1,0.5-0.2,0.8-0.3
	c7.4-10.1,15.7-12.9,23.3-17.6c1.4,0.2,2.9,0.5,4.4,0.8c-1.8,1.5-3.6,3.1-5.4,5c-5.1,5.3-8.4,10.5-10.6,14.6c0.1,4.2-0.2,9.1-1,14.5
	c-1.4,8.9-4,13.2-6.6,18.7c-0.5,1-1.4,1.8-2.4,2.2c-5.8,2-12.8,6.8-20.6,8.2c-6.2,1-11.9,1.6-17,1.8c-1.1,0-2.2,0.4-3.1,0.9
	c-4.6,2.7-11.8,7.8-17.8,16.6c-2.6,3.9-4.5,7.7-5.8,11.1c-9.2-4.4-20.1-9-33.2-13.5c-48-16.7-1.5-28,6-29.3c8-1.4-34.5-23.8-61-21.2
	c-3.1,0.3-4.4-4.2-2.3-6.5l20.3-12.1c-2.8-1.8-7.1-4.1-12.7-6c-6.9-2.3-10.1-1.9-15.3-4c-3.7-1.5-8.8-4.2-14-10
	c16.1-10.3,29-20.1,38.7-28c0,0,28-23.3,33.3-43c0.3-1,1.1-3.9,0.2-4.3c-2.3-1-24.2,32.9-94.2,54.3c-10.1,3.1,3.9-6.4,5.3-8.3
	c2.8-3.8,27.3-14.3,50.7-40c4.1-4.5,18.3-34.6,18.3-34.7l-4.3,3c-15.5,13-26,24.4-49.5,37.6c-14.3,8-33.8,19.2-46.5,24.4
	c-0.9,0.4-2.9,1.1-5.5,0.9c-2.7-0.2-4.6-1.3-5.5-1.9c-2.6,2.8-5.1,4.7-7,6c-3,2-5.8,3.2-8,4c-1.5,0.7-5.4,2.3-7.5,2.8
	c-4.6,1-8.5,1.7-11.2,1.2c1.2-2.7,2.6-6.7,3.1-11.8c0.6-6.1-0.3-11.2-1.2-14.3c-3,3.8-14.7,20.7-18,24.7
	c-8.6,10.1-5.8,7.4-14.2,15.4c-5,4.3-12.4,9.7-22.3,14c-7.4,3.2-14.2,5-19.7,6c-2.5,4.3-5.6,11-7.2,19.8c-1.4,7.4-1.2,13.7-0.8,18.2
	c-0.9,1.9-2.4,4.4-4.8,6.7c-4.8,4.6-10.6,5.8-13.7,6.2c-0.9,0.1-1.7-0.5-1.8-1.4c-0.9-6.5,1.8-15.1,0.3-21.3
	c-3.7,5.9-7.5,12.4-11.2,19.8c-3.8,7.5-5.7,19.1-5.7,19.1C95,244.5,84.8,255.1,86,233c-2.3-9.1-2.5-17.2-2.2-23.1
	c-4.6,6.5-9.4,14.1-14,22.8c-3.6,6.8-6.6,13.2-9,19.2c0.6,0.5,5.5,5.4,4.5,12.5c-0.7,4.9-3.8,7.9-4.8,8.8c0.5,7.5,1.3,15.7,2.8,24.5
	c1.4,8.5,3.1,16.2,5,23.2c1.4-3.4,3.7-8.1,7.2-13c1.4,0.9,3,1.8,4.7,2.7c3.5,1.8,6.8,2.9,9.5,3.7c-0.7-1.4-2.5-5.5-1.5-10.7
	c0.6-3.2,2.1-5.4,3-6.7c1.1,1.3,2.5,2.7,4.3,4.1c4.2,3.3,8.5,4.7,11.4,5.4c-0.6-1.3-2.8-6.4-0.8-11.8c0.6-1.7,1.5-3,2.3-4
	c2.3,1.4,5.1,2.9,8.3,4.2c4.2,1.7,8.1,2.7,11.3,3.3c-0.9-0.7-4.5-3.8-4.8-8.7c-0.1-1.6,0.2-3,0.5-4c1.7,1,4.3,2.2,7.7,2.8
	c4.4,0.8,8.1,0.2,10.2-0.3c-1.2-2.4-2.8-6.1-3.3-11c-0.5-4.2,0-7.9,0.6-10.6c0.3-0.1,0.5-0.2,0.8-0.4c7.2-10.3,15.4-13.3,22.8-18.2
	c1.4,0.1,2.9,0.4,4.4,0.7c-1.7,1.5-3.5,3.2-5.2,5.2c-4.9,5.4-8.1,10.8-10.2,14.8c0.2,4.2,0.1,9.1-0.7,14.5
	c-1.2,8.9-3.7,13.3-6.1,18.9c-0.5,1-1.3,1.8-2.4,2.2c-5.8,2.2-12.6,7.2-20.3,8.7c-6.1,1.2-11.8,1.9-16.9,2.2c-1.1,0.1-2.2,0.4-3.1,1
	c-4.5,2.8-11.6,8.1-17.3,17.1c-6.2,9.7-7.8,19-8.3,23.8c1.5-2.9,4.2-7.2,8.8-11c2.4-2,4.7-3.3,6.7-4.3c-0.7,2.6-1.3,5.4-1.8,8.5
	c-0.9,5.7-1.1,10.8-1,15.2c2.3-8.2,7.5-22.5,18.2-30.5c2.3-1.7,6.9-4.7,11.8-7.5c2.7-1.5,7.6-4.2,13.7-6.7
	c4.8-1.9,11.7-4.2,20.4-5.6c-0.2,2.8,0,6.6,1.8,10.6c0.4,1,0.9,1.9,1.4,2.7c-2.7,0.5-5.9,0.9-9.6,0.9c-5,0-9.2-0.7-12.5-1.5
	c1.3,3,3.4,7,7,11c2.3,2.6,4.6,4.5,6.6,5.9c5.6-0.3,11.8,0.4,18.6,0.1c5.6-0.3,10.3,0.6,13.5,1.5c5.2-8.9,15-23,31.8-35
	c26-18.5,52.8-20.5,63.8-20.8c-2.9-2.9-4.1-6.8-3-10.2c0.7-2.2,2.1-3.6,3-4.2c12.6,3.2,28.5,10.2,46,19.5
	c15.9,14.9,30,28.6,34.8,37.8c25.8,50.2,28.1,113.7-18.2,167.2c-1.7,1.3-3.3,2.5-5,3.8c-3.6-0.9-7.3-1.7-11.2-2.6
	c-49.7-10.6,8.7-23.5,0.7-30.6c-13.5-11.9-45.4-14.3-61.6-12.8c-3.1,0.3-4.9-3.6-3.1-6.2l18.7-14.6c-3-1.4-7.5-3.2-13.3-4.4
	c-7.1-1.4-10.2-0.7-15.7-2.1c-3.9-1-9.2-3.1-15.1-8.2c14.7-12.2,26.3-23.6,34.9-32.6c0,0,25-26.5,27.8-46.8c0.1-1,0.6-4-0.4-4.3
	c-2.4-0.7-19.9,35.7-86.7,65.6c-9.7,4.3,3.1-6.9,4.3-8.9c2.3-4.1,25.3-17.6,45.3-46c3.5-5,13.9-36.6,13.9-36.7l-3.9,3.5
	c-13.8,14.8-22.8,27.5-44.5,43.4c-13.2,9.7-31.2,23.2-43.1,30c-0.9,0.5-2.8,1.5-5.3,1.6c-2.7,0.1-4.8-0.8-5.7-1.2
	c-2.2,3.1-4.5,5.3-6.2,6.8c-2.7,2.3-5.4,3.9-7.4,5c-1.4,0.8-5,2.9-7.1,3.7c-4.4,1.5-8.3,2.7-11,2.6c0.8-2.9,1.7-7,1.6-12
	c-0.1-6.2-1.7-11-2.9-14.1c-2.5,4.2-12,22.4-14.8,26.7c-7.2,11-4.8,8.1-12.2,17c-4.5,4.9-11.2,11.1-20.4,16.7
	c-7,4.1-13.5,6.7-18.8,8.4c-1.9,4.6-4.2,11.7-4.8,20.5c-0.5,7.5,0.5,13.7,1.5,18.2c-0.6,2-1.8,4.6-3.9,7.2
	c-4.2,5.2-9.8,7.1-12.8,7.8c-0.8,0.2-1.7-0.3-1.9-1.1c-1.7-6.4,0-15.2-2.3-21.1c-3,6.3-6,13.3-8.7,21c-2.9,7.9-3.3,19.7-3.3,19.7
	c-0.1,0.3-8.9,12.1-10.5-10.1c-3.4-8.8-4.6-16.7-5-22.6c-3.8,7-7.6,15.1-11.1,24.3c-2.7,7.2-4.9,13.9-6.6,20.2
	c0.6,0.5,6.1,4.7,6,11.8c-0.1,5-2.8,8.3-3.6,9.3c1.4,7.4,3.2,15.4,5.8,24c2.4,8.2,5.1,15.7,7.8,22.5c1-3.5,2.6-8.4,5.6-13.8
	c1.5,0.7,3.2,1.5,5,2.1c3.7,1.3,7.1,2.1,9.9,2.5c-0.9-1.3-3.2-5.2-2.8-10.4c0.2-3.2,1.4-5.6,2.2-7c1.3,1.2,2.8,2.4,4.7,3.5
	c4.6,2.7,9,3.6,12,4c-0.8-1.3-3.6-6-2.3-11.6c0.4-1.8,1.1-3.2,1.8-4.3c2.5,1.1,5.4,2.2,8.8,3.1c4.4,1.2,8.4,1.7,11.7,1.9
	c-0.9-0.6-4.9-3.2-5.9-8c-0.3-1.6-0.2-3,0-4c1.8,0.8,4.5,1.7,8,1.9c4.5,0.3,8-0.8,10-1.6c-1.5-2.2-3.5-5.8-4.7-10.5
	c-1-4.1-1-7.8-0.7-10.6c0.2-0.2,0.5-0.3,0.7-0.5c5.8-11.1,13.6-15.1,20.4-20.8c1.4,0,2.9,0,4.4,0.1c-1.5,1.7-3.1,3.6-4.6,5.8
	c-4.2,6-6.7,11.7-8.3,16c0.7,4.2,1.2,9,1.1,14.5c-0.1,9-2,13.7-3.7,19.5c-0.3,1.1-1.1,2-2.1,2.5c-5.5,2.9-11.6,8.7-19.1,11.2
	c-5.9,2-11.5,3.3-16.5,4.3c-1.1,0.2-2.1,0.7-3,1.4c-4.1,3.3-10.5,9.5-15.1,19.1c-5,10.4-5.4,19.8-5.3,24.7c1.1-3.1,3.3-7.6,7.4-12
	c2.1-2.2,4.2-3.9,6.1-5.1c-0.4,2.6-0.7,5.5-0.8,8.7c-0.2,5.7,0.2,10.8,0.9,15.2c1.3-8.4,4.7-23.2,14.3-32.5c2-2,6.3-5.5,10.8-8.9
	c2.5-1.9,7-5.1,12.7-8.3c4.5-2.5,11.1-5.6,19.5-8c0.2,2.8,0.9,6.6,3.1,10.3c0.6,0.9,1.1,1.8,1.7,2.5c-2.6,0.8-5.8,1.6-9.4,2
	c-4.9,0.6-9.2,0.4-12.6,0.1c1.6,2.8,4.2,6.5,8.3,10.1c2.6,2.3,5.2,3.9,7.3,5c5.5-1,11.8-1,18.5-2.2c5.6-1,10.3-0.6,13.6-0.2
	c4-9.5,12-24.7,27.2-38.7c23.5-21.6,49.9-26.9,60.7-28.5c-3.2-2.5-4.9-6.3-4.2-9.8c0.4-2.2,1.7-3.8,2.5-4.6c12.9,1.7,40.3,7.4,20,34
	c-1.7,2.6-3.2,5.1-4.7,7.5c-14.9,10.2-29.9,20.6-44.8,31.6c-23.1,17.2-45.5,34.4-67.2,51.5c-13.9,13-35.4,36.5-50.2,71.8
	c-6.7,15.9-32.7,77.7-5.8,142.2c19.5,46.9,57.2,71.8,67.8,78.8c10.6,7,18.4,10.5,79.2,38.2c22.6,5.2,77.1,10.3,132.3,3.7
	c17.4-2.1,42.2-2.4,67.2-20.4c15.6-7.8,22.7-16.6,31.5-23.2c35.2-41.4,70.5-82.9,105.8-124.3c12.4-10,26.7-20.5,43-30.8
	c12.3-7.7,24.1-14.3,35.2-19.9c34.9-16.5,63.6-17.9,79.8-17.3c20.1,0.7,37.8,5.3,53.4,9.4c2.5,0.7,30.5,8,48.1,16.1
	c43,20,67,65.1,77.8,89.8C884,871.1,933,689,690,662.6z M496.3,142.5c0.8-3.7,2.4-9.5,6.2-15.5c3.2-5,6.8-8.5,9.5-10.8
	c3.2-0.4,7.1-0.6,11.5-0.2c3.1,0.3,5.8,0.8,8.2,1.3c-1.5,3.5-4.2,8.5-8.8,13.1C512.8,140.5,500.5,142.2,496.3,142.5z M508.1,220
	c1.4-5.1,1.9-9.8,2-13.6c0.7-1.4,4.4-8.1,12.6-10.8c8.7-2.9,15.9,0.6,17.3,1.4c1.2,1.3,2.3,2.6,3.3,3.9c0.6,0.8,1.2,1.7,1.8,2.6
	c0.5,2.2,1.1,6.7-0.7,11.7c-3.5,9.8-13.3,13-14.6,13.4c-1.9,0.9-5,2-9.1,2c-7.6,0-12.8-4.2-14.3-5.6
	C507.1,223.4,507.6,221.8,508.1,220z M495.8,242.8c3.3-3.9,7.6-9.8,10.6-17.8c-0.1,2.3,0.2,6.4,2.5,10.5c0.7,1.2,1.4,2.2,2.2,3.1
	c-0.7,1.3-2.3,3.6-5.1,5.1c-4.4,2.3-9,1.3-11.7,0.2C494.9,243.6,495.4,243.3,495.8,242.8z M445.4,262.9c2.3-1.7,7-4.5,12-7.2
	c2.8-1.5,7.7-4,13.8-6.3c4.9-1.8,11.8-3.9,20.5-5c-0.3,2.8-0.1,6.6,1.5,10.6c0.4,1,0.9,1.9,1.3,2.7c-2.7,0.4-5.9,0.7-9.6,0.6
	c-5-0.1-9.2-0.9-12.5-1.8c1.2,3,3.2,7.1,6.7,11.2c2.2,2.6,4.5,4.6,6.5,6.1c5.6-0.2,11.8,0.7,18.6,0.6c5.7-0.1,10.3,0.9,13.4,1.9
	c5.4-8.8,15.6-22.6,32.7-34.2c26.5-17.9,53.4-19.2,64.3-19.1c-2.8-3-3.9-6.9-2.7-10.3c0.8-2.2,2.2-3.5,3.1-4.2
	c9.3,2.7,20.4,7.4,32.5,13.7c12.4,13,44.7,50.7,44.3,102.9c-0.5,69.3-58.4,116.7-76.3,131.4c-3.3,2.4-72,58.3-180.7,80.7
	c-5,1,8.1-35,15.1-80c6.3-10,15.6,11.3,15.6,11.3S488,384,446,336.1c-13.8-15.7,8.3-17,17.6-11.6c1,0.6,2.8,4.8,2.4-1.7
	c-0.4-5.8-0.2-23-34.2-43.2C435,273.5,439.4,267.2,445.4,262.9z M423.2,273.5c2.4-1.9,4.8-3.2,6.8-4.2c-0.7,2.4-1.4,5.1-2,8
	c-1.8-1-3.7-2-5.7-3.1C422.5,274,422.8,273.7,423.2,273.5z M154.7,213.1c0.7-3.8,2.2-9.5,5.8-15.7c3.1-5.1,6.5-8.7,9.2-11
	c3.2-0.5,7.1-0.7,11.5-0.5c3.1,0.2,5.8,0.6,8.2,1.1c-1.4,3.6-3.9,8.6-8.5,13.3C171.1,210.6,158.9,212.6,154.7,213.1z M167,313.9
	c-4.3,2.4-8.9,1.5-11.6,0.5c0.6-0.3,1.1-0.6,1.5-1.1c3.2-3.9,7.4-10,10.2-18.1c0,2.4,0.3,6.4,2.7,10.4c0.7,1.2,1.5,2.2,2.2,3
	C171.3,310,169.8,312.3,167,313.9z M204.8,284.4c-3.3,9.8-13,13.3-14.2,13.8c-1.9,0.9-5,2.2-9,2.2c-7.6,0.2-12.9-3.9-14.5-5.2
	c0.5-1.6,1-3.2,1.5-4.9c1.3-5.2,1.7-9.8,1.7-13.7c0.7-1.4,4.2-8.2,12.3-11.2c8.6-3.1,15.9,0.2,17.3,0.9c1.2,1.2,2.3,2.5,3.4,3.8
	c0.7,0.8,1.3,1.7,1.9,2.5C205.7,274.8,206.5,279.3,204.8,284.4z M88.4,485c0.2-3.8,1-9.7,3.9-16.3c2.4-5.4,5.4-9.4,7.7-12
	c3.1-0.8,6.9-1.6,11.3-1.9c3.1-0.2,5.9-0.1,8.3,0.1c-1,3.7-2.9,9-6.8,14.3C104.4,480.5,92.5,484,88.4,485z M113.1,583.6
	c-4,3-8.7,2.6-11.5,2c0.5-0.3,1-0.8,1.3-1.3c2.7-4.3,6.1-10.8,7.9-19.2c0.3,2.3,1.1,6.3,4,10c0.9,1.1,1.8,2,2.6,2.7
	C116.9,579.1,115.7,581.6,113.1,583.6z M146.9,549.6c-2,10.2-11.2,14.8-12.4,15.4c-1.7,1.1-4.7,2.8-8.7,3.3
	c-7.5,1.1-13.3-2.3-15-3.4c0.3-1.6,0.6-3.3,0.8-5.1c0.6-5.3,0.4-10,0-13.8c0.5-1.5,3.1-8.6,10.9-12.6c8.1-4.2,15.8-1.7,17.3-1.2
	c1.3,1.1,2.6,2.2,3.9,3.4c0.8,0.7,1.5,1.5,2.2,2.3C146.6,540,148,544.4,146.9,549.6z"/>
</svg>
