<?xml version="1.0" encoding="utf-8"?>
<!-- Generator: Adobe Illustrator 22.1.0, SVG Export Plug-In . SVG Version: 6.00 Build 0)  -->
<svg version="1.1" id="Layer_2" xmlns="http://www.w3.org/2000/svg" xmlns:xlink="http://www.w3.org/1999/xlink" x="0px" y="0px"
	 viewBox="0 0 993.7 832.7" style="enable-background:new 0 0 993.7 832.7;" xml:space="preserve">
<g>
	<path d="M649.7,811.9h-24l-38.3-97.2c44-28.3,72.9-76.2,72.9-130.4c0-3.1-0.1-6.2-0.3-9.3h0.3V531h17.5c2.5,0,4.5-2,4.5-4.5v-11.9
		c0-2.5-2-4.5-4.5-4.5H311.5c-2.5,0-4.5,2-4.5,4.5v11.9c0,2.5,2,4.5,4.5,4.5H329v43.9h0.3c-0.2,3.1-0.3,6.2-0.3,9.3
		c0,53.9,28.5,101.5,72,129.9l-38.5,97.8h-22.9c-2.5,0-4.5,2-4.5,4.5v13h77.9v-13c0-2.5-2-4.5-4.5-4.5h-25.3l34.7-88.1
		c20.1,10,42.6,16.2,66.4,17.6v73.8h-24c-2.5,0-4.5,2-4.5,4.5v13h77.9v-13c0-2.5-2-4.5-4.5-4.5h-24v-73.8
		c23.5-1.4,45.7-7.4,65.5-17.2l34.5,87.7h-24.2c-2.5,0-4.5,2-4.5,4.5v13h77.9v-13C654.3,813.9,652.2,811.9,649.7,811.9z"/>
	<path d="M366.2,490.4h247.9c0,0,4.6-26.6,1.2-32.4c-3.5-5.8,1.2-22,13.9-49.8c12.7-27.8-7-51-7-51s-20.9,54.4-38.2,51
		c-11.6-1.2-29-5.8-29-19.7c0-13.9,18.5-8.1,22-22c0-5.8,5.8-24.3,0-35.9c-5.8-11.6-7-45.2-9.3-41.7c-2.3,3.5-12.7,56.8-22,55.6
		c-9.3-1.2-23.3-10.8-31.3-25.5c-9.3-18.5,0-40.5,0-40.5s28.4-33.1,29-55.6c0.4-15.8-8.2-28.8-15.1-37.1
		c-5.8,23.2-18.5,38.2-25.5,38.2s-8.8-22.9-11.6-37.1c-9.6-48.9,3.9-90.2,12.7-111.2c0,0-59.1,77.6-57.9,97.3
		c1.2,19.7,29,56.8,29,77.6c0,20.9-13.9,39.4-24.3,39.4c-10.4,0-31.3-53.3-31.3-53.3s-11.6,52.1-11.6,60.2
		c0,8.1,48.7,35.9,48.7,64.9c0,29-13.9,59.1-30.1,59.1c-16.2,0-22-16.2-22-22c0-5.8,12.7-41.7-10.4-61.4c-4-4.7-18.7-19.8-27.7-28.8
		c-1.7-1.7-4.5,0.1-3.7,2.3c5.3,15.4,15.2,45.4,15.2,58.9c0,18.5-32.4,51-32.4,62.6C347.7,462.6,366.2,490.4,366.2,490.4z"/>
	<path d="M327.7,693.7c0.4-0.1,0.8-0.3,1.2-0.4l-1.2,0.1l-26.3-75.7l-1.1-0.5c-0.4,0,0.2,0.1-0.2,0.1c-1,0.1-2,0.4-2,0.4
		s-19.5,3.2-19.9,3.2c-1.4,0.1-2.8,0.1-4.2,0.1c-51.5,0-93.3-41.8-93.3-93.3c0-50.5,40.2-91.6,90.3-93.2l2.9-81.3c0,0,0.2,0,0.5-0.1
		c3.6-46.8,7.1-93.5,10.5-140.3C290,141.9,294.8,71,299.2,0C265.6,15.5,221,40.4,176.3,79.9l57.3,278c-8,1.9-15.8,4.3-23.3,7.3
		l-74.7-244.8c-35.4,39.6-60.9,81.2-79.3,120.9l117.1,143.8c-7.9,5.6-15.4,11.9-22.3,18.7L39.1,283.2c-14.4,39.6-22.1,75.5-26.4,103
		l109.4,55.6c-3.6,6.4-6.9,13.1-9.7,20l-104.2-39c-4.3,25.3-6.9,49.8-7.8,73.4l100.4,10.8c-0.8,6.8-1.2,13.7-1.2,20.7H0
		c0.5,26.5,3,51.7,7.3,75.5l99.2-26.6c1.8,6.2,4,12.3,6.4,18.3L16.1,642c7,25.4,16.2,48.7,26.8,69.4l91.3-79.3
		c4.9,6.6,10.3,12.8,16.1,18.6l-85.4,96.8c19.1,26.8,41.2,47.2,64.5,60.2l64-125.4c5.1,2.7,10.3,5.1,15.6,7.2l-43.2,132.1
		c2.1,0.4,4.2,0.8,6.3,1.2c21.4,3.3,42.8,4.6,63.2,3.4l6.6-127.1c7.7,1.4,15.5,2.4,23.5,2.8l8.3,118.5c45.1-11.8,79.1-41.5,85-98.5
		C351.2,720.9,339.3,709.1,327.7,693.7z"/>
	<path d="M986.4,603.2c4.2-23.7,6.8-48.9,7.3-75.5h-99.5c0-7-0.4-13.9-1.2-20.7l100.4-10.8c-1-23.6-3.5-48.1-7.8-73.4l-104.2,39
		c-2.8-6.9-6-13.6-9.7-20L981,386.2c-4.3-27.5-12-63.4-26.4-103L842.5,403.9c-6.9-6.8-14.3-13.1-22.3-18.7l117.1-143.8
		c-18.4-39.7-43.9-81.3-79.3-120.9l-74.7,244.8c-7.5-2.9-15.3-5.4-23.3-7.3l57.3-278C772.7,40.4,728.1,15.5,694.5,0
		c4.4,71,9.2,141.9,14.3,212.8c3.3,46.8,6.8,93.6,10.5,140.3c0.3,0.1,0.5,0.1,0.5,0.1l2.9,81.3c50.1,1.6,90.3,42.7,90.3,93.2
		c0,51.5-41.8,93.3-93.3,93.3c-1.4,0-2.8,0-4.2-0.1c-0.4,0-19.9-3.2-19.9-3.2s-1-0.3-2-0.4c-0.4,0,0.2-0.1-0.2-0.1l-1.1,0.5
		L666,693.4l-1.2-0.1c0.4,0.1,0.8,0.3,1.2,0.4c-11.5,15.4-23.5,27.2-30.7,28.2c5.9,57,39.8,86.7,85,98.5l8.3-118.5
		c8-0.4,15.8-1.3,23.5-2.8l6.6,127.1c20.3,1.2,41.8-0.2,63.2-3.4c2.1-0.3,4.2-0.7,6.3-1.2l-43.2-132.1c5.3-2.2,10.6-4.6,15.6-7.2
		l64,125.4c23.3-13,45.4-33.5,64.5-60.2l-85.4-96.8c5.8-5.8,11.2-12,16.1-18.6l91.3,79.3c10.7-20.8,19.8-44,26.8-69.4l-96.8-47.2
		c2.5-5.9,4.6-12,6.4-18.3L986.4,603.2z"/>
</g>
</svg>
