<?xml version="1.0" encoding="utf-8"?>
<!-- Generator: Adobe Illustrator 22.1.0, SVG Export Plug-In . SVG Version: 6.00 Build 0)  -->
<svg version="1.1" id="Layer_3" xmlns="http://www.w3.org/2000/svg" xmlns:xlink="http://www.w3.org/1999/xlink" x="0px" y="0px"
	 viewBox="0 0 1000 576.5" style="enable-background:new 0 0 1000 576.5;" xml:space="preserve">
<g>
	<path d="M656.4,352.8C646.2,341,696.1,254,669.8,177C638.9,86.7,547.5,72.6,507.9,70.8c0,0-3.4-0.2-9.1-0.2c-0.1,0-0.1,0-0.1,0
		s-0.1,0-0.1,0c-5.8,0-9.1,0.2-9.1,0.2c-39.5,1.8-130.9,16-161.8,106.2c-26.4,77,23.6,164.1,13.5,175.8
		c-40.7,47,14.6,121.7,22.1,127.8c13.6,11.1,56.8-11.4,50,0.2c-5.1,8.8-9.9,75.5-9.9,75.5h13.4L423,533l11.5-0.1l2.2,23.4h23.4
		l2.2-22.3l7.8-1.1l1.1,23.4h19l0.9-24h15.4l0.9,24h19l1.1-23.4l7.8,1.1l2.2,22.3h23.4l2.2-23.4l11.5,0.1l6.4,23.2h13.4
		c0,0-4.8-66.7-9.9-75.5c-6.8-11.6,36.4,10.8,50-0.2C641.8,474.3,697,399.8,656.4,352.8z M473.5,401.4c-5.3,6-12.9,13-23.3,18.8
		c-24.9,14-49.6,12.1-59.6,10.7c-0.7-0.1-1.3-0.3-1.8-0.7c-21.8-13.8-30.1-35.4-23.7-48.8c1-2.1,4.6-8.8,16.1-13
		c0.7-0.2,1.3-0.3,2-0.3c13.8,1.2,30.9,4,49.9,9.9c15.4,4.8,28.5,10.6,39.2,16.2C474.9,395.6,475.5,399.1,473.5,401.4z M525.7,483
		c-0.1,1.5-2,2.1-2.9,1c-2.4-3-5.6-6.5-9.9-9.6c-4.6-3.4-9-5.5-12.5-6.8c-3.4,1.2-7.9,3.4-12.5,6.8c-4.3,3.2-7.6,6.6-9.9,9.6
		c-1,1.2-2.9,0.6-2.9-1c-0.7-11.4-0.2-34.7,16.9-51.6c2.2-2.2,5.1-4.1,8.5-6c3.3,1.8,6.2,3.7,8.5,6
		C525.9,448.3,526.4,471.6,525.7,483z M609.2,430.2c-0.6,0.4-1.2,0.6-1.8,0.7c-10,1.4-34.6,3.4-59.6-10.7
		c-10.4-5.8-18-12.9-23.3-18.8c-2-2.3-1.4-5.8,1.3-7.2c10.7-5.6,23.8-11.4,39.2-16.2c19-6,36.2-8.7,49.9-9.9c0.7-0.1,1.3,0,2,0.3
		c11.4,4.2,15.1,11,16.1,13C639.4,394.9,631.1,416.5,609.2,430.2z"/>
	<path d="M329.3,341.3c0,0-5.4-13.6-5.4-13.7c0,0-13.6-66.7-13.6-98s6.8-54.4,24.5-103.4c0,0,0,0,0,0V77.4c0-0.1,0-0.1,0-0.2
		c1.9-7,5.1-16.1,10.9-25.8c8.1-13.6,24.5-28.1,24.5-28.1l0.2-0.6c-2.3-8-5.6-23.8-16.1-22.7c-16.3,1.7-47.1,10.3-67.1,16.1
		c-28,8-50.7,18.8-67.8,28.4c-0.2,0.1-0.3,0.2-0.3,0.4c-7.7,58.1-23.7,134.4-58.5,218.8c-40,96.9-63.3,152.2-103.4,201.4
		C57.1,465.2,0,534.3,0,534.5c0.1,3.8,46.3,2.7,46.3,2.7s17.7-5.4,22.8-10.9c0.1-0.1,0.4,0,0.5-0.2c10.5-11.9,20.9-24.5,31.1-37.9
		c62-80.7,127.3-254.1,123.8-236.7C179,474.8,142.3,464.6,101.1,575.7c-0.2,0.4,0.2,0.9,0.6,0.8c35.2-5.4,62.1-16,79.2-28.4
		c49-35.4,83-208.2,100.7-249c5.5-12.8,11-1.4,10.9-1.4c0,0,2.7,9.5,2.7,9.5c-0.2,1-5.9,91.1-23.1,148.3
		c-8.6,28.6-24.7,60.4-13.4,69.6c0.3,0.3,0.6,0.5,0.8,0.6c13.5-4,29.4-9.8,46.6-18.5c15.6-7.9,28.6-16.5,39.1-24.3
		c0,0,0.2-0.1,0.3-0.2c0.1-0.1,0.1-0.2,0.1-0.4c-9-13.8-24-41-28.5-78.5C313,370.2,324.6,356.7,329.3,341.3z"/>
	<path d="M942.9,465.1c-40.1-49.2-63.4-104.5-103.4-201.4C804.7,179.4,788.7,103,781,45c0-0.2-0.1-0.3-0.3-0.4
		c-17.1-9.6-39.8-20.4-67.8-28.4c-20-5.7-50.8-14.4-67.1-16.1C635.3-1,632,14.8,629.7,22.8l0.2,0.6c0,0,16.5,14.5,24.5,28.1
		c5.7,9.7,9,18.8,10.9,25.8c0,0.1,0,0.1,0,0.2v48.9c0,0,0,0,0,0c17.7,49,24.5,72.1,24.5,103.4s-13.6,97.9-13.6,98
		c0,0-5.4,13.6-5.4,13.7c4.7,15.3,16.3,28.9,12.3,62.5c-4.5,37.5-19.5,64.7-28.5,78.5c0,0.1,0,0.2,0.1,0.4c0.1,0.2,0.2,0.2,0.3,0.2
		c10.5,7.8,23.5,16.4,39.1,24.3c17.2,8.7,33.1,14.6,46.6,18.5c0.2-0.1,0.5-0.3,0.8-0.6c11.2-9.3-4.8-41.1-13.4-69.6
		c-17.2-57.2-23-147.3-23.1-148.3c0,0,2.7-9.5,2.7-9.5c-0.2,0,5.3-11.4,10.9,1.4c17.7,40.8,51.7,213.6,100.7,249
		c17.1,12.4,44,23,79.2,28.4c0.4,0.1,0.8-0.4,0.6-0.8C857.7,464.6,821,474.8,775.5,251.5c-3.5-17.3,61.8,156.1,123.8,236.7
		c10.2,13.3,20.6,25.9,31.1,37.9c0.1,0.1,0.4,0.1,0.5,0.2c5.2,5.5,22.8,10.9,22.8,10.9s46.2,1.1,46.3-2.7
		C1000,534.3,942.9,465.2,942.9,465.1z"/>
</g>
</svg>
