<?xml version="1.0" encoding="utf-8"?>
<!-- Generator: Adobe Illustrator 22.1.0, SVG Export Plug-In . SVG Version: 6.00 Build 0)  -->
<svg version="1.1" id="Layer_3" xmlns="http://www.w3.org/2000/svg" xmlns:xlink="http://www.w3.org/1999/xlink" x="0px" y="0px"
	 viewBox="0 0 421.6 982" style="enable-background:new 0 0 421.6 982;" xml:space="preserve">
<g>
	<polygon points="63.5,429.4 0,492.9 122.7,615.7 186.2,552.1 127.5,493.4 415.8,205.2 411.4,200.8 411.9,200.3 211.5,0 209.6,1.9 
		207.6,0 7.3,200.3 9.2,202.3 7.3,204.2 130,327 193.5,263.4 132.4,202.3 209.6,125.1 289.2,204.7 64,429.9 	"/>
	<polygon points="358,555 421.6,491.5 289.2,359.1 225.6,422.6 294,491 7.3,777.8 9.2,779.7 7.3,781.7 207.6,982 209.6,980.1 
		211.5,982 411.9,781.7 409.9,779.7 411.9,777.8 289.2,655 225.6,718.6 286.8,779.7 209.6,856.9 132.4,779.7 357.6,554.5 	"/>
</g>
</svg>
