<?xml version="1.0" encoding="utf-8"?>
<!-- Generator: Adobe Illustrator 22.1.0, SVG Export Plug-In . SVG Version: 6.00 Build 0)  -->
<svg version="1.1" id="Layer_3" xmlns="http://www.w3.org/2000/svg" xmlns:xlink="http://www.w3.org/1999/xlink" x="0px" y="0px"
	 viewBox="0 0 995.3 409" style="enable-background:new 0 0 995.3 409;" xml:space="preserve">
<g>
	<polygon points="434.1,178.9 407.6,205.3 458.7,256.4 485.2,230 460.8,205.5 580.8,85.5 579,83.6 579.2,83.4 495.7,0 494.9,0.8 
		494.1,0 410.7,83.4 411.5,84.3 410.7,85.1 461.8,136.2 488.2,109.7 462.8,84.3 494.9,52.1 528.1,85.3 434.3,179.1 	"/>
	<polygon points="556.8,231.2 583.2,204.7 528.1,149.5 501.6,176 530.1,204.5 410.7,323.9 411.5,324.7 410.7,325.6 494.1,409 
		494.9,408.2 495.7,409 579.2,325.6 578.4,324.7 579.2,323.9 528.1,272.8 501.6,299.3 527.1,324.7 494.9,356.9 462.8,324.7 
		556.6,231 	"/>
	<path d="M400.6,191.1c-8.3-1.7-16.2-6.7-25.4-9.9c-4.2-2.9-15.6-10.4-21.4-27.5c-6.1-17.7,12.4-37.1,14.6-40.6
		c9-2.1,11.6-1.6,20.6-3.8V81.6H0c7.9,13.9,16,27.1,24.2,39.8l239.7-0.9c0.4,1.9,0.9,3.9,1.4,6l-227.7,15
		c15.5,22.4,31.1,42.6,46.7,61l183.9-48.8c1,3,2,6,3.2,9.2l-163.8,66c14.9,16,29.3,30.2,43.1,43l127.6-79.2c1.1,2.2,2.2,4.4,3.3,6.7
		l-114.9,87.1c14.8,12.9,28.4,23.8,41.1,33.2l88.4-95.2c2.2,3.1,4.5,6.1,7,9.1l-79.2,97.4c21.4,14.3,39.6,23.6,54.8,29.5
		c13.4-34.2,28.7-75.1,42-108.5c3.1,2.5,4,3.8,7.1,5.7l-39,106.4c25.9,8.5,41.4,6.7,48.2,5.5c2.1-0.3,4.2-0.8,6.3-1.2
		c5.6-32.1,9.7-67.8,15.4-99.8c2.7,0.3,5.3,0.3,7.6,0.3l-3.8,90.2c8.2-2.9,17.9-7.3,27.3-14.7c2.2-1.7,4.2-3.5,6.1-5.2
		c0-29.7,0-59.3,0-89.1c0.2-1.3,2.8,1,8-2.7c3-2.2,6.4-11.7,6.4-17.2c-4.3-10.8-7.6-12.9-9-27.9
		C401.2,202.6,400.6,194.9,400.6,191.1z"/>
	<path d="M971.2,121.4c8.2-12.7,16.3-25.9,24.2-39.8h-389v27.6c9,2.2,11.6,1.7,20.6,3.8c2.1,3.5,20.6,22.9,14.6,40.6
		c-5.9,17.1-17.2,24.6-21.4,27.5c-9.2,3.3-17.1,8.2-25.4,9.9c0,3.8-0.5,11.5-0.6,11.4c-1.4,15-4.6,17.1-9,27.9
		c0,5.4,3.3,15,6.4,17.2c5.2,3.6,7.8,1.4,8,2.7c0,29.7,0,59.3,0,89.1c1.8,1.7,3.8,3.5,6.1,5.2c9.4,7.3,19.1,11.8,27.3,14.7
		l-3.8-90.2c2.3,0,4.9-0.1,7.6-0.3c5.7,32,9.8,67.6,15.4,99.8c2,0.4,4.1,0.9,6.3,1.2c6.8,1.1,22.3,2.9,48.2-5.5l-39-106.4
		c3-1.9,3.9-3.2,7.1-5.7c13.3,33.4,28.6,74.3,42,108.5c15.2-6,33.3-15.2,54.8-29.5L692,233.5c2.4-2.9,4.7-6,7-9.1l88.4,95.2
		c12.7-9.3,26.4-20.3,41.1-33.2l-114.9-87.1c1.1-2.2,2.2-4.4,3.3-6.7l127.6,79.2c13.8-12.8,28.3-27,43.1-43l-163.8-66
		c1.2-3.1,2.2-6.1,3.2-9.2L911,202.6c15.6-18.4,31.2-38.6,46.7-61l-227.7-15c0.5-2.1,1-4.1,1.4-6L971.2,121.4z"/>
</g>
</svg>
