<?xml version="1.0" encoding="utf-8"?>
<!-- Generator: Adobe Illustrator 22.1.0, SVG Export Plug-In . SVG Version: 6.00 Build 0)  -->
<svg version="1.1" id="Layer_4" xmlns="http://www.w3.org/2000/svg" xmlns:xlink="http://www.w3.org/1999/xlink" x="0px" y="0px"
	 viewBox="0 0 534.6 931.3" style="enable-background:new 0 0 534.6 931.3;" xml:space="preserve">
<g>
	<path d="M388.8,290.4l-33.1,33.1c10.3,9.7,19,22.4,24.7,39c0.7,2.2,1.4,4.4,2,6.6l42.8-42.8c18.4-18.4,48.4-18.4,66.8,0l27.1,27.1
		l15.5-15.5L377.6,180.7l-15.5,15.5l26.7,26.7C407.5,241.5,407.5,271.7,388.8,290.4z"/>
	<path d="M492.4,569.5c-18.6,18.6-48.8,18.6-67.4,0l-46.2-46.2c-5.7,20.2-19,37.5-21.8,39.8c-2,1.7-5.1,2.2-8.6,2.1l40.8,40.8
		c18.4,18.4,18.4,48.4,0,66.8l-27.1,27.1l15.5,15.5l157.1-157.1l-15.5-15.5L492.4,569.5z"/>
	<path d="M42.6,326.2c18.4-18.4,48.4-18.4,66.8,0l42.8,42.8c0.6-2.2,1.2-4.4,2-6.6c5.7-16.6,14.4-29.3,24.7-39l-33.1-33.1
		c-18.6-18.6-18.6-48.8,0-67.4l26.7-26.7l-15.5-15.5L0,337.8l15.5,15.5L42.6,326.2z"/>
	<path d="M186.2,565.2c-3.4,0.1-6.5-0.4-8.5-2.1c-2.9-2.3-16.2-19.6-21.8-39.8l-46.2,46.2c-18.6,18.6-48.8,18.6-67.4,0l-26.7-26.7
		L0,558.2l157.1,157.1l15.5-15.5l-27.1-27.1c-18.4-18.4-18.4-48.4,0-66.8L186.2,565.2z"/>
	<path d="M352.9,558.1c4.8-3.9,39.6-51,14-80.7c-6.4-7.4,25.1-62.4,8.5-111c-19.5-57-77.2-65.9-102.2-67.1c0,0-2.1-0.1-5.8-0.1
		c0,0,0,0-0.1,0c0,0,0,0-0.1,0c-3.7,0-5.8,0.1-5.8,0.1c-24.9,1.2-82.7,10.1-102.1,67.1c-16.7,48.6,14.9,103.6,8.5,111
		c-25.7,29.7,9.2,76.8,14,80.7c8.6,7,35.9-7.2,31.6,0.1c-3.2,5.6-6.3,47.7-6.3,47.7h8.4l4-14.7l7.2-0.1l1.4,14.8h14.8l1.4-14.1
		l4.9-0.7l0.7,14.8h12l0.6-15.1h9.7l0.6,15.1h12l0.7-14.8l4.9,0.7l1.4,14.1h14.8l1.4-14.8l7.2,0.1l4,14.7h8.4c0,0-3-42.1-6.3-47.7
		C317,550.9,344.3,565.1,352.9,558.1z M251.4,508.2c-3.3,3.8-8.2,8.2-14.7,11.9c-15.7,8.9-31.3,7.6-37.6,6.7c-0.4,0-0.8-0.2-1.2-0.4
		c-13.8-8.7-19-22.3-14.9-30.8c0.6-1.3,2.9-5.6,10.2-8.2c0.4-0.1,0.8-0.2,1.3-0.2c8.7,0.8,19.5,2.5,31.5,6.3c9.7,3,18,6.7,24.7,10.2
		C252.3,504.5,252.7,506.7,251.4,508.2z M284.4,559.7c0,1-1.3,1.3-1.9,0.6c-1.5-1.9-3.5-4.1-6.3-6.1c-2.9-2.1-5.7-3.5-7.9-4.3
		c-2.1,0.8-5,2.1-7.9,4.3c-2.7,2-4.8,4.2-6.3,6.1c-0.6,0.7-1.8,0.4-1.9-0.6c-0.5-7.2-0.1-21.9,10.7-32.6c1.4-1.4,3.2-2.6,5.3-3.8
		c2.1,1.2,3.9,2.4,5.3,3.8C284.5,537.7,284.8,552.5,284.4,559.7z M298.3,520.1c-6.5-3.7-11.4-8.1-14.7-11.9
		c-1.3-1.4-0.9-3.7,0.8-4.5c6.8-3.5,15-7.2,24.7-10.2c12-3.8,22.8-5.5,31.5-6.3c0.4,0,0.8,0,1.3,0.2c7.2,2.6,9.5,7,10.2,8.2
		c4,8.5-1.2,22.1-15,30.8c-0.4,0.2-0.7,0.4-1.2,0.4C329.6,527.7,314.1,528.9,298.3,520.1z"/>
	<path d="M268,612.2h-35.5c0,0-17.7,58.7-17.7,94.9c0,82,53.2,224.2,53.2,224.2s53.2-142.2,53.2-224.2c0-36.2-17.7-94.9-17.7-94.9
		H268z"/>
	<path d="M253.6,43.2l-3.1,192.5h-92.7v32H218c8.2,0,14.9,6.7,14.9,14.9v14.7c8.1-2.5,19.9-5.2,34.4-5.2c14.5,0,26.4,2.7,34.5,5.2
		v-12.5c0-9.4,7.6-17.1,17.1-17.1h58v-32H284l-3.1-192.5c15.4-3.1,26.4-11.3,26.4-21C307.3,10,289.5,0,267.6,0c-0.1,0-0.3,0-0.4,0
		c-0.1,0-0.3,0-0.4,0c-21.9,0-39.6,10-39.6,22.2C227.3,31.9,238.3,40.1,253.6,43.2z"/>
</g>
</svg>
