<?xml version="1.0" encoding="utf-8"?>
<!-- Generator: Adobe Illustrator 22.1.0, SVG Export Plug-In . SVG Version: 6.00 Build 0)  -->
<svg version="1.1" id="图层_1" xmlns="http://www.w3.org/2000/svg" xmlns:xlink="http://www.w3.org/1999/xlink" x="0px" y="0px"
	 viewBox="0 0 500 500" style="enable-background:new 0 0 500 500;" xml:space="preserve">
<g>
	<path d="M250,0C111.9,0,0,111.9,0,250s111.9,250,250,250s250-111.9,250-250S388.1,0,250,0z M250,485C120.2,485,15,379.8,15,250
		S120.2,15,250,15s235,105.2,235,235S379.8,485,250,485z"/>
	<circle cx="315" cy="137.4" r="70"/>
	<path d="M403.7,121.9c3.5,20.1,0.3,41.5-10.7,60.6c-24.8,43-79.9,57.8-122.9,32.9c-43-24.9-57.8-79.9-32.9-122.9
		c11-19.1,27.9-32.5,47.1-39.6C203.8,38.9,119.9,75.3,76.8,150C21.5,245.7,54.3,368,150,423.2c14.5,8.4,29.6,14.7,45,19.1V395h110
		v47.3c48.1-13.8,91.2-45.5,118.2-92.3C466.3,275.3,455.9,184.4,403.7,121.9z"/>
</g>
</svg>
