<?xml version="1.0" encoding="utf-8"?>
<!-- Generator: Adobe Illustrator 22.0.1, SVG Export Plug-In . SVG Version: 6.00 Build 0)  -->
<svg version="1.1" id="Layer_2" xmlns="http://www.w3.org/2000/svg" xmlns:xlink="http://www.w3.org/1999/xlink" x="0px" y="0px"
	 viewBox="0 0 901 965" style="enable-background:new 0 0 901 965;" xml:space="preserve">
<g>
	<path d="M641,544l-58.9-46.9c21.1-12.6,38-28,48-45.1H664c-5,21.9-15.1,43.6-30,62c34.9-18,134.3-52.5,267-92
		c-138.7-41.6-237.2-75.7-267-92c14.9,18.4,25,40.1,30,62h-29.8c-5.5-12.2-14.6-23.9-26.6-34.6C623.8,316,653.6,268.7,693,217
		c-60.8,27.1-119.9,52.4-160,58c13,5,21,9,26,18l-23.2,24.1c-18.5-6.3-38.4-10.8-58.8-12.8V233c18.2,0.1,33.1,9.8,56,22
		c-18.8-36.8-52.3-150.7-84-255c-28.1,106.5-56.2,214.6-81,263c21-14.1,41.7-27.7,56-29v70.7c-20,2.3-39.5,7-57.8,13.5L342,293
		c5-9,13-13,26-18c-40.1-5.6-99.2-30.9-160-58c39.9,52.3,69.9,100.3,86,142c4.1-13.8,9.3-22.3,12-24l9.1,8.4
		c-21,14.1-37.1,30.8-45.2,48.6H237c5-21.9,15.1-43.6,30-62c-29.8,16.3-128.3,50.4-267,92c132.7,39.5,232.1,74,267,92
		c-14.9-18.4-25-40.1-30-62h37c9.8,16.6,26.1,31.5,46.3,43.9L260,544c-5.2-1.9-10.1-16.6-15-30c-23.6,45-63.7,100.3-109,159
		c71.9-29,142.4-57,183-63c-12.8-6.7-23-16.9-31-30l78.9-62.5c17.3,5.9,35.7,10.2,54.1,12.5v161c-14.3-1.3-43-14.9-64-29
		c24.8,48.4,63.9,196.5,92,303c31.7-104.3,74.2-267.2,93-304c-22.9,12.2-50.8,30.9-69,31V531.1c21.2-1.8,42.4-6.2,62.2-12.8L613,580
		c-8,13.1-18.2,23.3-31,30c40.6,6,111.1,34,183,63c-45.3-58.7-85.4-114-109-159C651.1,527.4,646.2,542.1,641,544z M595,335
		c2.5,1.6,7.1,9,11.1,21c-5.6-4.9-11.9-9.6-18.6-14L595,335z M447.4,493c-59.7,0-120.6-51.1-120.6-67c0-15.9,60.9-67,120.6-67
		s124.8,51.1,124.8,67C572.2,438.6,507.1,493,447.4,493z"/>
	<path d="M449,366c-33.1,0-60,26.9-60,60s26.9,60,60,60s60-26.9,60-60S482.1,366,449,366z M449,472c-25.4,0-46-20.6-46-46
		s20.6-46,46-46s46,20.6,46,46S474.4,472,449,472z"/>
</g>
</svg>
