<?xml version="1.0" encoding="utf-8"?>
<!-- Generator: Adobe Illustrator 21.0.2, SVG Export Plug-In . SVG Version: 6.00 Build 0)  -->
<!DOCTYPE svg PUBLIC "-//W3C//DTD SVG 1.1//EN" "http://www.w3.org/Graphics/SVG/1.1/DTD/svg11.dtd">
<svg version="1.1" id="Layer_1" xmlns="http://www.w3.org/2000/svg" xmlns:xlink="http://www.w3.org/1999/xlink" x="0px" y="0px"
	 viewBox="0 0 900 752" style="enable-background:new 0 0 900 752;" xml:space="preserve">
<g>
	<path d="M436,752c-4.9-0.9-9.8-1.6-14.7-2.6c-37.2-7.5-58.2-29.9-63.4-67.5c-3.8-27.6-0.5-54.9,4.5-82
		c8.2-44.2,22.2-86.7,35.3-129.6c19.4-63.4,37.1-127.2,50.8-192.1c0.3-1.2,0.6-2.4,1.9-3.6c1.7,7.5,3.3,15.1,5,22.6
		c16.1,71.9,36.9,142.5,58.9,212.7c11.1,35.5,20.8,71.3,26.1,108.2c3.3,22.8,4.9,45.7,0.6,68.6c-6.8,36.1-28.9,57.5-65.4,63.2
		c-3.9,0.6-7.8,1.3-11.7,2C454.7,752,445.3,752,436,752z"/>
	<path d="M25.2,428.9c1.6,0,3.2-0.1,4.8,0c33.4,1.9,66.6,1.7,99.7-3.9c6.8-1.2,13.5-3.5,20.2-5.5c1.7-0.5,3.6-1.5,4.6-2.8
		c1.2-1.5,2.2-3.8,2-5.5c-0.1-1-3.1-2-4.8-2.1c-11.6-0.7-23.4,0.1-34.8-1.8c-24.7-4.1-45.2-17.3-63.7-33.7
		c-20.4-18.1-36.7-39.5-51.3-62.3c-0.2-0.4-0.3-0.9-0.6-1.9c2.3,0.9,4.1,1.5,5.8,2.2c27.9,11.3,56.4,20.6,86.4,23.8
		c10.5,1.1,21.2,0.1,31.8,0c0.5,0,1.1-0.1,1.5-0.3c3.4-2.1,6.8-4.3,10.2-6.4c-2.5-2.6-4.6-5.9-7.6-7.8c-16.9-10.9-34.6-20.7-51-32.4
		c-25.2-18-44.7-40.9-54.9-70.7c-5.3-15.4-7.4-31.3-6.4-48.7c1.9,1.6,3.3,2.6,4.6,3.7c24.2,21,49.5,40.6,77.2,56.7
		c9.2,5.3,19,9.5,28.8,13.7c3.5,1.5,8.2,3.3,11-0.9c2.6-3.9-1-7.3-3.4-10.1C96.6,186,81.1,131.1,75.1,72.8
		c-2.2-21-2.6-42.2-3.7-63.3c-0.1-1.8,0-3.6,1.1-5.7c0.7,1.5,1.4,3,2.1,4.5c19.6,44,42.7,85.9,71.8,124.3
		c42.2,55.5,95.9,95.2,161.3,119.4c10.1,3.8,20,8.3,29.9,12.6c3,1.3,5.9,3,8.8,4.7c22.3,13.7,27.6,40.9,11.3,61.5
		c-5.2,6.6-12.1,11.8-18.7,17.2c-6.7,5.5-14.1,10.1-20.8,15.5c-21.5,17.1-27,39.8-20.8,65.5c6,24.9,23.9,37.4,47.7,42.9
		c5.2,1.2,10.5,1.7,16.3,2.6c-8.3,22-16.5,44-24.9,66.5c-1.7-1.6-3-2.8-4.3-4c-18.2-17.2-41.8-19.8-62.8-6.4
		c-6.7,4.3-12.8,9.6-18.8,14.8c-7.2,6.2-14,12.9-21,19.2c-20.9,18.8-45.1,28.1-73.6,26.6c-25.4-1.3-50.1-4.8-72.4-18.2
		c-4.2-2.5-8.1-5.5-13.1-8.9c8.1-2.2,15.1-3.7,21.7-6.1c17.3-6.3,34.6-12.8,51.7-19.9c6.5-2.7,12.5-7,18.3-11.1
		c3.6-2.6,7.2-5.7,9.6-9.4c2-3.1,3.4-7.5,2.8-10.9c-0.3-1.6-5.8-3.1-9-3.4c-15.1-1.3-30.3-1.4-45.3-3.5c-42.3-5.9-74.2-27.1-93.3-66
		c-0.6-1.2-1.1-2.4-1.6-3.6C25,429.9,25.1,429.5,25.2,428.9z"/>
</g>
<path d="M871.3,428.9c-1.6,0-3.2-0.1-4.8,0c-33.4,1.9-66.6,1.7-99.7-3.9c-6.8-1.2-13.5-3.5-20.2-5.5c-1.7-0.5-3.6-1.5-4.6-2.8
	c-1.2-1.5-2.2-3.8-2-5.5c0.1-1,3.1-2,4.8-2.1c11.6-0.7,23.4,0.1,34.8-1.8c24.7-4.1,45.2-17.3,63.7-33.7
	c20.4-18.1,36.7-39.5,51.3-62.3c0.2-0.4,0.3-0.9,0.6-1.9c-2.3,0.9-4.1,1.5-5.8,2.2c-27.9,11.3-56.4,20.6-86.4,23.8
	c-10.5,1.1-21.2,0.1-31.8,0c-0.5,0-1.1-0.1-1.5-0.3c-3.4-2.1-6.8-4.3-10.2-6.4c2.5-2.6,4.6-5.9,7.6-7.8c16.9-10.9,34.6-20.7,51-32.4
	c25.2-18,44.7-40.9,54.9-70.7c5.3-15.4,7.4-31.3,6.4-48.7c-1.9,1.6-3.3,2.6-4.6,3.7c-24.2,21-49.5,40.6-77.2,56.7
	c-9.2,5.3-19,9.5-28.8,13.7c-3.5,1.5-8.2,3.3-11-0.9c-2.6-3.9,1-7.3,3.4-10.1c38.8-46,54.2-100.9,60.3-159.2
	c2.2-21,2.6-42.2,3.7-63.3c0.1-1.8,0-3.6-1.1-5.7c-0.7,1.5-1.4,3-2.1,4.5c-19.6,44-42.7,85.9-71.8,124.3
	c-42.2,55.3-96,95-161.3,119.2c-10.1,3.8-20,8.3-29.9,12.6c-3,1.3-5.9,3-8.8,4.7c-22.3,13.7-27.6,40.9-11.3,61.5
	c5.2,6.6,12.1,11.8,18.7,17.2c6.7,5.5,14.1,10.1,20.8,15.5c21.5,17.1,27,39.8,20.8,65.5c-6,24.9-23.9,37.4-47.7,42.9
	c-5.2,1.2-10.5,1.7-16.3,2.6c8.3,22,16.5,44,24.9,66.5c1.7-1.6,3-2.8,4.3-4c18.2-17.2,41.8-19.8,62.8-6.4
	c6.7,4.3,12.8,9.6,18.8,14.8c7.2,6.2,14,12.9,21,19.2c20.9,18.8,45.1,28.1,73.6,26.6c25.4-1.3,50.1-4.8,72.4-18.2
	c4.2-2.5,8.1-5.5,13.1-8.9c-8.1-2.2-15.1-3.7-21.7-6.1c-17.3-6.3-34.6-12.8-51.7-19.9c-6.5-2.7-12.5-7-18.3-11.1
	c-3.6-2.6-7.2-5.7-9.6-9.4c-2-3.1-3.4-7.5-2.8-10.9c0.3-1.6,5.8-3.1,9-3.4c15.1-1.3,30.3-1.4,45.3-3.5c42.3-5.9,74.2-27.1,93.3-66
	c0.6-1.2,1.1-2.4,1.6-3.6C871.4,429.9,871.3,429.5,871.3,428.9z"/>
</svg>
