<?xml version="1.0" encoding="utf-8"?>
<!-- Generator: Adobe Illustrator 22.1.0, SVG Export Plug-In . SVG Version: 6.00 Build 0)  -->
<svg version="1.1" id="Layer_4" xmlns="http://www.w3.org/2000/svg" xmlns:xlink="http://www.w3.org/1999/xlink" x="0px" y="0px"
	 viewBox="0 0 937 651.5" style="enable-background:new 0 0 937 651.5;" xml:space="preserve">
<g>
	<path d="M523.2,523.2l-16.3,9.4c-8.9-13.2-19.5-32.1-26.9-56.6c-6.5-21.3-5.5-40.3-5.9-55h9.9v-76h34.2v-73.8H298.8h-1.2H295v-39.6
		c0-17.1-13.8-30.9-30.9-30.9c-16.7,0-30.3,13.2-30.9,29.8h0.2v2.3h-102v-1.2v-1.2V114.7h2.3v115.8h95.6
		c0.6-18.7,15.9-33.6,34.8-33.6c19.2,0,34.8,15.6,34.8,34.8v36.2h219.4v-36.2v-3.3h3.5H814V175v-6.3V153h68V94h-68v-5V0
		c-9.7,0-19.3,0-29,0c0.3,3.3,1.3,21.2-12,36c-10.2,11.3-22.8,14.2-27,15h-76v18H346.2L341,50H199l-39,39h-21v23H95l-79,82v12H0v84
		h16v9h102l2.4-1.9c3.2-8.8,11.7-15.1,21.6-15.1c12.7,0,23,10.3,23,23s-10.3,23-23,23c-2.6,0-5-0.4-7.4-1.2L124,346l9.1,7.5
		c-4.5,7.5-9.9,16.3-11.6,18.8L111,366L49,474l31,19l-7,14l56,32l8-14l34,20l16-28l-3.4-1.7c1.5-2.8,2.9-5.5,4.4-8.3
		c-10-6.9-17.6-18-17.8-36c0.3,0,0.6,0,0.8,0c7.2,0,13-5.8,13-13c0-6.2-4.3-11.3-10.1-12.7c1.3-4.8,3-9.9,5.1-15.3
		c2-5.1,3.9-9.8,5.7-14.1c1.6,0.7,3.4,1.1,5.3,1.1c7.2,0,13-5.8,13-13c0-5-2.8-9.3-6.9-11.5c8.9-14.9,17.2-20.2,27.9-19.5h78v48
		h14.3c-2.3,21.9-2.9,56.3,8.7,96c13.1,44.7,35.6,75.6,49.6,92l-13.7,7.9l17.8,30.8l6.6-3.8l4.3,7.6l14.2-8.1l-4.4-7.7l13.2-7.6
		l4.4,7.7l14.2-8.1l-4.4-7.8l13.2-7.6l4.5,7.8l14.2-8.1l-4.5-7.9l13.2-7.6l4.6,8l14.2-8.1l-4.6-8l13.2-7.6l4.6,8.1l14.2-8.1
		l-4.7-8.1l13.2-7.6l4.7,8.2L541,565l-4.7-8.3l4.7-2.7L523.2,523.2z M303,352h-31c-1.5-1.3-12-10.5-12-26s10.5-24.7,12-26h31V352z"
		/>
	<polygon points="812,306 814,306 814,231.7 521.8,231.7 521.8,345 523,345 523,371 523,389 562,389 562,371 578.4,371 578.4,389 
		607.4,389 607.4,371 628.8,371 628.8,389 657.8,389 657.8,371 679.2,371 679.2,389 708.2,389 708.2,371 729.6,371 729.6,389 
		758.6,389 758.6,371 775,371 775,389 814,389 814,357 901,357 901,316 812,316 	"/>
	<path d="M817.7,175v53.3v3.3V306H937V175H817.7z M877,268c-15.5,0-28-12.5-28-28s12.5-28,28-28s28,12.5,28,28S892.5,268,877,268z"
		/>
</g>
</svg>
