<?xml version="1.0" encoding="utf-8"?>
<!-- Generator: Adobe Illustrator 22.1.0, SVG Export Plug-In . SVG Version: 6.00 Build 0)  -->
<svg version="1.1" id="Layer_2" xmlns="http://www.w3.org/2000/svg" xmlns:xlink="http://www.w3.org/1999/xlink" x="0px" y="0px"
	 viewBox="0 0 937 651.5" style="enable-background:new 0 0 937 651.5;" xml:space="preserve">
<path d="M937,306V175H814v-22h68V94h-68v-5V0c-9.7,0-19.3,0-29,0c0.3,3.3,1.3,21.2-12,36c-10.2,11.3-22.8,14.2-27,15h-76v18H346.2
	L341,50H199l-39,39h-21v23H95l-79,82v12H0v84h16v9h102l2.4-1.9c3.2-8.8,11.7-15.1,21.6-15.1c12.7,0,23,10.3,23,23
	c0,12.7-10.3,23-23,23c-2.6,0-5-0.4-7.4-1.2L124,346l9.1,7.5c-4.5,7.5-9.9,16.3-11.6,18.8L111,366L49,474l31,19l-7,14l56,32l8-14
	l34,20l16-28l-3.4-1.7c1.5-2.8,2.9-5.5,4.4-8.3c-10-6.9-17.6-18-17.8-36c0.3,0,0.6,0,0.8,0c7.2,0,13-5.8,13-13
	c0-6.2-4.3-11.3-10.1-12.7c1.3-4.8,3-9.9,5.1-15.3c2-5.1,3.9-9.8,5.7-14.1c1.6,0.7,3.4,1.1,5.3,1.1c7.2,0,13-5.8,13-13
	c0-5-2.8-9.3-6.9-11.5c8.9-14.9,17.2-20.2,27.9-19.5h78v48h14.3c-2.3,21.9-2.9,56.3,8.7,96c13.1,44.7,35.6,75.6,49.6,92l-13.7,7.9
	l17.8,30.8l6.6-3.8l4.3,7.6l14.2-8.1l-4.4-7.7l13.2-7.6l4.4,7.7l14.2-8.1l-4.4-7.8l13.2-7.6l4.5,7.8l14.2-8.1l-4.5-7.9l13.2-7.6
	l4.6,8l14.2-8.1l-4.6-8l13.2-7.6l4.6,8.1l14.2-8.1l-4.7-8.1l13.2-7.6l4.7,8.2L541,565l-4.7-8.3l4.7-2.7l-17.8-30.8l-16.3,9.4
	c-8.9-13.2-19.5-32.1-26.9-56.6c-6.5-21.3-5.5-40.3-5.9-55h9.9v-76h39v26v18h39v-18h16.4v18h29v-18h21.4v18h29v-18h21.4v18h29v-18
	h21.4v18h29v-18H775v18h39v-32h87v-41h-89v-10H937z M877,212c15.5,0,28,12.5,28,28c0,15.5-12.5,28-28,28s-28-12.5-28-28
	C849,224.5,861.5,212,877,212z M303,352h-31c-1.5-1.3-12-10.5-12-26s10.5-24.7,12-26h31V352z"/>
</svg>
