<?xml version="1.0" encoding="utf-8"?>
<!-- Generator: Adobe Illustrator 22.1.0, SVG Export Plug-In . SVG Version: 6.00 Build 0)  -->
<svg version="1.2" baseProfile="tiny" id="图层_1"
	 xmlns="http://www.w3.org/2000/svg" xmlns:xlink="http://www.w3.org/1999/xlink" x="0px" y="0px" viewBox="0 0 500 500"
	 xml:space="preserve">
<g>
	<path d="M250,0C111.9,0,0,111.9,0,250s111.9,250,250,250s250-111.9,250-250S388.1,0,250,0z M250,485C120.2,485,15,379.8,15,250
		S120.2,15,250,15s235,105.2,235,235S379.8,485,250,485z"/>
	<circle cx="315" cy="137.4" r="70"/>
	<path d="M265,224c-65.3-37.7-139.4-46.1-207.2-29.3C32.9,281,68.7,376.3,150,423.2s181.7,30.3,244-34.4
		C374.6,321.7,330.3,261.7,265,224z"/>
	<path d="M242.2,190.3c-20.2-27.9-23.4-66.2-5.1-97.9c11-19.1,27.9-32.5,47.1-39.6C203.8,38.9,119.9,75.3,76.8,150
		c-4.2,7.3-8,14.8-11.2,22.5C123.5,160.7,185,166,242.2,190.3z"/>
	<path d="M403.7,121.9c3.5,20.1,0.3,41.5-10.7,60.6c-18.3,31.7-53.1,48.1-87.3,44.5c49.7,37.3,84.9,88,103.7,144
		c5-6.6,9.6-13.6,13.9-20.9C466.3,275.3,455.9,184.4,403.7,121.9z"/>
</g>
</svg>
