<?xml version="1.0" encoding="utf-8"?>
<!-- Generator: Adobe Illustrator 22.1.0, SVG Export Plug-In . SVG Version: 6.00 Build 0)  -->
<svg version="1.1" id="Layer_3" xmlns="http://www.w3.org/2000/svg" xmlns:xlink="http://www.w3.org/1999/xlink" x="0px" y="0px"
	 viewBox="0 0 929.5 991.2" style="enable-background:new 0 0 929.5 991.2;" xml:space="preserve">
<g>
	<path d="M565,586.9c0-48.5-29.4-97.8-71.8-144.7C471.6,418.3,475,295.3,475,295.3s-78.6,83.1-77.5,140.1s54.7,123,54.7,123
		s5.7,46.7-29.6,44.4c-49,0-25.1-94.5-25.1-94.5s-69.5,42.1-61.5,115c8,72.9,110.5,134.4,121.9,134.4
		C543.3,753.2,565,632.5,565,586.9z"/>
	<path d="M262,491.2c-97.2,0-173.9,0-248.3,0c-0.5,10-1.6,39.5,3.1,79.8l143.1,0.9c2.6,15.3,7.3,36,15.7,59.7L31.3,646.5
		c7,26,16.6,53.7,29.7,81.8l137.1-46c9,16.6,19.9,33.7,33.2,50.6L99.4,795.1c13.9,20,29.9,39.6,48.5,58.6l111.6-88.9
		c12.8,12.8,25.7,23.8,38.5,33.3l-88.4,108c22.2,15.7,44.6,28.5,66.4,38.9l60-122.1c18.1,10.3,34.5,17.6,47.5,22.6l-23.3,130.6
		c39.4,10.5,71.3,13.9,88.5,15.2l3.4-211.9c-37.5-1.9-63.9-13.1-80.9-22.8C294.7,712.6,257.4,615.4,262,491.2z"/>
	<path d="M668.1,491.2c4.6,124.2-32.7,221.4-109.3,265.4c-16.9,9.7-43.4,20.9-80.9,22.8l3.4,211.9c17.2-1.3,49.1-4.7,88.5-15.2
		l-23.3-130.6c13-5,29.4-12.3,47.5-22.6l60,122.1c21.8-10.4,44.1-23.2,66.4-38.9l-88.4-108c12.7-9.5,25.7-20.6,38.5-33.3l111.6,88.9
		c18.6-18.9,34.7-38.6,48.5-58.6l-131.9-62.2c13.3-17,24.2-34,33.2-50.6l137.1,46c13.2-28.1,22.7-55.7,29.7-81.8l-144.3-14.8
		c8.4-23.7,13.1-44.5,15.7-59.7l143.1-0.9c4.8-40.3,3.6-69.8,3.1-79.8C842,491.2,765.3,491.2,668.1,491.2z"/>
	<path d="M0,473.8h215.3h9.1h36.3c0-112.4,91.1-203.5,203.5-203.5s203.5,91.1,203.5,203.5h37.4h8h216.4l-225-65
		c-3.4-12.5-7.7-24.6-12.9-36.2l94.3-101.6L655.7,315c-8-9.7-16.8-18.7-26.2-27.1l33.3-128.5l-101.3,85.3
		c-10.5-4.5-21.3-8.2-32.5-11.2L464.7,0l-64.4,233.2c-11.3,3-22.3,6.7-32.9,11.2l-100.9-85l33.1,127.6c-9.6,8.5-18.6,17.7-26.8,27.6
		l-129.3-43.6l93.6,100.7c-5.4,12-9.9,24.5-13.3,37.4L0,473.8z"/>
</g>
</svg>
