<?xml version="1.0" encoding="utf-8"?>
<!-- Generator: Adobe Illustrator 21.0.2, SVG Export Plug-In . SVG Version: 6.00 Build 0)  -->
<!DOCTYPE svg PUBLIC "-//W3C//DTD SVG 1.1//EN" "http://www.w3.org/Graphics/SVG/1.1/DTD/svg11.dtd">
<svg version="1.1" id="Layer_4_copy" xmlns="http://www.w3.org/2000/svg" xmlns:xlink="http://www.w3.org/1999/xlink" x="0px"
	 y="0px" viewBox="0 0 914.9 914.9" style="enable-background:new 0 0 914.9 914.9;" xml:space="preserve">
<g>
	<path d="M598.9,338.5c-25.3-73.8-100.1-85.4-132.4-86.9c0,0-2.8-0.2-7.5-0.2c-0.1,0-0.1,0-0.1,0c-0.1,0-0.1,0-0.1,0
		c-4.8,0-7.5,0.2-7.5,0.2c-32.3,1.5-107.1,13.1-132.4,86.9c-21.6,63,19.3,134.2,11,143.8c-33.3,38.5,12,99.5,18.1,104.5
		c11.1,9.1,46.5-9.3,40.9,0.2c-4.2,7.2-8.1,61.8-8.1,61.8h10.9l5.2-19l9.4-0.1l1.8,19.1h19.1l1.8-18.2l6.4-0.9l0.9,19.1h15.5
		l0.7-19.6h12.6l0.7,19.6h15.5l0.9-19.1l6.4,0.9l1.8,18.2h19.1l1.8-19.1l9.4,0.1l5.2,19H537c0,0-3.9-54.5-8.1-61.8
		c-5.6-9.5,29.8,8.8,40.9-0.2c6.2-5.1,51.4-66,18.1-104.5C579.6,472.7,620.4,401.5,598.9,338.5z M438.3,522.2
		c-4.3,4.9-10.6,10.6-19.1,15.4c-20.4,11.5-40.6,9.9-48.8,8.7c-0.5-0.1-1.1-0.2-1.5-0.5c-17.9-11.3-24.7-28.9-19.4-39.9
		c0.8-1.7,3.8-7.2,13.2-10.6c0.5-0.2,1.1-0.2,1.6-0.2c11.3,1,25.3,3.2,40.8,8.1c12.6,3.9,23.3,8.7,32.1,13.2
		C439.5,517.4,440,520.3,438.3,522.2z M481,588.8c-0.1,1.3-1.6,1.7-2.4,0.8c-1.9-2.5-4.6-5.3-8.1-7.9c-3.8-2.8-7.4-4.5-10.2-5.5
		c-2.8,1-6.4,2.8-10.2,5.5c-3.5,2.6-6.2,5.4-8.1,7.9c-0.8,1-2.3,0.5-2.4-0.8c-0.6-9.3-0.2-28.4,13.8-42.2c1.8-1.8,4.1-3.4,6.9-4.9
		c2.7,1.5,5.1,3.1,6.9,4.9C481.2,560.5,481.6,579.6,481,588.8z M549.4,545.7c-0.5,0.3-1,0.5-1.5,0.5c-8.2,1.1-28.3,2.8-48.8-8.7
		c-8.5-4.8-14.7-10.5-19.1-15.4c-1.6-1.9-1.1-4.8,1.1-5.9c8.8-4.6,19.5-9.3,32.1-13.2c15.6-4.9,29.6-7.1,40.8-8.1
		c0.5-0.1,1.1,0,1.6,0.2c9.3,3.4,12.3,9,13.2,10.6C574,516.8,567.2,534.5,549.4,545.7z"/>
	<path d="M895.1,153.6c-7.5,17.9-30.7,66.9-85.7,100.8c-14.4,8.9-28.6,15.3-42,19.9c-31.2-52.6-75.5-96.4-128.4-127.2
		c4.6-13.2,11-27.3,19.7-41.5c33.9-55.1,82.9-78.2,100.8-85.7c0-6.6,0-13.2,0-19.8H152.3v18.3c25.5,11.7,75.7,50.2,104,100
		c4.9,8.6,9.4,21,13.4,34.3c-49.1,30.6-90.3,72.7-119.8,122.6c-14.1-4.7-29.2-11.3-44.4-20.7c-55.1-33.9-78.2-82.9-85.7-100.8
		c-6.6,0-13.2,0-19.8,0v607.1h18.3c11.7-25.5,50.2-75.7,100-104c8.6-4.9,20.9-9.4,34.2-13.4c29.3,48.1,69.6,88.8,117.4,118.5
		c-4,13.5-8.6,26.1-13.6,34.8c-28.3,49.8-78.4,88.3-104,100l0,18.3h607.1c0-6.6,0-13.2,0-19.8c-17.9-7.5-66.9-30.7-100.8-85.7
		c-8.9-14.4-15.3-28.6-19.9-42c51.6-30,95-72.4,126.1-123.2c12.3,3.8,23.7,8.1,31.7,12.6c49.8,28.3,88.3,78.4,100,104h18.3V153.6
		C908.3,153.6,901.7,153.6,895.1,153.6z M184.1,581.4c-14.7,1.7-32.7,5.1-52.4,11.9c-29.1,10-51.3,23.7-66.7,34.9
		c1.6-112.2,3.2-224.3,4.8-336.5c12.7,10.7,35,26.5,66.7,35.7c21,6.1,39.5,7.3,53.2,7.1c-10.7,25.3-24.5,66.9-26.2,119.8
		C161.7,510.5,174.4,555,184.1,581.4z M621.5,71.2c-10.7,12.7-26.5,35-35.7,66.7c-6.1,21-7.3,39.5-7.1,53.2
		c-25.3-10.7-66.9-24.5-119.8-26.2c-56.1-1.8-100.6,10.9-127,20.6c-1.7-14.7-5.1-32.7-11.9-52.4c-10-29.1-23.7-51.3-34.9-66.7
		C397.2,68.1,509.3,69.6,621.5,71.2z M285,853.5c11.2-15.3,24.9-37.6,34.9-66.7c6.8-19.7,10.2-37.6,11.9-52.4
		c26.4,9.7,70.9,22.4,127,20.6c52.9-1.7,94.5-15.5,119.8-26.2c-0.2,13.7,1.1,32.2,7.1,53.2c9.2,31.6,25,54,35.7,66.7
		C509.3,850.3,397.2,851.9,285,853.5z M457.5,707.1c-137.9,0-249.7-111.8-249.7-249.7s111.8-249.7,249.7-249.7
		s249.7,111.8,249.7,249.7S595.4,707.1,457.5,707.1z M785.4,593.3c-19.7-6.8-37.6-10.2-52.4-11.9c9.7-26.4,22.4-70.9,20.6-127
		c-1.7-52.9-15.5-94.5-26.2-119.8c13.7,0.2,32.2-1.1,53.2-7.1c31.6-9.2,54-25,66.7-35.7c1.6,112.2,3.2,224.3,4.8,336.5
		C836.8,617,814.5,603.3,785.4,593.3z"/>
</g>
</svg>
