<?xml version="1.0" encoding="utf-8"?>
<!-- Generator: Adobe Illustrator 21.0.2, SVG Export Plug-In . SVG Version: 6.00 Build 0)  -->
<!DOCTYPE svg PUBLIC "-//W3C//DTD SVG 1.1//EN" "http://www.w3.org/Graphics/SVG/1.1/DTD/svg11.dtd">
<svg version="1.1" id="Layer_1" xmlns="http://www.w3.org/2000/svg" xmlns:xlink="http://www.w3.org/1999/xlink" x="0px" y="0px"
	 viewBox="0 0 873 912.2" style="enable-background:new 0 0 873 912.2;" xml:space="preserve">
<path d="M0,275.9c88.3-0.1,176.6-0.2,264.9-0.2c1.8,15.9,7.9,51.2,34,86.2c27.5,36.9,61.8,52.9,76.7,58.8L341.2,737l-87.3-31.7
	l47.6-99.3c-6.2-3.7-12.7-7.7-19.3-12.2c-7-4.7-13.5-9.4-19.5-14c-26,24.9-52,49.9-78,74.8l-57.2-62.5l83.4-61.4
	c-5-6.3-10.1-13-15.2-20.2c-6.3-8.8-12-17.5-17.2-25.8c-33.2,16.1-66.3,32.1-99.5,48.2l-48.4-93.7c41.2-7.4,82.4-14.8,123.6-22.3
	c-1.5-5.8-2.8-12.3-3.8-19.3c-1-7-1.6-13.6-1.8-19.5c-45,0.3-90,0.5-135,0.8L0,275.9z"/>
<path d="M873,275.9c-88.3-0.1-176.6-0.2-264.9-0.2c-1.8,15.9-7.9,51.2-34,86.2c-27.5,36.9-61.8,52.9-76.7,58.8L531.8,737l87.3-31.7
	L571.6,606c6.2-3.7,12.7-7.7,19.3-12.2c7-4.7,13.5-9.4,19.5-14c26,24.9,52,49.9,78,74.8l57.2-62.5l-83.4-61.4
	c5-6.3,10.1-13,15.2-20.2c6.3-8.8,12-17.5,17.2-25.8c33.2,16.1,66.3,32.1,99.5,48.2l48.4-93.7c-41.2-7.4-82.4-14.8-123.6-22.3
	c1.5-5.8,2.8-12.3,3.8-19.3c1-7,1.6-13.6,1.8-19.5c45,0.3,90,0.5,135,0.8L873,275.9z"/>
<polygon points="437,0 503.3,109.1 459.6,143.5 471.8,304.5 497.4,304.5 526.6,275.7 574,324.4 526.7,371.4 500.4,345.2 
	476.1,345.7 505.5,748.3 437.1,912.2 365.6,748.5 397.6,345.5 374.6,345.4 347.5,370.6 298.6,321.5 345.6,275.7 375.6,304.5 
	402.5,304.5 415,144 370.6,109.5 "/>
</svg>
