<?xml version="1.0" encoding="utf-8"?>
<!-- Generator: Adobe Illustrator 22.1.0, SVG Export Plug-In . SVG Version: 6.00 Build 0)  -->
<svg version="1.1" id="Layer_2" xmlns="http://www.w3.org/2000/svg" xmlns:xlink="http://www.w3.org/1999/xlink" x="0px" y="0px"
	 viewBox="0 0 637.3 990.5" style="enable-background:new 0 0 637.3 990.5;" xml:space="preserve">
<g>
	<g>
		<polygon points="38,399.6 48.4,399.6 48.4,412.7 65.2,412.7 82,412.7 82,399.6 92.4,399.6 105.4,412.5 130.5,387.5 105.4,362.4 
			93.2,374.6 80.2,377.2 93.2,69.1 65.2,0 37.2,69.1 50.3,377.2 37.3,374.6 25.1,362.4 0,387.5 25.1,412.5 		"/>
	</g>
	<g>
		<polygon points="76.4,569.5 76.4,558.3 54,558.3 54,569.5 33.3,590.2 65.2,651.7 97.2,590.2 		"/>
	</g>
	<g>
		<path d="M228.1,749.4c9,10.8,8.9,28.1,20.3,36.2c-2-7.9-3-16.5,0.1-24.1c3.1-7.6,11.2-13.6,19.2-11.9
			c11.2,2.3,17.8,17.6,29.1,16.3c-3.2-4.4-5.1-9.7-5.6-15.1c-0.3-3.2,0.1-6.8,2.3-9.2c4.8-5.1,13.2-1.2,20.1-1.9
			c-6.8-8.5-7.8-21.3-2.4-30.8c5.4-9.5,21.5-12.1,32.3-10.6c-2.3-12.9-5.9-32.3-1.9-44.8c4-12.5,11.3-21.1,22.8-27.5
			c3.1-1.7,6.5-3.2,8.3-6.2c2.9-4.6,0.8-10.5-1.3-15.5l0-3.1c-5.4-10.6-14.8-12.6-25.9-17c-11.4-4.5-24.9-4.5-35.5,1.6
			c-6.3,3.6-11.4,9.2-15.8,15c-11.7,15.3-19.9,33.3-33,47.4c-17.3,18.6-41.7,29.1-66.2,35.7c-3.2,0.9-6.7,1.8-9.2,3.9
			c-0.2-0.2-0.4-0.3-0.6-0.5c-3.7-5.6-7.4-11.3-11.2-16.9c-1.8-2.8-3.7-5.6-6.1-8c-4.7-4.6-11.3-6.9-17.8-7.5
			c-6.1-0.6-12.4,0.2-17.7,3.3c-0.3,0.2-0.6,0.4-0.9,0.6c-7.5-4.2-16.1-6.8-24.9-7.1c-2.8-0.1-5.7,0-8.1,1.3
			c9.3,2.6,17.8,7.4,24.5,13.7c-0.3,0.3-0.6,0.7-0.9,1c-2.1,2.3-4.2,4.8-4.6,7.9c-0.6,4.8,3.4,9.1,7.8,11.2c2.7,1.3,6,2.4,7,5.2
			c1,3-1.3,6.2-4.1,7.7c-2.7,1.6-6,2.3-8.6,4.1c-2.3,1.6-3.9,4-4.9,6.7c-7.2-1.1-14.6-1.3-21.8-0.4c-5.3,0.7-10.7,2-14.8,5.4
			c12,0.5,23.9,3.3,34.8,8.3c0.4,4.9,1.9,9.7,5.1,13.3c4.7,5.5,13.6,7.6,19.5,3.4c1.6-1.1,3-2.7,4.9-3c3.4-0.5,6,3.6,5.3,6.9
			c-0.7,3.3-3.5,5.8-6.3,7.7c-2.8,2-5.8,3.8-7.6,6.8c-1.9,3.3-1.8,7.5-0.3,11c0.1,0.2,0.2,0.3,0.2,0.5c-6.4,7.9-14.3,14.5-23.3,19.3
			c11.9-0.2,23.7-2.6,34.7-7.1c1.1,0.7,2.3,1.3,3.5,1.7c3.8,1.2,7.9,1,11.8,0.4c4.8-0.8,9.6-2.1,13.4-5c6.5-4.8,9.4-13,11.5-20.8
			c2.1-7.8,3.9-16.1,9-22.3c1-1.2,2.2-2.4,3.3-3.6c0.3,0.1,0.7,0.3,1,0.4C209.2,737.8,220.9,740.8,228.1,749.4z"/>
	</g>
	<g>
		<path d="M636.6,216.6c-0.3-3.4-8.5-12.8-11.2-14.9c-9.3-7.5-10.7-8.2-24.3-5.6c9.2-8,11-14.6,17.3-25.1c6.3-10.5,10-22.9,8.6-35
			c-11.9,1.1-27.7,5.9-35.2,15.3c-7.5,9.3-7,23-7.9,34.9c-5.8-4.4-9-11.6-14.7-16.2c-8.1-6.5-20.4-6.1-29.3-0.7
			c-8.9,5.4-16.6,22.2-19,32.3c3.6-3.9,11.5-6.9,16.8-7.5c9.3-1.1,10.7-1.4,16.8,5.6c6.9,8,7.5,13.1,5.6,18.7
			c-1.5,4.4,0,10.3-3.7,13.1c-3.3,2.4-8,9.1-11.9,10.3c-5.7,1.8-11.3,3.8-16.8,6.2c-6.2,2.6-12.3,5.7-17.1,10.5
			c-6.8,6.7-10.8,12.6-14,21.6l0.4,0.6c-4,8.3-4.2,23.9-4.1,31.1c0.2,8.8,6.1,18,11.4,25.1c6.9,9.2,16.5,16.5,21.5,26.9
			c2.7,5.6,3.9,11.7,4.3,17.9c0.6,11-2.2,18.6-11,25.3c-8.8,6.7-27.9,10.3-31.7,0c-6.7,10.9-1.2,32.1,5.6,42.9
			c12.2,19.5,29.9,31.7,41.2,50.1c12.1,19.6,13.8,39,12.9,61.9c-0.4,9.8-3.2,24-9.3,31.7s-11.5,12-20.7,8.6
			c-2.9-1.1-5.5-2.9-8.1-4.8c-1-8.6-1.9-19.9-4.8-26.2c-3.2-6.8-8.6-20.1-13.1-26.1c-13.7-18.5-30-34-44.1-52.1
			c-2.6-5.5-8.8-13.8-10.1-17c-5.3-13.9-5.5-22.9-1.9-37.3c6.4-0.3,13.1,7.5,14.8,3c1.7-4.4-6.7-21.4-8.1-32.6c3-1,7-2,11.9-2.2
			c8-0.3,14.3,1.8,18,3.3c-1.6-3.6-3.3-7.2-4.9-10.8c-4.6-7.2-3.7-15-8.3-22.2c-0.2-2.5,0.2-4.4,0.8-5.8c3.5-8.2,17.8-11.9,35.5-9.3
			c-5.5-8.1-14.4-17-17.5-26.2c-3.4-9.9-3.8-20.5-4.2-31c-0.4-10.8-0.8-21.7-1.2-32.5l16.8-1.4c-1.1-9.2-5-18-10.9-25.1
			c0,0,0-0.1,0.1-0.1l0.2,0.2c0-0.1-0.1-0.2-0.1-0.3c4-10.7,7.3-21.2,9.5-31c-13.1-16.8-26.1-33.6-24.3-46.7
			c4.2-8.4,12.4-30.8,11.2-31.7c-1.4-1.2-12.5-1.1-14.3-1.2c-11-0.1-22.1,0.1-33.1,0.7c-3.2,0.2-6.5,0.3-9.4-0.9
			c-4.1-1.7-6.7-5.6-10.5-7.9c-4.6-2.9-10.4-3-15.8-2.7c-11.6,0.7-16.1-1.4-27.1,2.6c-2.7,1-12.1,1.4-14.9,1.9
			c-2.7,0.4-21.6,13.1-24.3,13.1c-19.8-0.6-27.4-3.2-42.3,9.8c-1.2,1-2.4,2.2-2.6,3.7c-0.3,2.1,1.4,3.9,2.8,5.4
			c10.9,11.2,14.1,27.9,23.4,43.5c6.6,0.2,9.5-8.2,14.9-12c5.4-3.8,12.6-2.5,19-1c3.3,0.8,6.7,1.6,9.3,3.7
			c5.6,4.3,6.2,13.3,2.4,19.2c-3.8,6-10.9,9.2-17.9,10.1c-7,0.8-10.4-4.1-17.4-5.4c-0.4,16,8.5,44.4,27.8,31.6
			c2.7-1.8,6.3-1.5,9.6-1.4c3.2,0.1,6.7,1.7,7.7,4.8c0.5,1.5,0.3,3.1,0,4.7c-2.4,11.8-11,22.1-22.2,26.5c-10,3.9-21.3,3.2-31.8,0.8
			c-10.5-2.4-20.6-6.2-31.1-8.5l0,1.3c-0.6-0.2-1.3-0.4-1.9-0.4C266,297.8,261.3,310,209,310c12.2,21.9,7.5,26.1,7.5,26.1
			s-20.5,9.3-18.7,39.2c2.7,42.9,26.1,24.1,26.1,69.1c0,53.8-66.7,53.3-96.3,50.4c1.1-2,2.7-3.7,4.7-4.8c5.8-3.2,14.8-8.8,20.8-14.5
			c3.7-3.5,9.2-4.4,13.9-2.3c4.4,2.1,8.8,3,12.3-0.5c1.4-1.5,3.2-2.6,5.1-3.2c45.9-15.1,15.3-52.4-1.7-73.4
			c-4.2-5.2-11.7-6.2-17.1-2.3c-41.4,29.8-72.8,38.2-137.5,34.4c-6.3-0.4-11.8,4-13,10.2c-0.4,1.9-0.7,3.9-1,6.1
			c-1.7,0.3-3,1.9-3,3.7c0,1.5,1,2.9,2.3,3.4c-0.1,0.8-0.1,1.6-0.2,2.4c-2.3,0.7-4,2.8-4,5.3c0,2.4,1.5,4.4,3.6,5.2
			c0,1.6,0,3.2-0.1,4.8c-1,0.7-1.7,1.8-1.7,3.1c0,1.3,0.7,2.5,1.7,3.1c0.1,8.9,0.6,18.1,1.1,26.9c-1.6,0.4-2.8,1.9-2.8,3.6
			c0,1.9,1.5,3.5,3.3,3.7c0.1,1.4,0.2,2.8,0.3,4.1c-2.1,0.8-3.7,2.8-3.7,5.2c0,2.7,2,5,4.6,5.5c0.1,1.3,0.3,2.6,0.4,3.9
			c-1.8,0.3-3.1,1.8-3.1,3.7c0,2.1,1.7,3.7,3.7,3.7c0,0,0.1,0,0.1,0c0.2,1.7,0.3,3.2,0.5,4.6c0.7,6.1,5.6,10.8,11.7,11.1
			c13.5,0.8,40.2,1.6,79.3-0.3c5.2-0.3,9.5-3.6,11.2-8.4c16.6,13.1,25.4,39.7,29.7,39.7c5.6,0,5.6-11.2,20.5-11.2
			s18.7,20.5,24.3,20.5s0-20.5,18.7-20.5c18.7,13.1,26.1,26.1,26.1,26.1s3.7-59.8,95.2-59.8c0,0,20.5,0,26.1,1.9
			c5.6,1.9,10.8,0.7,18.7,7.5c2.6,2.3,15.3,17.8,18.7,18.7c7.9,7.5,17.3,22.7,16.8,33.6c-0.4,8.2-3,15.3-9.3,20.5
			c-11.2,9.3-33.6,5.1-44.8,16.8c-7.5,7.8-13.1,11.2-13.1,31.7c0,8.7,2.6,21.3,3.7,29.9c0.4,3.1,4,6.3,7.3,9.3
			c-8.6,17.9-4.6,40,2.3,58.9c3.8,10.2,9.9,20.1,9.4,31c-0.3,6.4-2.9,12.4-6,18c-11.8,21.9-30.3,40.1-52.3,51.5
			c-4.5,2.4-9.9,4.5-14.7,2.7c-3.6-1.4-6.1-4.6-8.6-7.6c-6.5-7.7-15.7-14.7-25.7-13.2c-7.3,1.1-13.6,6.5-21,6.9
			c-1.6,0.1-3.2,0-4.6,0.5c-4.5-1-9.3-1-13.9,0.1c-8.2,1.9-15.5,6.4-22.4,11.3c10.8-2.6,22.4-1.5,32.5,2.9c1,9.7,6.1,19.1,14,24.8
			c1.6,1.1,3.3,2.2,4.2,4c2.1,4.1-1.7,8.5-3.8,12.6c-0.3,0.5-0.5,1-0.7,1.6c-9.8,5.3-20.4,9.3-31.3,11.7c10,5.3,21.7,7.3,32.9,6.1
			c0.9,1.5,2,2.9,3.4,4c6.4,5.7,16.7,6.3,23.8,1.4c5,4.1-0.8,11.6-2.6,17.8c-1.3,4.6,0.3,9.4,3.4,13c-4.3,8-9.1,15.7-14.5,22.9
			c3.5-0.3,6.7-2.1,9.8-3.8c6.6-3.7,13.3-7.9,18.6-13.2c7-0.4,13.7-4.5,18.1-10.1c5.3-6.8,7.6-15.3,9-23.8c0.5-3,0.9-6,2.3-8.7
			c3.3-6,11.3-7.8,18-6.5c6.7,1.3,12.7,4.9,19.1,7.4c15.2,5.9,32.8,5.3,47.5-1.6c-4.9-6.1-15.7-5.9-19-13c-2.7-5.8,2-12.7,7.9-15.1
			c5.9-2.3,12.5-1.5,18.8-1.1c14,0.9,29.5-1.4,38.7-11.9c-5-4.1-11.6-5.6-16.8-9.4c-5.2-3.8-8.6-11.8-4.1-16.5
			c2.8-3,7.4-3.1,11.5-3.5c18.1-1.6,35.3-11.6,45.7-26.6c-5-0.5-10-0.9-14.9-2c-17.9-3.9-33.9-16-42.4-32.3
			c-8.5-16.3-9.3-36.3-2.2-53.2c1.1-2.6,2.4-5.2,3.7-7.8c3-0.5,6-1.1,9-1.9c18.2-5.1,34.4-16.8,44.8-32.6
			c5.1-7.7,8.7-16.3,12.2-24.8c4.3-10.6,8.4-21.3,10.8-32.4c2.3-1.2,4.5-2.3,6.8-3.4c9.9-4.5,22-6.1,31.4-0.8
			c9.5,5.4,14.1,19.4,7,27.7c15.4-5.8,27.7-30.2,32.9-45.8c11.2-33.6,0-85.9,0-97.1c0-11.2,5.3-20.3,11.9-34.9
			c21.7-23-1.4-45.6-1.4-45.6s-1.2,9.5-10.6,18.9c-8.7,6.8-18.6,9.4-28,3.7s-15.6-8.3-14.7-19.3c1.4-16.6,15.5-29.3,20.7-45.1
			c3.9-11.9,2.4-25.4-4-36.1c-5.6-9.3-9.5-18.6-17-26.4c-7.5-7.8-13.6-13.5-13.1-24.3c0.2-3.5,1.6-13.7,0-16.8
			c0-28,20.6-26.8,31.2-34.8c6.8-5.2,11.9-12.3,16.2-19.7c3.4-5.8,7.3-8.2,12.3-12.7c5.7-5.2,9.5-6.2,16.8-3.7
			c7.3,2.5,11.2,5.6,9.3,13.1c-1.8,7.1-3.5,11-9.9,14.6c6.4-0.1,16.8-2.4,21.1-7.1c4.3-4.7,6.9-10.9,9.3-16.8
			C638,230.1,636.9,220.2,636.6,216.6z"/>
	</g>
</g>
</svg>
