<?xml version="1.0" encoding="utf-8"?>
<!-- Generator: Adobe Illustrator 22.1.0, SVG Export Plug-In . SVG Version: 6.00 Build 0)  -->
<svg version="1.1" id="图层_1" xmlns="http://www.w3.org/2000/svg" xmlns:xlink="http://www.w3.org/1999/xlink" x="0px" y="0px"
	 viewBox="0 0 500 500" style="enable-background:new 0 0 500 500;" xml:space="preserve">
<g>
	<path d="M250,0C111.9,0,0,111.9,0,250s111.9,250,250,250s250-111.9,250-250S388.1,0,250,0z M250,485C120.2,485,15,379.8,15,250
		S120.2,15,250,15s235,105.2,235,235S379.8,485,250,485z"/>
	<circle cx="187.3" cy="136.8" r="70"/>
	<path d="M448.1,208.4l-34.7,20l-57.5-99.5l37.3-21.5c-46-45.8-111.7-66.1-175.1-55.2c19.1,7,36.1,20.5,47.1,39.6
		c24.9,43,10.1,98.1-32.9,122.9s-98.1,10.1-122.9-32.9c-11-19.1-14.2-40.4-10.7-60.6c-41.2,49.4-56.4,116.4-39.8,179.2l37.3-21.5
		l57.5,99.6l-34.7,20c47.9,42.8,114,60.1,176.8,46.1l-95.4-165.3l103.9-60l95.4,165.3C443.2,337.2,461.3,271.3,448.1,208.4z"/>
</g>
</svg>
