<?xml version="1.0" encoding="utf-8"?>
<!-- Generator: Adobe Illustrator 22.0.1, SVG Export Plug-In . SVG Version: 6.00 Build 0)  -->
<svg version="1.1" id="Layer_3" xmlns="http://www.w3.org/2000/svg" xmlns:xlink="http://www.w3.org/1999/xlink" x="0px" y="0px"
	 viewBox="0 0 856 881" style="enable-background:new 0 0 856 881;" xml:space="preserve">
<g>
	<circle cx="53.5" cy="841.5" r="39.5"/>
	<path d="M161,725c-6.9,1.5-48,41-48,41c-2.6,0.6-15,4-25-3c-19-13-38.4-5.5-42-5c-31.3,4-46,69-46,69c30-30,53-47,83-23
		c31,21,8,70,8,70c5.7,1.9,15.3-8.2,20-18c7.9-16.6,1-39,1-42c18-25,61-57,69-73C181,741,175,722,161,725z"/>
	<path d="M276,609c-101.6-21.8-89-112-40-138C259,453,896,74,854,0c4,2-451,328-461,326c-11,6-6-25-6-25c-117,91-221,177-265,209
		c-43.3,31.5-8,98,18,98s46.2-11.5,73,14c21,20-68,86-68,86c29,6,46,23,46,53C191,761,318,618,276,609z"/>
	<path d="M244,710c17.8,7.4,66,7,66,7l-41-45C269,672,232,705,244,710z"/>
	<path d="M270,664c0,0,14,24,23,24s29,2,52-5c0-3-58-43-58-43L270,664z"/>
	<path d="M403,642c-15-2-139.2-54.2-123-38c8,8,14,16,9,27c-3,6.7,25,24,52,32C367.8,671,415.9,643.7,403,642z"/>
	<path d="M433,591c-11-3-208-47-213-35c-13,19,43.8,45.6,49,44c10-13,89,24,108,16C386.9,611.9,445.8,594.5,433,591z"/>
	<path d="M475,507c-94,28-249-30-261,2c-6.6,14.7,0,33,0,33s159,29,205,23C450,561,471,524,475,507z"/>
	<path d="M265,461c-29.8,17.4-30,26-30,26s148,35,225,4c14.1-16.7,29-74,29-74S303,459,265,461z"/>
	<path d="M484,321c-42,19-67,48-159,98c-22.9,15.6-30.2,20.3-29,25c4.4,17.6,139-19,175-35C492,391,484,321,484,321z"/>
	<path d="M349,670c0,0,5.4,10.5,3,16c-3.3,7.5-19.3,3.5-21,7c-4,8,64,42,117,48c15.9-0.1,51-4,51-4s-56-37-116-71
		C368,672,349,670,349,670z"/>
	<path d="M422,611c3,3-36,11-36,11s39,15,39,21s-29,17-29,17s65,44,115,44s106-64,106-64C579,649,419,608,422,611z"/>
	<path d="M456.8,557.9c2.6-3.8-36.6,22.2-36.6,22.2s35.2,2.9,36.8,8.9c1.7,6-22,12-22,12s91.1,37.5,146.3,21.9S676,539,676,539
		C636.6,559.9,454,562,456.8,557.9z"/>
	<path d="M482,467l-18.6,29.6c0,0,22.6,1.9,25.6,7.4s-21,35-21,35c-6,12,194-7,194-7c47.6-32,109-129,109-129
		C737.2,432,483.8,486.1,482,467z"/>
	<path d="M811,251c-40,45-298.3,129.5-321,146c-1.9,1.4-9.1,6.6-8,11c1,3.8,7.4,3.4,11,7c8.9,8.8-9.7,31.5-6,42c0,0,143-11,259-57
		C789.9,356.9,827,257,811,251z"/>
	<path d="M493,379c37,10,278-105,302-123s56-205,56-205S563,292,493,317C493,317,502,359,493,379z"/>
</g>
</svg>
