<svg id="Layer_2" data-name="Layer 2" xmlns="http://www.w3.org/2000/svg" viewBox="0 0 860 990"><title>Artboard 1</title><polygon points="812.51 156.41 860 0 718.22 81.35 715.12 152.55 631.79 246.95 612.64 231.71 606.7 179.38 528.61 188.25 537.48 266.34 589.8 260.4 607.48 274.48 430 475.52 252.52 274.48 270.2 260.4 322.52 266.34 331.39 188.25 253.3 179.38 247.36 231.71 228.21 246.95 144.88 152.55 141.78 81.35 0 0 47.49 156.41 116.18 175.4 189.49 277.77 170.34 293.01 118.02 287.07 109.15 365.17 187.25 374.03 193.19 321.71 210.87 307.63 375.39 537.39 169.99 770.05 71.92 990 264.27 845.11 430 613.66 595.73 845.11 788.09 990 690.01 770.05 484.62 537.39 649.13 307.63 666.82 321.71 672.76 374.03 750.85 365.17 741.98 287.07 689.66 293.01 670.51 277.77 743.82 175.4 812.51 156.41"/></svg>