<?xml version="1.0" encoding="utf-8"?>
<!-- Generator: Adobe Illustrator 21.0.2, SVG Export Plug-In . SVG Version: 6.00 Build 0)  -->
<!DOCTYPE svg PUBLIC "-//W3C//DTD SVG 1.1//EN" "http://www.w3.org/Graphics/SVG/1.1/DTD/svg11.dtd">
<svg version="1.1"
	 id="svg2" inkscape:export-filename="/home/joe/rocketshipgames/40k/art/aquila/aquila.png" inkscape:export-xdpi="56.491043" inkscape:export-ydpi="56.491043" inkscape:version="0.91+devel r13869" sodipodi:docname="aquila.svg" xmlns:cc="http://creativecommons.org/ns#" xmlns:dc="http://purl.org/dc/elements/1.1/" xmlns:inkscape="http://www.inkscape.org/namespaces/inkscape" xmlns:rdf="http://www.w3.org/1999/02/22-rdf-syntax-ns#" xmlns:sodipodi="http://sodipodi.sourceforge.net/DTD/sodipodi-0.dtd" xmlns:svg="http://www.w3.org/2000/svg"
	 xmlns="http://www.w3.org/2000/svg" xmlns:xlink="http://www.w3.org/1999/xlink" x="0px" y="0px" viewBox="0 0 799.4 293.2"
	 style="enable-background:new 0 0 799.4 293.2;" xml:space="preserve">
<sodipodi:namedview  bordercolor="#666666" borderopacity="1.0" fit-margin-bottom="8" fit-margin-left="8" fit-margin-right="8" fit-margin-top="8" id="base" inkscape:current-layer="layer1" inkscape:cx="785.28928" inkscape:cy="447.78786" inkscape:document-units="mm" inkscape:object-paths="true" inkscape:pageopacity="0.0" inkscape:pageshadow="2" inkscape:snap-global="true" inkscape:snap-page="true" inkscape:zoom="0.57795177" pagecolor="#ffffff" showgrid="false" units="pt">
	</sodipodi:namedview>
<g id="layer1" transform="translate(38.75693,-85.730024)" inkscape:groupmode="layer" inkscape:label="Layer 1">
	<path id="path4245-9" inkscape:connector-curvature="0" d="M-38.8,85.7l25.2,28.7l243.9-10.2c0,0-5.9,6.7-8,12.9L10,137.6
		l20.4,21.2l188-31.1c0,0-2.1,5.3-2.1,11l-161.2,41l20.3,18.4l140.3-52.6c0,0,0,8.5,1.7,12.1L98.3,217.4l18.3,13.3L219.8,166
		c0,0,3,7.6,5.6,10.2l-80,75.2l16.1,11.2l70.2-80.1c1.1,2.5,9.3,7.4,9.3,7.4l-48.5,82c8.9,6,20.2,2.5,20.2,2.5l35.6-82
		c6.9,2.9,11.6,2.3,11.6,2.3L235.2,268c11.6-1.9,17.2-9.1,17.2-9.1l14.9-64.1c5.4,0.6,10.9-0.5,10.9-0.5c-0.4,7.8-8.5,52.3-8.5,52.3
		s18.2-22.7,22.4-24c0,0-6.5-23.7-6.9-29.3c0,0,5.9-0.4,9.7-3.3c0,0,5.1,15.7,5.3,20.8c5.4-4.8,8.8-12.1,8.8-12.1s-3.3-2.8-5.3-13.8
		c0,0,12.2-4.6,14.3,0.3c2.1,4.8,0.1,20-11.7,33c0,0-12.5,19.5-22.8,25.6c5.1-0.4,23.9,6.7,27.6,16.1l29.8-74.5l-21.7-25
		c-36,21.9-79.9,17.2-85.7-0.3c-5.7-17.5-1.2-45.7,14.6-58.1c5.1-4,15.9-8.5,16.8-16.5L-38.8,85.7L-38.8,85.7z M456.9,85.7
		c0.9,8,11.7,12.4,16.8,16.5c15.8,12.4,20.4,40.6,14.6,58.1c-5.7,17.5-49.7,22.3-85.7,0.3l-21.7,25l29.8,74.5
		c3.7-9.4,22.5-16.5,27.6-16.1c-10.4-6.1-22.8-25.6-22.8-25.6c-11.8-13-13.8-28.2-11.7-33c2.1-4.8,14.3-0.3,14.3-0.3
		c-2,11-5.3,13.8-5.3,13.8s3.4,7.3,8.8,12.1c0.2-5.1,5.3-20.8,5.3-20.8c3.7,2.9,9.7,3.3,9.7,3.3c-0.4,5.5-6.9,29.3-6.9,29.3
		c4.2,1.2,22.4,24,22.4,24s-8.1-44.4-8.5-52.3c0,0,5.5,1.1,10.9,0.5l14.9,64.1c0,0,5.6,7.1,17.2,9.1l-24.6-73.3
		c0,0,4.7,0.6,11.6-2.3l35.6,82c0,0,11.3,3.5,20.2-2.5l-48.5-82c0,0,8.2-4.8,9.3-7.4l70.2,80.1l16.1-11.2l-80-75.2
		c2.5-2.5,5.6-10.2,5.6-10.2l103.2,64.7l18.3-13.3l-119.2-59.8c1.7-3.6,1.7-12.1,1.7-12.1l140.3,52.6l20.3-18.4l-161.2-41
		c0-5.8-2.1-11-2.1-11l188,31.1l20.4-21.2l-212.3-20.5c-2.1-6.2-8-12.9-8-12.9l243.9,10.2l25.2-28.7H456.9L456.9,85.7z M400.9,107.1
		l-2.5,3.8l-25.8,0.6l32.2,11.2l2.2,16.7c15.5-8.6,7.9-13.8,27.5-20.8l1.1-6.7l-10.2-0.7l-2.3-1.8L400.9,107.1L400.9,107.1z
		 M284.7,110.3l2.6,8.3c19.6,6.9,12,12.2,27.5,20.8l2.2-16.7l32.2-11.2L284.7,110.3L284.7,110.3z M306.9,113.1
		c3.3,0,5.9,2.6,5.9,5.9c0,3.3-2.6,5.9-5.9,5.9c0,0,0,0,0,0c-3.3,0-5.9-2.6-5.9-5.9c0,0,0,0,0,0C301,115.8,303.6,113.1,306.9,113.1z
		 M287.1,123.2c-4.8,0.1-12.2,2-17.3,3.8c0.6,5.9,3.9,9.8,5.5,14.9c0.6,1.8,1.1,6.8,1.6,9.1c0.6,2.3,2.8,1.5,2.8,1.5
		s-0.8-6.1,3.7-12.4c0,0,16.3-1.8,18.5-5.1c-5.5-3.5-6.9-9-11.2-11.2C290,123.3,288.7,123.1,287.1,123.2L287.1,123.2z M434.7,123.2
		c-1.6,0-2.9,0.1-3.7,0.6c-4.3,2.2-5.7,7.7-11.2,11.2c2.2,3.3,18.5,5.1,18.5,5.1c4.5,6.3,3.7,12.4,3.7,12.4s2.3,0.8,2.8-1.5
		c0.6-2.3,1.1-7.3,1.6-9.1c1.6-5,4.9-8.9,5.5-14.9C446.9,125.1,439.5,123.3,434.7,123.2L434.7,123.2z M334.8,123.5l-10.6,2.9
		l-4.6,18.1l24.9,26.4l12.6-31.4L334.8,123.5L334.8,123.5z M387,123.5l-22.3,16l12.6,31.4l24.9-26.4l-4.6-18.1L387,123.5L387,123.5z
		 M360.9,141.1l-45.5,136.1l20.2,13.1l-19.9,35l8.8,8.2l18-39.6l3.7,2.6L329.1,338l11.3,10l12.2-47.8c2.8-1.3,3.6,0,4,1.8l-9.1,52.7
		l13.5,14l13.5-14l-9.1-52.7c0.3-1.8,1.2-3.1,4-1.8l12.2,47.8l11.3-10l-17.1-41.5l3.7-2.6l18,39.6l8.8-8.2l-19.9-35l20.2-13.1
		L360.9,141.1L360.9,141.1z M404,284.3l-12.9,7.4l22.2,28.9c0,0-2.6,3.1-2.4,4.9c0.1,1.4,2.5,3.6,2.5,3.6l-11.6,13.4
		c0,0-6.9-0.3-9.6,1.2c2.9,2,4,1.9,5,3.7c0.1,3.2-0.4,6.6-0.4,6.6c3.1-1.1,6.1-2.3,9.4-3.2c5.3,1.1,25,11.3,25,11.3
		S416,344.1,415,341.8c0.5-1.8,5.8-7.7,5.8-7.7c1.4-1.7,2.5-1.8,3.5,0.2c0,0,2.6,3.4,3.9,7.9c0.2,0.7-2.8,5-2.5,5.6
		c0.9,1.5,4.8-0.3,5.9,1.1c5.4,6.8,8.2,16.5,8.4,17.6c-1.8,3.7-9,12-9,12s9.8-3.6,14.7-5c2.2-0.6,4.1,5.6,4.1,5.6
		c0.9-1.2,0.9-16.9,0.8-20.2c-1.3-2.7-5.7-9-10.2-15.3c-0.8-1.1,1.7-5.1,1-6.1c-1.1-1.5-4.2,0.3-5.5-0.7c-3.4-2.4-5.3-6.2-5.3-6.2
		c-0.8-1.8,0.2-2.9,1.9-3.2c0,0,5.2-1.1,8.6-1c9.1,14.2,10.9,27.5,10.9,27.5s1.9-23.3,0.3-32.1c0,0,7-5,6.6-6.3
		c-0.3-1-7.3,0.2-7.3,0.2l-1.3-4.8c-0.4-1.6-1.7-1.8-2.4,0.1l-1.7,5.5l-17.4,3.4c-1.1,0.4-0.1-3.1-1.8-4.6c-1.2-1-5.4,0.1-5.6-0.5
		L404,284.3L404,284.3z M317.4,284.6l-20.1,35c-0.6,1.5-1.9,1.5-3.8,0.9l-25.1-4.9l0.9,36.7c0,0,1.5-12.6,10.7-26.8l9.4,1.6
		c1.7,0.3,2.6,1.4,1.9,3.2c0,0-19.6,22.7-22.4,28.3c-0.2,3.3,1.2,11.9,2.1,13.1c0,0,3.6,0,5.8,0.6c4.9,1.4,14,5.9,14,5.9
		s-8.8-9.1-10.7-12.8c0.5-2.1,16.6-32.3,16.6-32.3c1.1-2,3-0.9,4.4,0.8c0,0,5.1,5.4,5.5,7.3c-1.1,2.3-16.3,20.1-16.3,20.1l32.6-15.8
		l-16.1-18.6c-2-2.1-1.9-2.3-0.3-4.9l23.5-30.3L317.4,284.6z"/>
</g>
</svg>
