<?xml version="1.0" encoding="utf-8"?>
<!-- Generator: Adobe Illustrator 22.1.0, SVG Export Plug-In . SVG Version: 6.00 Build 0)  -->
<svg version="1.1" id="Layer_2_copy" xmlns="http://www.w3.org/2000/svg" xmlns:xlink="http://www.w3.org/1999/xlink" x="0px"
	 y="0px" viewBox="0 0 1000 1000" style="enable-background:new 0 0 1000 1000;" xml:space="preserve">
<g>
	<path d="M479.4,184.5c-95.5,0-172.9,77.4-172.9,172.9S384,530.3,479.4,530.3s172.9-77.4,172.9-172.9S574.9,184.5,479.4,184.5z
		 M479.4,233.3c29.6,0,56.7,10.4,78,27.6l-28,28c-14.4-10.9-32.4-17.5-51.9-17.5c-18.5,0-35.7,5.9-49.7,15.9l-26.4-26.4
		C422.7,243.7,449.9,233.3,479.4,233.3z M527.4,357.4c0,27.5-22.3,49.8-49.8,49.8s-49.8-22.3-49.8-49.8c0-27.5,22.3-49.8,49.8-49.8
		S527.4,329.9,527.4,357.4z M355.3,357.4c0-29,10-55.7,26.7-76.9l26.2,26.2c-10.4,14.2-16.6,31.7-16.6,50.7
		c0,19.5,6.5,37.4,17.4,51.8l-26.2,26.2C365.7,414,355.3,386.9,355.3,357.4z M479.4,481.5c-29.1,0-55.8-10-76.9-26.7l26.5-26.5
		c13.8,9.5,30.5,15.1,48.6,15.1c18.9,0,36.4-6.1,50.6-16.5l28.1,28.1C535.1,471.5,508.4,481.5,479.4,481.5z M575.8,435.5l-28.3-28.3
		c10-14.1,15.9-31.2,15.9-49.8c0-18-5.5-34.7-15-48.5l28.4-28.4c16.7,21.1,26.7,47.8,26.7,76.8C603.5,387,593.1,414.2,575.8,435.5z"
		/>
	<path d="M662.4,492.8l48.7,13.2l-32.6-38.3c13.7-24.7,22.9-52.3,26.7-81.6l88.8-27.9l-88.4-26.6c-3.5-31.9-13.6-61.8-28.8-88.3
		l34.4-36.8l-48,15.9c-17-23.4-38.4-43.4-62.9-59l9.4-59.8l-27.9,30.8c0.3-12,3-33.1,17.4-53.2c32.4-45.4,92.9-41,96.3-40.6
		c0-13.6,0-27,0-40.6H482.2h-3.7H265.1c0,13.6,0,27,0,40.6c3.5-0.3,64-4.8,96.3,40.6c15.9,22.3,17.4,46.1,17.4,56.9v5.3l-36-39.7
		l9.8,61.6c-23.6,15.5-44.1,35.1-60.6,58l-50.6-16.9l36.5,39.1c-14.3,25.7-23.9,54.4-27.4,85l-91.9,27.6l92.4,29
		c3.7,27.9,12.4,54.2,25.1,78L241.4,506l51.7-13.9c16.4,22.4,36.7,41.7,60,56.9l-10.2,64c0,0,20.3-19.2,38.3-37.1v2.3
		c-0.8,91.4-1.5,182.6-2.3,273.9c0.5,7.7,1.7,39.3-20.9,66.2c-21.8,25.9-57.6,37.4-92.9,30.2v46.4h213.5h3.7h213.5v-46.4
		c-35.3,7.2-71-4.3-92.9-30.2c-22.6-26.8-21.4-58.5-20.9-66.2c-0.8-89.4-1.5-178.8-2.3-268.1c15.4,15.2,30.2,29,30.2,29l-7.3-63.6
		C625.7,534.2,646,515,662.4,492.8z M668.3,357.4c0,106-85.9,192-192,192s-192-85.9-192-192s85.9-192,192-192
		S668.3,251.4,668.3,357.4z"/>
</g>
</svg>
