<?xml version="1.0" encoding="utf-8"?>
<!-- Generator: Adobe Illustrator 21.0.2, SVG Export Plug-In . SVG Version: 6.00 Build 0)  -->
<!DOCTYPE svg PUBLIC "-//W3C//DTD SVG 1.1//EN" "http://www.w3.org/Graphics/SVG/1.1/DTD/svg11.dtd">
<svg version="1.1" id="Layer_1" xmlns="http://www.w3.org/2000/svg" xmlns:xlink="http://www.w3.org/1999/xlink" x="0px" y="0px"
	 viewBox="0 0 485.1 671.4" style="enable-background:new 0 0 485.1 671.4;" xml:space="preserve">
<g>
	<path d="M482,563.6c-36.1-55.2-72.5-110.1-108.4-165.3c-4.7-7.2-9.8-9.7-18.1-9.7c-18.8,0.1-37.7,0.2-56.5,0.2s-37.7,0-56.5,0
		c-18.8,0-37.7,0-56.5,0s-37.7,0-56.5-0.1c-6.8,0-11.9,1.2-16.2,7.6C76.8,451.5,39.9,506.5,3.4,561.8c-2.3,3.5-4.4,9.6-2.8,12.3
		c1.7,2.9,7.9,4.2,12.1,4.2c42.4,0.3,84.8,0.1,127.2,0.3c4.3,0,9.3-0.1,12.7,2c21.9,13.7,44.9,26.3,60.3,48
		c8.8,12.3,16.7,25.2,25.1,37.8c4.5,6.7,10.1,6.8,12.8,0c15.1-38.4,43.9-63.5,79-82.5c6.2-3.3,13-5.1,20-5.1
		c41.4-0.4,82.9-0.1,124.3-0.4c2.8,0,5.6-1,8.4-2c1.9-0.7,3-2.7,2.5-4.7C484.3,568.9,483.5,566,482,563.6z"/>
	<path d="M366.7,229.5c-8.9-1.1-15.2-5.8-20-13.5c-11.2-18.1-11.9-18.3-25.2-0.7c-11.8,15.5-26.3,24.3-45.9,21.2
		c-19.5-3.1-38.8-7.2-58-11.6c-8.2-1.9-12.9-0.4-14.6,8.4c-1,5.6-3.2,11-4.2,16.6c-5.6,31.1-25.6,45.8-55.6,48.9
		c-8.3,0.9-16.8,0.9-25.1,0.6c-9.4-0.4-18.7-2-28.1-2.5c-8.8-0.4-12,4.5-7.9,11.9c10.7,19.5,21.5,38.9,32.8,58
		c1.9,3.2,6.5,5.8,10.1,5.8c38.3,0.4,76.7,0.3,115,0.3c0-0.1,0-0.2,0-0.3c38,0,76,0,114,0c5.1,0,9.2,0.1,11.3-6.9
		c11.2-38,23.1-75.8,34.8-113.7c6-19.3,6-19.2-14.4-20.2C379.4,231.5,373,230.3,366.7,229.5z"/>
	<path d="M43.9,207.5c4.9,17,11,33.8,17.4,50.3c6,15.4,18.4,23.9,34.3,26.3c10.6,1.6,21.4,2.6,32.1,2.1c35.1-1.9,47.5-11.7,58.5-45
		c3.4-10.5,6.3-21.1,9.6-32.3c3.8,0.9,6.9,1.8,10.2,2.3c23.8,3.8,47.5,7.9,71.4,11c11,1.4,21.1-3.2,27.3-12.3
		c7.1-10.4,12.9-21.8,18.4-33.2c0.9-1.8-1.7-6.9-4-8.3c-6.6-3.9-13.7-6.9-20.8-9.9c-43.4-18.6-86.7-37.3-130.2-55.5
		c-3.3-1.4-9.3-0.4-12.1,1.9c-36,29.3-71.7,58.9-107.1,88.9C45.5,196.6,42.8,203.6,43.9,207.5z"/>
	<path d="M345.8,167.3c0,8.1-0.3,16.1,0.1,24.2c0.8,16.9,15.6,27,38.8,25.3c5.6-0.4,13.5-3.8,15.8-8.2
		c14.3-27.9,29.4-55.6,40.6-84.8c9.2-24.2-2.1-51.8-26-61.7c-22.8-9.4-41.1-3-50.3,18.5C352.9,108.1,344.8,136.7,345.8,167.3z"/>
	<path d="M62.1,143.6c3.6,8.6,7.7,9.6,15.5,3.5c19.8-15.6,39.4-31.4,58.8-47.5c2.5-2.1,5.4-6.1,5.1-9c-1.8-24.3-7-47.8-17.5-69.9
		C119.3,10.5,110.8,5.2,99.5,8C86,11.4,72.5,15.4,59.6,20.8c-15.3,6.3-21,19-19.1,32.1C42.8,86.5,50.4,115.6,62.1,143.6z"/>
	<path d="M263.3,125.3C263.3,125.3,263.3,125.3,263.3,125.3c18.4,8.1,36.7,16.4,54.9,24.7c0.3,0.1,0.5,0.2,0.8,0.3
		c0.2,0.1,0.4,0.2,0.6,0.2c0.4,0.1,0.7,0.2,1,0.3c0.1,0,0.3,0.1,0.4,0.1c0.5,0.1,0.9,0.2,1.3,0.3c0.1,0,0.2,0,0.3,0
		c0.3,0.1,0.6,0.1,1,0.1c0.1,0,0.3,0,0.4,0c0.2,0,0.5,0,0.7,0c0.2,0,0.3,0,0.4-0.1c0.2,0,0.4-0.1,0.6-0.1c0.1,0,0.3-0.1,0.4-0.1
		c0.2-0.1,0.4-0.1,0.6-0.2c0.1-0.1,0.3-0.1,0.4-0.2c0.2-0.1,0.3-0.2,0.5-0.3c0.1-0.1,0.3-0.2,0.4-0.2c0.2-0.1,0.3-0.2,0.5-0.3
		c0.1-0.1,0.2-0.2,0.4-0.3c0.1-0.1,0.3-0.3,0.4-0.4c0.1-0.1,0.2-0.2,0.3-0.4c0.1-0.2,0.3-0.3,0.4-0.5c0.1-0.1,0.2-0.3,0.3-0.4
		c0.1-0.2,0.2-0.4,0.4-0.6c0.1-0.2,0.2-0.3,0.3-0.5c0.1-0.2,0.2-0.5,0.3-0.7c0.1-0.2,0.1-0.3,0.2-0.5c0.1-0.3,0.2-0.6,0.3-0.9
		c0.1-0.1,0.1-0.3,0.2-0.4c0.2-0.5,0.3-0.9,0.5-1.4c3.8-13.6,8.8-26.9,11.5-40.7c3.3-16.1,5.3-32.4,6.8-48.8
		c1-11.7-5.2-19.6-16.3-23.8c-15.1-5.8-30.7-7.5-46.5-4.8c-15.9,2.7-25.4,11.8-28,27.6c-2,12.2-2.8,24.7-4.5,39.8c0,0.9,0,1.9,0,2.9
		c0,2.5,0.1,5.3,0.1,8.4c0,0.5,0,0.9,0,1.4c0,1.2,0,2.5-0.1,3.8c0,0.2,0,0.4,0,0.6c0,0.8-0.1,1.6-0.1,2.4c0,0,0,0,0,0
		C254.7,118.5,257,122.6,263.3,125.3z"/>
	<path d="M171.5,87c19.2,8.8,38.8,16.9,58.1,25.4c7.5,3.3,10.6,0.4,11.7-6.8c3.8-24,5.3-48,0.3-72.1C236.3,7.6,227.6,0,201.2,0
		c-33.8,0-40.8,7.1-40.7,46c0.7,7.1,1.5,19.6,3.6,31.8C164.6,81.3,168.2,85.5,171.5,87z"/>
</g>
</svg>
