<?xml version="1.0" encoding="utf-8"?>
<!-- Generator: Adobe Illustrator 21.0.2, SVG Export Plug-In . SVG Version: 6.00 Build 0)  -->
<!DOCTYPE svg PUBLIC "-//W3C//DTD SVG 1.1//EN" "http://www.w3.org/Graphics/SVG/1.1/DTD/svg11.dtd">
<svg version="1.1" id="skull" xmlns="http://www.w3.org/2000/svg" xmlns:xlink="http://www.w3.org/1999/xlink" x="0px" y="0px"
	 viewBox="0 0 1000 1000" style="enable-background:new 0 0 1000 1000;" xml:space="preserve">
<g>
	<path d="M769.1,423.6v-54.8h-52.4c-1.9-13.1-5.1-25.8-9.6-37.9h39.4v-54.8h-71.3c-12-14.3-26.1-26.7-41.9-36.9l0.5-90.9
		c0-10.5,1.5-33.7,17-55.4c31.5-44.3,90.5-39.9,93.9-39.6c0-13.2,0-26.4,0-39.6H533.1H533H321.5c0,13.2,0,26.4,0,39.6
		c3.4-0.3,62.4-4.7,93.9,39.6c15.5,21.8,17,44.9,17,55.4l0.5,90.9c-15.8,10.1-29.9,22.6-41.9,36.9h-71.3V331H359
		c-4.5,12.1-7.7,24.7-9.6,37.9H297v54.8h52.6c2,13.1,5.4,25.8,10,37.9h-39.9v54.8h72.5c12.2,14.2,26.4,26.5,42.3,36.4l0.1,24.4
		c-0.8,89-1.5,178-2.3,266.9c0.5,7.5,1.7,38.4-20.4,64.5c-21.3,25.3-56.1,36.4-90.5,29.4v45.2H533h0.1h211.5v-45.2
		c-34.4,7-69.2-4.2-90.5-29.4c-22-26.1-20.9-57-20.4-64.5c-0.8-89-1.5-178-2.3-266.9l0.1-24.4c15.9-10,30.1-22.3,42.3-36.4h72.5
		v-54.8h-39.9c4.6-12.1,8-24.7,10-37.9H769.1z M533,548.6c-83.6,0-151.4-67.8-151.4-151.4S449.4,245.8,533,245.8
		s151.4,67.8,151.4,151.4S616.6,548.6,533,548.6z"/>
	<path d="M623.9,326.8c-16.4-48-65-55.5-86-56.4c0,0-1.8-0.1-4.8-0.1c0,0,0,0-0.1,0s0,0-0.1,0c-3.1,0-4.8,0.1-4.8,0.1
		c-21,1-69.5,8.5-85.9,56.4c-14,40.9,12.5,87.2,7.1,93.4c-21.6,25,7.8,64.6,11.8,67.9c7.2,5.9,30.2-6.1,26.6,0.1
		c-2.7,4.7-5.3,40.1-5.3,40.1h7.1l3.4-12.3l6.1-0.1l1.2,12.4h12.4l1.2-11.8l4.1-0.6l0.6,12.4h10.1l0.5-12.7h8.2l0.5,12.7h10.1
		l0.6-12.4l4.1,0.6l1.2,11.8H566l1.2-12.4l6.1,0.1l3.4,12.3h7.1c0,0-2.5-35.4-5.3-40.1c-3.6-6.2,19.3,5.7,26.6-0.1
		c4-3.3,33.3-42.9,11.8-67.9C611.4,413.9,637.9,367.7,623.9,326.8z M519.7,446c-2.8,3.2-6.9,6.9-12.4,10
		c-13.2,7.5-26.4,6.4-31.7,5.7c-0.4,0-0.7-0.2-1-0.4c-11.6-7.3-16-18.8-12.6-25.9c0.5-1.1,2.5-4.7,8.6-6.9c0.4-0.1,0.7-0.2,1.1-0.2
		c7.3,0.7,16.4,2.1,26.5,5.3c8.2,2.5,15.1,5.6,20.8,8.6C520.4,442.9,520.7,444.8,519.7,446z M547.4,489.3c0,0.8-1.1,1.1-1.6,0.5
		c-1.2-1.6-3-3.4-5.3-5.1c-2.5-1.8-4.8-2.9-6.6-3.6c-1.8,0.7-4.2,1.8-6.6,3.6c-2.3,1.7-4,3.5-5.3,5.1c-0.5,0.6-1.5,0.3-1.6-0.5
		c-0.4-6.1-0.1-18.4,9-27.4c1.2-1.2,2.7-2.2,4.5-3.2c1.8,1,3.3,2,4.5,3.2C547.5,470.9,547.8,483.3,547.4,489.3z M591.8,461.3
		c-0.3,0.2-0.6,0.3-1,0.4c-5.3,0.7-18.4,1.8-31.7-5.7c-5.5-3.1-9.6-6.8-12.4-10c-1.1-1.2-0.7-3.1,0.7-3.8c5.7-3,12.7-6.1,20.8-8.6
		c10.1-3.2,19.2-4.6,26.5-5.3c0.4,0,0.7,0,1.1,0.2c6.1,2.2,8,5.9,8.6,6.9C607.8,442.5,603.4,454,591.8,461.3z"/>
</g>
</svg>
