<?xml version="1.0" encoding="utf-8"?>
<!-- Generator: Adobe Illustrator 21.0.2, SVG Export Plug-In . SVG Version: 6.00 Build 0)  -->
<!DOCTYPE svg PUBLIC "-//W3C//DTD SVG 1.1//EN" "http://www.w3.org/Graphics/SVG/1.1/DTD/svg11.dtd">
<svg version="1.1" xmlns="http://www.w3.org/2000/svg" xmlns:xlink="http://www.w3.org/1999/xlink" x="0px" y="0px"
	 viewBox="0 0 377.3 857" style="enable-background:new 0 0 377.3 857;" xml:space="preserve">
<style type="text/css">
	.st0{font-family:'MyriadPro-Regular';}
	.st1{font-size:12px;}
	.st2{display:none;}
	.st3{display:inline;}
</style>
<g id="Layer_3">
	<text transform="matrix(1 0 0 1 243.8164 413)" class="st0 st1">Adeptus Ministorum</text>
	<path d="M377.3,280.4v-48.4H277.1l0.6-112.9c0-9.3,1.3-29.8,15-49c27.9-39.1,80-35.3,83-35c0-11.7,0-23.3,0-35h-187h-0.1H1.6
		c0,11.7,0,23.3,0,35c3-0.3,55.1-4.1,83,35c13.7,19.2,15,39.7,15,49l0.6,112.9H0v48.4h100.5l0.2,33.5H0v48.4h100.9l0.2,33.5H0v48.4
		h101.3l0.3,53.8c-0.7,78.7-1.3,157.3-2,236c0.4,6.6,1.5,33.9-18,57c-18.8,22.3-49.6,32.2-80,26v40h187h0.1h187v-40
		c-30.4,6.2-61.2-3.7-80-26c-19.5-23.1-18.4-50.4-18-57c-0.7-78.7-1.3-157.3-2-236l0.3-53.8h101.3v-48.4H276.3l0.2-33.5h100.9v-48.4
		H276.7l0.2-33.5H377.3z"/>
</g>
<g id="skull" class="st2">
	<path class="st3" d="M275.7,228.5c-16.4-48-65-55.5-86-56.4l0,0c0,0-1.8-0.1-4.8-0.1c0,0,0,0-0.1,0s0,0-0.1,0
		c-3.1,0-4.8,0.1-4.8,0.1l0,0c-21,1-69.5,8.5-85.9,56.4c-14,40.9,12.5,87.2,7.1,93.4c-21.6,25,7.8,64.6,11.8,67.9
		c7.2,5.9,30.2-6.1,26.6,0.1c-2.7,4.7-5.3,40.1-5.3,40.1h7.1l3.4-12.3l6.1-0.1l1.2,12.4h12.4l1.2-11.8l4.1-0.6l0.6,12.4h10.1
		l0.5-12.7h8.2l0.5,12.7h10.1l0.6-12.4l4.1,0.6l1.2,11.8h12.4l1.2-12.4l6.1,0.1l3.4,12.3h7.1c0,0-2.5-35.4-5.3-40.1
		c-3.6-6.2,19.3,5.7,26.6-0.1c4-3.3,33.3-42.9,11.8-67.9C263.2,315.7,289.7,269.4,275.7,228.5z M171.5,347.8
		c-2.8,3.2-6.9,6.9-12.4,10c-13.2,7.5-26.4,6.4-31.7,5.7c-0.4,0-0.7-0.2-1-0.4c-11.6-7.3-16-18.8-12.6-25.9c0.5-1.1,2.5-4.7,8.6-6.9
		c0.4-0.1,0.7-0.2,1.1-0.2c7.3,0.7,16.4,2.1,26.5,5.3c8.2,2.5,15.1,5.6,20.8,8.6C172.2,344.7,172.5,346.6,171.5,347.8z M199.2,391.1
		c0,0.8-1.1,1.1-1.6,0.5c-1.2-1.6-3-3.4-5.3-5.1c-2.5-1.8-4.8-2.9-6.6-3.6c-1.8,0.7-4.2,1.8-6.6,3.6c-2.3,1.7-4,3.5-5.3,5.1
		c-0.5,0.6-1.5,0.3-1.6-0.5c-0.4-6.1-0.1-18.4,9-27.4c1.2-1.2,2.7-2.2,4.5-3.2c1.8,1,3.3,2,4.5,3.2
		C199.3,372.6,199.6,385.1,199.2,391.1z M243.6,363.1c-0.3,0.2-0.6,0.3-1,0.4c-5.3,0.7-18.4,1.8-31.7-5.7c-5.5-3.1-9.6-6.8-12.4-10
		c-1.1-1.2-0.7-3.1,0.7-3.8c5.7-3,12.7-6.1,20.8-8.6c10.1-3.2,19.2-4.6,26.5-5.3c0.4,0,0.7,0,1.1,0.2c6.1,2.2,8,5.9,8.6,6.9
		C259.6,344.3,255.2,355.8,243.6,363.1z"/>
</g>
</svg>
