<?xml version="1.0" encoding="utf-8"?>
<!-- Generator: Adobe Illustrator 22.0.1, SVG Export Plug-In . SVG Version: 6.00 Build 0)  -->
<svg version="1.1" id="Layer_5" xmlns="http://www.w3.org/2000/svg" xmlns:xlink="http://www.w3.org/1999/xlink" x="0px" y="0px"
	 viewBox="0 0 865.6 994.6" style="enable-background:new 0 0 865.6 994.6;" xml:space="preserve">
<g>
	<path d="M432.8,0L0,432.8l192.5,192.4l6.3,135.4l227.3,234.1l258.2-243.5v-137l181.4-181.4L432.8,0z M658,593.7l-1.6,146.9
		L429.2,960L225,754.3l-9.4-142.7L37.1,430L433.9,35.3L829.6,430L658,593.7z"/>
	<circle cx="430.3" cy="902.3" r="19.9"/>
	<circle cx="421.9" cy="84.6" r="23.1"/>
	<circle cx="86" cy="432.1" r="22"/>
	<circle cx="769.3" cy="425.8" r="24.1"/>
	<path d="M650.2,401.7H609l0.8-20h-10.5c-3.8-25.9-11.2-49.2-21.8-69.6l23.3-23.3l19.4,19.4v-65.1h-65.1l17.9,17.9L555.2,279
		c-25.7-29.9-61.2-49.6-105-57.1v-32.8h42.9l-67.5-67.5L358,189.1h42.9v32.7c-43.7,7.6-75.6,28-97.8,59l-18.2-18.2l19.4-19.4h-65.1
		v65.1l17.9-17.9l26.4,26.4c-7.9,19.3-13.5,41-17,65H256l0.8,20h-47.6v-35.5l-67.5,67.5l67.5,67.5v-36.6h50l2.1,54.5l-22,21
		c28.3,22,52.8,37.8,60.9,53.5c9.4-16.8,25.7-24.9,27.3-26.2l0.5,8.1l-48.7,48.7l-17.9-17.9v65.1h65.1L306.9,652l24-24l4.9,85.4
		l-26.2,17.8l122.8,106.1l0,0.9l0.5-0.5l0.5,0.5l0-0.9l122.8-106.2L530,713.4l5-87.5l20.2,20.2L537.3,664h65.1V599L583,618.4l-45-45
		l0.3-6c1.5,1.3,17.8,9.4,27.3,26.2c8.1-15.7,32.5-31.5,60.9-53.5l-22-21l2.1-54.5h43.7v36.6l67.5-67.5l-67.5-67.5V401.7z
		 M386.2,743.8L374.6,727V590.6l11.5,3.1V743.8z M356.8,526.5c-20.2,6.1-47.7-0.3-56.7-19.9c-5.4-11.9-3.2-26.9,4.2-36.7
		c19.9-26.5,71.4-9.4,89.2,3.1C388.3,480.3,382.6,518.7,356.8,526.5z M412.4,731.2l-10.5,5.2V593.7h10.5V731.2z M435.5,731.2h-9.4
		V593.7h9.4V731.2z M460.7,736.4l-10.5-5.2V593.7h10.5V736.4z M488,727l-11.5,16.8V593.7l11.5-3.1V727z M562.6,506.6
		c-8.9,19.6-36.5,26-56.7,19.9c-25.9-7.8-31.5-46.2-36.7-53.5c17.8-12.6,69.3-29.7,89.2-3.1C565.8,479.7,568.1,494.7,562.6,506.6z"
		/>
</g>
</svg>
