<?xml version="1.0" encoding="utf-8"?>
<!-- Generator: Adobe Illustrator 21.0.2, SVG Export Plug-In . SVG Version: 6.00 Build 0)  -->
<!DOCTYPE svg PUBLIC "-//W3C//DTD SVG 1.1//EN" "http://www.w3.org/Graphics/SVG/1.1/DTD/svg11.dtd">
<svg version="1.1" xmlns="http://www.w3.org/2000/svg" xmlns:xlink="http://www.w3.org/1999/xlink" x="0px" y="0px"
	 viewBox="0 0 1000 1000" style="enable-background:new 0 0 1000 1000;" xml:space="preserve">
<style type="text/css">
	.st0{display:none;}
	.st1{stroke:#000000;stroke-miterlimit:10;}
</style>
<g id="Layer_1" class="st0">
	
		<image style="display:inline;overflow:visible;" width="310" height="239" xlink:href="Iron_Hands_Livery.jpg"  transform="matrix(3.0812 0 0 3.0812 8.633 196.7039)">
	</image>
</g>
<g id="Layer_2">
	<path class="st1" d="M473.6,979.3L304.3,856.7l57.3-119.9l-68-8v-6.7l75.9-12v-10.7l-41.7-74.1c-1.1-2.1-0.5-4.6,1.3-6l13.8-7.8
		l-52.7-160.1l12.8-7.8l-29.3-123.9l8-5.3l-12.2-66.7l4.2-2.5l-3.4-42.1l23.3-12.7l9.7,48.3l8.1,0.6l9.5,64.4l11.8-0.5L359,401
		l-10.7-122.6l9.3-1.3l-8-78.6h8l1.3-62.6l25.3-4l6.7,66.6l8,1.3l2.7,70.6h8l17.3,93.3l2.7-119.9h9.3l-2.7-82.6h6.7l6.7-60h28.8
		l1.8,56h7.6l-0.9,86.3l9.7,0.3v154.6l13-126.6l10.2,1.3v-86.6l8.7-0.3l2.5-61.8l28,3.5l3.7,59.1l5.3,2.2l2.8,85.6l7.9,2.7
		L572.2,409c0,0,14.7,5.3,14.7,25.3s36-69.3,36-69.3v-56c0,0,16-28,25.3-25.3c9.3,2.7,18.7,81.3,18.7,81.3s8,0,10.7,9.3
		c2.7,9.3-30.6,90.6-30.6,90.6s4,4,1.3,17.3s-46.6,125.3-46.6,125.3s20,5.3,21.3,14.7c1.3,9.3-41.3,78.6-41.3,78.6l70.6,17.3v10.7
		l-69.9,10.8l56.6,115.7L473.6,979.3z"/>
</g>
</svg>
