<?xml version="1.0" encoding="utf-8"?>
<!-- Generator: Adobe Illustrator 21.0.2, SVG Export Plug-In . SVG Version: 6.00 Build 0)  -->
<!DOCTYPE svg PUBLIC "-//W3C//DTD SVG 1.1//EN" "http://www.w3.org/Graphics/SVG/1.1/DTD/svg11.dtd">
<svg version="1.1" id="Layer_2" xmlns="http://www.w3.org/2000/svg" xmlns:xlink="http://www.w3.org/1999/xlink" x="0px" y="0px"
	 viewBox="0 0 772 865.5" style="enable-background:new 0 0 772 865.5;" xml:space="preserve">
<path d="M771.4,734.5V585.3l-0.4-0.4L639,432.2h132V274.6H519.8l101.1-117H771V0H489.4L382.5,123.8L279,0H0v157.6h144.7l101.1,117H0
	v157.6h132L1.7,582.9l-1.7,0v151.6v27v104h100.8V761.8l66.6,0.2v103.4h100.8V762.3l66.6,0.2v102.9h100.8V762.9l66.6,0.2v102.4h100.8
	V763.4l65.1,0.2v101.9H772l-0.7-101.6l0.1,0v-2.4l0.6-27H771.4z M237.6,583.7l145.9-161.5l150.7,162.4L237.6,583.7z"/>
<path d="M534.2,584.6"/>
</svg>
