<?xml version="1.0" encoding="utf-8"?>
<!-- Generator: Adobe Illustrator 22.0.1, SVG Export Plug-In . SVG Version: 6.00 Build 0)  -->
<svg version="1.1" id="Layer_1" xmlns="http://www.w3.org/2000/svg" xmlns:xlink="http://www.w3.org/1999/xlink" x="0px" y="0px"
	 viewBox="0 0 1000 849.9" style="enable-background:new 0 0 1000 849.9;" xml:space="preserve">
<g>
	<path d="M431.3,579.7c-0.5,0-0.9,0-1.4,0s-0.5,0-0.9,0.3c-0.3,0.2-0.6,0.5-1.2,0.8c-4.9,2.7-6.6,12-5,26c2.9,2.5,6.5,5.2,10.6,8
		c0.1-9.1,1.3-22.4,1.3-22.4l0.3-12.3C433.7,579.6,432.6,579.7,431.3,579.7z"/>
	<g>
		<path d="M546.3,617l-0.2-6.8c-0.6-6.5-2.3-10.8-5.4-12.4c-0.6-0.3-0.9-0.6-1.2-0.8c-0.5-0.3-0.5-0.3-0.9-0.3c-0.5,0-0.9,0-1.4,0
			c-1.4,0-2.5-0.2-3.7,0.5l0.3,20.1c0.3,2.6,0.3,5.4,0.2,8.1l0.1,8c3.7-1.8,7.5-3.7,11.1-5.8C545.8,623.8,546.2,620.2,546.3,617z"/>
		<path d="M530.9,625.3l-0.2-7.5c-0.6-6.1-2.5-10.5-5.4-12c-0.6-0.3-0.9-0.6-1.2-0.8c-0.5-0.3-0.5-0.3-0.9-0.3s-0.9,0-1.4,0
			c-1.4,0-2.5-0.2-3.7,0.5l0.6,35c3.6-1.3,7.3-2.9,11.2-4.7C530.5,631.8,530.8,628.4,530.9,625.3z"/>
		<g>
			<path d="M510.8,606.9c-0.6-0.3-0.9-0.6-1.2-0.8c-0.5-0.3-0.5-0.3-0.9-0.3c-0.5,0-0.9,0-1.4,0c-1.4,0-4.7-0.6-5.9,0v39.1
				c3.1-0.5,9-3.5,13.4-5.1c0.2-1.3,0.4-2.5,0.6-3.7l-0.4-23.3C514,609.9,512.6,607.8,510.8,606.9z"/>
			<path d="M690.4,508c-4-14.4-6.1-21.5-9.2-29.2c-9.7-23.7-8.8-55-3.1-75.3c7.7-27.7,7.7-73.8,0-113.7
				c-17.4-61.9-135.3-96.8-178.3-95.3c-43-1.5-160.9,33.4-178.3,95.3c-7.7,40-7.7,86.1,0,113.7c5.7,20.3,6.6,51.6-3.1,75.3
				c-3.1,7.7-5.2,14.8-9.2,29.2c-5.1,18.1-5.1,21.8-3.1,24.6c1.1,1.5,30.7,9.2,38.4,7.7c7.7-1.5,33.2-6.8,44.6-4.6
				c17.1,3.2,29,11.4,30.7,27.7c1.5,15.4-4.6,20.7-4.6,33.8c0,1.7,1.6,4.1,4.3,6.8c-1-11.3,0.1-22.3,6.9-26c0.5-0.2,0.8-0.5,1.1-0.6
				c0.9-0.6,1.4-0.9,2.8-0.9c0.5,0,0.8,0,1.2,0c1.8-0.2,3.8-0.2,6.1,1.4l0.6,0.5l-0.2,9.1c0.6-0.6,1.4-1.1,2.2-1.5
				c0.5-0.2,0.8-0.5,1.1-0.6c0.9-0.6,1.4-0.9,2.8-0.9c0.5,0,0.8,0,1.2,0c1.8-0.2,3.8-0.2,6.1,1.4l0.6,0.5l-0.3,12.4
				c0.9-1.5,2.2-2.8,3.7-3.5c0.5-0.2,0.8-0.5,1.1-0.6c0.9-0.6,1.4-0.9,2.8-0.9c0.5,0,0.8,0,1.2,0c1.8-0.2,3.8-0.2,6.1,1.4l0.6,0.5
				l-0.2,10.9c0.9-1.5,2.2-2.8,3.7-3.5c0.5-0.2,0.8-0.5,1.1-0.6c0.9-0.6,1.4-0.9,2.8-0.9c0.5,0,0.8,0,1.2,0c1.8-0.2,3.8-0.2,6.1,1.4
				l0.8,0.3l-0.1,4.6c1.1-2.1,2.5-3.7,4.3-4.7c5-2.7,8.7-1.4,13,1.5l0,0l0.8-0.3c2.3-1.5,4.3-1.5,6.1-1.4c0.5,0,0.8,0,1.2,0
				c1.4,0,1.8,0.3,2.8,0.9c0.3,0.2,0.6,0.5,1.1,0.6c1,0.5,1.9,1.3,2.7,2.2l-0.1-3.1l0.8-0.3c2.3-1.5,4.3-1.5,6.1-1.4
				c0.5,0,0.8,0,1.2,0c1.4,0,1.8,0.3,2.8,0.9c0.3,0.2,0.6,0.5,1.1,0.6c1.5,0.8,2.8,2,3.7,3.5l-0.2-10.9l0.6-0.5
				c2.3-1.5,4.3-1.5,6.1-1.4c0.5,0,0.8,0,1.2,0c1.4,0,1.8,0.3,2.8,0.9c0.3,0.2,0.6,0.5,1.1,0.6c1.5,0.8,2.8,2,3.7,3.5l-0.3-12.4
				l0.6-0.5c2.3-1.5,4.3-1.5,6.1-1.4c0.5,0,0.8,0,1.2,0c1.4,0,1.8,0.3,2.8,0.9c0.3,0.2,0.6,0.5,1.1,0.6c0.8,0.5,1.5,0.9,2.2,1.5
				l-0.2-9.1l0.6-0.5c2.3-1.5,4.3-1.5,6.1-1.4c0.5,0,0.8,0,1.2,0c1.4,0,1.8,0.3,2.8,0.9c0.3,0.2,0.6,0.5,1.1,0.6
				c7.1,3.9,8,15.9,6.7,27.8c4-3.6,6.4-6.7,6.4-8.8c0-13.1-6.1-18.4-4.6-33.8c1.7-16.3,13.7-24.4,30.7-27.7
				c11.4-2.2,36.9,3.1,44.6,4.6c7.7,1.5,37.3-6.1,38.4-7.7C695.4,529.8,695.4,526.1,690.4,508z M472.4,480.6c-1.1,3.5-4.3,6-8,6.1
				c-6.8,0.3-17.4,0.6-23.2,0.3c-5.7,2.8-12.9,5.7-12.1,10.1c1.5,7.7-58.9-7.5-64.6-33.8c-4.6-21.5,0-38.4,0-38.4s26.1,20,44.6,23.1
				s35.3,26.1,38.4,32.3c0.5,0.8,0.3,1.5,0,2.3c6.6,1.7,22.4,3.1,32.3-25.4C483.5,446.8,476.1,469.4,472.4,480.6z M499.8,529.5
				c-6.1-1.5-20.7,43.5-18.4,27.7c4.6-30.7,3.1-55.3,18.4-72.2c15.4,16.9,13.8,41.5,18.4,72.2C520.5,573,505.9,527.9,499.8,529.5z
				 M633.9,463.4c-5.7,26.3-66.1,41.5-64.6,33.8c0.9-4.5-6.3-7.4-12.1-10.1c-6,0.2-16.6-0.2-23.2-0.3c-3.7-0.2-6.9-2.6-8-6.1
				c-3.7-11.2-10.9-33.8-7.4-23.4c9.8,28.4,25.7,27.1,32.3,25.4c-0.5-0.8-0.5-1.5,0-2.3c3.1-6.1,20-29.2,38.4-32.3
				s44.6-23.1,44.6-23.1S638.6,441.9,633.9,463.4z"/>
		</g>
		<path d="M559.8,593.2c-0.9-2.2-2.2-3.7-3.7-4.6c-0.6-0.3-0.9-0.6-1.2-0.8c-0.5-0.3-0.5-0.3-0.9-0.3c-0.5,0-0.9,0-1.4,0
			c-1.4,0-2.5-0.2-3.7,0.5l0.5,22c0.2,2.3,0.3,4.8,0.2,7.4l0,7.5c0.4-0.1,0.8-0.1,1.2-0.2c3.3-1.9,6.5-3.8,9.5-5.8L559.8,593.2z"/>
		<path d="M574.8,608.6c1.9-14.9,0.3-24.8-4.8-27.5c-0.6-0.3-0.9-0.6-1.2-0.8c-0.5-0.3-0.5-0.3-0.9-0.3c-0.5,0-0.9,0-1.4,0
			c-1.4,0-2.5-0.2-3.7,0.5l0.3,12.3l1.2,23.5C568.2,613.6,571.7,611,574.8,608.6z"/>
	</g>
	<path d="M460.5,596.5c-0.5,0-0.9,0-1.4,0s-0.5,0-0.9,0.3c-0.3,0.2-0.6,0.5-1.2,0.8c-3.1,1.7-4.8,6-5.4,12.4l-0.2,6.8
		c0.1,3,0.4,6.2,0.9,9.8c3.7,2.1,7.5,4.1,11.3,5.9l0.1-7.3c-0.2-2.8-0.2-5.5,0.2-8.1l0.3-20.1C462.9,596.3,461.8,596.5,460.5,596.5z
		"/>
	<path d="M445.1,587.3c-0.5,0-0.9,0-1.4,0c-0.5,0-0.5,0-0.9,0.3c-0.3,0.2-0.6,0.5-1.2,0.8c-1.5,0.9-2.8,2.5-3.7,4.6l-0.4,24.7
		c3.4,2.2,7,4.4,10.7,6.6l0-7.1c-0.2-2.6,0-5.1,0.2-7.4l0.5-22C447.6,587.1,446.5,587.3,445.1,587.3z"/>
	<path d="M475.8,604.5c-0.5,0-0.9,0-1.4,0s-0.5,0-0.9,0.3c-0.3,0.2-0.6,0.5-1.2,0.8c-2.9,1.5-4.8,5.8-5.4,12l-0.2,7.5
		c0.1,2.9,0.4,6,0.9,9.4c3.9,1.8,7.7,3.5,11.3,4.9l0.6-34.5C478.3,604.3,477.2,604.5,475.8,604.5z"/>
	<path d="M491.2,604.3c-1.4,0.2-1.4,0.5-3.1,1.4c-9.4,5.2-6.1,27.2-4.6,35.5c5.8,2,9.4,3.4,13.5,3.7l0.8-39.5
		C495.5,603.8,493.4,604.3,491.2,604.3z"/>
	<path d="M322.3,258.2c0,0-159.8-224.4-32.3-258.2C2.6,18.4-111.2,525.6,134.7,849.9c-52.3-179.8,30.7-133.7,56.9-110.7
		c0,0-30.7-196.7,67.6-119.9c0,0,10.8-136.8,49.2-144.5C339.2,427.3,279.2,330.4,322.3,258.2z"/>
	<path d="M710,0c127.6,33.8-32.3,258.2-32.3,258.2c43,72.2-16.9,169.1,13.8,216.7c38.4,7.7,49.2,144.5,49.2,144.5
		c98.4-76.8,67.6,119.9,67.6,119.9c26.1-23.1,109.1-69.2,56.9,110.7C1111.2,525.6,997.4,18.4,710,0z"/>
</g>
</svg>
