<?xml version="1.0" encoding="utf-8"?>
<!-- Generator: Adobe Illustrator 22.1.0, SVG Export Plug-In . SVG Version: 6.00 Build 0)  -->
<svg version="1.1" id="图层_1" xmlns="http://www.w3.org/2000/svg" xmlns:xlink="http://www.w3.org/1999/xlink" x="0px" y="0px"
	 viewBox="0 0 500 500" style="enable-background:new 0 0 500 500;" xml:space="preserve">
<path d="M250,0C111.9,0,0,111.9,0,250s111.9,250,250,250s250-111.9,250-250S388.1,0,250,0z M250,485C120.2,485,15,379.8,15,250
	S120.2,15,250,15s235,105.2,235,235S379.8,485,250,485z"/>
<g>
	<circle cx="185.1" cy="137.4" r="70"/>
	<path d="M380.6,157.3l34.8-20.1c-44.9-66-123.8-97.5-199.4-84.4c18.5,6.7,34.9,19.6,45.9,37.6C308.2,93.8,352.3,117.4,380.6,157.3z
		"/>
	<path d="M362.7,185c-19.8-34.3-52.8-56.1-88.9-62.8c6.2,36.1-10.2,73.8-43.7,93.2s-74.4,14.7-102.6-8.7
		c-12.2,34.6-9.8,74.1,10,108.4c35.9,62.2,115.4,83.5,177.6,47.6C377.3,326.6,398.6,247.1,362.7,185z"/>
	<path d="M106.1,180.3c-10.1-18.5-13-39.1-9.6-58.5c-49.1,58.9-61.3,142.9-26.6,214.9l34.8-20.1C84.2,272.1,85.9,222.2,106.1,180.3z
		"/>
	<path d="M119.7,342.6l-34.8,20.1c55.6,81.7,163,110.5,252,67.5l-20.1-34.8C247.1,427.5,164,405.2,119.7,342.6z"/>
	<path d="M395.6,183.3c32,69.7,9.8,152.8-52.8,197.1l20.1,34.8c81.7-55.6,110.5-163,67.5-252L395.6,183.3z"/>
</g>
</svg>
