<?xml version="1.0" encoding="utf-8"?>
<!-- Generator: Adobe Illustrator 22.1.0, SVG Export Plug-In . SVG Version: 6.00 Build 0)  -->
<svg version="1.1" id="图层_1" xmlns="http://www.w3.org/2000/svg" xmlns:xlink="http://www.w3.org/1999/xlink" x="0px" y="0px"
	 viewBox="0 0 500 500" style="enable-background:new 0 0 500 500;" xml:space="preserve">
<g>
	<path d="M50,250c0,80.1,47,149.2,115,181.1V178v-28.4V90.4V90h0.2c3.6-10.2,9-19.6,15.8-27.8C104.5,90.3,50,163.8,50,250z"/>
	<path d="M319,62.2c6.8,8.1,12.2,17.5,15.9,27.8h0.1v0.4v59.2V178v253.1c68-31.9,115-101,115-181.1C450,163.8,395.5,90.3,319,62.2z"
		/>
	<path d="M202.8,196.6v247.8c15.1,3.7,31,5.6,47.2,5.6s32.1-2,47.2-5.6V196.6c-13.7,8.5-29.9,13.4-47.2,13.4
		S216.5,205.1,202.8,196.6z"/>
	<path d="M250,0C111.9,0,0,111.9,0,250s111.9,250,250,250s250-111.9,250-250S388.1,0,250,0z M250,485C120.2,485,15,379.8,15,250
		S120.2,15,250,15s235,105.2,235,235S379.8,485,250,485z"/>
	<circle cx="250" cy="120" r="70"/>
</g>
</svg>
