<?xml version="1.0" encoding="utf-8"?>
<!-- Generator: Adobe Illustrator 22.1.0, SVG Export Plug-In . SVG Version: 6.00 Build 0)  -->
<svg version="1.1" id="Layer_3" xmlns="http://www.w3.org/2000/svg" xmlns:xlink="http://www.w3.org/1999/xlink" x="0px" y="0px"
	 viewBox="0 0 978 726" style="enable-background:new 0 0 978 726;" xml:space="preserve">
<g>
	<path d="M739.1,324.8c-8.3-1.3-14.4-4.2-17.3-5.8c-20.2-12.5-57.7-39.5-82.3-86.6c-36.1-69.3-11.7-163.5-2.1-195
		C586,8.9,530.1,1.8,497.6,0.3c0,0-5.1-0.3-13.6-0.3c-0.1,0-0.1,0-0.2,0c-0.1,0-0.1,0-0.2,0c-8.7,0-13.6,0.3-13.6,0.3
		c-33.8,1.6-93.2,9.2-146.4,40.8c10.4,36,30.4,123.8-3.8,189.3c-24.5,47.1-62.1,74.1-82.3,86.6c-1.9,1.1-5.3,2.7-9.9,4.1
		c12,52.1,28.5,91.6,20.6,100.7c-60.8,70.3,21.9,181.9,33.1,191c20.3,16.6,84.9-17,74.7,0.3c-7.7,13.2-14.8,112.9-14.8,112.9h20
		l9.6-34.7l17.1-0.2l3.3,34.9H426l3.3-33.3l11.6-1.6l1.6,34.9H471l1.3-35.8h23l1.3,35.8h28.4l1.6-34.9l11.6,1.6l3.3,33.3h34.9
		l3.3-34.9l17.1,0.2l9.6,34.7h20c0,0-7.1-99.7-14.8-112.9c-10.2-17.4,54.4,16.2,74.7-0.3c11.3-9.2,93.8-120.7,33.1-191
		C711.7,412.9,727.2,375,739.1,324.8z M446.2,494.6c-7.9,8.9-19.3,19.4-34.8,28.1c-37.3,21-74.2,18-89.1,15.9c-1-0.1-2-0.4-2.7-1
		c-32.6-20.7-45.1-52.9-35.4-73c1.4-3.1,6.9-13.2,24.1-19.4c1-0.3,2-0.4,3-0.4c20.7,1.9,46.3,5.9,74.6,14.8
		c23,7.1,42.5,15.8,58.6,24.2C448.2,485.9,449.1,491.2,446.2,494.6z M524.2,616.5c-0.1,2.3-3,3.2-4.4,1.4
		c-3.5-4.5-8.4-9.7-14.8-14.4c-6.9-5.1-13.5-8.2-18.7-10.1c-5.1,1.9-11.8,5.1-18.7,10.1c-6.5,4.7-11.3,9.9-14.8,14.4
		c-1.4,1.8-4.3,0.9-4.4-1.4c-1.1-17-0.3-51.9,25.3-77.1c3.3-3.3,7.6-6.2,12.6-8.9c4.9,2.7,9.3,5.6,12.6,8.9
		C524.5,564.6,525.3,599.5,524.2,616.5z M649,537.7c-0.9,0.5-1.8,0.9-2.7,1c-14.9,2.1-51.8,5.1-89.1-15.9
		c-15.5-8.7-26.9-19.2-34.8-28.1c-3-3.4-2.1-8.7,2-10.8c16-8.4,35.6-17,58.6-24.2c28.5-8.9,54.1-13,74.6-14.8c1-0.1,2,0,3,0.4
		c17,6.3,22.5,16.5,24.1,19.4C694.1,484.8,681.6,517.1,649,537.7z"/>
	<path d="M307.3,222.3c37.5-77.9,9.5-153.2,3.9-167.3c-26.5-4-71.8-7.2-124.5,7.8C150.1,73.2,122,89,103.1,101.7
		c17.6,17.4,42.6,46.1,62.2,87.5c21.7,45.7,27.5,87.1,29.2,112.8c3.3,2,10.2,5.4,19.4,5.8c11.5,0.5,20-3.9,23.3-5.8
		C254.5,290.6,286.4,265.6,307.3,222.3z"/>
	<path d="M107,117.3c-10.3,4.2-28.3,15.3-42.8,27.2c-15.1,12.4-25,37.2-31.1,46.7c17.7,10,39.9,24.9,62.2,46.7
		c28.1,27.4,45.7,55.4,56.4,75.8c5.5,3.2,12.3,3.2,17.5,0c6.3-3.8,13.4-16.4,13.6-17.5c-4.7-25.3-7.3-53.9-23.3-89.5
		C145.3,175.2,121.2,136.4,107,117.3z"/>
	<path d="M93.4,249.5c-21.6-17.9-41.5-35.4-54.5-38.9c-5.4,5.1-17.6,23.8-23.3,33.1C4.7,261.2,1.2,274.1,0,284.5
		c14.3-0.8,36.6,3.6,62.2,11.7c28.7,9,48.9,23.5,60.3,33.1c3.9-5.2,11.7-16.2,15.6-21.4C133,294.7,120.7,272.1,93.4,249.5z"/>
	<path d="M105,325.4c-7.8-6.3-21.5-15.7-40.8-21.4c-20.7-6.1-44.3-13-54.5-11.7c-2.1,3.9-3.2,18.4-3.9,27.2
		c-1,13.1,5.5,28.9,7.8,33.1c11.6-3.1,29.5-8,48.6-7.8c17.3,0.2,31.9,4.9,42.8,7.8c0.9-0.5,4.7-8.8,5.8-13.6
		C112,334,109.7,328.6,105,325.4z"/>
	<path d="M93.4,358.4c-5.5-2.4-26.7-5.7-38.9-5.8c-13.2-0.2-23.5,3.4-29.2,5.8c0.8,16.8,4.5,48.2,23.3,81.7
		c15.3,27.2,42,44.7,54.5,54.5c-5.4-20.5-10.2-46.2-11.7-75.8C90.3,396.1,91.4,375.7,93.4,358.4z"/>
	<path d="M874.9,97.8c-19-12.8-47-28.5-83.6-38.9c-52.7-15-117.4-11.8-143.9-7.8c-5.6,14.1-33.6,89.4,3.9,167.3
		c20.9,43.4,52.8,68.3,70,79.7c3.4,2,11.8,6.4,23.3,5.8c9.3-0.4,35.6-3.9,38.9-5.8c1.6-25.7,7.5-67.1,29.2-112.8
		C832.3,144,857.3,115.2,874.9,97.8z"/>
	<path d="M882.7,234c22.3-21.8,44.6-36.7,62.2-46.7c-6.1-9.5-16-34.2-31.1-46.7c-14.5-12-32.5-23-42.8-27.2
		c-14.3,19.1-38.3,58-52.5,89.5c-16,35.5-18.7,64.1-23.3,89.5c0.2,1.1,7.3,13.7,13.6,17.5c5.2,3.2,12,3.2,17.5,0
		C837,289.4,854.6,261.4,882.7,234z"/>
	<path d="M962.4,239.8c-5.7-9.2-17.9-27.9-23.3-33.1c-13,3.5-32.8,21-54.5,38.9c-27.3,22.6-39.6,45.2-44.7,58.3
		c3.9,5.2,11.7,16.2,15.6,21.4c11.4-9.6,31.6-24.1,60.3-33.1c25.7-8.1,48-12.5,62.2-11.7C976.8,270.2,973.3,257.3,962.4,239.8z"/>
	<path d="M968.3,288.4c-10.1-1.3-33.7,5.6-54.5,11.7c-19.3,5.7-33.1,15.1-40.8,21.4c-4.7,3.2-7,8.7-5.8,13.6
		c1.1,4.8,4.9,13.1,5.8,13.6c10.9-2.9,25.5-7.6,42.8-7.8c19.1-0.2,37.1,4.7,48.6,7.8c2.2-4.2,8.8-20,7.8-33.1
		C971.5,306.8,970.4,292.3,968.3,288.4z"/>
	<path d="M884.6,354.5c2,17.3,3.1,37.6,1.9,60.3c-1.5,29.7-6.3,55.3-11.7,75.8c12.4-9.8,39.2-27.3,54.5-54.5
		c18.8-33.5,22.6-64.9,23.3-81.7c-5.7-2.4-15.9-6-29.2-5.8C911.3,348.9,890.2,352.2,884.6,354.5z"/>
</g>
</svg>
