<?xml version="1.0" encoding="utf-8"?>
<!-- Generator: Adobe Illustrator 22.1.0, SVG Export Plug-In . SVG Version: 6.00 Build 0)  -->
<svg version="1.1" id="Layer_2" xmlns="http://www.w3.org/2000/svg" xmlns:xlink="http://www.w3.org/1999/xlink" x="0px" y="0px"
	 viewBox="0 0 996.4 709.9" style="enable-background:new 0 0 996.4 709.9;" xml:space="preserve">
<g>
	<path d="M646.6,374.3c-27.4-79.9-108.2-92.4-143.2-94c0,0-3-0.2-8.1-0.2c-0.1,0-0.1,0-0.1,0c-0.1,0-0.1,0-0.1,0
		c-5.1,0-8.1,0.2-8.1,0.2c-34.9,1.6-115.8,14.1-143.2,94c-23.4,68.2,20.9,145.2,11.9,155.5c-36,41.6,12.9,107.6,19.6,113
		c12,9.8,50.3-10.1,44.2,0.2c-4.6,7.8-8.8,66.8-8.8,66.8h11.8l5.7-20.6l10.1-0.1l2,20.7H461l2-19.7l6.9-1l1,20.7h16.8l0.8-21.2H502
		l0.8,21.2h16.8l1-20.7l6.9,1l2,19.7h20.7l2-20.7l10.1,0.1l5.7,20.6h11.8c0,0-4.2-59-8.8-66.8c-6-10.3,32.2,9.6,44.2-0.2
		c6.7-5.5,55.5-71.4,19.6-113C625.7,519.4,669.9,442.4,646.6,374.3z M472.9,572.9c-4.7,5.3-11.4,11.5-20.6,16.7
		c-22.1,12.4-43.9,10.7-52.8,9.4c-0.6-0.1-1.2-0.3-1.6-0.6c-19.3-12.2-26.7-31.3-20.9-43.2c0.8-1.8,4.1-7.8,14.2-11.5
		c0.6-0.2,1.2-0.3,1.8-0.3c12.2,1.1,27.4,3.5,44.2,8.8c13.6,4.2,25.2,9.4,34.7,14.3C474.2,567.8,474.7,570.9,472.9,572.9z
		 M519.1,645c-0.1,1.4-1.8,1.9-2.6,0.8c-2.1-2.7-4.9-5.7-8.8-8.5c-4.1-3-8-4.9-11.1-6c-3,1.1-7,3-11.1,6c-3.8,2.8-6.7,5.9-8.8,8.5
		c-0.8,1-2.5,0.5-2.6-0.8c-0.7-10.1-0.2-30.7,15-45.7c2-2,4.5-3.6,7.5-5.3c2.9,1.6,5.5,3.3,7.5,5.3C519.3,614.3,519.8,635,519.1,645
		z M593,598.4c-0.5,0.3-1,0.5-1.6,0.6c-8.8,1.2-30.6,3-52.8-9.4c-9.2-5.1-15.9-11.4-20.6-16.7c-1.8-2-1.2-5.1,1.2-6.4
		c9.5-4.9,21.1-10.1,34.7-14.3c16.8-5.3,32-7.7,44.2-8.8c0.6-0.1,1.2,0,1.8,0.3c10.1,3.7,13.3,9.8,14.2,11.5
		C619.7,567.1,612.3,586.2,593,598.4z"/>
	<path d="M743.8,493.3c2.3-13.6,3.5-27.6,3.5-41.9c0-20.9-2.6-41.1-7.4-60.5l104.6-75.6L719,336c-10-19.1-22.4-36.8-36.8-52.6
		l63.7-148.9L622.8,235.6c-21.9-12.7-45.9-22.1-71.4-27.6l-52-208l-51.8,207.4c-24.4,5-47.5,13.7-68.8,25.3l-119.6-98.2l61,142.5
		c-16.7,17-30.9,36.4-42.2,57.6l-117.4-19.4l97.2,70.2c-5.7,21-8.8,43-8.8,65.8c0,14.3,1.2,28.3,3.5,41.9H0v54.3h311
		c-15.1-28.8-23.7-61.5-23.7-96.2c0-114.4,92.8-207.2,207.2-207.2s207.2,92.8,207.2,207.2c0,34.7-8.6,67.4-23.7,96.2h318.4v-54.3
		H743.8z"/>
</g>
</svg>
