<?xml version="1.0" encoding="utf-8"?>
<!-- Generator: Adobe Illustrator 22.1.0, SVG Export Plug-In . SVG Version: 6.00 Build 0)  -->
<svg version="1.1" id="Layer_3" xmlns="http://www.w3.org/2000/svg" xmlns:xlink="http://www.w3.org/1999/xlink" x="0px" y="0px"
	 viewBox="0 0 938.8 878.7" style="enable-background:new 0 0 938.8 878.7;" xml:space="preserve">
<g>
	<path d="M861.8,170.7l-42.3,6.4c-2.1-43.6-4.3-87.2-6.4-130.8c-16.2,10.3-34,25.9-77,28.2c-18.2,1-39.5-5.5-54.1-9.5
		c-4.7-1.3-8.8-4.1-11.7-8C644,21.4,610.6,4.4,568.2,0.2c-25.7-2.6-80.8,24.3-98.8,62.8c-18-38.6-73.1-65.4-98.8-62.8
		C327,4.5,293,22.3,266.4,59.9c-1.7,2.4-3.9,4.3-6.6,5.6c-14.7,7.2-37.7,10.1-57.2,9.1c-42.9-2.3-60.7-17.9-77-28.2
		c-2.1,43.6-4.3,87.2-6.4,130.8L77,170.7L0,837.6l18,41l395-69.3v26.9h55.1h2.6h55.1v-26.9l395,69.3l18-41L861.8,170.7z
		 M868.3,763.3c-4.8,18-5.5,33.7-5.1,44.9c-116.3-17.1-232.6-34.2-348.8-51.3c-0.4-2.3-1.3-5.7-3.8-9c-7-8.9-19.4-7.8-20.5-7.7
		l1.5-94.9h-44.1l1.5,94.9c-1.1-0.1-13.5-1.2-20.5,7.7c-2.5,3.2-3.5,6.7-3.8,9C308.2,774,191.9,791.1,75.7,808.2
		c0.4-11.1-0.3-26.9-5.1-44.9c-5.1-19.2-13-33.9-19.2-43.6C76.7,591.1,99.4,455,118,311.8c10.3-79.3,18.8-156.7,25.7-232.1
		c13,2,49.3,15.6,82.1,15.4c24.5-0.2,38.5-3.5,55.5-11.7c1.5-0.7,2.8-1.8,3.9-3c21-24.6,38.3-41.8,94.6-48.1
		c40.9-4.5,62.8,51.1,62.8,51.3c0,0,0,0,0,0c0-0.2,1,74.4,1,74.4c7.4-0.8,15.5-1.3,24.4-1.2c8.9,0,17,0.5,24.4,1.3
		c0,0,0.3-73.1,1.3-73.1c1.1,0,2.6-6.4,2.6-6.4c4.1-5.1,22.2-50.7,63.1-46.2c56.2,6.2,73.5,23.4,94.5,48c1.1,1.3,2.5,2.4,4,3.1
		c16.9,8.1,30.9,11.5,55.4,11.7c32.8,0.2,69.1-13.4,82.1-15.4c6.9,75.4,15.4,152.8,25.7,232.1c18.6,143.2,41.3,279.3,66.7,407.8
		C881.3,729.4,873.4,744.1,868.3,763.3z"/>
	<path d="M634.3,376.8c-5.5-0.8-9.5-2.8-11.4-3.8c-13.3-8.2-38.1-26-54.3-57.1c-23.8-45.7-7.7-107.8-1.4-128.6
		c-33.9-18.8-70.8-23.4-92.2-24.4c0,0-3.3-0.2-9-0.2c-0.1,0-0.1,0-0.1,0c-0.1,0-0.1,0-0.1,0c-5.7,0-9,0.2-9,0.2
		c-22.3,1-61.5,6.1-96.5,26.9c6.9,23.8,20,81.7-2.5,124.8c-16.2,31-40.9,48.9-54.3,57.1c-1.3,0.7-3.5,1.8-6.5,2.7
		c7.9,34.3,18.8,60.4,13.6,66.4c-40.1,46.4,14.4,119.9,21.8,125.9c13.4,10.9,56-11.2,49.3,0.2c-5.1,8.7-9.8,74.4-9.8,74.4h13.2
		l6.3-22.9l11.3-0.1l2.2,23h23l2.2-22l7.7-1.1l1.1,23h18.7l0.9-23.6h15.1l0.9,23.6h18.7l1.1-23l7.7,1.1l2.2,22h23l2.2-23l11.3,0.1
		l6.3,22.9h13.2c0,0-4.7-65.7-9.8-74.4c-6.7-11.4,35.9,10.7,49.3-0.2c7.5-6.1,61.9-79.6,21.8-125.9C616.3,435,626.5,410,634.3,376.8
		z M441.1,488.8c-5.2,5.9-12.8,12.8-23,18.6c-24.6,13.8-48.9,11.9-58.8,10.5c-0.7-0.1-1.3-0.3-1.8-0.7
		c-21.5-13.6-29.7-34.9-23.3-48.1c0.9-2,4.6-8.7,15.9-12.8c0.7-0.2,1.3-0.3,2-0.3c13.6,1.2,30.5,3.9,49.2,9.8
		c15.1,4.7,28,10.4,38.6,15.9C442.5,483.1,443.1,486.6,441.1,488.8z M492.6,569.2c-0.1,1.5-2,2.1-2.9,0.9c-2.3-3-5.5-6.4-9.8-9.5
		c-4.6-3.3-8.9-5.4-12.3-6.7c-3.3,1.2-7.8,3.3-12.3,6.7c-4.3,3.1-7.5,6.5-9.8,9.5c-0.9,1.2-2.8,0.6-2.9-0.9
		c-0.7-11.2-0.2-34.2,16.7-50.9c2.2-2.2,5-4.1,8.3-5.9c3.3,1.8,6.2,3.7,8.3,5.9C492.8,535,493.3,558,492.6,569.2z M574.9,517.2
		c-0.6,0.4-1.2,0.6-1.8,0.7c-9.9,1.4-34.1,3.3-58.8-10.5c-10.2-5.7-17.8-12.7-23-18.6c-2-2.2-1.4-5.7,1.3-7.1
		c10.6-5.5,23.5-11.2,38.6-15.9c18.8-5.9,35.7-8.6,49.2-9.8c0.7-0.1,1.3,0,2,0.3c11.2,4.1,14.9,10.9,15.9,12.8
		C604.6,482.4,596.4,503.7,574.9,517.2z"/>
	<path d="M349.6,309.3c24.7-51.4,6.2-101,2.6-110.3c-17.5-2.6-47.3-4.7-82.1,5.1c-24.1,6.9-42.7,17.2-55.1,25.7
		c11.6,11.5,28.1,30.4,41,57.7c14.3,30.1,18.2,57.4,19.2,74.4c2.2,1.3,6.7,3.6,12.8,3.8c7.6,0.4,13.2-2.5,15.4-3.8
		C314.7,354.3,335.8,337.8,349.6,309.3z"/>
	<path d="M217.5,240c-6.8,2.8-18.6,10.1-28.2,18c-9.9,8.2-16.5,24.5-20.5,30.8c11.6,6.6,26.3,16.4,41,30.8
		c18.5,18.1,30.1,36.5,37.2,50c3.7,2.1,8.1,2.1,11.5,0c4.2-2.5,8.9-10.8,9-11.5c-3.1-16.7-4.8-35.6-15.4-59
		C242.7,278.2,226.9,252.6,217.5,240z"/>
	<path d="M208.5,327.2c-14.3-11.8-27.4-23.3-35.9-25.7c-3.6,3.4-11.6,15.7-15.4,21.8c-7.2,11.5-9.4,20.1-10.3,26.9
		c9.4-0.5,24.1,2.4,41,7.7c18.9,5.9,32.2,15.5,39.8,21.8c2.6-3.4,7.7-10.7,10.3-14.1C234.6,357,226.5,342.1,208.5,327.2z"/>
	<path d="M216.2,377.2c-5.1-4.1-14.2-10.3-26.9-14.1c-13.7-4-29.2-8.5-35.9-7.7c-1.4,2.6-2.1,12.1-2.6,18
		c-0.7,8.6,3.7,19.1,5.1,21.8c7.6-2,19.5-5.3,32.1-5.1c11.4,0.1,21,3.2,28.2,5.1c0.6-0.4,3.1-5.8,3.8-9
		C220.8,382.9,219.3,379.4,216.2,377.2z"/>
	<path d="M208.5,399c-3.6-1.6-17.6-3.7-25.7-3.8c-8.7-0.1-15.5,2.2-19.2,3.8c0.5,11.1,3,31.8,15.4,53.9
		c10.1,17.9,27.7,29.5,35.9,35.9c-3.5-13.5-6.7-30.4-7.7-50C206.5,423.8,207.2,410.4,208.5,399z"/>
	<path d="M723.9,227.2c-12.5-8.4-31-18.8-55.1-25.7c-34.7-9.9-77.4-7.8-94.9-5.1c-3.7,9.3-22.2,58.9,2.6,110.3
		c13.8,28.6,34.8,45,46.2,52.6c2.2,1.3,7.8,4.2,15.4,3.8c6.1-0.3,23.4-2.5,25.7-3.8c1.1-17,4.9-44.3,19.2-74.4
		C695.8,257.6,712.3,238.6,723.9,227.2z"/>
	<path d="M770.1,286.2c-4-6.3-10.6-22.6-20.5-30.8c-9.6-7.9-21.5-15.2-28.2-18c-9.4,12.6-25.3,38.2-34.6,59
		c-10.6,23.4-12.3,42.3-15.4,59c0.1,0.7,4.8,9,9,11.5c3.5,2.1,7.9,2.1,11.5,0c7.1-13.5,18.7-31.9,37.2-50
		C743.8,302.6,758.4,292.7,770.1,286.2z"/>
	<path d="M766.2,299c-8.6,2.3-21.7,13.9-35.9,25.7c-18,14.9-26.1,29.8-29.5,38.5c2.6,3.4,7.7,10.7,10.3,14.1
		c7.5-6.3,20.8-15.9,39.8-21.8c16.9-5.3,31.6-8.2,41-7.7c-0.8-6.9-3.1-15.4-10.3-26.9C777.8,314.7,769.8,302.4,766.2,299z"/>
	<path d="M785.5,352.9c-6.7-0.9-22.2,3.7-35.9,7.7c-12.8,3.8-21.8,10-26.9,14.1c-3.1,2.1-4.6,5.7-3.8,9c0.7,3.1,3.3,8.6,3.8,9
		c7.2-1.9,16.8-5,28.2-5.1c12.6-0.1,24.4,3.1,32.1,5.1c1.5-2.7,5.8-13.2,5.1-21.8C787.6,365,786.9,355.4,785.5,352.9z"/>
	<path d="M730.3,396.5c1.3,11.4,2,24.8,1.3,39.8c-1,19.6-4.2,36.5-7.7,50c8.2-6.4,25.8-18,35.9-35.9c12.4-22.1,14.9-42.8,15.4-53.9
		c-3.7-1.6-10.5-4-19.2-3.8C747.9,392.7,733.9,394.9,730.3,396.5z"/>
</g>
</svg>
