<?xml version="1.0" encoding="utf-8"?>
<!-- Generator: Adobe Illustrator 22.1.0, SVG Export Plug-In . SVG Version: 6.00 Build 0)  -->
<svg version="1.1" id="Layer_1" xmlns="http://www.w3.org/2000/svg" xmlns:xlink="http://www.w3.org/1999/xlink" x="0px" y="0px"
	 viewBox="0 0 1000 549.5" style="enable-background:new 0 0 1000 549.5;" xml:space="preserve">
<path d="M746.5,495c2.3-13.7,3.5-27.7,3.5-42.1c0-20.9-2.6-41.3-7.4-60.7l105-75.8l-125.9,20.8c-10-19.2-22.5-36.9-37-52.8l64-149.5
	L625,236.5c-22-12.7-46.1-22.2-71.6-27.7L501.2,0l-52,208.1c-24.5,5.1-47.7,13.7-69,25.4l-120-98.5l61.2,143
	c-16.7,17.1-31,36.5-42.3,57.8l-117.8-19.4l97.6,70.5c-5.8,21-8.8,43.2-8.8,66.1c0,14.3,1.2,28.4,3.5,42.1H0v54.5h312.1
	c-15.2-28.9-23.8-61.7-23.8-96.5c0-114.8,93.1-207.9,207.9-207.9S704.2,338.1,704.2,453c0,34.9-8.6,67.7-23.8,96.5H1000V495H746.5z"
	/>
</svg>
