<?xml version="1.0" encoding="utf-8"?>
<!-- Generator: Adobe Illustrator 22.1.0, SVG Export Plug-In . SVG Version: 6.00 Build 0)  -->
<svg version="1.1" xmlns="http://www.w3.org/2000/svg" xmlns:xlink="http://www.w3.org/1999/xlink" x="0px" y="0px"
	 viewBox="0 0 1000 1000" style="enable-background:new 0 0 1000 1000;" xml:space="preserve">
<g id="Layer_6">
</g>
<g id="Layer_4">
	<g>
		<polygon points="341,401 263.5,452.2 341,508 418.5,452.2 		"/>
		<polygon points="670,508 747.5,452.2 670,401 592.5,452.2 		"/>
		<path d="M585.5,346L508,294.8L430.5,346l77.5,55.8L585.5,346z M474,348.2c0-18.8,15.2-34,34-34s34,15.2,34,34
			c0,18.8-15.2,34-34,34S474,367,474,348.2z"/>
		<path d="M952.1,461.4c-2.8,5.4-6.2,10.2-10,14.7c1.1-2,2.1-4,2.9-6c3.7-8.9,5.9-18.2,7.7-27.5c1.8-8.8,3.3-17.6,2.9-26.6
			c-0.4-8.9-2.8-17.9-8.2-25.5c-2.4,6.2-5.9,11.8-9.9,17c0.1-0.1,0.1-0.3,0.2-0.4c3.5-10.2,5.4-20.8,6.8-31.3c1.4-9.9,2.4-20,1.3-30
			c-1.1-9.9-4.6-19.8-11.4-28c-0.1,0.2-0.1,0.4-0.2,0.6c0-0.3,0-0.5,0-0.8c0.1,0.1,0.1,0.2,0.2,0.2c0-0.1,0-0.1,0.1-0.2l-0.3-0.1
			c0-0.1,0-0.2,0-0.3c-0.1-8.9-1.6-17.6-3.4-26.2c-1.7-8.1-3.6-16.2-7.2-23.6c-3.6-7.4-8.9-14.1-16.4-18.6c0.1,2.1,0,4.3-0.2,6.4
			c-0.2-0.8-0.4-1.6-0.6-2.4c-2.2-8.4-5.7-16.4-9.4-24.3c-3.5-7.4-7.2-14.7-12.2-21.1c-4.9-6.2-11.3-11.6-18.9-14.4
			c-3.2-7-7-13.7-10.9-20.2c-4.7-7.8-9.6-15.5-15.9-22.1c-5-5.2-10.9-9.7-17.6-12.5c-3.4-5.9-7.4-11.4-11.5-16.8
			c-5.5-7.3-11.3-14.4-18.6-20c-7.2-5.5-16.1-9.4-26.2-9.9c1.6,3.3,2.9,6.7,3.8,10.2c-1.6-2.4-3.4-4.7-5.3-6.7
			c-6.5-7-14.1-12.9-21.8-18.5c-7.2-5.3-14.7-10.4-23-13.7c-8.2-3.3-17.4-4.9-26.6-3.1c1.2,1.2,2.4,2.5,3.4,3.9
			c-13.1-9.4-27.5-16.5-42.7-19.5c-6.4-1.3-12.8-1.8-19.3-2.1c-9.6-0.4-19.3-0.1-28.9,0.2c-9.3,0.3-18.7,0.8-27.6,3.9
			c-8.9,3.1-17.5,9.1-22.4,18.3c12-2.5,24.9-2.4,35.7,4.2c4.6,2.8,8.7,6.7,12.7,10.6c5.8,5.5,11.5,11,17.3,16.6
			c5.6,5.4,11.4,10.9,18,14.2c-7.4,1.5-14.8,2.3-22.3,1.4c4.2,8.3,11.1,14.7,18.7,19.1c7.8,4.5,16.3,7.3,24.9,9.8
			c6.8,2,13.7,3.8,20.7,5c3.6,6.3,8.8,11.4,14.5,15.5c7.3,5.2,15.7,8.6,24,11.9c4.3,1.7,8.7,3.3,13.1,4.7c0.6,7.4,3.4,13.8,7.2,19
			c4.4,5.9,10.1,10.5,16,14.8c4.8,3.5,9.7,6.9,15,9.7c0.3,6.8,2.6,13.3,5.8,19.1c3.9,7,9.1,13,14.5,18.9c3.2,3.5,6.5,6.9,10,10.2
			c-0.2,7.4,1.5,14.5,4.3,21.1c3.6,8.2,8.8,15.5,14.3,22.6c3.7,4.8,7.5,9.6,11.6,14c-3.8-2.2-7.3-4.8-10.6-7.8
			c-1.5,9.2,0.3,18.4,3.8,26.5c3.5,8.1,8.7,15.4,14.1,22.4c-3,9-2.8,18.4-0.8,27.1c2.2,9.2,6.3,17.7,10.6,26.1c0.5,1,1,1.9,1.5,2.8
			v2.3c-0.2,0.6-0.4,1.1-0.6,1.7c-0.2-0.4-0.4-0.9-0.6-1.3c-4.6,7.2-6.3,15.5-6.1,23.5c0.1,8.1,2,16.1,4,23.9c1,3.7,2,7.5,3.2,11.2
			c-0.2,0.3-0.4,0.7-0.7,1h-1.3v0.8c-6.4,5.7-10.3,13.2-12.4,20.9c-2.1,7.9-2.5,16.1-2.5,24.2c0,2.3,0,4.6,0,6.9
			c-0.2,0.2-0.3,0.4-0.5,0.6h-0.6c0-0.4-0.1-0.9-0.1-1.3c-7.5,5.5-12.6,13.3-15.8,21.6c-3.2,8.4-4.5,17.3-5.6,26.2
			c-0.5,4-0.9,8.1-1.2,12.2c-0.6,0.2-1.1,0.4-1.7,0.7h-1.9c0,0-13.3,9.8-18,16c-5.6,7.3-9.5,15.7-13.1,24.1
			c-0.8,1.7-1.5,3.5-2.2,5.3c0.2-1,0.5-1.9,0.8-2.9c-9.4,2.8-17.3,8.8-23.4,16c-6.2,7.2-10.8,15.7-15,24.1c-0.9,1.7-1.7,3.4-2.6,5.2
			c-8.9,1.1-17,5.1-23.7,10.4c-7.1,5.6-12.8,12.6-18.3,19.7c-0.8,1-1.6,2-2.4,3.1l-0.1-0.1c-0.1,0.1-0.1,0.1-0.2,0.2
			c0,0,0.1,0,0.1,0c-0.5,0.7-1,1.3-1.5,2c0,0,0,0,0,0l0.5-0.8c-0.2,0.2-0.4,0.5-0.6,0.7c0,0-0.1,0-0.1-0.1c0.6-0.6,1.1-1.3,1.7-1.9
			c-10.1-1.4-20.3,0.8-29.4,4.9c-9.2,4.1-17.4,10-25.4,16.2c-0.9,0.7-1.8,1.4-2.8,2.1c-0.7-6.8-2.2-13.7-4.7-20.4
			c-1.2-3.2-2.5-6.3-3.9-9.3C728.6,669,804.3,563.3,804.3,440c0-162.9-132.1-295-295-295s-295,132.1-295,295
			c0,124.2,76.7,230.4,185.3,273.9c-1.2,2.7-2.4,5.5-3.5,8.4c-2.5,6.7-3.9,13.6-4.7,20.4c-0.9-0.7-1.8-1.4-2.7-2.1
			c-8-6.1-16.2-12-25.4-16.2c-9.1-4.1-19.2-6.3-29.4-4.9c0.6,0.6,1.1,1.3,1.7,1.9c0,0-0.1,0-0.1,0.1c-0.2-0.2-0.4-0.5-0.6-0.7
			l0.5,0.8c0,0,0,0,0,0c-0.5-0.7-1-1.4-1.5-2c0,0,0.1,0,0.1,0c-0.1-0.1-0.1-0.1-0.2-0.2l-0.1,0.1c-0.8-1-1.6-2.1-2.4-3.1
			c-5.5-7.1-11.2-14.1-18.3-19.7c-6.7-5.3-14.8-9.3-23.7-10.4c-0.8-1.7-1.7-3.5-2.6-5.2c-4.3-8.5-8.8-16.9-15-24.1
			c-6.1-7.1-14-13.1-23.4-16c0.3,1,0.6,1.9,0.8,2.9c-0.7-1.8-1.5-3.5-2.2-5.3c-3.6-8.4-7.5-16.8-13.1-24.1c-4.7-6.2-18-16-18-16H214
			c-0.6-0.2-1.1-0.5-1.7-0.7c-0.3-4.1-0.7-8.1-1.2-12.2c-1.1-8.9-2.4-17.8-5.6-26.2c-3.1-8.3-8.2-16.1-15.8-21.6
			c0,0.4-0.1,0.9-0.1,1.3h-0.6c-0.2-0.2-0.3-0.4-0.5-0.6c0-2.3,0.1-4.6,0-6.9c-0.1-8.1-0.4-16.3-2.5-24.2c-2.1-7.7-6-15.2-12.4-20.9
			v-0.8h-1.3c-0.2-0.3-0.4-0.7-0.7-1c1.2-3.7,2.3-7.4,3.3-11.2c2.1-7.8,3.9-15.8,4-23.9c0.1-8-1.6-16.3-6.1-23.5
			c-0.2,0.4-0.4,0.9-0.6,1.3c-0.2-0.6-0.4-1.1-0.6-1.7v-2.3c0.5-0.9,1-1.9,1.5-2.8c4.3-8.3,8.4-16.9,10.6-26.1
			c2-8.7,2.2-18.2-0.8-27.1c5.4-7,10.6-14.2,14.1-22.4c3.5-8.1,5.4-17.3,3.8-26.5c-3.3,3-6.8,5.6-10.6,7.8c4.1-4.5,7.9-9.2,11.6-14
			c5.4-7.1,10.7-14.4,14.3-22.6c2.8-6.5,4.6-13.7,4.3-21.1c3.5-3.2,6.8-6.7,10-10.2c5.4-5.9,10.7-11.9,14.5-18.9
			c3.2-5.8,5.5-12.3,5.8-19.1c5.3-2.8,10.2-6.2,15-9.7c5.9-4.3,11.6-8.9,16-14.8c3.9-5.2,6.7-11.7,7.2-19c4.4-1.4,8.8-3,13.1-4.7
			c8.3-3.2,16.6-6.7,24-11.9c5.7-4,10.9-9.2,14.5-15.5c7-1.2,13.9-3,20.7-5c8.6-2.5,17.1-5.3,24.9-9.8c7.7-4.5,14.5-10.8,18.7-19.1
			c-7.5,0.9-14.9,0.1-22.3-1.4c6.6-3.3,12.4-8.8,18-14.2c5.8-5.5,11.5-11,17.3-16.6c4-3.9,8.1-7.7,12.7-10.6
			c10.8-6.6,23.7-6.8,35.7-4.2C461.5,55,453,49,444.1,45.9c-8.9-3.1-18.3-3.5-27.6-3.9c-9.6-0.4-19.3-0.6-28.9-0.2
			c-6.5,0.3-12.9,0.8-19.3,2.1c-15.2,3-29.5,10.1-42.7,19.5c1.1-1.3,2.2-2.6,3.4-3.9c-9.2-1.8-18.4-0.2-26.6,3.1
			c-8.3,3.4-15.8,8.5-23,13.7c-7.7,5.6-15.3,11.5-21.8,18.5c-1.9,2-3.7,4.3-5.3,6.7c1-3.5,2.2-6.9,3.8-10.2
			c-10.1,0.4-19,4.4-26.2,9.9c-7.3,5.6-13.1,12.7-18.6,20c-4.1,5.4-8.1,10.9-11.5,16.8c-6.7,2.8-12.6,7.3-17.6,12.5
			c-6.3,6.6-11.2,14.3-15.9,22.1c-4,6.6-7.8,13.2-10.9,20.2c-7.6,2.8-13.9,8.2-18.9,14.4c-5.1,6.4-8.8,13.7-12.2,21.1
			c-3.7,7.9-7.2,15.9-9.4,24.3c-0.2,0.8-0.4,1.6-0.6,2.4c-0.2-2.1-0.3-4.2-0.2-6.4c-7.5,4.5-12.8,11.2-16.4,18.6
			c-3.6,7.5-5.5,15.5-7.2,23.6c-1.8,8.6-3.3,17.3-3.4,26.2c0,0.1,0,0.2,0,0.3l-0.3,0.1c0,0.1,0,0.1,0.1,0.2c0.1-0.1,0.1-0.2,0.2-0.2
			c0,0.3,0,0.5,0,0.8c-0.1-0.2-0.1-0.4-0.2-0.6c-6.8,8.1-10.3,18.1-11.4,28c-1.1,10-0.1,20.1,1.3,30c1.5,10.6,3.3,21.2,6.8,31.3
			c0.1,0.1,0.1,0.3,0.2,0.4c-4.1-5.2-7.5-10.8-9.9-17c-5.4,7.6-7.8,16.6-8.2,25.5c-0.4,9,1.1,17.8,2.9,26.6
			c1.9,9.3,4.1,18.7,7.7,27.5c0.8,2,1.8,4.1,2.9,6c-3.8-4.5-7.3-9.3-10-14.7c-4.6,9.2-5.7,19.6-4.8,29.6c0.9,10.2,3.9,20,7.1,29.6
			c3.2,9.6,6.6,19.2,11.3,28.2c-2.3-1.8-4.6-3.7-6.8-5.8c-1.1,9.8,1.3,19.8,5.4,28.8c4.2,9.1,10,17.3,16,25.3
			c1.2,1.6,2.4,3.2,3.7,4.8c0,0.9,0.1,1.8,0.1,2.7c0,0.6,0.1,1.2,0.2,1.8l0.6,4.1c0.4,1.9,1.4,7,1.4,7s8.9,21.5,11.4,25.7
			c5.1,8.6,11.7,16.2,18.6,23.6c7,7.5,14.2,14.8,22.2,21.2c-5.4-1.4-10.7-3.2-15.8-5.8c2,9.8,7.4,18.8,14.2,26.2
			c6.9,7.5,15.1,13.6,23.4,19.5c8.9,6.2,18,12.3,27.8,16.9c0.4,0.2,0.7,0.3,1.1,0.5c-6.5-0.3-13-1.2-19.5-3.2
			c3.6,9.2,10.3,17,18.1,23c7.9,6.2,16.9,10.7,25.9,15.1c9.6,4.6,19.5,9,29.8,11.8c1.1,0.3,2.3,0.6,3.4,0.9
			c-7,1.4-14.2,2.1-21.5,1.5c5.5,8.2,13.8,14.3,22.8,18.5c9.1,4.3,18.9,6.7,28.6,8.9c9.6,2.2,19.3,4.1,29.1,4.8
			c0.2,0.2,0.4,0.3,0.7,0.5c0.4,0.6,0.8,1.3,1.2,1.9c-3.2,0.8-6.4,1.4-9.7,1.7c6.6,8,15.7,13.1,25.1,16.1c9.6,3.1,19.6,4.1,29.6,4.8
			c8.8,0.6,17.7,1,26.5,0.4c-5.8,28,20,60.5,24.1,63.7c9.1,6.9,38.3-7.4,33.7,0c-3.6,5.6-6.8,48-6.8,48h128.1c0,0-3.2-42.4-6.8-48
			c-4.6-7.4,24.6,6.9,33.7,0c4.1-3.2,29.6-35.6,24-63.6c8.4,0.5,16.9,0.1,25.3-0.5c10-0.7,20-1.7,29.6-4.8c9.5-3,18.5-8.2,25.1-16.1
			c-3.3-0.3-6.5-0.9-9.7-1.7c0.4-0.6,0.8-1.2,1.2-1.9c0.2-0.2,0.4-0.3,0.7-0.5c9.8-0.7,19.5-2.6,29.1-4.8c9.8-2.2,19.6-4.7,28.6-8.9
			c9-4.2,17.2-10.3,22.8-18.5c-7.3,0.5-14.5-0.2-21.5-1.5c1.2-0.3,2.3-0.6,3.4-0.9c10.3-2.9,20.1-7.2,29.8-11.8
			c9-4.3,18-8.9,25.9-15.1c7.8-6.1,14.5-13.8,18.1-23c-6.4,2-12.9,2.9-19.5,3.2c0.4-0.2,0.7-0.3,1.1-0.5
			c9.8-4.6,18.9-10.6,27.8-16.9c8.3-5.8,16.5-12,23.4-19.5c6.8-7.4,12.2-16.3,14.2-26.2c-5.1,2.6-10.4,4.4-15.8,5.8
			c8.1-6.3,15.3-13.6,22.2-21.2c6.8-7.3,13.5-14.9,18.6-23.6c2.4-4.2,11.4-25.7,11.4-25.7s1-5.2,1.4-7l0.6-4.1
			c0.1-0.6,0.1-1.2,0.2-1.8c0.1-0.9,0.1-1.8,0.1-2.7c1.2-1.6,2.5-3.2,3.7-4.8c6-8,11.9-16.2,16-25.3c4.1-9,6.5-19,5.4-28.8
			c-2.2,2.1-4.4,4-6.8,5.8c4.7-9,8.1-18.6,11.3-28.2c3.2-9.7,6.1-19.5,7.1-29.6C957.9,481,956.7,470.6,952.1,461.4z M941,412.9
			c1,0.3,1.5,1.6,1,2.5l0.6,0c4.6,20.1-2.1,42.5-17.1,56.8c-5.5,5.3-13.8,9.6-20.6,6.1c-4.7-2.5-7-8.3-6.5-13.6
			c0.6-5.3,3.6-10.1,7.2-14c3.6-3.9,8-7.1,12-10.6C926.6,432.1,933.8,422.4,941,412.9z M927.7,345.6c0,0,1.2-2.1,3-5.5
			c5.1,6.1,7.6,14.1,8,22.1c0.4,8-1,15.9-2.8,23.7c-0.6,2.7-1.3,5.4-2.6,7.9c-1.5,2.8-3.9,5.2-6.1,7.4c-3.4,3.4-6.9,6.9-11.1,9.1
			c-4.3,2.3-9.5,3.2-13.9,1.3c-7.4-3.1-9.9-12.8-7.7-20.5c2.2-7.7,7.9-13.8,13.1-19.8C914.6,363.1,921.3,354.5,927.7,345.6z
			 M874.1,441.5c-13.3-11.3-18.4-29.7-18.9-47.2l0.1-1c9.4,3.8,18.9,7.6,26.9,13.9c7.9,6.3,14.2,15.4,14.6,25.5
			c0.2,4.7-1.2,10-5.2,12.5C886.2,448.7,878.9,445.7,874.1,441.5z M889.7,502.6c-2.6,4.8-7.9,8.1-13.4,8.1l-1.2-0.2
			c-5.9-1.3-10.7-5.8-13.6-11.1c-2.9-5.3-4.1-11.4-4.9-17.3c-1.1-8.1-1.6-16.3-1.4-24.5c0-1.8,0.9-4.3,2.6-3.9
			c0.6,0.1,1.1,0.6,1.5,1c8.1,8.5,14.8,18.2,23.5,26.1c2.2,2,4.4,3.9,6.1,6.3C891.9,491.6,892.2,497.8,889.7,502.6z M898.3,298.9
			c3.4-7.1,5.6-14.7,7.6-22.3l0.7-2.6c10.5,14.6,15.2,33.2,13.1,51.1c-0.3,2.4-0.7,4.8-1.9,6.9c-3.6,6.6-12.7,7.9-20,6.4
			c-2.5-0.5-5.1-1.4-6.8-3.2c-1.5-1.6-2.3-3.7-2.7-5.8C886.4,318.7,893.6,308.8,898.3,298.9z M856.9,262.3
			c1.9-18.8,12.5-36.8,10-55.6l3.5,3.9c12.7,12.9,18.7,31.1,19.6,49.1c0.3,5.2,0,11-3.5,14.9c-2.1,2.4-5.2,3.7-8.3,4.6
			c-7.2,2-16.3,0.6-19.9-6C856.5,270,856.5,266,856.9,262.3z M824.3,159.8c0.9-0.8,2.3-0.4,3.4,0c10.1,4.1,16,14.5,20.7,24.3
			c2.7,5.8,5.3,11.8,5.4,18.2c0,6.4-3.1,13.2-9,15.6c-2.8,1.1-5.8,1.2-8.8,1c-4.1-0.3-8.6-1.4-10.9-4.8c-1.8-2.6-1.9-6-1.9-9.1
			c-0.1-14.7-0.3-29.4-0.4-44.1L824.3,159.8z M769.7,110.8c2.7,0.6,5,2.3,7.3,3.9c4,2.9,8,5.8,11.8,8.9c5,4.1,9.8,8.5,13.2,14
			c3.4,5.5,5.3,12.2,4,18.5c-0.5,2.5-1.5,4.9-3.3,6.6c-3.2,3.1-8.1,3.3-12.6,3.3c-4.6,0-9.8-0.3-12.6-3.9c-1.1-1.5-1.6-3.3-2.1-5.1
			c-4.1-15-7-30.3-8.7-45.8C766.7,110.3,769.7,110.8,769.7,110.8z M635.3,84.7c-15.7-7-28.9-18.4-43.3-27.7
			c14.8-5.1,30.9-4.5,46.3-1.8c19.3,3.3,39.5,11,49.7,27.7l-3.4,1C670.4,93.6,651,91.7,635.3,84.7z M704.5,122.1
			c-0.1,1.5-0.3,3.1-1.2,4.4c-0.9,1.2-3.6,2-3.6,2c-3.1,0.7-6.4,0.2-9.6-0.4c-5-0.8-10.1-1.7-14.8-3.7c-4.7-1.9-9.1-5.1-11.5-9.5
			c-0.1-0.3-0.3-0.6-0.2-0.9c0.1-0.3,0.4-0.4,0.7-0.4c7.7-2.1,15.4-4.3,23.1-6.4c1.4-0.4,2.9-0.8,4.4-0.9c5.8-0.5,11.6,4,12.6,9.7
			C704.8,118,704.6,120.1,704.5,122.1z M709.1,74.1c0.6-0.1,1.1,0.2,1.6,0.4c10,5.2,19.5,11.5,28.2,18.7c3.4,2.8,6.7,5.7,8.9,9.5
			c2.2,3.7,3.3,8.4,1.8,12.5l-4.2,4.9c-3.4,4.7-10.9,4.9-15.9,1.8c-5-3.1-8.1-8.4-10.8-13.6c-5.1-9.7-9.6-19.9-11-30.8
			C707.5,76.2,707.7,74.3,709.1,74.1z M756.3,163.3c-1.5,2.2-4.2,3.3-6.8,3.9c-5.6,1.1-11.5-0.2-16.8-2.2c-8.8-3.3-17-8.5-23-15.6
			c-0.4-0.5-0.9-1.1-1-1.8c-0.2-1.9,2.2-2.7,4.1-2.9c10.4-1.2,29.5-5.5,30.5-5.3c8.2,1.8,14.7,9.8,14.6,18.2
			C757.8,159.5,757.5,161.6,756.3,163.3z M757.9,184.3c7.3,1.3,14.6,1.9,22,1.9c4.8,0,9.6-0.3,14.3,0.6c4.7,0.9,9.3,3.3,11.7,7.4
			c3.6,6,0.7,14.8-5.7,17.7c-2.6,1.2-5.6,1.4-8.4,0.9l-0.1,0C777.3,206.9,764.9,198.2,757.9,184.3z M817.9,262.6
			c-10.6-5-22.5-20.7-27.6-31.2l9.7,0.9c10.9,1.3,21.9,3.2,31.8,8c4.3,2.1,8.5,4.9,10.9,9c2.4,4.2,2.4,10-1.1,13.3
			c-3,2.9-7.6,3.3-11.8,2.9C825.7,265.2,821.6,264.4,817.9,262.6z M822.7,284c0,0-6.4-6.4,2.3-4.5c12.7,3.3,24.9,8.3,36.2,14.9
			c3.8,2.2,7.6,4.7,9.8,8.5c3.3,5.7,2,12.8,0,19.1c-0.3,0.9-0.6,1.9-1.4,2.6c-0.7,0.7-1.8,0.9-2.8,1.1c-4.8,0.6-9.6-1-13.6-3.7
			c-4-2.6-7.3-6.2-10.4-9.8C835.3,303.3,828.6,293.9,822.7,284z M846.8,335.5l0.5,0.2c0,0.4,0.4,0.9,0.8,1.2
			c7.6,5.6,15.6,10.6,24,14.8c4.8,2.5,9.9,4.8,13.7,8.6c3.8,3.9,6.1,9.8,4.1,14.8c-1.8,4.4-6.6,7.2-11.3,7.4
			c-4.8,0.2-9.4-1.8-13.2-4.7c-6.4-4.7-10.8-11.7-13.6-19.1C849,351.2,847.8,343.3,846.8,335.5z M849.7,485.5c0,0.1,0.1,0.2,0.1,0.4
			h-0.4L849.7,485.5z M847.9,515L847.9,515c0.8-0.6,1.4-1,2.1-1.5c6.2,8.6,12.4,17.2,18.6,25.9c3.2,4.5,6.5,9.1,8.2,14.4
			c1.7,5.3,1.6,11.4-1.6,16c-3,4.3-8.7,6.5-13.8,5.4c-4.4-0.9-8-4-10.4-7.8c-2.4-3.7-3.7-8.1-4.6-12.5
			C843.7,541.7,844.2,527.9,847.9,515z M831.2,571.8c0.2,0.3,0.2,0.6,0.1,0.9l1.2-0.9c6.8,12.5,11.4,26.2,13.6,40.3
			c0.6,4,1.1,8,0.3,12c-0.8,3.9-3,7.8-6.5,9.7c-5.5,3-12.8,0.5-16.8-4.4c-3.9-4.9-5.1-11.5-5.2-17.8
			C817.8,597.4,822.5,583.1,831.2,571.8z M808.9,598.4C808.9,598.5,808.9,598.5,808.9,598.4L808.9,598.4
			C808.9,598.5,808.9,598.5,808.9,598.4z M801,627.9l1.2-1.2c6.3,12,10.1,25.3,10.9,38.8c0.4,6.8-0.5,14.7-6.2,18.3
			c-4.1,2.6-9.5,2.1-14.3,1.4c-1.8-0.2-3.7-0.5-5.1-1.7c-1.8-1.5-2.4-3.9-2.7-6.2C782.1,659.5,788.4,640.7,801,627.9z M740.1,717.9
			c1.7-10.2,3.6-20.6,8.5-29.7c4.1-7.5,10.2-13.8,16.8-19.4c-0.1,1,0.2,4.6,0.2,5c1.8,11.5,2.4,23.3,1.8,34.9
			c-0.3,5.2-0.8,10.5-2.8,15.2c-2,4.8-5.8,9-10.8,10.5s-11.1-0.6-13.3-5.3C738.9,725.6,739.5,721.6,740.1,717.9z M695.3,731.5
			c5.6-8.3,13.6-14.7,22.5-19.2l1.4-0.4c0.2-0.7,1.3-0.6,1.7,0c0.4,0.6,0.3,1.4,0.2,2.1c-2.3,14.8-4.6,29.6-6.9,44.3
			c-0.4,2.6-0.8,5.2-2.4,7.3c-3.2,4.4-9.7,4.4-15.1,3.3c-2.8-0.6-5.8-1.5-7.5-3.9c-1.1-1.5-1.4-3.4-1.6-5.3
			C686.7,749.9,689.7,739.8,695.3,731.5z M628.8,784.3c0.7-2.4,2.3-4.5,3.6-6.6c3.1-4.7,5.1-10.1,8.3-14.8
			c5.4-8.1,13.7-13.9,21.7-19.4c1.1-0.8,2.5-1.6,3.8-1.1c1.3,0.5,1.7,2,1.9,3.4c0.4,4.1-1,8.1-2.4,11.9c-3,8.3-6,16.5-8.9,24.8
			c-2.4,6.5-5.6,13.9-12.3,15.8c-1.2,0.3-11.7-2.5-13.7-5C628.6,790.9,627.9,787.4,628.8,784.3z M788.3,451l-118,85l-118-85l118-78
			L788.3,451z M507.3,267l118,78l-118,85l-118-85L507.3,267z M230.3,451l118-78l118,78l-118,85L230.3,451z M353.2,745.8
			c0.1-1.3,0.6-2.9,1.9-3.4c1.3-0.5,2.7,0.3,3.8,1.1c8.1,5.5,16.3,11.3,21.7,19.4c3.1,4.7,5.2,10,8.3,14.8c1.4,2.1,2.9,4.2,3.6,6.6
			c0.9,3.1,0.1,6.6-2,9c-2.1,2.4-12.5,5.3-13.7,5c-6.7-1.9-9.9-9.2-12.3-15.8c-3-8.3-6-16.5-8.9-24.8
			C354.2,753.9,352.8,749.9,353.2,745.8z M300.4,712c0.4-0.6,1.5-0.7,1.7,0l1.4,0.4c8.9,4.5,16.9,10.9,22.5,19.2s8.6,18.4,7.6,28.3
			c-0.2,1.8-0.5,3.7-1.6,5.3c-1.6,2.4-4.7,3.3-7.5,3.9c-5.3,1.1-11.8,1.1-15.1-3.3c-1.5-2.1-2-4.8-2.4-7.3
			c-2.3-14.8-4.6-29.6-6.9-44.3C300.1,713.3,300,712.6,300.4,712z M255.6,673.7c0.1-0.4,0.3-4,0.2-5c6.5,5.6,12.7,11.9,16.8,19.4
			c5,9.1,6.8,19.5,8.5,29.7c0.6,3.7,1.2,7.8-0.4,11.2c-2.2,4.7-8.3,6.7-13.3,5.3c-5-1.4-8.8-5.7-10.8-10.5c-2-4.8-2.6-10-2.8-15.2
			C253.3,697,253.8,685.2,255.6,673.7z M212.4,598.5L212.4,598.5C212.4,598.5,212.4,598.5,212.4,598.5
			C212.4,598.5,212.4,598.5,212.4,598.5z M208.2,665.5c0.8-13.5,4.6-26.8,10.9-38.8l1.2,1.2c12.7,12.7,18.9,31.6,16.3,49.4
			c-0.3,2.3-0.9,4.8-2.7,6.2c-1.4,1.1-3.3,1.4-5.1,1.7c-4.9,0.6-10.2,1.2-14.3-1.4C208.6,680.2,207.7,672.2,208.2,665.5z
			 M188.8,571.8l1.2,0.9c-0.1-0.3-0.2-0.7,0.1-0.9c8.7,11.3,13.5,25.6,13.2,39.9c-0.1,6.3-1.3,12.9-5.2,17.8
			c-3.9,4.9-11.3,7.5-16.8,4.4c-3.5-1.9-5.7-5.8-6.5-9.7c-0.8-3.9-0.3-8,0.3-12C177.4,598.1,182,584.4,188.8,571.8z M173.3,514.9
			L173.3,514.9c3.8,13,4.3,26.8,1.6,39.9c-0.9,4.4-2.2,8.7-4.6,12.5c-2.4,3.7-6.1,6.8-10.4,7.8c-5.1,1.1-10.8-1.1-13.8-5.4
			c-3.2-4.5-3.3-10.7-1.6-16c1.7-5.3,5-9.9,8.2-14.4c6.2-8.6,12.4-17.2,18.6-25.9C171.9,513.9,172.6,514.4,173.3,514.9z M132.5,487
			c1.6-2.4,3.9-4.3,6.1-6.3c8.6-7.9,15.4-17.6,23.5-26.1c0.4-0.4,0.9-0.9,1.5-1c1.8-0.4,2.6,2.1,2.6,3.9c0.2,8.2-0.3,16.4-1.4,24.5
			c-0.8,6-2,12-4.9,17.3c-2.9,5.3-7.7,9.8-13.6,11.1l-1.2,0.2c-5.5,0-10.8-3.3-13.4-8.1S129.4,491.6,132.5,487z M129.7,445.2
			c-4-2.5-5.4-7.8-5.2-12.5c0.4-10.1,6.7-19.3,14.6-25.5c7.9-6.3,17.5-10.1,26.9-13.9l0.1,1c-0.5,17.4-5.6,35.9-18.9,47.2
			C142.4,445.7,135.1,448.7,129.7,445.2z M171.8,485.9h-0.4c0-0.1,0.1-0.2,0.1-0.4L171.8,485.9z M169.5,358.7
			c-2.8,7.4-7.2,14.4-13.6,19.1c-3.8,2.8-8.5,4.9-13.2,4.7c-4.8-0.2-9.6-3-11.3-7.4c-2-5,0.3-10.9,4.1-14.8
			c3.8-3.9,8.9-6.2,13.7-8.6c8.4-4.3,16.4-9.2,24-14.8c0.4-0.3,0.8-0.7,0.8-1.2l0.5-0.2C173.5,343.3,172.3,351.2,169.5,358.7z
			 M383,55.2c15.4-2.7,31.5-3.3,46.3,1.8c-14.4,9.3-27.6,20.7-43.3,27.7c-15.7,7-35.1,8.9-49.3-0.9l-3.4-1
			C343.5,66.2,363.8,58.5,383,55.2z M316.9,116c1-5.7,6.8-10.2,12.6-9.7c1.5,0.1,2.9,0.5,4.4,0.9c7.7,2.1,15.4,4.3,23.1,6.4
			c0.3,0.1,0.6,0.2,0.7,0.4c0.1,0.3,0,0.6-0.2,0.9c-2.5,4.5-6.8,7.6-11.5,9.5c-4.7,1.9-9.8,2.8-14.8,3.7c-3.2,0.5-6.5,1.1-9.6,0.4
			c0,0-2.7-0.7-3.6-2s-1-2.8-1.2-4.4C316.7,120.1,316.5,118,316.9,116z M273.5,102.7c2.2-3.7,5.5-6.7,8.9-9.5
			c8.7-7.2,18.2-13.4,28.2-18.7c0.5-0.3,1-0.5,1.6-0.4c1.4,0.2,1.6,2.1,1.4,3.4c-1.4,10.9-5.9,21.1-11,30.8
			c-2.7,5.2-5.8,10.5-10.8,13.6c-5,3.1-12.4,2.9-15.9-1.8l-4.2-4.9C270.3,111.1,271.3,106.4,273.5,102.7z M278.1,139.3
			c1-0.2,20.1,4.2,30.5,5.3c1.9,0.2,4.3,1.1,4.1,2.9c-0.1,0.7-0.5,1.2-1,1.8c-6.1,7.2-14.2,12.4-23,15.6c-5.4,2-11.2,3.3-16.8,2.2
			c-2.6-0.5-5.3-1.7-6.8-3.9c-1.1-1.7-1.5-3.7-1.5-5.7C263.4,149.1,269.8,141.1,278.1,139.3z M219.3,137.6c3.4-5.5,8.2-10,13.2-14
			c3.8-3.1,7.8-6,11.8-8.9c2.2-1.6,4.6-3.3,7.3-3.9c0,0,3-0.5,2.9,0.5c-1.7,15.5-4.6,30.8-8.7,45.8c-0.5,1.8-1,3.6-2.1,5.1
			c-2.8,3.6-8,3.9-12.6,3.9c-4.4,0-9.4-0.2-12.6-3.3c-1.8-1.7-2.8-4.2-3.3-6.6C214,149.8,215.9,143.1,219.3,137.6z M215.4,194.2
			c2.4-4.1,7.1-6.5,11.7-7.4c4.7-0.9,9.5-0.7,14.3-0.6c7.4,0,14.8-0.6,22-1.9c-7,14-19.4,22.6-33.9,28.5l-0.1,0
			c-2.8,0.5-5.8,0.3-8.4-0.9C214.7,209.1,211.8,200.2,215.4,194.2z M221.3,232.2l9.7-0.9c-5.1,10.6-17,26.3-27.6,31.2
			c-3.7,1.7-7.8,2.6-11.9,2.9c-4.2,0.3-8.8,0-11.8-2.9c-3.4-3.3-3.4-9.1-1.1-13.3c2.4-4.2,6.6-6.9,10.9-9
			C199.5,235.5,210.5,233.6,221.3,232.2z M173,184.2c4.6-9.9,10.5-20.3,20.7-24.3c1.1-0.4,2.5-0.8,3.4,0l1.6,1.2
			c-0.1,14.7-0.3,29.4-0.4,44.1c0,3.1-0.1,6.5-1.9,9.1c-2.3,3.4-6.8,4.5-10.9,4.8c-3,0.2-6,0.1-8.8-1c-5.9-2.4-9.1-9.2-9-15.6
			C167.7,196,170.3,189.9,173,184.2z M196.3,279.5c8.7-1.8,2.3,4.5,2.3,4.5c-5.9,9.9-12.6,19.3-20.1,28.1c-3.1,3.6-6.4,7.2-10.4,9.8
			s-8.8,4.3-13.6,3.7c-1-0.1-2-0.4-2.8-1.1c-0.7-0.7-1.1-1.7-1.4-2.6c-1.9-6.3-3.2-13.4,0-19.1c2.2-3.8,6-6.3,9.8-8.5
			C171.4,287.8,183.6,282.8,196.3,279.5z M131.4,259.8c0.9-18,7-36.3,19.6-49.1l3.5-3.9c-2.5,18.8,8,36.7,10,55.6
			c0.4,3.7,0.4,7.7-1.4,11c-3.5,6.6-12.7,8-19.9,6c-3.1-0.8-6.1-2.2-8.3-4.6C131.4,270.8,131.1,265,131.4,259.8z M114.7,274.1
			l0.7,2.6c2,7.6,4.2,15.2,7.6,22.3c4.7,9.8,11.8,19.7,10,30.5c-0.4,2.1-1.1,4.3-2.7,5.8c-1.8,1.8-4.3,2.7-6.8,3.2
			c-7.4,1.6-16.4,0.2-20-6.4c-1.1-2.1-1.6-4.5-1.9-6.9C99.4,307.3,104.2,288.7,114.7,274.1z M82.6,362.3c0.4-8,2.8-16,8-22.1
			c1.8,3.4,3,5.5,3,5.5c6.3,8.9,13.1,17.5,20.2,25.7c5.2,6,10.9,12.1,13.1,19.8c2.2,7.7-0.3,17.4-7.7,20.5
			c-4.4,1.9-9.7,0.9-13.9-1.3c-4.3-2.3-7.7-5.7-11.1-9.1c-2.3-2.3-4.6-4.6-6.1-7.4c-1.3-2.4-2-5.2-2.6-7.9
			C83.6,378.2,82.2,370.2,82.6,362.3z M78.7,415.4l0.6,0c-0.5-0.9,0-2.2,1-2.5c7.2,9.6,14.4,19.2,23.3,27.2c4,3.5,8.3,6.7,12,10.6
			c3.6,3.9,6.6,8.7,7.2,14c0.6,5.3-1.7,11.1-6.5,13.6c-6.8,3.6-15-0.8-20.6-6.1C80.8,457.9,74.1,435.5,78.7,415.4z M78.1,486.3
			l2.7,0.3c5.8,8.2,13.2,15.3,21.7,20.7c7.5,4.8,15.9,8.4,22.4,14.6s10.6,16,6.8,24.1c-0.8,1.6-2,3.2-3.6,3.9
			c-1.7,0.7-3.6,0.3-5.3,0c-8.9-1.9-17.7-5.3-24.4-11.5c-6.7-6.3-10.6-14.9-13.6-23.6C81.5,505.4,79.3,495.9,78.1,486.3z
			 M96.8,564.9c0.2,0.3-0.4-1.6-0.4-1.6c2.2-1.3,4.8,0.7,6.6,2.5c5.5,5.4,12.2,9.5,19.5,12c8.3,2.8,17.7,3.7,24.4,9.5
			c5.7,4.8,8.4,13.2,5.7,20.2c-2.6,7-11,11.5-18.1,9c-2.4-0.8-4.5-2.4-6.5-3.9C112.9,600.6,101.8,583.6,96.8,564.9z M126.4,643.4
			c-1.9-4-3.3-8.3-2.9-12.7c4.3-1.3,14.7,3.8,19,5c17.1,5,29.8,6.7,39.2,13.1c1.5,1,1,1.9,2.3,3.1c1.4,1.2,1.9,3.1,2.4,4.8
			c1.1,4,2,8.1,1.3,12.2c-0.8,4.1-3.8,8-7.8,8.5c-0.9,0.1-2,0.1-3,0.2C155.7,676.4,135.5,662.8,126.4,643.4z M169.2,700.4
			c-1.2-1.3-2.4-3-1.7-4.5c5.3,0.2,10.5,0.4,15.8,0.6c9.5,0.4,19,0.8,28.2,3.1c7.1,1.8,14.3,5,18.7,10.9c4.4,5.9,5.2,15,0.1,20.3
			c0,0-3,3-5.6,3.9s-5.4,0.5-8.1,0C197.3,730.5,182.6,715.1,169.2,700.4z M243.1,773.8c-11.7-4.3-29.5-11.9-33.2-23.8H226
			c16.1-1,21.2-1.2,36.1-0.7c4,0.1,8,0.3,11.7,1.8c5.6,2.4,9.4,7.7,11.9,13.3c1.1,2.6,2,5.7,0.5,8.1c-1.3,1.9-3.7,2.6-6,3.1
			C267.9,778,254.9,778.2,243.1,773.8z M342.4,811.1c-4.6,3.7-25.3,1.8-29.4,1.4c-4.2-0.4-38.7-5.2-46.1-9.1
			c-1.7-0.2-2.6-2.9-2.6-2.9c10.3-2.7,31.7-10.4,42-13.1c6.5-1.7,13.2-3.4,19.9-3.1c6.7,0.3,13.7,3,17.6,8.4
			C347.8,798.3,347.6,806.9,342.4,811.1z M406,832.8c-1.9,3.3-7.1,7.7-22.1,9.7c-9.8,1.3-35.9-5.7-38.6-7.8
			c-0.5-0.4-1.1-0.9-1.2-1.6c-0.6-2.1,2.3-3.3,4.5-3.6c8.8-1.3,17-5,25-8.6c7.1-3.2,14.3-6.5,21.4-9.7c0,0,4.3,1.5,7.7,3.8
			C405.2,823.4,406.8,829.6,406,832.8z M591.8,903.5c-8.1,6.1-40.3-6.5-36.3,0c3.2,5,9.2,47.6,9.2,47.6l-104-1
			c0,0,3.9-42.6,7.1-47.6c5.8-9.4-25.4,10.1-37.3,1c-4.4-3.4-35.4-43.6-11.2-70c6.1-6.9-26-57.9-10.2-101.2
			c18.2-51,72.7-58.6,96.1-59.8c0,0,1.6,0,5.3,0c3.2,0,5.3,0,5.3,0c23.4,0.8,77.6,8.8,96.1,59.8c15.8,43.3-16.3,94.3-9,101.2
			C626.9,859.9,596.3,900,591.8,903.5z M677.2,833.1c-0.2,0.7-0.7,1.1-1.2,1.6c-2.7,2.1-28.8,9.1-38.6,7.8
			c-8.9-1.2-14.3-3.2-17.7-5.4c-0.7-1-1.5-1.9-2.3-2.9c-2.6-2.4-1-9.5,1.8-19.6c3.3-2.1,7.2-3.5,7.2-3.5c7.1,3.2,14.3,6.5,21.4,9.7
			c8.1,3.6,16.3,7.3,25,8.6C674.9,829.9,677.8,831,677.2,833.1z M754.4,803.5c-7.4,3.9-41.9,8.6-46.1,9.1
			c-4.1,0.4-24.8,2.3-29.4-1.4c-5.2-4.3-5.4-12.8-1.4-18.3c3.9-5.5,10.9-8.1,17.6-8.4c6.7-0.3,13.4,1.4,19.9,3.1
			c10.3,2.7,31.7,10.4,42,13.1C756.9,800.6,756,803.3,754.4,803.5z M778.2,773.8c-11.7,4.3-24.7,4.2-37,1.7c-2.3-0.5-4.7-1.1-6-3.1
			c-1.6-2.3-0.7-5.5,0.5-8.1c2.5-5.6,6.3-10.9,11.9-13.3c3.6-1.5,7.7-1.7,11.7-1.8c14.9-0.5,20-0.3,36.1,0.7h16.1
			C807.6,761.9,789.9,769.5,778.2,773.8z M852.1,700.4c-13.3,14.7-28,30.1-47.4,34.2c-2.7,0.6-5.5,0.9-8.1,0s-5.6-3.9-5.6-3.9
			c-5.1-5.3-4.3-14.4,0.1-20.3c4.4-5.9,11.6-9.1,18.7-10.9c9.2-2.3,18.7-2.7,28.2-3.1c5.3-0.2,10.5-0.4,15.8-0.6
			C854.5,697.4,853.2,699.2,852.1,700.4z M894.9,643.4c-9.1,19.3-29.3,33-50.6,34.2c-1-0.1-2-0.1-3-0.2c-4.1-0.5-7.1-4.4-7.8-8.5
			c-0.8-4.1,0.2-8.2,1.3-12.2c0.5-1.8,1-3.6,2.4-4.8c1.4-1.2,0.9-2.1,2.3-3.1c9.4-6.4,22.1-8,39.2-13.1c4.3-1.3,14.8-6.3,19-5
			C898.2,635.1,896.8,639.4,894.9,643.4z M924.5,564.9c-5,18.7-16.1,35.7-31.3,47.6c-2,1.6-4.1,3.1-6.5,3.9c-7,2.4-15.4-2.1-18.1-9
			c-2.6-7,0.1-15.3,5.7-20.2c6.7-5.7,16.1-6.6,24.4-9.5c7.3-2.5,14-6.6,19.5-12c1.8-1.8,4.4-3.8,6.6-2.5
			C924.9,563.3,924.3,565.2,924.5,564.9z M936.7,514.6c-3,8.7-6.9,17.3-13.6,23.6c-6.6,6.2-15.5,9.6-24.4,11.5
			c-1.8,0.4-3.7,0.7-5.3,0c-1.7-0.7-2.9-2.2-3.6-3.9c-3.8-8.1,0.3-17.9,6.8-24.1s14.9-9.8,22.4-14.6c8.5-5.4,15.9-12.5,21.7-20.7
			l2.7-0.3C942,495.9,939.8,505.4,936.7,514.6z"/>
		<path d="M492.2,864.5c-7.1-3.6-15.6-7.6-25.9-10.7c-12-4-23.6-5.8-32.6-6.7c-0.4,0-0.9,0-1.3,0c-7.6,2.7-10.3,7.1-10.7,8.5
			c-4,8.9,1.3,23.2,15.6,32.1c0.4,0.4,0.9,0.4,1.3,0.4c6.7,0.9,22.8,2.2,39.3-7.1c6.7-4,11.6-8.5,15.2-12.5
			C494.5,867.2,494,865,492.2,864.5z"/>
		<path d="M505.6,888.2c-11.2,11.2-11.6,26.3-11.2,33.9c0,0.9,1.3,1.3,1.8,0.4c1.8-1.8,4-4,6.7-6.2c2.7-2.2,5.8-3.6,8-4.5
			c2.2,0.9,4.9,2.2,8,4.5c3.1,1.8,5.4,4.5,6.7,6.2c0.4,0.9,1.8,0.4,1.8-0.4c0.4-7.1,0-22.8-11.2-33.9H505.6z"/>
		<path d="M587.3,846.3c-0.4,0-0.9,0-1.3,0c-8.9,0.9-20.1,2.7-32.6,6.7c-10.3,3.1-18.7,7.1-25.9,10.7c-1.8,0.9-2.2,3.6-0.9,4.9
			c3.1,4,8.5,8.5,15.2,12.5c16.5,9.4,32.6,8,39.3,7.1c0.4,0,0.9,0,1.3-0.4c14.3-9.4,19.6-23.2,15.6-33
			C597.1,853.4,594.8,848.9,587.3,846.3z"/>
	</g>
</g>
</svg>
