<?xml version="1.0" encoding="utf-8"?>
<!-- Generator: Adobe Illustrator 22.1.0, SVG Export Plug-In . SVG Version: 6.00 Build 0)  -->
<svg version="1.1" id="图层_1" xmlns="http://www.w3.org/2000/svg" xmlns:xlink="http://www.w3.org/1999/xlink" x="0px" y="0px"
	 viewBox="0 0 500 500" style="enable-background:new 0 0 500 500;" xml:space="preserve">
<g>
	<path d="M250,0C111.9,0,0,111.9,0,250s111.9,250,250,250s250-111.9,250-250S388.1,0,250,0z M250,485C120.2,485,15,379.8,15,250
		S120.2,15,250,15s235,105.2,235,235S379.8,485,250,485z"/>
	<path d="M250,50C139.5,50,50,139.5,50,250c0,86.2,54.5,159.7,131,187.8c-13.1-15.7-21-35.8-21-57.8c0-49.7,40.3-90,90-90
		s90,40.3,90,90c0,22-7.9,42.2-21,57.8c76.5-28.1,131-101.6,131-187.8C450,139.5,360.5,50,250,50z"/>
	<circle cx="250" cy="380" r="70"/>
</g>
</svg>
