<?xml version="1.0" encoding="utf-8"?>
<!-- Generator: Adobe Illustrator 21.0.2, SVG Export Plug-In . SVG Version: 6.00 Build 0)  -->
<!DOCTYPE svg PUBLIC "-//W3C//DTD SVG 1.1//EN" "http://www.w3.org/Graphics/SVG/1.1/DTD/svg11.dtd">
<svg version="1.1" id="arrows" xmlns="http://www.w3.org/2000/svg" xmlns:xlink="http://www.w3.org/1999/xlink" x="0px" y="0px"
	 viewBox="0 0 969.8 931.3" style="enable-background:new 0 0 969.8 931.3;" xml:space="preserve">
<path d="M866.7,610.3l-100-85.7l-0.4-0.3c96.7-15.8,170.5-99.8,170.5-201c0-112.5-91.2-203.7-203.7-203.7
	c-75.2,0-140.9,40.8-176.2,101.5l-5.4-89.4l33.3,6.3L481,0L374.6,148.4l33.3-11.9c0,0-1.8,58.7-3.8,77.7
	c-36.9-49.4-95.8-81.4-162.2-81.4c-111.7,0-202.3,90.6-202.3,202.3c0,104.3,78.9,190.1,180.3,201.1l-101.7,57.5l-20.6-65.9L0,789.7
	l223-0.8l-24.6-50.8l63.6-46c0,1.4-0.1,2.9-0.1,4.3c0,129.7,105.1,234.9,234.9,234.9c116.3,0,212.8-84.5,231.5-195.5l52.6,40.4
	l-38.1,34.1l227,39.7l-77-325.4L866.7,610.3z M733.2,192.2c72.4,0,131.1,58.7,131.1,131.1s-58.7,131.1-131.1,131.1
	S602,395.8,602,323.4S660.7,192.2,733.2,192.2z M101.1,335.1c0-77.8,63.1-140.9,140.9-140.9s140.9,63.1,140.9,140.9
	S319.7,476,241.9,476S101.1,412.9,101.1,335.1z M498.3,863.2c-90,0-162.9-72.9-162.9-162.9s72.9-162.9,162.9-162.9
	s162.9,72.9,162.9,162.9S588.3,863.2,498.3,863.2z"/>
</svg>
