<?xml version="1.0" encoding="utf-8"?>
<!-- Generator: Adobe Illustrator 21.0.2, SVG Export Plug-In . SVG Version: 6.00 Build 0)  -->
<!DOCTYPE svg PUBLIC "-//W3C//DTD SVG 1.1//EN" "http://www.w3.org/Graphics/SVG/1.1/DTD/svg11.dtd">
<svg version="1.1" id="Layer_1" xmlns="http://www.w3.org/2000/svg" xmlns:xlink="http://www.w3.org/1999/xlink" x="0px" y="0px"
	 viewBox="0 0 901.4 698" style="enable-background:new 0 0 901.4 698;" xml:space="preserve">
<g>
	<path d="M397.4,534.5c-20.7,31.6-41.3,63.3-62.3,95.4c-17.5-10.2-34.8-20.3-52.5-30.5c1.5-1.9,2.6-3.3,3.8-4.6
		c27.6-31.4,55.2-62.9,82.9-94.2c2.5-2.8,3.2-5.2,2.3-8.9c-3-11.8-5.5-23.6-8.4-36.2c-21.6,9.1-42.6,18-64.4,27.2
		c2.4,6.6,4.8,12.9,7,19.3c1.6,4.4,4.9,9.3,3.9,13c-1,3.7-6.4,6.3-10,9.2c-5.1,4.3-10.3,8.4-15.5,12.6c-0.2,0.2-0.6,0.2-1.6,0.4
		c0-1.9-0.3-3.6,0.1-5.3c1.6-7.2-1.2-12.7-6-18c-4.7-5.1-8.7-10.8-13.6-16.9c-6.1,12.6-11.9,24.3-17.3,36.2c-0.6,1.3,0.3,3.5,1,5
		c8.4,16.8,17,33.6,25.5,50.4c0.8,1.6,1.5,3.2,1.5,5.5c-27-15.7-53.9-31.4-81.2-47.2c0.7-2.4,1.3-4.6,2-6.8
		c5-15.7,10.1-31.4,14.9-47.2c1.1-3.6,3-5.8,6.5-7.5c45.9-21.7,91.8-43.6,137.7-65.3c3-1.4,4.3-2.9,3.7-6.3
		c-6.1-36.8-11.9-73.6-18.1-110.4c-0.8-4.6-2.4-9-4-13.4c-0.6-1.8-1.9-3.4-3.5-6.2c-1.4,4.2-2.6,7-3.4,10
		c-9.4,34.6-18.8,69.1-27.9,103.7c-1.2,4.4-3.1,6.5-7.5,7.7c-22.9,6.4-45.7,13.3-68.6,19.9c-1.6,0.5-3.1,0.8-5.5,1.5
		c29.5-66.9,49.1-136.3,68-206.2c-1.3-0.6-2-0.9-2.8-1.2c-5.5-1.8-11-3.7-17.1-5.7c-0.6,1.9-1.1,3.6-1.6,5.2
		C242.3,296,210,369.3,168.3,438.4c-1.2,2-3.6,4-5.9,4.7c-28.2,8.5-56.6,16.7-84.9,24.9c-1.2,0.4-2.5,0.6-4.3,0.9
		c0.5-1.1,0.6-1.7,1-2.2c27.3-36.7,47.8-77.3,67.1-118.5c24-51.5,44.9-104.3,64-157.8c0.4-1.2,0.8-2.5,1.3-4.2
		c-2.6-1.3-5.1-2.5-7.6-3.7s-5.1-2.4-8.1-3.8c-1,2.2-1.8,4.1-2.7,6.1c-26.2,60.4-54.5,119.8-89.1,176c-12.3,20-25.5,39.5-41.6,56.8
		c-5.6,6.1-11.9,11.5-18.3,17.6c-13.1-14-25.7-27.5-39.2-42c1.2-0.5,2.1-0.7,2.7-1.2c68.7-54.3,117.7-123.3,151.8-203.3
		c20.7-48.5,35.3-98.8,42.2-151.1c0.4-3.1,1.5-4.6,4.6-5.3c46.3-10.3,92.7-20.6,139-31c1.1-0.2,2.3-0.3,3.6-0.4
		c0.8,7.8,1.8,15.4,2.3,23c0.1,1.4-1.5,3.1-2.6,4.4c-7.8,9.1-16.6,17.5-23.3,27.3c-10,14.8-14.5,31.5-10.9,49.5
		c5.4,26.4,28.2,45.6,53.9,44.7c21-0.7,36.2-11.4,45.4-30.2c4.5-9.3,1.4-18.5-8.2-22.4c-7-2.8-14.7-4.7-22.2-5
		c-15-0.6-30,0.1-45,0.2c-2.8,0-5.6,0-8.7,0c0-5.7,2-10,5.6-12.9c6.5-5.1,13.1-10.4,20.4-14.2c26.8-13.6,55.7-21.1,84.9-27.3
		c10.2-2.2,20.6-4.2,31-5.1c25.2-2.1,43.2,9.7,50.4,33.9c3.5,11.5,4.7,23.8,6.1,35.8c1,8.9,0.5,18,0.6,27
		c0.2,13.2,10,21.5,23.2,19.4c26.9-4.2,48-32.6,45-60.3c-2.3-21.3-12.3-38.7-27.6-52.9c-7.7-7.1-12-13.9-9-24.4
		c0.9-3.3,0.7-6.9,1.1-10.7c1.8,0.3,3.2,0.4,4.7,0.8C606.8,11.7,652.5,22,698.2,32c3.5,0.8,5.1,2,5.7,5.9
		C718.6,138.1,755,229.3,816.7,310c23.1,30.2,49.7,57,79.4,80.7c1.1,0.9,2.2,1.9,3.7,3.2c-12.7,13.6-25.2,27-38,40.8
		c-1.6-1.1-3.2-2-4.4-3.2c-10.3-11.1-21.4-21.6-30.6-33.5c-24.5-31.8-44.3-66.6-62.1-102.4c-18.3-36.8-35.3-74.3-52.8-111.5
		c-0.7-1.5-1.4-3-2.3-5.1c-5.2,2.4-10.2,4.8-15.5,7.3c0.2,1.2,0.3,2.2,0.6,3.1c26.9,74.8,56.2,148.7,94.5,218.6
		c10.9,20,24.1,38.7,36.2,58c0.6,0.9,1.2,1.9,2.2,3.6c-2.5-0.6-4.3-1-6-1.5c-27.5-8-55-16.1-82.5-24c-3.5-1-5.7-2.8-7.5-5.9
		C690.3,369.1,658,296,635.1,218.8c-0.4-1.4-0.9-2.8-1.6-4.8c-6.5,2.2-12.9,4.3-20,6.7c18.9,70,38.5,139.3,68,206.1
		c-1.8-0.4-3.2-0.5-4.5-0.9c-23.7-6.9-47.3-13.9-71-20.7c-3.4-1-4.8-2.7-5.6-5.9c-9.2-34.8-18.6-69.5-28-104.2
		c-0.9-3.2-2.1-6.3-4.5-9.8c-1.2,2.5-3,4.9-3.6,7.6c-3.6,15.9-7.5,31.8-10.2,47.8c-4.1,24.1-7.1,48.5-10.8,72.7
		c-0.6,4,0.5,5.8,4.1,7.5c45.8,21.6,91.5,43.4,137.3,65c3.3,1.6,5.2,3.5,6.3,7c5.2,16.9,10.6,33.7,16.1,50.5
		c0.8,2.6,0.7,4.1-1.9,5.7c-25.7,14.8-51.3,29.8-76.9,44.6c-0.5,0.3-1.1,0.5-2.7,1.1c1.6-3.2,2.7-5.5,3.9-7.8
		c8.2-16.2,16.4-32.4,24.5-48.6c0.7-1.5,1.4-3.7,0.8-5c-5.4-11.8-11.1-23.4-17.2-36.1c-4.6,5.7-8.3,11.2-12.8,15.9
		c-5.8,6-8.4,12.5-6.8,20.7c0.2,1.1,0,2.2,0,4.5c-9.4-7.7-18-14.6-26.4-21.8c-0.9-0.7-0.7-3.4-0.2-4.8c3.3-9.4,6.8-18.7,10.6-28.8
		c-21.4-9.1-42.6-18-64.4-27.2c-2.3,10-3.9,19.8-7,29c-3,8.9-0.6,14.8,5.5,21.6c26.4,29.2,52.1,58.9,78.1,88.5
		c1.2,1.4,2.3,2.8,4,4.8c-17.5,10.2-34.7,20.2-52.6,30.6c-20.8-31.8-41.5-63.5-62.2-95.2c-0.3,0.1-0.6,0.2-0.9,0.3
		c0.2,1.3,0.4,2.6,0.7,3.9c8.8,35.4,17.6,70.8,26.7,106.1c1.1,4.1,0,5.8-3.4,7.8c-24.3,13.9-48.5,28-72.6,42.2
		c-2.4,1.4-4.1,1.6-6.7,0.1c-24.4-14.4-48.9-28.6-73.5-42.7c-3.4-1.9-3.6-3.8-2.8-7.2c9-35.7,18-71.4,26.9-107.1
		c0.3-1.1,0.5-2.2,0.7-3.3C398.1,534.7,397.7,534.6,397.4,534.5z M422.9,61.9c3.3,1.3,5.2,2.4,7.1,2.6c10.2,1.2,20.3,0,29.8-3.9
		c1.6-0.7,2.7-2.6,4-3.9c-1.6-0.9-3.2-2.4-4.9-2.7c-10.2-1.5-20.2-0.2-29.8,3.6C427.2,58.3,425.7,59.9,422.9,61.9z"/>
</g>
</svg>
