<?xml version="1.0" encoding="utf-8"?>
<!-- Generator: Adobe Illustrator 22.1.0, SVG Export Plug-In . SVG Version: 6.00 Build 0)  -->
<svg version="1.1" id="Layer_2" xmlns="http://www.w3.org/2000/svg" xmlns:xlink="http://www.w3.org/1999/xlink" x="0px" y="0px"
	 viewBox="0 0 1000 485.2" style="enable-background:new 0 0 1000 485.2;" xml:space="preserve">
<g>
	<path d="M965.3,33.8L1000,0H625.2v23.3c17,0,30,27.5,30,42.8s-30,37.8-57.4,37.8s-40.4-12.1-40.4-31.3
		c-0.1-11.2,6.1-21.8,27.5-20.7c8.5,0.2,15,20.7,15,20.7l18.6-26L595.5,25v-0.5c0-0.6-0.5-1.1-1.1-1.1h-66.2
		c0,0-26.2,35.3-28.2,37.3c-2-2-28.2-37.3-28.2-37.3h-66.2c-0.6,0-1.1,0.5-1.1,1.1V25l-22.9,21.7l18.6,26c0,0,6.5-20.5,15-20.7
		c21.4-1.2,27.6,9.5,27.5,20.7c0,19.2-13.1,31.3-40.4,31.3s-57.4-22.4-57.4-37.8s13.1-42.8,30-42.8V0H0l34.7,33.8h226.8v11.5
		L66.7,65l51.2,49.9l147.6-48.5v14l-126.4,55.2l38.2,37.2L272,104l5.5,10.9l-84.4,73.2l29.9,29.1l64.4-79.9l10,9.2L239.3,233
		l30.6,29.8l42.8-99l9.7,9.1l-35.2,106.7l19.9,18.1c0,1.3,0,2.6,0.1,3.8c0.4,4.5,1.7,8.8,3,13c1.4,4.2,2.8,8.4,4.8,12.4
		c-1-0.8-2-1.6-2.9-2.6c-0.5,4.3,0.6,8.7,2.3,12.7c1.8,4,4.3,7.6,6.8,11.1c0.5,0.7,1,1.4,1.6,2.1c0,0.4,0,0.8,0,1.2
		c0,0.3,0,0.5,0.1,0.8l0.3,1.8c0.2,0.8,0.6,3.1,0.6,3.1s3.8,9.5,4.9,11.3c2.2,3.8,5,7.1,7.9,10.4c3,3.3,6,6.5,9.5,9.3
		c-2.3-0.6-4.6-1.4-6.8-2.5c0.9,4.3,3.2,8.2,6.1,11.5c2.9,3.3,6.4,6,10,8.6c3.8,2.7,7.7,5.4,11.9,7.4c0.2,0.1,0.3,0.1,0.5,0.2
		c-2.8-0.1-5.6-0.5-8.3-1.4c1.5,4.1,4.4,7.5,7.7,10.1c3.4,2.7,7.2,4.7,11.1,6.6c4.1,2,8.3,3.9,12.7,5.2c0.5,0.1,1,0.3,1.5,0.4
		c-3,0.6-6,0.9-9.2,0.7c2.4,3.6,5.9,6.3,9.7,8.1c3.9,1.9,8.1,3,12.2,3.9c4.1,1,8.2,1.8,12.4,2.1c0.1,0.1,0.2,0.1,0.3,0.2
		c0.2,0.3,0.3,0.5,0.5,0.8c-1.4,0.3-2.7,0.6-4.1,0.7c2.8,3.5,6.7,5.8,10.7,7.1c4.1,1.3,8.4,1.8,12.6,2.1c4.6,0.3,9.1,0.5,13.7,0
		c4.3-0.5,8.9-2,11.3-6.2c1.6-2.8,1.8-6.2,1.2-9.4c2.1,0.4,4.1,0.8,6.2,1.2c1.4,4.4,2.8,7.7,2,8.6c-7.3,7.1,2.7,18.5,4,19.5
		c2.4,1.7,10.2-1.8,9,0c-1,1.3-1.8,11.5-1.8,11.5h34.3c0,0-0.9-10.1-1.8-11.5c-1.2-1.8,6.6,1.7,9,0c1.3-0.9,11.2-12.3,4-19.5
		c-1-0.9,0.4-4.2,1.7-8.6c2.1-0.4,4.1-0.8,6.2-1.2c-0.6,3.2-0.4,6.7,1.1,9.4c2.4,4.1,7,5.6,11.3,6.2c4.6,0.6,9.1,0.4,13.7,0
		c4.3-0.3,8.6-0.7,12.6-2.1c4-1.3,7.9-3.6,10.7-7.1c-1.4-0.1-2.8-0.4-4.1-0.7c0.2-0.3,0.3-0.5,0.5-0.8c0.1-0.1,0.2-0.1,0.3-0.2
		c4.2-0.3,8.3-1.2,12.4-2.1c4.2-1,8.4-2.1,12.2-3.9c3.8-1.8,7.4-4.5,9.7-8.1c-3.1,0.2-6.2-0.1-9.2-0.7c0.5-0.1,1-0.2,1.5-0.4
		c4.4-1.3,8.6-3.2,12.7-5.2c3.9-1.9,7.7-3.9,11.1-6.6c3.3-2.7,6.2-6.1,7.7-10.1c-2.8,0.9-5.5,1.3-8.3,1.4c0.2-0.1,0.3-0.1,0.5-0.2
		c4.2-2,8.1-4.7,11.9-7.4c3.6-2.6,7.1-5.3,10-8.6c2.9-3.3,5.2-7.2,6.1-11.5c-2.2,1.1-4.5,1.9-6.8,2.5c3.4-2.8,6.5-6,9.5-9.3
		c2.9-3.2,5.8-6.6,7.9-10.4c1-1.8,4.9-11.3,4.9-11.3s0.4-2.3,0.6-3.1l0.3-1.8c0-0.3,0.1-0.5,0.1-0.8c0-0.4,0-0.8,0-1.2
		c0.5-0.7,1-1.4,1.6-2.1c2.6-3.5,5.1-7.1,6.8-11.1c1.8-4,2.8-8.3,2.3-12.7c-0.9,0.9-1.9,1.8-2.9,2.6c2-4,3.5-8.2,4.8-12.4
		c1.4-4.2,2.6-8.6,3-13c0.1-1.3,0.1-2.5,0.1-3.8l19.9-18.1L677.6,173l9.7-9.1l42.8,99l30.6-29.8l-58.2-86.5l10-9.2l64.4,79.9
		l29.9-29.1l-84.4-73.2L728,104l94.7,68.7l38.2-37.2L734.5,80.3v-14l147.6,48.5L933.3,65L738.5,45.3V33.8H965.3z M500,405.5
		c-73.3,0-132.6-59.4-132.6-132.6S426.7,140.3,500,140.3s132.6,59.4,132.6,132.6S573.3,405.5,500,405.5z M683.9,255.3
		c-0.3,1.2-0.6,2.4-1.1,3.5c-0.7,1.2-1.6,2.3-2.6,3.3c-1.5,1.5-2.9,3-4.8,4c-1.8,1-4,1.4-5.9,0.6c-1.7-0.7-2.8-2.3-3.3-4.1
		c-0.3-1.4-0.3-3,0.1-4.4c0.9-3.4,3.4-6.1,5.6-8.7c0.5-0.6,1.1-1.3,1.6-1.9c0-0.2-0.1-0.3-0.1-0.5c2.5-3,4.8-6.1,7-9.3
		c0,0,0.5-0.9,1.3-2.4c2.2,2.7,3.2,6.2,3.4,9.7C685.3,248.4,684.6,251.9,683.9,255.3z M645.6,354.8c0.3,1.7,0.5,3.5,0.1,5.3
		c-0.3,1.7-1.3,3.4-2.8,4.3c-2.3,1.3-5.5,0.2-7.2-1.9c-0.8-1-1.3-2.2-1.7-3.5c-0.3-1.2-0.4-2.5-0.4-3.8c-0.1-6.3,1.9-12.6,5.6-17.5
		c0.1,0.1,0.1,0.3,0,0.4l0.5-0.4c2.1,4.1,3.7,8.4,4.8,12.8C645.1,351.8,645.3,353.3,645.6,354.8z M586.5,119.7
		c-0.1-0.6,0-1.4,0.6-1.5c0.2,0,0.5,0.1,0.7,0.2c4.3,2.3,8.3,5.1,12.1,8.2c1.4,1.2,2.8,2.5,3.8,4.2c0.2,0.3,0.4,0.7,0.5,1.1
		c0,0-0.1-0.1-0.1-0.1c0.2,0.5,0.4,0.9,0.5,1.4c0.2,1,0.2,2.1-0.1,3.1l-1.8,2.2c-1.5,2.1-4.6,2.1-6.8,0.8c-2.1-1.3-3.5-3.7-4.6-6
		c-1.6-3.1-3-6.3-3.9-9.7c-0.3-1-0.5-2.1-0.6-3.1c0,0,0,0,0,0C586.5,120.2,586.5,120,586.5,119.7z M611.7,134.6
		c0-0.4,1.2-0.2,1.2-0.2c1.2,0.3,2.2,1,3.1,1.7c1.7,1.3,3.4,2.6,5,3.9c2.1,1.8,4.2,3.7,5.7,6.2c1.5,2.4,2.3,5.3,1.7,8.1
		c-0.2,1.1-0.6,2.1-1.4,2.9c-1.4,1.4-3.5,1.4-5.4,1.5c-1.9,0-4.2-0.1-5.4-1.7c-0.5-0.6-0.7-1.4-0.9-2.2c-0.3-1.3-0.7-2.7-1-4
		c-0.9-4.1-1.7-8.3-2.2-12.5c0,0,0,0-0.1-0.1C612,137,611.8,135.8,611.7,134.6z M635.5,156.4l0.7-0.5c0.4-0.3,1-0.2,1.4,0
		c4.3,1.8,6.8,6.4,8.8,10.7c1.2,2.5,2.3,5.2,2.3,8c0,2.8-1.3,5.8-3.9,6.9c-1.2,0.5-2.5,0.5-3.8,0.4c-1.8-0.1-3.7-0.6-4.7-2.1
		c-0.2-0.4-0.4-0.7-0.5-1.1c-0.2-0.8-0.2-1.6-0.2-2.4c0-4.8-0.1-9.6-0.1-14.4c0,0-0.1-0.1-0.1-0.1
		C635.6,160,635.6,158.2,635.5,156.4z M667.2,275.9c0.1,2.1-0.5,4.4-2.2,5.5c-2.3,1.5-5.4,0.2-7.5-1.6c-3.5-3.1-5.7-7.4-6.9-12
		c-0.7-2.7-1-5.5-1.1-8.3l0.1-0.4c4,1.7,8.1,3.3,11.5,6.1c2.7,2.2,4.9,5.2,5.8,8.5C667.1,274.4,667.2,275.2,667.2,275.9z
		 M588.8,149.7c4.4-0.5,12.6-2.4,13-2.3c2.8,0.6,5.1,3,5.9,5.8c0.1,0.6,0.2,1.1,0.2,1.7c0,0.9-0.2,1.8-0.7,2.5
		c-0.6,1-1.8,1.5-2.9,1.7c-2.4,0.5-4.9-0.1-7.2-1c-3.8-1.4-7.2-3.7-9.8-6.9c-0.1-0.1-0.2-0.3-0.3-0.4
		C587.1,150.1,588,149.8,588.8,149.7z M617.4,168c2,0,4.1-0.1,6.1,0.3c2,0.4,4,1.5,5,3.3c0.2,0.3,0.3,0.7,0.4,1
		c0.5,2.4-0.7,5.2-3,6.3c-1.1,0.5-2.4,0.6-3.6,0.4l0,0c-6-2.5-11.1-6.2-14.2-12C611.2,167.7,614.3,168,617.4,168z M626,188.2
		c4.6,0.6,9.3,1.4,13.6,3.5c1.8,0.9,3.6,2.1,4.7,4c0.2,0.4,0.4,0.8,0.5,1.2c0.3,1.5,0,3.1-1,4.2c-1.3,1.3-3.3,1.4-5,1.3
		c-1.7-0.1-3.5-0.5-5.1-1.3c-4.4-2.1-9.2-8.6-11.5-13.2L626,188.2z M656.3,219.3c0.3,0.5,0.5,1,0.6,1.6c0.4,2-0.1,4.3-0.7,6.3
		c-0.1,0.4-0.3,0.8-0.6,1.1c-0.3,0.3-0.8,0.4-1.2,0.5c-2,0.3-4.1-0.5-5.8-1.6s-3.1-2.7-4.5-4.3c-3.2-3.8-6.1-8-8.6-12.3
		c0,0-0.6-0.6-0.8-1.2c0-0.4,0.5-0.7,1.9-0.4c5.4,1.5,10.6,3.7,15.4,6.5C653.7,216.5,655.4,217.6,656.3,219.3z M664.3,250.5
		c-0.8,2-2.8,3.2-4.8,3.2c-2,0.1-4-0.8-5.7-2c-2.7-2.1-4.6-5.1-5.8-8.4c-0.4-1.1-0.7-2.2-1-3.3c-0.5-2.1-0.8-4.3-1-6.4l0.2,0.1
		c0,0.2,0.2,0.4,0.3,0.5c3.2,2.5,6.7,4.6,10.2,6.5c2.1,1.1,4.2,2.1,5.8,3.8c0.8,0.8,1.4,1.9,1.8,3
		C664.6,248.5,664.6,249.6,664.3,250.5z M577.9,122.1l-1.3,0.4c-6,4.3-14.3,3.5-21,0.4c-6.5-3-12-7.8-18-11.8
		c6.2-2.1,12.9-1.8,19.4-0.7C565,111.8,573.5,115.1,577.9,122.1z M568.1,136.1c3.3-0.9,6.6-1.9,9.9-2.8c0.6-0.2,1.2-0.4,1.9-0.4
		c2.4-0.2,4.7,1.6,5.3,3.9c0.1,0.9,0.1,1.7,0,2.6c-0.1,0.7-0.1,1.4-0.5,1.9s-1.5,0.9-1.5,0.9c-1.3,0.3-2.7,0.1-4.1-0.2
		c-2.1-0.4-4.3-0.8-6.3-1.6c-2-0.8-3.8-2.2-4.9-4.1C567.8,136.2,568,136.1,568.1,136.1z M657.9,310.1c-2.5-0.6-4.6-2.5-5.8-4.9
		c-0.6-1.1-1-2.3-1.4-3.6c-0.3-1.2-0.5-2.4-0.6-3.6c-0.5-3.6-0.7-7.2-0.6-10.8c0-0.8,0.4-1.9,1.1-1.7c0.3,0.1,0.5,0.3,0.6,0.5
		c3.4,3.7,6.3,8,10,11.5c0.9,0.9,1.9,1.7,2.6,2.8c0.4,0.6,0.7,1.3,0.9,2c0.3,1.5,0.1,3-0.6,4.4c-1.1,2.1-3.4,3.5-5.7,3.6
		L657.9,310.1z M677,228.6c-0.1,1-0.3,2.1-0.8,3c-1.5,2.9-5.4,3.5-8.5,2.8c-1.1-0.2-2.2-0.6-2.9-1.4c-0.5-0.5-0.8-1.1-0.9-1.8
		c0-0.1-0.1-0.2-0.1-0.3c-0.7-4,1.4-7.8,3.3-11.5c0-0.1-0.1-0.3-0.1-0.4c0.3-0.7,0.7-1.3,1-2c1.5-3.1,2.4-6.5,3.2-9.8l0.3-1.1
		C675.9,212.6,677.9,220.7,677,228.6z M664.3,199.9c0.1,2.3,0,4.8-1.5,6.5c-0.9,1-2.2,1.6-3.5,2c-3.1,0.9-7,0.3-8.5-2.6
		c-0.2-0.3-0.3-0.7-0.4-1c-0.2-1.1-0.2-2.2-0.1-3.3c0.4-4.5,2-9,3.1-13.4c-0.1-0.1-0.1-0.2-0.2-0.3c1-3.7,1.7-7.4,1.2-11.2l1.5,1.7
		C661.3,183.9,663.9,191.9,664.3,199.9z M612.7,130.4c-0.1-0.2-0.3-0.4-0.4-0.6c0.1,0.1,0.2,0.1,0.3,0.2
		C612.6,130.1,612.6,130.2,612.7,130.4z M380.6,383.4c-0.1,1-0.4,2.1-1.2,2.7c-0.6,0.5-1.4,0.6-2.2,0.7c-2.1,0.3-4.4,0.5-6.1-0.6
		c-1.2-0.8-1.9-2-2.3-3.4c-0.3-1.4-0.4-2.8-0.3-4.2c0.4-5.9,2-11.8,4.7-17l0.5,0.5c3,3.1,5.2,7.1,6.3,11.3
		C380.9,376.8,381.1,380.1,380.6,383.4z M354.5,360.7c0-0.1,0-0.1,0-0.2c-0.3-1.7-0.1-3.5,0.1-5.3c1-6.2,2.9-12.2,5.8-17.7l0.5,0.4
		c-0.1-0.1-0.1-0.3,0-0.4c2.3,3,3.9,6.6,4.8,10.3c0.5,2.2,0.8,4.5,0.7,6.8c0,2.8-0.5,5.7-2.2,7.8c-1.7,2.2-4.8,3.3-7.2,1.9
		C355.8,363.6,354.9,362.2,354.5,360.7z M347.9,338.5c-2.2,0.5-4.6-0.5-5.9-2.4c-0.4-0.6-0.7-1.3-0.9-2c-0.3-1.5-0.1-3.1,0.3-4.5
		c0.7-2.3,2.1-4.3,3.5-6.3c2.6-3.8,5.3-7.6,7.9-11.4c0.3,0.2,0.6,0.4,0.9,0.6l0,0c0.2,0.6,0.3,1.1,0.4,1.7c1.1,5,1.1,10.3,0.1,15.3
		c-0.4,1.9-0.9,3.8-2,5.5C351.3,336.7,349.8,338.1,347.9,338.5z M335.4,305.3c-0.3-1.7,0-3.6,1-5.1c0.7-1.1,1.7-1.9,2.6-2.8
		c3.7-3.5,6.6-7.7,10-11.5c0.2-0.2,0.4-0.4,0.6-0.5c0.5-0.1,0.8,0.3,1,0.8c0,0.1,0,0.3,0,0.4c0.1,3.6-0.1,7.2-0.6,10.8
		c-0.3,2.6-0.9,5.3-2.1,7.6c-1.2,2.3-3.3,4.3-5.8,4.9l-0.5,0.1c-2.3,0-4.6-1.4-5.7-3.6C335.6,306.2,335.5,305.8,335.4,305.3z
		 M317.3,258.8c-0.6-1.1-0.9-2.3-1.1-3.5c-0.8-3.4-1.4-6.9-1.2-10.4c0.2-3.5,1.2-7,3.4-9.7c0.8,1.5,1.3,2.4,1.3,2.4
		c2.2,3.2,4.6,6.3,7,9.3c0,0.1,0,0.2,0,0.3c0.6,0.7,1.2,1.5,1.8,2.2c2.2,2.6,4.6,5.3,5.6,8.7c0.7,3.3-0.4,7.3-3.4,8.6
		c-1.9,0.8-4.1,0.4-5.9-0.6c-1.8-1-3.3-2.5-4.8-4C318.9,261,317.9,260,317.3,258.8z M373.3,146.2c1.5-2.4,3.5-4.4,5.7-6.2
		c1.6-1.4,3.3-2.6,5-3.9c1-0.7,2-1.5,3.1-1.7c0,0,1.3-0.2,1.2,0.2c-0.7,6.8-2,13.5-3.7,20.1c-0.2,0.8-0.4,1.6-0.9,2.2
		c-1.2,1.6-3.4,1.7-5.4,1.7c-1.9,0-4-0.1-5.4-1.5c-0.7-0.6-1-1.5-1.3-2.4c-0.1-0.4-0.1-0.7-0.1-1.1c0,0,0,0-0.1,0.1
		C371.1,151.1,371.9,148.4,373.3,146.2z M462.5,111c-6,4-11.5,8.9-18.1,11.9c-6.7,3.1-15,3.9-21-0.4l-1.1-0.3
		c4.4-7.1,12.9-10.4,21-11.8C449.7,109.3,456.3,109,462.5,111z M415,139.8c-0.1-0.9-0.1-1.8,0-2.7c0.4-2.5,2.9-4.5,5.4-4.3
		c0.6,0.1,1.3,0.2,1.9,0.4c3.3,0.9,6.6,1.9,9.9,2.8c0,0,0.1,0,0.1,0c0,0,0,0,0,0c-1.1,2-2.9,3.3-4.9,4.2c-2,0.9-4.2,1.2-6.3,1.6
		c-1.4,0.2-2.8,0.5-4.1,0.2c0,0-1.2-0.3-1.5-0.9c-0.1-0.2-0.2-0.4-0.3-0.6C415.1,140.4,415,140.1,415,139.8z M356.4,201.1
		c-0.5-0.5-0.8-1.1-1-1.7c-0.2-1.2,0-2.6,0.6-3.7c1-1.8,2.8-3.1,4.7-4c4.2-2.1,8.9-2.9,13.6-3.5l3.8-0.3
		c-2.3,4.6-7.2,11.1-11.5,13.2c-1.6,0.8-3.3,1.1-5.1,1.3C359.6,202.5,357.7,202.4,356.4,201.1z M377.6,179.2L377.6,179.2
		c-1.2,0.2-2.5,0.1-3.6-0.4c-1.4-0.6-2.4-2-2.8-3.5c-0.3-1.3-0.1-2.6,0.5-3.8c1-1.8,3-2.8,5-3.3c2-0.4,4.1-0.3,6.1-0.3
		c3,0,6-0.3,9-0.8C388.8,173,383.6,176.7,377.6,179.2z M337.6,244.5c1.6-1.7,3.8-2.7,5.8-3.8c3.6-1.9,7-4.1,10.2-6.5
		c0.2-0.1,0.4-0.3,0.3-0.5l0,0c-0.4,3.3-0.9,6.6-2,9.7c-1.2,3.3-3.1,6.3-5.8,8.4c-1.6,1.3-3.6,2.1-5.7,2c-2-0.1-4.1-1.3-4.8-3.2
		c-0.1-0.1-0.1-0.3-0.1-0.5C335.3,248.1,336.2,246,337.6,244.5z M364.4,210.5c-2.5,4.4-5.4,8.5-8.6,12.3c-1.3,1.6-2.7,3.2-4.5,4.3
		s-3.8,1.9-5.8,1.6c-0.4-0.1-0.9-0.2-1.2-0.5c-0.3-0.3-0.5-0.7-0.6-1.1c-0.1-0.3-0.2-0.6-0.3-0.9c-0.6-2.4-0.8-4.9,0.4-7
		c0.9-1.7,2.6-2.8,4.2-3.7c4.8-2.9,10-5.1,15.4-6.5c1.1-0.2,1.6-0.2,1.8,0.1C365.2,209.7,364.4,210.5,364.4,210.5z M392.2,155.4
		c0-3.7,2.7-7.2,6.2-8c0.4-0.1,8.6,1.8,13,2.3c0.6,0.1,1.3,0.3,1.6,0.8c0,0,0,0,0,0c0,0.3-0.2,0.5-0.4,0.8c-2.6,3.1-6.1,5.4-9.8,6.9
		c-2.3,0.9-4.8,1.5-7.2,1c-1.1-0.2-2.3-0.7-2.9-1.7c-0.2-0.3-0.3-0.6-0.4-1C392.3,156.1,392.2,155.7,392.2,155.4z M413.5,119.7
		c-0.6,4.8-2.5,9.3-4.7,13.5c-1.2,2.3-2.5,4.6-4.6,6c-2.1,1.3-5.3,1.3-6.8-0.8l-1.8-2.2c0-0.1,0-0.2-0.1-0.3
		c-0.3-1.5,0.1-3.2,0.9-4.5c-0.2,0.1-0.4,0.3-0.5,0.4c0.1-0.4,0.3-0.7,0.5-1.1c0.9-1.6,2.4-2.9,3.8-4.2c3.7-3.2,7.8-5.9,12.1-8.2
		c0.2-0.1,0.4-0.2,0.7-0.2C413.5,118.3,413.6,119.1,413.5,119.7z M364.3,175.8c0,1.4,0,2.9-0.8,4c-1,1.5-2.9,2-4.7,2.1
		c-1.3,0.1-2.6,0.1-3.8-0.4c-2.5-1.1-3.9-4.1-3.9-6.9c0-2.8,1.1-5.5,2.3-8c2-4.3,4.5-8.9,8.8-10.7c0.5-0.2,1.1-0.3,1.4,0l0.7,0.5
		C364.4,162.9,364.4,169.3,364.3,175.8z M336.2,226.3c0.3,1.3,0.4,2.7,0.2,4.1c-0.2,0.9-0.5,1.9-1.1,2.6c-0.8,0.8-1.9,1.2-2.9,1.4
		c-3.1,0.7-7,0.1-8.5-2.8c-0.5-0.9-0.7-2-0.8-3c-0.9-7.8,1.1-16,5.6-22.5l0.3,1.1c0.8,3.3,1.8,6.7,3.2,9.8c0.3,0.7,0.6,1.3,1,2
		c0,0.1,0,0.1-0.1,0.2C334.3,221.5,335.6,223.9,336.2,226.3z M332.9,276.4c0.2-4.4,2.8-8.5,6.2-11.2c3.4-2.7,7.4-4.4,11.4-6.1
		c-0.2,7.6-2.4,15.7-8.1,20.7c-2.1,1.8-5.2,3.2-7.5,1.6c-1-0.7-1.6-1.7-1.9-2.9C333,277.8,332.9,277.1,332.9,276.4z M387.3,130.4
		c0-0.1,0.1-0.3,0.1-0.4c0.1-0.1,0.2-0.1,0.3-0.2C387.6,130,387.5,130.2,387.3,130.4z M346.7,187.8
		C346.7,187.8,346.7,187.8,346.7,187.8c0.7,2.7,1.5,5.3,2.2,8c0.4,1.7,0.8,3.4,0.9,5.2c0.2,1.6,0.2,3.4-0.6,4.8
		c-1.5,2.9-5.4,3.5-8.5,2.6c-1.3-0.4-2.6-1-3.5-2c-1.5-1.7-1.6-4.2-1.5-6.5c0.4-7.9,3-16,8.4-21.6l1.5-1.7
		C345.1,180.3,345.8,184,346.7,187.8z M313.3,268.3l0.3,0c-0.2-0.4,0-1,0.4-1.1c3.1,4.2,6.1,8.5,10,11.9c0.3,0.3,0.6,0.6,1,0.8
		c0,0.1,0,0.3,0,0.4c1.5,1.3,3,2.5,4.3,3.9c1.3,1.4,2.3,3.1,2.8,4.9c0,0.2,0.1,0.5,0.1,0.8c0.2,2.3-0.7,4.9-2.8,6
		c-2.9,1.6-6.4-0.3-8.8-2.7C314.2,286.9,311.3,277.1,313.3,268.3z M388.1,397.7c-0.3-5.1,0-10.3,0.8-15.4c0-0.2,0.1-1.7,0.1-2.2
		c2.8,2.5,5.4,5.2,7.2,8.5c1,2,1.7,4.1,2.3,6.2c0.5,2.1,0.9,4.3,1.2,6.4c0.3,1.6,0.5,3.4-0.2,4.9c-1,2.1-3.6,2.9-5.7,2.3
		s-3.7-2.5-4.6-4.6c-0.2-0.5-0.4-1-0.5-1.5C388.3,400.8,388.2,399.2,388.1,397.7z M410.9,419.5c-1-6.5-2-13-2.9-19.5
		c0-0.3-0.1-0.7,0.1-0.9c0.2-0.3,0.6-0.3,0.7,0l0.6,0.2c3.8,2,7.2,4.8,9.6,8.4c1.2,1.8,2.1,3.8,2.6,5.8c0.5,2,0.7,4.1,0.5,6.1
		c-0.1,0.8-0.2,1.6-0.7,2.3c-0.7,1-2,1.5-3.2,1.7c-2.3,0.5-5,0.5-6.4-1.4c-0.3-0.4-0.5-0.9-0.7-1.5C411,420.4,410.9,420,410.9,419.5
		z M430.6,414c0.1-0.6,0.3-1.3,0.8-1.5c0.5-0.2,1.1,0.1,1.6,0.5c3.4,2.4,7,4.9,9.3,8.5c1.3,2.1,2.2,4.4,3.5,6.5
		c0.6,0.9,1.2,1.8,1.5,2.8c0.2,1.3-0.1,2.6-0.9,3.6c-0.9,1.1-5.3,2.3-5.9,2.2c-2.9-0.8-4.2-4.1-5.2-6.9c-1.3-3.6-2.5-7.3-3.8-10.9
		c-0.3-0.7-0.5-1.5-0.7-2.2C430.6,415.7,430.5,414.9,430.6,414z M552.9,430.9c0.3-1.1,1-2,1.6-2.9c1.3-2.1,2.2-4.4,3.5-6.5
		c2.3-3.6,5.8-6.1,9.3-8.5c0.5-0.3,1.1-0.7,1.6-0.5c0.3,0.1,0.5,0.5,0.7,0.8c0,0.1,0,0.1,0,0.2c0.2,1.8-0.4,3.6-1,5.2
		c-1.3,3.6-2.5,7.3-3.8,10.9c-1,2.9-2.4,6.1-5.2,6.9c-0.5,0.2-5-1.1-5.9-2.2c-0.4-0.4-0.6-1-0.8-1.5
		C552.7,432.3,552.7,431.6,552.9,430.9z M578.1,420.2c-0.4-4.4,0.9-8.8,3.3-12.4c2.4-3.6,5.8-6.5,9.6-8.4l0.6-0.2
		c0.1-0.3,0.6-0.2,0.7,0c0,0.1,0,0.3,0,0.4c-1,6.5-2,13-2.9,19.5c-0.2,1.1-0.4,2.3-1,3.2c-1.4,1.9-4.2,1.9-6.4,1.4
		c-1.2-0.3-2.5-0.7-3.2-1.7c-0.2-0.3-0.3-0.6-0.4-1C578.1,420.7,578.1,420.5,578.1,420.2z M600.4,401.7c0.7-4.5,1.5-9.1,3.6-13.1
		c1.7-3.3,4.3-6,7-8.4c0,0.6,0.1,1.5,0.1,1.6c0.8,5.1,1,10.2,0.8,15.4c-0.1,2.3-0.3,4.6-1.2,6.7c-0.9,2.1-2.5,4-4.6,4.6
		s-4.7-0.3-5.7-2.3c-0.1-0.2-0.1-0.4-0.2-0.5C600,404.4,600.2,403,600.4,401.7z M619.5,383.9c-1.1-7.8,1.6-16.1,7-21.7l0.5-0.5
		c1.6,3.1,2.8,6.5,3.6,10c0.5,2.2,0.8,4.4,0.9,6.6c0.2,3-0.2,6.5-2.6,8.1c-1.8,1.2-4,0.9-6.1,0.6c-0.8-0.1-1.6-0.2-2.2-0.7
		c-0.5-0.4-0.8-1-0.9-1.7C619.5,384.3,619.5,384.1,619.5,383.9z M645.8,330.1c-1.2-5.8-0.9-11.8,0.7-17.5l0,0
		c0.3-0.2,0.6-0.4,0.9-0.6c2.6,3.8,5.3,7.6,7.9,11.4c1.4,2,2.8,4,3.5,6.3c0.1,0.2,0.1,0.3,0.1,0.5c0.4,2.1,0.2,4.3-0.9,6
		c-1.3,1.9-3.7,2.9-5.9,2.4c-1.9-0.4-3.4-1.8-4.5-3.4c-0.7-1.2-1.2-2.5-1.6-3.9C646,330.8,645.9,330.4,645.8,330.1z M670.7,295.9
		c-1.2-0.7-2.1-1.9-2.5-3.3c-0.2-0.7-0.2-1.5-0.1-2.2c0.2-2.3,1.5-4.4,3.1-6.1c1.2-1.4,2.6-2.5,4-3.7c0-0.2,0-0.4,0-0.6
		c0.3-0.3,0.6-0.6,1-0.8c3.8-3.5,6.9-7.7,10-11.9c0.4,0.1,0.7,0.7,0.4,1.1l0.3,0c2,8.9-0.9,18.7-7.3,25
		C677.1,295.5,673.6,297.5,670.7,295.9z M654.8,170.8c-0.1,0-0.1,0-0.2-0.1l0-0.1C654.7,170.7,654.8,170.8,654.8,170.8z
		 M345.4,170.8c-0.1,0-0.1,0-0.2,0.1c0-0.1,0.1-0.1,0.1-0.2L345.4,170.8z M313,299.4l1.1,0.1c2.5,3.6,5.6,6.7,9.3,9.1
		c1.9,1.2,3.9,2.3,5.7,3.5c0,0.2,0.1,0.3,0.1,0.5c1.4,0.9,2.7,1.8,3.8,2.9c1.5,1.4,2.7,3.4,3.2,5.4c0.3,1.6,0.3,3.2-0.4,4.7
		c-0.3,0.7-0.8,1.4-1.6,1.7c-0.7,0.3-1.5,0.2-2.3,0c-3.8-0.8-7.6-2.3-10.4-5.1c-2.9-2.8-4.5-6.6-5.8-10.4
		C314.5,307.9,313.5,303.7,313,299.4z M321,334c0.1,0.1-0.2-0.7-0.2-0.7c0.9-0.6,2,0.3,2.8,1.1c2.4,2.4,5.2,4.2,8.3,5.3
		c2.2,0.8,4.6,1.2,6.8,2.1c0.1,0.2,0.1,0.4,0.2,0.5c1.3,0.5,2.5,1.1,3.5,2.1c1.2,1,2.1,2.5,2.5,4c0.3,1.5,0.3,3-0.2,4.4
		c-1.1,3.1-4.7,5-7.7,4c-1-0.4-1.9-1-2.8-1.7C327.9,349.7,323.1,342.2,321,334z M333.6,368.5c-0.8-1.8-1.4-3.7-1.2-5.6
		c1.8-0.6,6.3,1.7,8.1,2.2c5.2,1.6,9.4,2.4,12.8,3.7c0.1,0.2,0.2,0.4,0.4,0.6c1.3,0.5,2.6,1.1,3.7,1.9c0.6,0.4,0.4,0.9,1,1.4
		c0.6,0.5,0.8,1.3,1,2.1c0,0.2,0.1,0.3,0.1,0.5c0.3,1.4,0.6,2.9,0.3,4.4c-0.3,1.8-1.6,3.5-3.3,3.7c-0.4,0.1-0.9,0-1.3,0.1
		C346.1,383,337.5,377,333.6,368.5z M383.4,425.9c-5-1.9-12.6-5.2-14.2-10.5h6.9c6.9-0.4,9.1-0.5,15.4-0.3c1.7,0.1,3.4,0.1,5,0.8
		c2.4,1,4,3.4,5.1,5.9c0.5,1.1,0.9,2.5,0.2,3.5c-0.5,0.8-1.6,1.1-2.6,1.3C394,427.7,388.5,427.8,383.4,425.9z M413.3,442.9
		c-1.8-0.2-16.5-2.3-19.7-4c-0.7-0.1-1.1-1.3-1.1-1.3c4.4-1.2,13.5-4.6,17.9-5.8c2.8-0.7,5.6-1.5,8.5-1.4c2.9,0.1,5.8,1.3,7.5,3.7
		c1.7,2.4,1.6,6.2-0.6,8C423.9,443.9,415,443.1,413.3,442.9z M453,451.8c-0.8,1.4-3,3.4-9.5,4.3c-4.2,0.6-15.3-2.5-16.5-3.4
		c-0.2-0.2-0.4-0.4-0.5-0.7c-0.3-0.9,1-1.4,1.9-1.6c3.7-0.6,7.2-2.2,10.7-3.8c3-1.4,6.1-2.8,9.1-4.3c0,0,3.8,1.3,4.8,3.3
		C454.1,447.5,454,449.9,453,451.8z M378,406.9c0,0-1.3,1.3-2.4,1.7c-1.1,0.4-2.3,0.2-3.5,0c-8.3-1.8-14.6-8.6-20.3-15
		c-0.5-0.6-1-1.3-0.7-2c2.3,0.1,4.5,0.2,6.8,0.3c4,0.2,8.1,0.3,12,1.4c1.4,0.4,2.8,0.9,4.1,1.5c0.3,0.3,0.6,0.6,0.9,0.9
		c1.2,0.7,2.3,1.7,3.2,2.8c0.2,0.3,0.4,0.6,0.5,0.9c0.1,0.1,0.1,0.1,0.2,0.2C379.9,402,379.8,405,378,406.9z M522,471.9
		c-2.2,1.5-11.1-3.6-10-2c0.9,1.2,2.6,13.2,2.6,13.2h-28.4c0,0,1.8-12,2.6-13.2c1.1-1.6-7.8,3.5-10,2c-1.2-0.8-10.1-10.9-3.6-17.3
		c0.9-0.9-1.2-4.9-2.5-10.1c-1-4.1-1.4-8.8,0.4-13.2c4.9-12.2,19.5-14.1,25.8-14.4c0,0,0.4,0,1.4,0c0.9,0,1.4,0,1.4,0
		c6.3,0.2,20.8,2.1,25.8,14.4c0.2,0.6,0.5,1.2,0.6,1.9c2.3,9.8-4.4,20-2.6,21.5C532,460.9,523.2,471,522,471.9z M573.4,451.9
		c-0.1,0.3-0.3,0.5-0.5,0.7c-1.2,0.9-12.3,4-16.5,3.4c-6.4-0.9-8.7-2.9-9.5-4.3c-1-1.9-1.1-4.3-0.1-6.2c1-1.9,4.8-3.3,4.8-3.3
		c3,1.4,6.1,2.8,9.1,4.3c3.4,1.6,6.9,3.2,10.7,3.8C572.5,450.5,573.7,451,573.4,451.9z M606.4,438.9c-3.2,1.7-17.9,3.8-19.7,4
		c-1.8,0.2-10.6,1-12.5-0.6c-2.2-1.9-2.3-5.6-0.6-8c1.7-2.4,4.6-3.6,7.5-3.7c2.9-0.1,5.7,0.6,8.5,1.4c4.4,1.2,13.5,4.6,17.9,5.8
		C607.5,437.6,607.1,438.8,606.4,438.9z M616.6,425.9c-5,1.9-10.6,1.8-15.8,0.8c-1-0.2-2-0.5-2.6-1.3c-0.7-1-0.3-2.4,0.2-3.5
		c1.1-2.5,2.7-4.8,5.1-5.9c1.6-0.7,3.3-0.7,5-0.8c6.4-0.2,8.5-0.1,15.4,0.3h6.9C629.1,420.6,621.6,424,616.6,425.9z M648.1,393.6
		c-5.7,6.5-12,13.2-20.3,15c-1.1,0.2-2.3,0.4-3.5,0c-1.1-0.4-2.4-1.7-2.4-1.7c-1.8-1.9-1.9-4.9-0.8-7.4c0.3-0.2,0.5-0.5,0.8-0.7
		c0.1-0.1,0.1-0.2,0.2-0.3c0.7-1,1.6-1.8,2.6-2.5c0.4-0.4,0.8-0.8,1.2-1.3c1.3-0.7,2.7-1.2,4.1-1.5c3.9-1,8-1.2,12-1.4
		c2.3-0.1,4.5-0.2,6.8-0.3C649.1,392.3,648.6,393,648.1,393.6z M666.4,368.5c-3.9,8.5-12.5,14.5-21.6,15.1c-0.4-0.1-0.9-0.1-1.3-0.1
		c-1.7-0.2-3-2-3.3-3.7c-0.1-0.5-0.1-1-0.1-1.4c0-0.1,0.1-0.1,0.2-0.2c0.1-1.1,0.4-2.2,0.6-3.2c0.2-0.8,0.4-1.6,1-2.1
		c0.6-0.5,0.4-0.9,1-1.4c1-0.7,2.2-1.3,3.4-1.8c0.2-0.2,0.3-0.5,0.4-0.7c3.5-1.3,7.7-2.2,12.8-3.7c1.8-0.6,6.3-2.8,8.1-2.2
		C667.8,364.9,667.2,366.8,666.4,368.5z M679,334c-2.1,8.2-6.9,15.7-13.4,20.9c-0.9,0.7-1.8,1.4-2.8,1.7c-3,1.1-6.6-0.9-7.7-4
		c-0.1-0.2-0.1-0.5-0.2-0.8c-0.5-2.8,0.7-5.8,2.8-7.6c1-0.9,2.1-1.5,3.3-1.9c0.1-0.2,0.2-0.4,0.3-0.6c2.2-0.8,4.6-1.3,6.8-2.1
		c3.1-1.1,6-2.9,8.3-5.3c0.8-0.8,1.9-1.7,2.8-1.1C679.2,333.3,678.9,334.1,679,334z M684.2,311.9c-1.3,3.8-2.9,7.6-5.8,10.4
		c-2.8,2.7-6.6,4.2-10.4,5.1c-0.8,0.2-1.6,0.3-2.3,0c-0.7-0.3-1.2-1-1.6-1.7c-0.2-0.3-0.3-0.7-0.4-1c-0.6-3.2,1-6.7,3.4-9.1
		c1.1-1.1,2.3-1.9,3.5-2.8c0-0.2,0.1-0.4,0.1-0.6c1.9-1.2,3.9-2.3,5.7-3.5c3.6-2.4,6.8-5.5,9.3-9.1l1.1-0.1
		C686.5,303.7,685.5,307.9,684.2,311.9z"/>
	<path d="M495.4,460.4c-2-0.8-4.3-1.8-7.1-2.5c-3.3-0.9-6.5-1.3-8.9-1.6c-0.1,0-0.2,0-0.4,0c-2.1,0.6-2.8,1.7-2.9,2
		c-1.1,2.1,0.4,5.4,4.3,7.5c0.1,0.1,0.2,0.1,0.4,0.1c1.8,0.2,6.2,0.5,10.7-1.7c1.8-0.9,3.2-2,4.1-2.9
		C496,461,495.9,460.5,495.4,460.4z"/>
	<path d="M502,465.9c-0.4-0.3-0.9-0.6-1.5-0.9c-0.6,0.3-1.1,0.6-1.5,0.9c-3,2.6-3.2,6.1-3,7.9c0,0.2,0.4,0.3,0.5,0.1
		c0.5-0.4,1.1-0.9,1.8-1.5c0.7-0.5,1.6-0.8,2.2-1c0.6,0.2,1.3,0.5,2.2,1c0.9,0.4,1.5,1,1.8,1.5c0.1,0.2,0.5,0.1,0.5-0.1
		C505.2,472.1,505.1,468.5,502,465.9z"/>
	<path d="M521.4,456.1c-0.1,0-0.2,0-0.4,0c-2.4,0.2-5.5,0.6-8.9,1.6c-2.8,0.7-5.1,1.7-7.1,2.5c-0.5,0.2-0.6,0.8-0.2,1.1
		c0.9,0.9,2.3,2,4.1,2.9c4.5,2.2,8.9,1.9,10.7,1.7c0.1,0,0.2,0,0.4-0.1c3.9-2.2,5.4-5.4,4.3-7.7
		C524.1,457.8,523.5,456.8,521.4,456.1z"/>
	<path d="M560.2,227.3c-11.6-33.9-45.9-39.1-60.7-39.8c0,0-1.3-0.1-3.4-0.1c0,0,0,0-0.1,0c0,0,0,0-0.1,0c-2.2,0-3.4,0.1-3.4,0.1
		c-14.8,0.7-49.1,6-60.7,39.8c-9.9,28.9,8.8,61.5,5,65.9c-15.2,17.6,5.5,45.6,8.3,47.9c5.1,4.2,21.3-4.3,18.7,0.1
		c-1.9,3.3-3.7,28.3-3.7,28.3h5l2.4-8.7l4.3-0.1l0.8,8.8h8.8l0.8-8.4l2.9-0.4l0.4,8.8h7.1l0.3-9h5.8l0.3,9h7.1l0.4-8.8l2.9,0.4
		l0.8,8.4h8.8l0.8-8.8l4.3,0.1l2.4,8.7h5c0,0-1.8-25-3.7-28.3c-2.6-4.4,13.6,4.1,18.7-0.1c2.8-2.3,23.5-30.3,8.3-47.9
		C551.3,288.8,570,256.2,560.2,227.3z M486.6,311.5c-2,2.2-4.9,4.9-8.7,7.1c-9.3,5.3-18.6,4.5-22.4,4c-0.2,0-0.5-0.1-0.7-0.2
		c-8.2-5.2-11.3-13.3-8.9-18.3c0.4-0.8,1.7-3.3,6-4.9c0.2-0.1,0.5-0.1,0.7-0.1c5.2,0.5,11.6,1.5,18.7,3.7c5.8,1.8,10.7,4,14.7,6.1
		C487.1,309.3,487.3,310.6,486.6,311.5z M506.1,342c0,0.6-0.7,0.8-1.1,0.4c-0.9-1.1-2.1-2.4-3.7-3.6c-1.7-1.3-3.4-2.1-4.7-2.5
		c-1.3,0.5-2.9,1.3-4.7,2.5c-1.6,1.2-2.8,2.5-3.7,3.6c-0.4,0.4-1.1,0.2-1.1-0.4c-0.3-4.3-0.1-13,6.3-19.4c0.8-0.8,1.9-1.5,3.2-2.2
		c1.2,0.7,2.3,1.4,3.2,2.2C506.2,329,506.4,337.8,506.1,342z M537.5,322.3c-0.2,0.1-0.4,0.2-0.7,0.2c-3.7,0.5-13,1.3-22.4-4
		c-3.9-2.2-6.8-4.8-8.7-7.1c-0.7-0.9-0.5-2.2,0.5-2.7c4-2.1,8.9-4.3,14.7-6.1c7.1-2.2,13.6-3.3,18.7-3.7c0.2,0,0.5,0,0.7,0.1
		c4.3,1.6,5.7,4.1,6,4.9C548.8,309,545.6,317.1,537.5,322.3z"/>
</g>
</svg>
