<?xml version="1.0" encoding="utf-8"?>
<!-- Generator: Adobe Illustrator 21.0.2, SVG Export Plug-In . SVG Version: 6.00 Build 0)  -->
<!DOCTYPE svg PUBLIC "-//W3C//DTD SVG 1.1//EN" "http://www.w3.org/Graphics/SVG/1.1/DTD/svg11.dtd">
<svg version="1.1" id="Layer_1" xmlns="http://www.w3.org/2000/svg" xmlns:xlink="http://www.w3.org/1999/xlink" x="0px" y="0px"
	 viewBox="0 0 938.4 789.8" style="enable-background:new 0 0 938.4 789.8;" xml:space="preserve">
<style type="text/css">
	.st0{fill:#FFFFFF;}
</style>
<g>
	<path d="M4.9,588.1c1.4-8.3,2.2-16.8,4.3-24.9c2.2-8.5,5.5-16.7,8.5-25c0.7-1.9,2.1-3.5,4.3-5.1c0.5,4.2,0.9,8.3,1.6,12.5
		c0.9,5.3,1.6,10.7,3.4,15.7c2.1,6.1,7,7.2,11.8,2.8c3.8-3.5,7.4-7.4,10.5-11.5c22.1-28.5,45.2-56.2,72.4-80.1
		c6.1-5.4,12.5-10.5,18.5-15.9c1.4-1.2,2.8-3.3,2.8-5c1-37.9,15.8-70.4,39.5-99c13.7-16.5,28.9-31.7,43.4-47.5
		c0.5,0.2,1,0.3,1.4,0.5c0.4,2.6,0.5,5.2,1.1,7.8c0.8,3.7,1.5,7.5,3.1,10.9c1.9,4.4,5.2,5.3,9.3,3c3-1.7,5.9-3.7,8.5-5.9
		c26.5-22.8,49.2-48.8,67-78.9c7-11.8,13.1-24.1,12.2-38.6c-0.1-1.5,1.9-3.5,3.4-4.7c27.3-22.5,54.5-45,82-67.3
		C467.1,88.7,520.3,45.7,573.6,2.7c1.4-1.1,2.8-2.2,4.8-2.7c-4.6,9.6-9.4,19.2-13.8,28.9c-9.8,21.6-19.4,43.3-24.7,66.6
		c-2.5,10.9-2.2,21.7,1.3,32.3c5.3,16,17.6,23.4,34.2,20.7c13.4-2.1,25.5-7.7,37.3-14c36.9-19.7,69.9-45,101.7-71.8
		c15.7-13.3,30.6-27.6,45.9-41.5c0.6-0.6,1.2-1.1,2.8-1.2c-1.1,3.5-1.9,7.1-3.4,10.4c-10.1,22.2-20.3,44.4-30.7,66.5
		c-19.8,41.8-40.3,83.3-54.8,127.4c-5.5,16.7-9.5,34-12.4,51.4c-1.5,8.7,0.4,18.2,1.6,27.2c0.7,5.7,5,9.5,10.7,9.7
		c12.9,0.5,26,1.5,38.8,0.3c52.5-5,103.9-16.7,155.4-27.9c21.5-4.7,42.9-9.6,64.4-14.4c1.7-0.4,3.5-0.6,5.7,0
		c-1.4,1.2-2.7,2.5-4.2,3.6c-39.6,32.3-79.2,64.7-115.5,100.8c-10.3,10.2-20.1,21.1-28.9,32.7c-11.1,14.6-8.7,23.3,8.9,28.6
		c17.3,5.2,35.4,8,53.2,11.5c9.1,1.8,18.4,2.6,27.7,5c-1.8,0.8-3.6,1.7-5.4,2.5c-52,22.5-106.5,37.3-161.6,49.9
		c-35.8,8.1-71.6,16.3-107.2,25.1c-14,3.4-27.4,8.8-39.2,17.5c-10.3,7.6-15.6,17.6-13.4,30.6c0.6,3.4,2.2,6.9,4.1,9.9
		c3.8,5.7,4.1,9.4-1.5,13.3c-6.1,4.2-12.6,8-19.5,10.7c-18.6,7.1-37.3,14.1-56.2,20.1c-77.6,24.9-149.9,61.2-221.3,99.9
		c-16.4,8.9-32.7,18.2-49.3,26.7c-20.8,10.7-41.8,20.8-62.8,31.1c-2.1,0-4.2,0-6.2,0c-15.3-5.8-29.9-12.8-40.6-26.7
		c19.8-6.3,39.9-9.2,56.5-20.1c-3-4.8-5.5-8.8-8.6-13.9c19.5-1.2,37.1-2.8,51.9-13.5c-3.4-3.7-6.3-6.9-9.8-10.7
		c16.5-2,33.1,1,44.6-12.7c-2.4-2.4-4.4-4.4-7-6.9c16.3-5,28.7-14.2,40.9-23.6c11.8-9.1,23.3-18.6,34.9-27.9
		c28.6-22.9,58.6-43.7,92.8-57.6c0.5-0.2,0.9-0.4,1.9-0.9c-3.4-2.3-6.1-4.3-8.8-6c-17.7-11-37-17.9-57.4-22.1
		c-26.8-5.5-49.7,1.7-68.7,21.2c-14.8,15.2-24.4,33.5-30,53.9c-0.5,1.8-1,3.5-1.9,7c-6-7.3-11.1-13.5-16.2-19.7
		c-4.7-5.8-7.3-5.9-11.6,0.1c-2.1,2.9-4,6.1-5.6,9.3c-4.7,9.3-9,18.7-13.7,28c-2.5,5.1-5.3,10-8.2,15.4c-9.2-6.5-7.9-17.4-12.5-26.8
		c-13.6,14.3-17.6,32.5-26.8,49.1c-3-3.2-5.8-5.9-8.1-8.9c-1.6-2.2-2.5-4.9-3.9-7.3c-3.2-5.8-7.2-6.7-12.1-2.1c-3,2.8-6.1,6-7.8,9.6
		c-4.4,9.4-8,19.1-11.9,28.7c-0.6,1.5-0.9,3.2-1.3,4.8c-0.5,0.3-1,0.6-1.6,0.9c-2.5-2.8-5.6-5.2-7.4-8.4c-1.9-3.4-2.2-7.6-3.6-11.3
		c-0.7-2-2.3-3.6-3.4-5.5c-1.6,1.5-3.9,2.6-4.6,4.4c-5,12.7-9.7,25.5-14.5,38.3c-0.6,1.5-0.9,3.1-1.4,4.9c-0.9-0.8-1.3-1.1-1.6-1.4
		c-21.4-27.7-36.8-58.2-43.8-92.6c-1.7-8.5-2.8-17-4.2-25.6C4.9,604.8,4.9,596.4,4.9,588.1z M182.8,442.8c0.5,0.4,1,0.7,1.5,1.1
		c10.3-8.4,20.8-16.5,30.6-25.4c7.4-6.7,14.1-14.3,20.4-22c2.9-3.5,4.8-8.1,5.9-12.5c1.8-7.4-3.8-12.1-10.7-8.9
		c-4.9,2.3-9.7,5.5-13.7,9.2c-14,12.9-24.2,28.4-30.7,46.3C184.9,434.4,184,438.6,182.8,442.8z M29.9,590.4
		c-10.3,5.8-13.7,28.5-6.2,39.4C31.2,617.5,30.3,604.3,29.9,590.4z"/>
	<path class="st0" d="M3.9,539.8c-7.2-10.5-3.9-32.3,6-37.9"/>
</g>
</svg>
