<?xml version="1.0" encoding="utf-8"?>
<!-- Generator: Adobe Illustrator 21.0.2, SVG Export Plug-In . SVG Version: 6.00 Build 0)  -->
<!DOCTYPE svg PUBLIC "-//W3C//DTD SVG 1.1//EN" "http://www.w3.org/Graphics/SVG/1.1/DTD/svg11.dtd">
<svg version="1.1" id="Layer_4" xmlns="http://www.w3.org/2000/svg" xmlns:xlink="http://www.w3.org/1999/xlink" x="0px" y="0px"
	 viewBox="0 0 615.6 977" style="enable-background:new 0 0 615.6 977;" xml:space="preserve">
<path d="M615.3,492c-11.5-69.2-54-100.8-111.1-104c-34.6-1.9-80,11.8-113.7,41.3c15.2-38.5,46.4-135.3,16.6-252
	C384.1,87.6,335.8,28.2,309.4,0h0c-26.3,28.2-74.7,87.6-97.6,177.3c-31.2,121.8,4.3,222,18.5,256.8c-34.2-32.8-82.5-48.1-118.9-46.1
	c-57.1,3.2-99.6,34.8-111.1,104c-8.7,158,187.3,150.8,186.5,89.7C86,573.8,180.4,496,208.2,569c5,16.1,5.5,47.4,5.6,53.7l-1.7,8.2
	h-76v63.5H256c-0.5,1.4-1.1,3-1.6,4.9c-15.6,54.8-102.6,36-102.6,36c6,78,68,92,102.6,83c1.4-0.4,2.6-1,3.8-1.8l1.2,4.2
	c2.8,24.3,8.4,53.9,19.4,86.6c9,26.7,19.6,49.4,29.7,68l0.5,1.7c10.1-18.6,20.7-41.3,29.7-68c11-32.7,16.6-62.4,19.4-86.6l0.8-3.1
	c39.5,8,92.3-10.3,98-84c0,0-87,18.8-102.6-36c-0.5-1.9-1.1-3.5-1.6-4.9h130.1v-63.5h-81.3v-7.2c0.2,0.1,0.3,0.1,0.3,0.1
	s0-36.8,5.6-54.8c27.8-73,122.2,4.8,21.4,12.7C428,642.8,624,650,615.3,492z"/>
</svg>
