<?xml version="1.0" encoding="utf-8"?>
<!-- Generator: Adobe Illustrator 21.0.2, SVG Export Plug-In . SVG Version: 6.00 Build 0)  -->
<!DOCTYPE svg PUBLIC "-//W3C//DTD SVG 1.1//EN" "http://www.w3.org/Graphics/SVG/1.1/DTD/svg11.dtd">
<svg version="1.1" id="Layer_3" xmlns="http://www.w3.org/2000/svg" xmlns:xlink="http://www.w3.org/1999/xlink" x="0px" y="0px"
	 viewBox="0 0 937.9 934.1" style="enable-background:new 0 0 937.9 934.1;" xml:space="preserve">
<path d="M937.8,152.3c-12.4,30.9-42.6,52.7-78,52.7c-46.4,0-84-37.6-84-84s37.6-84,84-84c10.3,0,20.3,1.9,29.4,5.3
	C861.5,16.1,824.1,0,782.9,0c-85.6,0-155,69.4-155,155c0,19.1,3.4,37.3,9.7,54.2c-0.3-0.1-0.4-0.2-0.4-0.2l-57.9,58
	c-59.5-40.8-131.6-64.8-209.2-64.8c-127.6,0-240.1,64.6-306.7,162.8c58.8-40.9,130.2-64.8,207.2-64.8c77.9,0,150.2,24.6,209.3,66.4
	l-66.7,66.8c-41.4-25.7-90.3-40.6-142.6-40.6C121.2,392.8,0,514,0,663.5s121.2,270.6,270.6,270.6s270.6-121.2,270.6-270.6
	c0-47.5-12.3-92.1-33.7-130.9l0,0c0,0,29.1-28.6,67.8-66.8c37,56.9,58.5,124.8,58.5,197.7c0,88.6-31.7,169.8-84.4,232.8
	c113.8-63.1,190.9-184.5,190.9-323.9c0-76.8-23.4-148.2-63.5-207.3c23.5-23.4,45-45.1,61.1-61.7c14.2,4.3,29.3,6.6,44.9,6.6
	c85.6,0,155-69.4,155-155C937.9,154.1,937.8,153.2,937.8,152.3z"/>
</svg>
