<?xml version="1.0" encoding="utf-8"?>
<!-- Generator: Adobe Illustrator 22.0.1, SVG Export Plug-In . SVG Version: 6.00 Build 0)  -->
<svg version="1.1" id="Layer_2_copy" xmlns="http://www.w3.org/2000/svg" xmlns:xlink="http://www.w3.org/1999/xlink" x="0px"
	 y="0px" viewBox="0 0 217.9 988" style="enable-background:new 0 0 217.9 988;" xml:space="preserve">
<g>
	<path d="M97.4,101c0,4,0,8,0,12h24.1c0-4,0-8,0-12H97.4z"/>
	<path d="M97.3,85c0.1,4.6,0.1,9.2,0.1,14h24.2c0-4.8,0.1-9.4,0.1-14H97.3z"/>
	<path d="M121.7,145c0-4.6-0.1-9.3-0.1-14H97.4c0,4.7-0.1,9.4-0.1,14H121.7z"/>
	<path d="M109.9,184c5.3,0,9.6,1.1,12.6,2c-0.1-4-0.2-3.8-0.3-9H96.9c-0.1,5.3-0.2,5-0.3,9C99.7,185,104.2,184,109.9,184z"/>
	<path d="M86.1,31.9l8.9-0.1c0.3,2,0.5,4.4,0.7,7.2h27.7c0.2-2.7,0.4-5,0.7-6.9l8.9,0.1c1.3,0,2.6-1.1,2.6-2.5V18.5
		c0-1.3-1-2.3-2.2-2.5c-2.8-0.2-5.6-0.4-8.4-0.7c-0.1-1.3-1-7-6.1-11.3c-3.3-2.8-6.9-3.5-8.9-3.7V0c-1.6,0.1-5.8,0.6-9.7,3.8
		c-5.1,4.1-6,9.9-6.1,11.3c-2.8,0.2-5.6,0.4-8.4,0.7c-1.2,0.1-2.2,1.2-2.2,2.5v11.3C83.5,30.8,84.6,31.9,86.1,31.9z"/>
	<path d="M97.5,115c0,4.7,0,9.4,0,14h24.2c0-4.6,0-9.3,0-14H97.5z"/>
	<path d="M123.2,41H95.8c0.3,4,0.5,8.8,0.7,14h25.9C122.7,49.7,122.9,45,123.2,41z"/>
	<path d="M96.6,57c0.1,3.8,0.2,7.8,0.3,12h25.1c0.1-4.2,0.2-8.2,0.3-12H96.6z"/>
	<path d="M121.9,161c-0.1-4.5-0.1-9.2-0.2-14H97.3c0,4.8-0.1,9.5-0.2,14H121.9z"/>
	<path d="M97,71c0.1,3.9,0.2,7.9,0.2,12h24.6c0.1-4.1,0.1-8.1,0.2-12H97z"/>
	<path d="M122.1,175c-0.1-3.8-0.1-7.8-0.2-12H97.1c-0.1,4.2-0.1,8.2-0.2,12H122.1z"/>
	<path d="M156.9,258c-3.6,0-7.2,0-10.9,0c-2,0-4.1,0-6.1,0c-0.2,0-0.3,0-0.6,0c0.2-0.2,0.3-0.3,0.4-0.4c6.6-6.7,10.8-14.7,12-24
		c2.8-21.5-10.5-41.3-31.8-46.3c-2.5-0.6-5-0.9-7.5-1.1c-0.2,0-0.3-0.1-0.5-0.1c-1.3,0-2.6,0-4,0c-1,0.1-2,0.2-3.1,0.3
		c-18.1,2-32.5,14.9-36.2,32.4c-2.8,13.2,0.1,25.1,8.6,35.6c1,1.2,2,2.3,3.1,3.4c0,0-0.1,0.1-0.2,0.1c-5.8,0-11.6,0-17.3,0
		c0,7.4,0,14.9,0,22.3c5.7,0,11.3,0,17,0c8.2,0,16.4,0,24.6,0c0-0.2,0.1-0.4,0.1-0.6c0-6.3,0-12.7,0-19c0-0.4-0.1-0.6-0.5-0.7
		c-9.4-2.4-16.5-10.4-17.9-20c-1.9-13.3,7-25.5,20.1-27.7c7.2-1.2,13.6,0.8,19,5.4c7.4,6.4,10.2,14.6,8.1,24.1
		c-2.2,9.4-8.2,15.5-17.6,18.2c-0.4,0.1-0.5,0.2-0.5,0.6c0,6.4,0,12.8,0,19.2c0,0.2,0,0.3,0.1,0.5l-2.4,0v-23.6
		c10.2-1.5,18-10.2,18-20.8c0-11.6-9.4-21-21-21s-21,9.4-21,21c0,10.6,7.8,19.3,18,20.8v23.6l-27,0L80.2,821
		c7.6,0.2,13.6,6.4,13.6,14c0,7.6-6.1,13.8-13.6,14c0.2,14.6,5.1,44.1,10.9,64.7c5.5,19.2,11.3,23,17.6,32.8v1.6
		c0.2-0.2,0.3-0.6,0.6-0.8c0.1,0.2,0.2,0.3,0.3,0.6v-1c6.5-9.9,12.3-13.6,17.6-32.8c5.6-19.9,10.3-48,10.9-63c-0.1,0-0.2,0-0.3,0
		c-8.8,0-16-7.2-16-16s7.2-16,16-16c0.1,0,0.2,0,0.3,0l-1.3-538.6c6.7,0,13.3,0,20,0C156.9,272.9,156.9,265.5,156.9,258z"/>
</g>
</svg>
