<?xml version="1.0" encoding="utf-8"?>
<!-- Generator: Adobe Illustrator 22.1.0, SVG Export Plug-In . SVG Version: 6.00 Build 0)  -->
<svg version="1.1" id="Layer_2" xmlns="http://www.w3.org/2000/svg" xmlns:xlink="http://www.w3.org/1999/xlink" x="0px" y="0px"
	 viewBox="0 0 805.1 1000" style="enable-background:new 0 0 805.1 1000;" xml:space="preserve">
<g>
	<polygon points="303,260.6 377.1,260.6 377.1,299.8 401.5,289.2 425.8,299.8 425.8,260.6 500,260.6 525.4,279.7 565.7,236.2 
		525.4,192.8 500,214 425.8,214 425.8,104.9 462.9,61.4 401.5,0 340,61.4 377.1,104.9 377.1,214 303,214 277.5,192.8 237.3,236.2 
		277.5,279.7 	"/>
	<polygon points="401.5,312.5 289.2,339 145.1,657.8 188.6,736.2 236.2,781.8 236.2,708.7 311.4,596.4 401.5,627.1 491.5,596.4 
		566.7,708.7 566.7,781.8 614.4,736.2 657.8,657.8 513.8,339 	"/>
	<polygon points="401.5,810.4 339,781.8 333.7,840 401.5,1000 469.3,840 464,781.8 	"/>
	<polygon points="160,386.7 219.3,439.6 250,372.9 202.3,333.7 232,299.8 95.3,289.2 128.2,422.7 	"/>
	<polygon points="184.3,514.8 112.3,514.8 112.3,469.3 0,546.6 109.1,628.2 110.2,581.6 154.7,582.6 	"/>
	<polygon points="555.1,372.9 585.8,439.6 645.1,386.7 676.9,422.7 709.7,289.2 573.1,299.8 602.8,333.7 	"/>
	<polygon points="692.8,469.3 692.8,514.8 620.8,514.8 650.4,582.6 694.9,581.6 696,628.2 805.1,546.6 	"/>
	<path d="M506.4,653.6c-1.7,2.8-2.9,6.3-4.2,9.8c-2.2,6.4-8.9,10-15.5,8.5c-7.4-1.7-15.8-4.4-23.8-6.7
		c-15.7-4.4-28.1-10.6-37.1-15.9l-24.4,9.5c2.2,4.4,4.4,9.4,6.4,14.8c4.4,12.3,6.5,23.6,7.4,32.8l-13.8-8.5l-13.8,8.5
		c0.9-9.3,3-20.6,7.4-32.8c2-5.5,4.1-10.4,6.4-14.8l-24.4-9.5c-8.9,5.3-21.4,11.5-37.1,15.9c-8.1,2.2-16.5,4.9-23.8,6.7
		c-6.6,1.6-13.3-2.1-15.5-8.5c-1.2-3.5-2.4-7.1-4.2-9.8c-6.5,8.9-13.1,17.8-19.6,26.7c-4,5.5-3.9,13,0.3,18.4
		c5.4,6.9,10.8,13.7,16.2,20.6l37.1-12.7l-2.1,18c3.1,2.4,7.8,6.9,11.7,13.8c3.5,6.3,4.8,12.2,5.3,15.9c6.8,4,13.6,8,20.4,11.9
		c1-4.3,1.9-8.7,2.9-13c0.3-0.2,2.1-1.5,4.2-1.1c2.3,0.5,4,2.6,4.2,5.3v15.4c6.7,3.9,13.4,7.8,20.1,11.8c0-8,0-17,0-21.9
		c0.8-2.4,2.9-4,5.3-4.2c2.7-0.2,5.4,1.5,6.4,4.2v20c7.1-4.1,14.1-8.3,21.2-12.4v-12.9c0.2-2.7,2-4.8,4.2-5.3
		c2.2-0.5,3.9,0.8,4.2,1.1c0.8,3.6,1.6,7.2,2.4,10.8c5.6-3.2,11.1-6.5,16.7-9.7c0.5-3.7,1.8-9.6,5.3-15.9
		c3.8-6.9,8.6-11.3,11.7-13.8l-2.1-18l37.1,12.7c5.4-6.9,10.8-13.7,16.2-20.6c4.2-5.4,4.3-12.9,0.3-18.4
		C519.5,671.4,512.9,662.5,506.4,653.6z"/>
</g>
</svg>
