<?xml version="1.0" encoding="utf-8"?>
<!-- Generator: Adobe Illustrator 21.0.2, SVG Export Plug-In . SVG Version: 6.00 Build 0)  -->
<!DOCTYPE svg PUBLIC "-//W3C//DTD SVG 1.1//EN" "http://www.w3.org/Graphics/SVG/1.1/DTD/svg11.dtd">
<svg version="1.1" id="Layer_2" xmlns="http://www.w3.org/2000/svg" xmlns:xlink="http://www.w3.org/1999/xlink" x="0px" y="0px"
	 viewBox="0 0 844.7 904.7" style="enable-background:new 0 0 844.7 904.7;" xml:space="preserve">
<g>
	<circle cx="449.6" cy="712.7" r="192"/>
	<path d="M229.6,673.7c23-122,98-153,189.9-179c0,0-60.9-15-71.9-71s86.4-87.9,102-163c10-48-20-47-15-103s88-35,88-35
		s121,26,156-104c0,0-52,98-259.1-10c-61.8-32.2-147.9,33-161.9,67c-14,34,7.4,85.8-7,141c-24,92-129,52-210,165s-24,306,25,368
		s200.9,139.5,245,140C316.6,889.8,203.2,814,229.6,673.7z"/>
	<path d="M842.6,571.7c-56,95-185,49-185,49c48,188-70,262-70,262C884.4,837.7,842.6,571.7,842.6,571.7z"/>
</g>
</svg>
