<?xml version="1.0" encoding="utf-8"?>
<!-- Generator: Adobe Illustrator 21.0.2, SVG Export Plug-In . SVG Version: 6.00 Build 0)  -->
<!DOCTYPE svg PUBLIC "-//W3C//DTD SVG 1.1//EN" "http://www.w3.org/Graphics/SVG/1.1/DTD/svg11.dtd">
<svg version="1.1" id="Layer_1" xmlns="http://www.w3.org/2000/svg" xmlns:xlink="http://www.w3.org/1999/xlink" x="0px" y="0px"
	 viewBox="0 0 900 902" style="enable-background:new 0 0 900 902;" xml:space="preserve">
<g>
	<path d="M0,214C0,142.7,0,71.4,0,0c132.7,0,265.3,0,398,0c0.2,1.6,0.5,3.3,0.5,4.9c0,61.3,0,122.6,0.1,184c0,3.7-1.3,5-4.7,6
		c-89.3,25.9-147.5,83.8-168.1,174.1c-20.8,91,5.9,169.6,77.2,230.5c52.3,44.7,113.7,63.4,182.4,52.1
		c126.2-20.8,211.1-138,192.8-265c-13.2-91.8-81.7-168.4-171.5-191.5c-4.4-1.1-5.2-3.1-5.2-7.1c0.1-60.7,0.1-121.3,0.1-182
		c0-2,0.3-4,0.5-5.9c132.7,0,265.3,0,398,0c0,71.3,0,142.7,0,214c-55.3,0-110.6-0.1-165.9-0.1c-0.6,0-1.1,0.4-1.5,0.5
		c10,11.1,20.3,21.5,29.5,32.9c81.3,100.7,109.2,214.9,82.7,341.3C809.7,756.4,672,880.2,498.4,899.3c-9.7,1.1-19.5,1.9-29.3,2.9
		c-12.7,0-25.3,0-38,0c-1.6-0.3-3.2-0.7-4.9-0.8c-24.3-1.4-48.4-4.7-72.1-10.2c-203.8-47.2-331.6-237-304.5-443
		c11.8-89.6,51.4-165.9,115-229.9c1.1-1.1,2.1-2.3,3.8-4.2c-2.6,0-4.3,0-5.9,0c-19.5,0-39,0-58.5,0C69.3,213.9,34.6,214,0,214z"/>
</g>
</svg>
