<?xml version="1.0" encoding="utf-8"?>
<!-- Generator: Adobe Illustrator 21.0.2, SVG Export Plug-In . SVG Version: 6.00 Build 0)  -->
<!DOCTYPE svg PUBLIC "-//W3C//DTD SVG 1.1//EN" "http://www.w3.org/Graphics/SVG/1.1/DTD/svg11.dtd">
<svg version="1.1" id="Layer_1" xmlns="http://www.w3.org/2000/svg" xmlns:xlink="http://www.w3.org/1999/xlink" x="0px" y="0px"
	 viewBox="0 0 574.5 784.5" style="enable-background:new 0 0 574.5 784.5;" xml:space="preserve">
<g>
	<path d="M573.2,179.4c0.3-1.6,0.9-3.1,1.3-4.6c0-0.5,0-1,0-1.5c-22,6.4-43.8,13-65.9,18.9c-13.4,3.6-27.1,6.1-40.6,9.1
		c-0.7,0.2-1.4,0.2-3.2,0.5c12.9-17.1,25.3-33.4,37.6-49.8c-0.2-0.2-0.4-0.5-0.5-0.7c-35.1,16.8-70.1,33.6-105.2,50.3
		c-0.2-0.2-0.4-0.4-0.6-0.6c0.7-1.1,1.4-2.2,2.1-3.2c43.4-64,86.9-128.1,130.3-192.1c1.2-1.8,2.2-3.8,3.4-5.7C465.5,0,399.2,0,333,0
		c-0.5,1-0.9,2-1.5,3c-42.1,69.6-84.2,139.2-126.2,208.9c-1.7,2.8-3.4,3.7-6.6,3.2c-16.7-2.3-33.5-4.1-50.2-6.6
		c-49.4-7.6-98-18.4-145.3-34.5c-0.6-0.2-1.3-0.3-2.2-0.5c0.1,0.9,0.1,1.3,0.2,1.8c9.2,48.6,18.5,97.2,27.7,145.8
		c0.4,2,0.4,4.3,0.1,6.3c-7.2,38.4-14.6,76.8-21.9,115.3c-2,10.8-4.1,21.5-6.2,32.9c28.9-10,57.8-17.6,87.1-24s58.9-11.6,89.5-15.3
		c-14.4,27.7-28.3,54.5-42.2,81.3c0.2,0.2,0.5,0.3,0.7,0.5c29.2-13.7,58.4-27.5,87.6-41.2c0.2,0.2,0.4,0.4,0.6,0.7
		C170.7,578.4,117.3,679.2,63.9,780c1.6-0.7,2.6-1.8,3.5-2.9C161.6,663,255.9,548.9,350.1,434.8c1.8-2.2,3.6-3.2,6.6-2.9
		C414,436.8,470.5,446.1,526,461c16.3,4.4,32.3,9.6,48.5,14.5c0-0.5,0-1,0-1.5c-1.7-8.3-3.6-16.5-5.2-24.9
		c-7.7-40.3-15.4-80.7-23-121.1c-0.4-2.4-0.4-5,0-7.4C555.3,273.6,564.2,226.5,573.2,179.4z M257.1,282.9
		c-21.2,40.8-42.4,81.6-63.5,122.4c-1.2,2.4-2.7,3.4-5.4,3.7c-50.1,5.5-99.7,13.7-148.7,25.8c-0.7,0.2-1.5,0.2-2.7,0.4
		c0.3-2.4,0.6-4.6,0.9-6.7c5.3-33,10.6-66.1,16.1-99.1c1.3-8.2-1.2-15.9-2.4-23.7c-4.6-29.7-9.5-59.5-14.3-89.2
		c-0.1-0.7-0.1-1.5-0.2-2.2c25.2,5,50.1,10.5,75.2,14.8c25.1,4.4,50.3,7.6,75.9,11.5c-10,16.5-20,33.1-30,49.6
		c-10,16.6-20,33.1-29.5,50.4c43.7-21.4,87.4-42.9,131.2-64.3c0.2,0.2,0.4,0.4,0.6,0.6C259.2,278.8,258.1,280.9,257.1,282.9z
		 M523.9,343.7c4.6,29.6,9.5,59.2,14.3,88.8c0.1,0.7,0.1,1.4,0.2,2.8C483.9,422,429.1,413,372.7,407.5
		c27.2-32.9,53.8-65.2,80.5-97.5c-0.2-0.2-0.3-0.5-0.5-0.7c-33.8,14.7-67.7,29.4-102.4,44.5c0.9-1.5,1.2-2.3,1.8-3
		c29.1-38.6,58.3-77.2,87.5-115.7c1.1-1.4,3.1-2.5,4.8-2.9c30.5-6.2,61-12.3,91.5-18.3c0.7-0.1,1.4-0.2,2.5-0.3
		c-0.2,1.5-0.3,2.7-0.5,3.9c-5.5,34-11,68.1-16.5,102.1C520.1,328,522.7,335.8,523.9,343.7z"/>
</g>
</svg>
