<?xml version="1.0" encoding="utf-8"?>
<!-- Generator: Adobe Illustrator 22.0.1, SVG Export Plug-In . SVG Version: 6.00 Build 0)  -->
<svg version="1.1" id="Layer_2" xmlns="http://www.w3.org/2000/svg" xmlns:xlink="http://www.w3.org/1999/xlink" x="0px" y="0px"
	 viewBox="0 0 596 926.3" style="enable-background:new 0 0 596 926.3;" xml:space="preserve">
<g>
	<path d="M345.6,664.6c-1.9,3.7-3.8,6.9-5.7,8.4c-0.8-1.9-1.9-3.6-4-5c-3.2,16.8-11,27.4-21,35c1.5-8.6,3.4-17.4,2-25
		c-3.3,6.7-7.5,10.2-12,11c-0.7-3.6-1.3-7-3-8c-3.7,3.8-6.1,5.9-7,6c-1.1-4.6-2.1-9.6-3.3-12.6c-1.5-1-2.9-1-4.4,0
		c-1.2,2.9-2.2,8-3.3,12.6c-0.9-0.1-3.3-2.2-7-6c-1.7,1-2.3,4.4-3,8c-4.5-0.8-8.7-4.3-12-11c-1.4,7.6,0.5,16.4,2,25
		c-10-7.6-17.8-18.2-21-35c-2.1,1.4-3.2,3.1-4,5c-1.8-1.5-3.7-4.6-5.7-8.4c-0.2-0.3-0.6-0.1-0.5,0.2c17,61.5,11.2,72.5,14.2,99.1
		c3.6-3.8,7.2-6.7,11-8c0.3,2,0.9,3.5,2,4c2.7-5.4,5.4-9.6,8-12c3,8,5.9,17.1,9,18c1.5-5.1,3.7-9.3,7-12c1.9,4.7,3.8,8.3,5.5,8.9
		c1.7-0.6,3.6-4.2,5.5-8.9c3.3,2.7,5.5,6.9,7,12c3.1-0.9,6-10,9-18c2.6,2.4,5.3,6.6,8,12c1.1-0.5,1.7-2,2-4c3.8,1.3,7.4,4.2,11,8
		c3-26.6-2.8-37.7,14.2-99.1C346.3,664.5,345.8,664.3,345.6,664.6z"/>
	<path d="M264,582c-15.2-16.2-30-29.4-43-31c-8.9,11.5-16,18-23,24c-0.2,10.8,0.3,20.9,10,22c8.6,3.2,27.5,1.5,46,0
		C261.4,595.4,262.8,588.8,264,582z"/>
	<path d="M280,631c2.6-3.3,5-6.7,7.5-8.8c0,0,1.4-1.8,2-1.5c0.7-0.4,2,1.5,2,1.5c2.4,2.1,4.8,5.5,7.5,8.8c3.9,1,6,2,6-3
		c-0.9-5.3-7.3-21.4-9.4-29.1c-0.2-0.8-1.3-0.9-1.7-0.2c-0.8,1.5-1.6,3.5-2.6,5.3c0,0-1.2,3.2-1.8,2.6c-0.6,0.6-1.8-2.6-1.8-2.6
		c-1-1.8-1.9-3.8-2.6-5.3c-0.4-0.7-1.5-0.6-1.7,0.2c-2.1,7.7-8.5,23.9-9.4,29.1C274,633,276.1,632,280,631z"/>
	<path d="M556,589c-11.8,7-14.5,0.5-12-14c15.7-17.9,25.6-37.2,26-59c-13.5-29.3,0-77,0-86s-8.6-20.5-18-29c7.8,15.6,9,27,0,37
		c-17.2,3.9-24.7,50-19.7,60.9c0.7,1.5,0.2,3.3-1.2,4.2c-14.9,9.2-27.9-4-19.1-28.1c10.4-17.5,17.9-34.6,18-51
		c-3.1-17.1-6.2-34.1-11-44c-4.8-24.4,7.1-48,27-58c-43.5,7.3-54,33-61,60c-7.4,30.3-31,13-30-4c15-54,21.3-68.2-14-96
		c-11.3-10.6-6.6-28.9,14-55c-24.4,9.6-39,21-46,49c5,36,5.9,55.8-4,64c8.5-34.2-0.4-57.9-32-68c-31-14,0-62,0-118
		c-3.2-19.2-12-32-25-45c-16.6-20.4-19.2-47.2-2-83c-24.5,13.7-40,46-38,67s31,85-10,88c-29,0-19.7-48.8-12-87
		c3.6-18-22.2-42.6-32-64c-5.7-12.4,3.7-26.9,2-30c-9.4,8-14.9,21.9-14,38c6.8,24.4,13.4,45.2,13,60c-4.5,32-36,87-40,98
		c-23,48,42,98-22,109c-9,0-7-16-9-23c-5-19-37-28-41-54s19-26,19-54c0-33-30-37-30-37c37,38-16,52-32,95c-2.7-0.8-3,35,14,54
		c12,16,25,44-20,65c0,0-29,13-32,38c-7,38,26,98,6,105c-26,3-6-20-13-34c-15-23-11-49-11-49c-23,18-11,61-14,65s-30,23-8,108
		c10,27,34,43,22,52c-13,9-16-21-16-21c-3-15-14-22.2-28-23c11,9,8,27,10,60c4.3,27.2,44.3,54.5,120,82c14.7,14.8,16.1,29,8,36
		c-12.5,7.9-17.8-11.3-24-36c-17,41,4.1,71.6,23,86c0,0,50,19,61,32s9,18,14,21c12.8,4.9,24,10,24,17s-7,8.8-25,2
		c12.1,31.9,48,17.3,56,10c3.7-3.4,18.7,12.2,25.5,23.4c0.7,1.2,2.5,1.2,3.2,0C303,912.3,312,894,322,895c11,6,18.9,9,24,9
		c7.3,0,13.2-7.5,12-8c2.4-6.5,14.8-16.7,23-16c-1.5-6.8-25.5-4.9-33-1c-5.5,2.9,12-25,18-17c2.1-8.6,4.2-15.9,7-17
		c36,12,88-5,90-39c6-25-21-24-20-40c3-9,26.6-11.3,44-7c16.3-0.6,28.9-3.4,35-10c10-20,22-44,46-48c3.5-1.8,8-8,2-13
		c-2,13-17,2-31,7c-13,8-14,25-32,23c-13.8-6-12.4-15.6,6-29c18.7-4.8,33.3-14.3,45-27c0,0,12-15,17-29c9-26-3-93,21-102
		C575.4,525.6,563.5,557.8,556,589z M480,473c-8.4,52.2-28.5,78.3-72,89c-9,3.7-7.9,16.6,0,36c21.6,21.6,43,44,41,65
		c-10.2-12.4-37.2-17.6-46-15c-5,3-7,15-25,12c-19.1,7.1-15.9,67.4-13,81c1.7,7.9-13.6,15.8-12,23c1.5,7,3,14,5,19
		c1.8,3.8-3.5,8.3-2,11c3.8,6.8,13.4,35.3,0,45c-2,1.4-6.4-20-20-24c-8.7-2.5-13.7,4-29,3c-7-3-26-4-35,0c-15.3,1-20.3-5.5-29-3
		c-13.6,4-18,25.4-20,24c-13.4-9.7-3.8-38.2,0-45c1.5-2.7-3.8-7.2-2-11c2-5,3.5-12,5-19c1.6-7.2-13.7-15.1-12-23
		c2.9-13.6,6.1-73.9-13-81c-18,3-20-9-25-12c-8.8-2.6-35.8,2.6-46,15c-2-21,19.4-43.4,41-65c7.9-19.4,9-32.3,0-36
		c-43.5-10.7-63.6-36.8-72-89c-1.1-41,27.8-68.5,74-88c16.3-6.9,35-10,43-32c1-16-3.8-17.9-18-31c17.2-2.1,29.8,5.9,35,30
		c-9,44-49,39-56,83c2,30,38,40,65,19c0.7-13,7-24.1,18-30c0.2,9.7,6,21,11,22c1,1,10-3,18-3h1c8,0,17,4,18,3c5-1,10.8-12.3,11-22
		c11,5.9,17.3,17,18,30c27,21,63,11,65-19c-7-44-47-39-56-83c5.2-24.1,17.8-32.1,35-30c-14.2,13.1-19,15-18,31c8,22,26.7,25.1,43,32
		C452.1,404.5,481,432,480,473z"/>
	<path d="M358,551c-13,1.6-27.8,14.8-43,31c1.2,6.8,2.6,13.4,10,15c18.5,1.5,37.4,3.2,46,0c9.7-1.1,10.2-11.2,10-22
		C374,569,366.9,562.5,358,551z"/>
</g>
</svg>
