<?xml version="1.0" encoding="utf-8"?>
<!-- Generator: Adobe Illustrator 22.0.1, SVG Export Plug-In . SVG Version: 6.00 Build 0)  -->
<svg version="1.1" id="Layer_3" xmlns="http://www.w3.org/2000/svg" xmlns:xlink="http://www.w3.org/1999/xlink" x="0px" y="0px"
	 viewBox="0 0 872 872" style="enable-background:new 0 0 872 872;" xml:space="preserve">
<path d="M796.6,481.4c25.5-10.8,75.4-34.9,75.4-34.9l-74.3-27.6c-1.8-27.5-6.7-54.2-14.3-79.7c18.6-19.2,57.3-63.7,57.3-63.7
	l-80.9,4.1c-11.6-23.1-25.5-44.8-41.5-64.8c9.5-22.3,31.2-84,31.2-84l-77.7,35.7c-19.1-16.5-39.9-31.1-62.1-43.4
	c0.7-25.6-1.4-87.7-1.4-87.7l-59.2,61c-25.7-8.6-52.7-14.5-80.6-17.2C458.6,55.4,432,0,432,0l-29.2,78.7c-27.9,2.2-55,7.6-80.8,15.8
	c-20-19.2-61.8-55.5-61.8-55.5l4,79.4c-27.2,14.1-52.3,31.5-75,51.6c-27.2-10.4-65.9-24-65.9-24l28.6,62.4
	c-17,20.3-31.9,42.4-44.2,66.1c-28.9-0.1-77.7,1.5-77.7,1.5l54.7,53.1C75,358.7,69,389.9,67.1,422.2C40.4,434,0,453.5,0,453.5
	l68.2,25.3c3.1,32.8,10.6,64.3,21.8,94c-19.8,21.4-47.7,53.4-47.7,53.4l70.9-3.6c13.4,23.9,29.4,46.1,47.7,66.3
	c-10.3,27-23.1,63.6-23.1,63.6l60.4-27.7c19.4,16.2,40.6,30.4,63.1,42.4c0.2,29,1.5,69.1,1.5,69.1l46.5-47.9
	c31.6,11.3,65.2,18.4,100.2,20.5C421.4,835.3,439,872,439,872l23.6-63.7c32.4-2.6,63.7-9.5,93.2-20.1c21.4,19.8,55.1,49.2,55.1,49.2
	l-3.7-72.2c19.9-10.8,38.7-23.4,56.1-37.6c24,10,81.6,30.1,81.6,30.1L710.1,682c15.6-18.2,29.5-37.9,41.4-59
	c28.7,0.2,79.2-1.5,79.2-1.5l-54.2-52.6C786.6,541.1,793.4,511.8,796.6,481.4z M605.2,732L566,620l-41.1,97.7c-1.3,3.2-5.9,3-7-0.3
	L500,662l-22.3,59.2c-1.1,2.9-5.4,2.7-6.1-0.4L458,662l-20.8,54.6c-1,2.5-4.5,2.5-5.5,0L411,662l-13.6,58.8c-0.7,3.1-5,3.3-6.1,0.4
	L369,662l-17.9,55.4c-1.1,3.3-5.7,3.5-7,0.3L303,620l-39.4,112.5C165.1,674.1,99,566.8,99,444c0-80.9,28.7-155.1,76.4-212.9l3.6,1.9
	c0,0,55,144,58,127c2.6-14.7,50.7-137.6,63.8-170.8c1-2.6,4.7-2.3,5.4,0.3c6.2,24.2,24.3,90.8,30.8,78.5c6.7-12.6,25.4-65.3,31.2-82
	c0.6-1.7,3-1.7,3.7,0c7.1,18.9,32.1,84.6,32.1,82c0-1.8,17.3-52.6,31.3-93.5c0.7-2.1,3.7-2.1,4.4,0c14,41,31.3,91.8,31.3,93.5
	c0,2.5,24.5-62,31.9-81.5c0.7-1.9,3.3-1.8,4,0c6,17.1,24.4,69,31.1,81.5c6.5,12.2,24.2-52.8,30.6-77.7c0.8-2.9,4.8-3.2,5.9-0.4
	c13.5,34.2,60.9,155.4,63.5,170c2.8,16,51.5-110.1,57.4-125.5c46,57.4,73.6,130.2,73.6,209.5C769,566.4,703.3,673.5,605.2,732z"/>
</svg>
