<?xml version="1.0" encoding="utf-8"?>
<!-- Generator: Adobe Illustrator 22.1.0, SVG Export Plug-In . SVG Version: 6.00 Build 0)  -->
<svg version="1.2" baseProfile="tiny" id="图层_1"
	 xmlns="http://www.w3.org/2000/svg" xmlns:xlink="http://www.w3.org/1999/xlink" x="0px" y="0px" viewBox="0 0 500 500"
	 xml:space="preserve">
<path d="M250,0C111.9,0,0,111.9,0,250s111.9,250,250,250s250-111.9,250-250S388.1,0,250,0z M250,485C120.2,485,15,379.8,15,250
	S120.2,15,250,15s235,105.2,235,235S379.8,485,250,485z"/>
<circle cx="250" cy="120" r="70"/>
<g>
	<path d="M448.4,225C439.1,149.8,388,87.5,319,62.2c13.1,15.6,21,35.8,21,57.8c0,49.7-40.3,90-90,90s-90-40.3-90-90
		c0-22,7.9-42.1,21-57.8C112,87.5,60.9,149.8,51.6,225H448.4z"/>
	<path d="M64.5,325c5.8,14.2,13.1,27.6,21.8,40h327.3c8.7-12.4,16-25.8,21.8-40H64.5z"/>
	<path d="M112.2,395c35.9,34.1,84.4,55,137.8,55s101.9-20.9,137.8-55H112.2z"/>
	<path d="M50.1,255c0.3,13.7,2.1,27.1,5,40h389.8c3-12.9,4.7-26.3,5-40H50.1z"/>
</g>
</svg>
