<?xml version="1.0" encoding="utf-8"?>
<!-- Generator: Adobe Illustrator 22.1.0, SVG Export Plug-In . SVG Version: 6.00 Build 0)  -->
<svg version="1.1" id="图层_1" xmlns="http://www.w3.org/2000/svg" xmlns:xlink="http://www.w3.org/1999/xlink" x="0px" y="0px"
	 viewBox="0 0 500 500" style="enable-background:new 0 0 500 500;" xml:space="preserve">
<g>
	<path d="M250,0C111.9,0,0,111.9,0,250s111.9,250,250,250s250-111.9,250-250S388.1,0,250,0z M250,485C120.2,485,15,379.8,15,250
		S120.2,15,250,15s235,105.2,235,235S379.8,485,250,485z"/>
	<circle cx="250" cy="120" r="70"/>
	<path d="M420,265v-30h29.4C443.5,155.4,391,88.7,319,62.2c13.1,15.6,21,35.8,21,57.8c0,49.7-40.3,90-90,90s-90-40.3-90-90
		c0-22,7.9-42.1,21-57.8C109,88.7,56.5,155.4,50.6,235H80v30H50.6c7.2,96.6,82.9,174.1,178.7,183.9c-2.7-4-4.2-8.8-4.2-13.9
		c0-13.8,11.2-25,25-25s25,11.2,25,25c0,5.2-1.6,10-4.2,13.9c95.8-9.9,171.5-87.3,178.7-183.9H420z"/>
</g>
</svg>
