<?xml version="1.0" encoding="utf-8"?>
<!-- Generator: Adobe Illustrator 22.1.0, SVG Export Plug-In . SVG Version: 6.00 Build 0)  -->
<svg version="1.2" baseProfile="tiny" id="图层_1"
	 xmlns="http://www.w3.org/2000/svg" xmlns:xlink="http://www.w3.org/1999/xlink" x="0px" y="0px" viewBox="0 0 500 500"
	 xml:space="preserve">
<g>
	<ellipse fill="#8A0000" cx="250" cy="110.9" rx="83.9" ry="85.9"/>
	<g>
		<path d="M250,0C111.9,0,0,111.9,0,250s111.9,250,250,250s250-111.9,250-250S388.1,0,250,0z M250,485C120.2,485,15,379.8,15,250
			S120.2,15,250,15s235,105.2,235,235S379.8,485,250,485z"/>
		<path d="M322.4,48.8c13.7,16.7,22,38.4,22,62c0,53.3-42.3,96.6-94.4,96.6s-94.4-43.2-94.4-96.6c0-23.6,8.3-45.2,22-62
			C104.3,76.4,50.3,144.6,41.5,226.8h417C449.7,144.6,395.7,76.4,322.4,48.8z"/>
		<path d="M292,252.5h-73.4c0,0.2,0,0.3,0,0.5c0,72.9-19.3,140.2-51.8,194.4c25.5,11.3,53.7,17.6,83.3,17.6
			c32.8,0,63.8-7.7,91.5-21.4C310.3,390,291.9,324.1,291.9,253C291.9,252.8,292,252.7,292,252.5z"/>
	</g>
</g>
</svg>
