<?xml version="1.0" encoding="utf-8"?>
<!-- Generator: Adobe Illustrator 22.1.0, SVG Export Plug-In . SVG Version: 6.00 Build 0)  -->
<svg version="1.1" id="图层_1" xmlns="http://www.w3.org/2000/svg" xmlns:xlink="http://www.w3.org/1999/xlink" x="0px" y="0px"
	 viewBox="0 0 500 500" style="enable-background:new 0 0 500 500;" xml:space="preserve">
<path d="M250,0C111.9,0,0,111.9,0,250s111.9,250,250,250s250-111.9,250-250S388.1,0,250,0z M250,485C120.2,485,15,379.8,15,250
	S120.2,15,250,15s235,105.2,235,235S379.8,485,250,485z"/>
<circle cx="250" cy="120" r="70"/>
<path d="M130,320c27.6,0,50,22.4,50,50c0,23.4-16.1,43.1-37.8,48.5c19.5,12.5,41.4,21.7,64.7,26.8c-4.4-7.4-6.9-16.1-6.9-25.3
	c0-27.6,22.4-50,50-50c27.6,0,50,22.4,50,50c0,9.2-2.5,17.9-6.9,25.3c23.4-5.1,45.2-14.3,64.7-26.8c-21.7-5.4-37.8-25.1-37.8-48.5
	c0-27.6,22.4-50,50-50c23.4,0,43.1,16.1,48.5,37.8C438.4,326.7,450,289.7,450,250c0-86.2-54.5-159.7-131-187.8
	c13.1,15.6,21,35.8,21,57.8c0,49.7-40.3,90-90,90s-90-40.3-90-90c0-22,7.9-42.1,21-57.8C104.5,90.3,50,163.8,50,250
	c0,39.7,11.6,76.7,31.5,107.8C86.9,336.1,106.6,320,130,320z"/>
</svg>
