<?xml version="1.0" encoding="utf-8"?>
<!-- Generator: Adobe Illustrator 22.1.0, SVG Export Plug-In . SVG Version: 6.00 Build 0)  -->
<svg version="1.1" id="图层_1" xmlns="http://www.w3.org/2000/svg" xmlns:xlink="http://www.w3.org/1999/xlink" x="0px" y="0px"
	 viewBox="0 0 500 500" style="enable-background:new 0 0 500 500;" xml:space="preserve">
<g>
	<path d="M250,0C111.9,0,0,111.9,0,250s111.9,250,250,250s250-111.9,250-250S388.1,0,250,0z M250,485C120.2,485,15,379.8,15,250
		S120.2,15,250,15s235,105.2,235,235S379.8,485,250,485z"/>
	<ellipse transform="matrix(0.7071 -0.7071 0.7071 0.7071 -42.983 171.0632)" cx="185" cy="137.4" rx="70" ry="70"/>
	<path d="M448.8,227.6l-33.2,19.2l-25-43.3l-251.1,145l25,43.3L131.2,411c12.5,9.2,26,16.9,40.2,23l277.2-160
		C450.4,258.6,450.5,243.1,448.8,227.6z"/>
	<path d="M215.9,52.9c19.1,7,36.1,20.5,47.1,39.6c24.9,43,10.1,98.1-32.9,122.9c-43,24.8-98.1,10.1-122.9-32.9
		c-11-19.1-14.2-40.4-10.7-60.6C44.1,184.4,33.7,275.3,76.8,350l346.4-200C380.1,75.3,296.2,38.9,215.9,52.9z"/>
	<path d="M350,423.2c39-22.5,67.6-56.2,84-94.7L226,448.6C267.5,453.6,311,445.7,350,423.2z"/>
</g>
</svg>
