<?xml version="1.0" encoding="utf-8"?>
<!-- Generator: Adobe Illustrator 22.1.0, SVG Export Plug-In . SVG Version: 6.00 Build 0)  -->
<svg version="1.1" id="图层_1" xmlns="http://www.w3.org/2000/svg" xmlns:xlink="http://www.w3.org/1999/xlink" x="0px" y="0px"
	 viewBox="0 0 500 500" style="enable-background:new 0 0 500 500;" xml:space="preserve">
<circle cx="250" cy="120" r="70"/>
<g>
	<path d="M250,0C111.9,0,0,111.9,0,250s111.9,250,250,250s250-111.9,250-250S388.1,0,250,0z M250,485C120.2,485,15,379.8,15,250
		S120.2,15,250,15s235,105.2,235,235S379.8,485,250,485z"/>
	<path d="M107.4,255h100.1c6.2-17.5,22.8-30,42.4-30c19.6,0,36.3,12.5,42.4,30h100.1c6.2-17.5,22.8-30,42.4-30
		c4.8,0,9.4,0.8,13.7,2.1C440,151,388.6,87.8,319,62.2c13.1,15.6,21,35.8,21,57.8c0,49.7-40.3,90-90,90s-90-40.3-90-90
		c0-22,7.9-42.1,21-57.8C111.4,87.8,60,151,51.3,227.1c4.3-1.3,8.9-2.1,13.7-2.1C84.6,225,101.3,237.5,107.4,255z"/>
	<path d="M392.6,285H292.4c-6.2,17.5-22.8,30-42.4,30c-19.6,0-36.3-12.5-42.4-30H107.4c-6.2,17.5-22.8,30-42.4,30
		c-1.4,0-2.9-0.1-4.3-0.2C87.6,393.5,162.2,450,250,450s162.4-56.5,189.3-135.2c-1.4,0.1-2.9,0.2-4.3,0.2
		C415.4,315,398.7,302.5,392.6,285z"/>
</g>
</svg>
