<?xml version="1.0" encoding="utf-8"?>
<!-- Generator: Adobe Illustrator 22.1.0, SVG Export Plug-In . SVG Version: 6.00 Build 0)  -->
<svg version="1.1" id="图层_1" xmlns="http://www.w3.org/2000/svg" xmlns:xlink="http://www.w3.org/1999/xlink" x="0px" y="0px"
	 viewBox="0 0 500 500" style="enable-background:new 0 0 500 500;" xml:space="preserve">
<g>
	<path d="M250,0C111.9,0,0,111.9,0,250s111.9,250,250,250s250-111.9,250-250S388.1,0,250,0z M250,485C120.2,485,15,379.8,15,250
		S120.2,15,250,15s235,105.2,235,235S379.8,485,250,485z"/>
	<circle cx="314.8" cy="137.4" r="70"/>
	<path d="M259.6,273l-92,159.3c22.9,10.3,46.9,16,70.8,17.4L320.2,308L259.6,273z"/>
	<path d="M164.3,217.9L82.5,359.7c13.1,20.1,30.1,38,50.4,52.6l92-159.4L164.3,217.9z"/>
	<path d="M403.4,121.8c3.5,20.1,0.3,41.5-10.7,60.6c-24.9,43-79.9,57.8-122.9,32.9s-57.8-79.9-33-122.9c11-19.1,27.9-32.5,47.1-39.6
		c-75.6-13.1-154.4,18.4-199.4,84.4L430,336.7C464.7,264.7,452.6,180.7,403.4,121.8z"/>
	<path d="M69.6,163.2C45.7,212.7,44,267.8,61.2,316.6l68.5-118.7L69.6,163.2z"/>
	<path d="M286.3,446.6c50.8-9.5,97.7-38.5,128.6-83.9l-60.1-34.8L286.3,446.6z"/>
</g>
</svg>
