<?xml version="1.0" encoding="utf-8"?>
<!-- Generator: Adobe Illustrator 22.1.0, SVG Export Plug-In . SVG Version: 6.00 Build 0)  -->
<svg version="1.1" id="图层_1" xmlns="http://www.w3.org/2000/svg" xmlns:xlink="http://www.w3.org/1999/xlink" x="0px" y="0px"
	 viewBox="0 0 500 500" style="enable-background:new 0 0 500 500;" xml:space="preserve">
<g>
	<path d="M389.2,97.9c-1.7-4.6-6.1-7.9-11.2-7.9h-0.9H342H122.9c-7.1,0-12.9,5.3-12.9,11.8v74.6c0,6.5,5.8,11.8,12.9,11.8H330v123.7
		H122.9c-7.1,0-12.9,5.3-12.9,11.8v74.6c0,6.5,5.8,11.8,12.9,11.8H342h35.1h0.9c5.1,0,9.5-3.3,11.2-7.9c0.5-1.2,0.8-2.5,0.8-3.9V398
		v-74.4V176.4V102v-0.2C390,100.4,389.7,99.1,389.2,97.9z"/>
</g>
</svg>
