<?xml version="1.0" encoding="utf-8"?>
<!-- Generator: Adobe Illustrator 22.1.0, SVG Export Plug-In . SVG Version: 6.00 Build 0)  -->
<svg version="1.1" id="图层_1" xmlns="http://www.w3.org/2000/svg" xmlns:xlink="http://www.w3.org/1999/xlink" x="0px" y="0px"
	 viewBox="0 0 500 500" style="enable-background:new 0 0 500 500;" xml:space="preserve">
<path d="M352.8,130c20.5,0,37.2-1.1,37.2-2.4V52.4c0-1.3-16.7-2.4-37.2-2.4H117.2C96.7,50,80,51.1,80,52.4v19.3v55.9v74.8v75.2
	v160.7c0,6.4,3.2,11.7,7.2,11.7h45.6c4,0,7.2-5.3,7.2-11.7V280h100v163.1c0,3.8,8.1,6.9,18,6.9h114c9.9,0,18-3.1,18-6.9V277.6v-50.7
	v-24.5c0-1.3-16.7-2.4-37.2-2.4H140v-70H352.8z"/>
</svg>
