<?xml version="1.0" encoding="utf-8"?>
<!-- Generator: Adobe Illustrator 22.1.0, SVG Export Plug-In . SVG Version: 6.00 Build 0)  -->
<svg version="1.1" id="图层_1" xmlns="http://www.w3.org/2000/svg" xmlns:xlink="http://www.w3.org/1999/xlink" x="0px" y="0px"
	 viewBox="0 0 500 500" style="enable-background:new 0 0 500 500;" xml:space="preserve">
<path d="M377.5,82h-25h-250c-2.8,0-5,2.2-5,5v70c0,2.8,2.2,5,5,5h245c2.8,0,5,2.2,5,5v38c0,2.8-2.2,5-5,5h-245c-2.8,0-5,2.2-5,5v40
	c0,2.8,2.2,5,5,5h245c2.8,0,5,2.2,5,5v148c0,2.8,2.2,5,5,5h40c2.8,0,5-2.2,5-5V87c0-2.8-2.2-5-5-5H377.5z"/>
</svg>
