<?xml version="1.0" encoding="utf-8"?>
<!-- Generator: Adobe Illustrator 22.1.0, SVG Export Plug-In . SVG Version: 6.00 Build 0)  -->
<svg version="1.1" id="图层_1" xmlns="http://www.w3.org/2000/svg" xmlns:xlink="http://www.w3.org/1999/xlink" x="0px" y="0px"
	 viewBox="0 0 500 500" style="enable-background:new 0 0 500 500;" xml:space="preserve">
<g>
	<path d="M250,0C111.9,0,0,111.9,0,250s111.9,250,250,250s250-111.9,250-250S388.1,0,250,0z M250,485C120.2,485,15,379.8,15,250
		S120.2,15,250,15s235,105.2,235,235S379.8,485,250,485z"/>
	<circle cx="185.1" cy="137.4" r="70"/>
	<path d="M423.3,150C380.2,75.3,296.3,38.9,216,52.8c19.1,7,36.1,20.5,47.1,39.6c24.9,43,10.1,98.1-32.9,122.9
		s-98.1,10.1-122.9-32.9c-11-19.1-14.2-40.4-10.7-60.6C44.3,184.4,33.8,275.3,76.9,350c52.7,91.3,166.5,125.3,259.9,80.2l-14.7-25.5
		l26-15l14.7,25.5C448.6,356.8,476,241.3,423.3,150z"/>
</g>
</svg>
