<?xml version="1.0" encoding="utf-8"?>
<!-- Generator: Adobe Illustrator 22.1.0, SVG Export Plug-In . SVG Version: 6.00 Build 0)  -->
<svg version="1.1" id="图层_1" xmlns="http://www.w3.org/2000/svg" xmlns:xlink="http://www.w3.org/1999/xlink" x="0px" y="0px"
	 viewBox="0 0 500 500" style="enable-background:new 0 0 500 500;" xml:space="preserve">
<g>
	<path d="M250,0C111.9,0,0,111.9,0,250s111.9,250,250,250s250-111.9,250-250S388.1,0,250,0z M250,485C120.2,485,15,379.8,15,250
		S120.2,15,250,15s235,105.2,235,235S379.8,485,250,485z"/>
	<circle cx="250" cy="120" r="70"/>
	<path d="M92.5,217.5h55V240h205v-22.5h55V240h42.2c-4-81.8-57.2-150.8-130.7-177.8c13.1,15.6,21,35.8,21,57.8c0,49.7-40.3,90-90,90
		s-90-40.3-90-90c0-22,7.9-42.1,21-57.8c-73.5,27-126.7,96-130.7,177.8h42.2V217.5z"/>
	<path d="M250,450c100.3,0,183.3-73.7,197.8-170H52.2C66.7,376.3,149.7,450,250,450z"/>
</g>
</svg>
