<?xml version="1.0" encoding="utf-8"?>
<!-- Generator: Adobe Illustrator 22.1.0, SVG Export Plug-In . SVG Version: 6.00 Build 0)  -->
<svg version="1.1" id="图层_1" xmlns="http://www.w3.org/2000/svg" xmlns:xlink="http://www.w3.org/1999/xlink" x="0px" y="0px"
	 viewBox="0 0 500 500" style="enable-background:new 0 0 500 500;" xml:space="preserve">
<g>
	<path d="M250,0C111.9,0,0,111.9,0,250s111.9,250,250,250s250-111.9,250-250S388.1,0,250,0z M250,485C120.2,485,15,379.8,15,250
		S120.2,15,250,15s235,105.2,235,235S379.8,485,250,485z"/>
	<circle cx="250" cy="120" r="70"/>
	<path d="M363.6,85.3c-18,25.3-28.6,56.3-28.6,89.7c0,67,42.6,124.1,102.1,145.7c8.3-22,12.9-45.8,12.9-70.7
		C450,181.7,415.8,121.4,363.6,85.3z"/>
	<path d="M342.1,72.4c-7.4-3.9-15.1-7.3-23.1-10.2c6,7.1,10.9,15.2,14.4,24C336.1,81.4,339,76.9,342.1,72.4z"/>
	<path d="M181,62.2c-8,2.9-15.7,6.3-23.1,10.2c3.1,4.5,6,9.1,8.7,13.8C170.1,77.4,175,69.4,181,62.2z"/>
	<path d="M310.4,186.7c-16,14.5-37.2,23.3-60.4,23.3c-23.2,0-44.4-8.8-60.4-23.3c-4.6,72.1-51.7,132.6-116.4,156.9
		C106.8,406.9,173.3,450,250,450s143.2-43.1,176.8-106.4C362.1,319.3,315,258.8,310.4,186.7z"/>
	<path d="M165,175c0-33.4-10.6-64.4-28.6-89.7C84.2,121.4,50,181.7,50,250c0,24.9,4.6,48.7,12.9,70.7C122.4,299.1,165,242,165,175z"
		/>
</g>
</svg>
