<?xml version="1.0" encoding="utf-8"?>
<!-- Generator: Adobe Illustrator 22.1.0, SVG Export Plug-In . SVG Version: 6.00 Build 0)  -->
<svg version="1.2" baseProfile="tiny" id="图层_1"
	 xmlns="http://www.w3.org/2000/svg" xmlns:xlink="http://www.w3.org/1999/xlink" x="0px" y="0px" viewBox="0 0 500 500"
	 xml:space="preserve">
<g>
	<path d="M375,33.5C255.4-35.5,102.5,5.4,33.5,125S5.4,397.5,125,466.5s272.5,28.1,341.5-91.5S494.6,102.5,375,33.5z M132.5,453.5
		c-112.4-64.9-150.9-208.6-86-321s208.6-150.9,321-86s150.9,208.6,86,321C388.6,479.9,244.9,518.4,132.5,453.5z"/>
	<circle cx="315" cy="137.4" r="70"/>
	<circle cx="185" cy="362.6" r="70"/>
	<path d="M221.1,280.1l40.6-70.2c-36.5-26.8-47.7-77.3-24.6-117.5c11-19,27.9-32.5,47.1-39.5C203.9,39,119.9,75.3,76.8,150
		S44.2,315.5,96.4,378.1c-3.5-20.1-0.3-41.5,10.7-60.5C130.2,277.5,179.6,261.9,221.1,280.1z"/>
	<path d="M403.6,121.9c3.5,20.1,0.3,41.5-10.7,60.5c-23.2,40.1-72.5,55.7-114,37.5l-40.6,70.2c36.5,26.8,47.7,77.3,24.6,117.5
		c-11,19-27.9,32.5-47.1,39.5c80.3,13.9,164.2-22.5,207.3-97.1S455.8,184.5,403.6,121.9z"/>
</g>
</svg>
