<?xml version="1.0" encoding="utf-8"?>
<!-- Generator: Adobe Illustrator 22.1.0, SVG Export Plug-In . SVG Version: 6.00 Build 0)  -->
<svg version="1.1" id="图层_1" xmlns="http://www.w3.org/2000/svg" xmlns:xlink="http://www.w3.org/1999/xlink" x="0px" y="0px"
	 viewBox="0 0 500 500" style="enable-background:new 0 0 500 500;" xml:space="preserve">
<path d="M250,0C111.9,0,0,111.9,0,250s111.9,250,250,250s250-111.9,250-250S388.1,0,250,0z M250,485C120.2,485,15,379.8,15,250
	S120.2,15,250,15s235,105.2,235,235S379.8,485,250,485z"/>
<g>
	<circle cx="250" cy="250" r="125"/>
	<path d="M415,275v-50h33.4C436.1,126.3,352,50,250,50C148,50,63.9,126.3,51.6,225H85v50H51.6C63.9,373.7,148,450,250,450
		c102,0,186.1-76.3,198.4-175H415z M250,400c-82.8,0-150-67.2-150-150s67.2-150,150-150c82.8,0,150,67.2,150,150S332.8,400,250,400z
		"/>
</g>
</svg>
